M48
; DRILL file {KiCad (5.1.9)-1} date 04/27/21 12:52:42
; FORMAT={-:-/ absolute / inch / decimal}
; #@! TF.CreationDate,2021-04-27T12:52:42+02:00
; #@! TF.GenerationSoftware,Kicad,Pcbnew,(5.1.9)-1
FMAT,2
INCH
T1C0.0157
T2C0.0197
T3C0.0276
T4C0.0512
%
G90
G05
T1
X3.122Y-2.0039
X3.122Y-2.0512
X3.122Y-2.1024
X3.122Y-2.1575
X3.122Y-2.2126
X3.122Y-2.2677
X3.122Y-2.3228
X3.122Y-2.3819
X3.122Y-2.437
X3.122Y-2.4882
X3.122Y-2.5433
X3.122Y-2.5984
X3.122Y-2.6535
X3.122Y-2.7047
X3.122Y-2.752
X3.122Y-2.8031
X3.122Y-2.8543
X3.122Y-2.9016
X3.122Y-2.9488
X3.122Y-3.0
X3.122Y-3.0512
X3.122Y-3.1063
X3.122Y-3.1575
X3.122Y-3.2047
X3.122Y-3.252
X3.122Y-3.2992
X3.122Y-3.3465
X3.122Y-3.3937
X3.122Y-3.4449
X3.122Y-3.4961
X3.122Y-3.5433
X3.122Y-3.5906
X3.122Y-3.6378
X3.263Y-2.2305
X3.3141Y-2.8384
X3.3165Y-2.3309
X3.6141Y-2.7621
X3.6201Y-2.4809
X3.6594Y-2.4433
X3.692Y-2.4527
X3.7262Y-2.503
X3.75Y-1.7293
X3.75Y-2.1
X3.9Y-3.45
X4.0306Y-2.3413
X4.15Y-3.45
X4.1842Y-1.9178
X4.2222Y-1.8903
X4.4574Y-2.0539
X4.5195Y-2.5978
X4.6037Y-2.4993
X4.6126Y-2.6192
X4.6357Y-2.3051
X4.6441Y-2.5016
X4.696Y-2.332
X4.7453Y-2.0539
T3
X3.9372Y-3.513
X4.1281Y-3.513
T4
X4.8386Y-1.4094
X4.8386Y-1.6063
T2
G00X3.8909Y-3.6073
M15
G01X3.8909Y-3.6384
M16
G05
G00X4.1744Y-3.6073
M15
G01X4.1744Y-3.6384
M16
G05
T0
M30
