G04 #@! TF.FileFunction,Legend,Top*
%FSLAX46Y46*%
G04 Gerber Fmt 4.6, Leading zero omitted, Abs format (unit mm)*
G04 Created by KiCad (PCBNEW 4.0.7) date 03/22/18 13:14:38*
%MOMM*%
%LPD*%
G01*
G04 APERTURE LIST*
%ADD10C,0.100000*%
%ADD11C,0.300000*%
%ADD12C,0.500000*%
%ADD13C,0.150000*%
%ADD14C,0.120000*%
%ADD15C,0.010000*%
%ADD16C,0.250000*%
G04 APERTURE END LIST*
D10*
D11*
X83107144Y-83578571D02*
X82607144Y-82864286D01*
X82250001Y-83578571D02*
X82250001Y-82078571D01*
X82821429Y-82078571D01*
X82964287Y-82150000D01*
X83035715Y-82221429D01*
X83107144Y-82364286D01*
X83107144Y-82578571D01*
X83035715Y-82721429D01*
X82964287Y-82792857D01*
X82821429Y-82864286D01*
X82250001Y-82864286D01*
X84321429Y-83507143D02*
X84178572Y-83578571D01*
X83892858Y-83578571D01*
X83750001Y-83507143D01*
X83678572Y-83364286D01*
X83678572Y-82792857D01*
X83750001Y-82650000D01*
X83892858Y-82578571D01*
X84178572Y-82578571D01*
X84321429Y-82650000D01*
X84392858Y-82792857D01*
X84392858Y-82935714D01*
X83678572Y-83078571D01*
X84892858Y-82578571D02*
X85250001Y-83578571D01*
X85607143Y-82578571D01*
X86178572Y-83435714D02*
X86250000Y-83507143D01*
X86178572Y-83578571D01*
X86107143Y-83507143D01*
X86178572Y-83435714D01*
X86178572Y-83578571D01*
X88821429Y-83578571D02*
X87964286Y-83578571D01*
X88392858Y-83578571D02*
X88392858Y-82078571D01*
X88250001Y-82292857D01*
X88107143Y-82435714D01*
X87964286Y-82507143D01*
X81178571Y-48657142D02*
X79678571Y-48657142D01*
X80750000Y-48157142D01*
X79678571Y-47657142D01*
X81178571Y-47657142D01*
X81107143Y-46371428D02*
X81178571Y-46514285D01*
X81178571Y-46799999D01*
X81107143Y-46942856D01*
X80964286Y-47014285D01*
X80392857Y-47014285D01*
X80250000Y-46942856D01*
X80178571Y-46799999D01*
X80178571Y-46514285D01*
X80250000Y-46371428D01*
X80392857Y-46299999D01*
X80535714Y-46299999D01*
X80678571Y-47014285D01*
X80178571Y-45871428D02*
X80178571Y-45299999D01*
X79678571Y-45657142D02*
X80964286Y-45657142D01*
X81107143Y-45585714D01*
X81178571Y-45442856D01*
X81178571Y-45299999D01*
X81107143Y-44228571D02*
X81178571Y-44371428D01*
X81178571Y-44657142D01*
X81107143Y-44799999D01*
X80964286Y-44871428D01*
X80392857Y-44871428D01*
X80250000Y-44799999D01*
X80178571Y-44657142D01*
X80178571Y-44371428D01*
X80250000Y-44228571D01*
X80392857Y-44157142D01*
X80535714Y-44157142D01*
X80678571Y-44871428D01*
X81178571Y-43514285D02*
X80178571Y-43514285D01*
X80464286Y-43514285D02*
X80321429Y-43442857D01*
X80250000Y-43371428D01*
X80178571Y-43228571D01*
X80178571Y-43085714D01*
X80392857Y-42085714D02*
X80464286Y-41871428D01*
X80535714Y-41800000D01*
X80678571Y-41728571D01*
X80892857Y-41728571D01*
X81035714Y-41800000D01*
X81107143Y-41871428D01*
X81178571Y-42014286D01*
X81178571Y-42585714D01*
X79678571Y-42585714D01*
X79678571Y-42085714D01*
X79750000Y-41942857D01*
X79821429Y-41871428D01*
X79964286Y-41800000D01*
X80107143Y-41800000D01*
X80250000Y-41871428D01*
X80321429Y-41942857D01*
X80392857Y-42085714D01*
X80392857Y-42585714D01*
X81178571Y-40871428D02*
X81107143Y-41014286D01*
X81035714Y-41085714D01*
X80892857Y-41157143D01*
X80464286Y-41157143D01*
X80321429Y-41085714D01*
X80250000Y-41014286D01*
X80178571Y-40871428D01*
X80178571Y-40657143D01*
X80250000Y-40514286D01*
X80321429Y-40442857D01*
X80464286Y-40371428D01*
X80892857Y-40371428D01*
X81035714Y-40442857D01*
X81107143Y-40514286D01*
X81178571Y-40657143D01*
X81178571Y-40871428D01*
X81178571Y-39085714D02*
X80392857Y-39085714D01*
X80250000Y-39157143D01*
X80178571Y-39300000D01*
X80178571Y-39585714D01*
X80250000Y-39728571D01*
X81107143Y-39085714D02*
X81178571Y-39228571D01*
X81178571Y-39585714D01*
X81107143Y-39728571D01*
X80964286Y-39800000D01*
X80821429Y-39800000D01*
X80678571Y-39728571D01*
X80607143Y-39585714D01*
X80607143Y-39228571D01*
X80535714Y-39085714D01*
X81178571Y-38371428D02*
X80178571Y-38371428D01*
X80464286Y-38371428D02*
X80321429Y-38300000D01*
X80250000Y-38228571D01*
X80178571Y-38085714D01*
X80178571Y-37942857D01*
X81178571Y-36800000D02*
X79678571Y-36800000D01*
X81107143Y-36800000D02*
X81178571Y-36942857D01*
X81178571Y-37228571D01*
X81107143Y-37371429D01*
X81035714Y-37442857D01*
X80892857Y-37514286D01*
X80464286Y-37514286D01*
X80321429Y-37442857D01*
X80250000Y-37371429D01*
X80178571Y-37228571D01*
X80178571Y-36942857D01*
X80250000Y-36800000D01*
X79678571Y-36228571D02*
X79678571Y-35300000D01*
X80250000Y-35800000D01*
X80250000Y-35585714D01*
X80321429Y-35442857D01*
X80392857Y-35371428D01*
X80535714Y-35300000D01*
X80892857Y-35300000D01*
X81035714Y-35371428D01*
X81107143Y-35442857D01*
X81178571Y-35585714D01*
X81178571Y-36014286D01*
X81107143Y-36157143D01*
X81035714Y-36228571D01*
X79821429Y-34728572D02*
X79750000Y-34657143D01*
X79678571Y-34514286D01*
X79678571Y-34157143D01*
X79750000Y-34014286D01*
X79821429Y-33942857D01*
X79964286Y-33871429D01*
X80107143Y-33871429D01*
X80321429Y-33942857D01*
X81178571Y-34800000D01*
X81178571Y-33871429D01*
D12*
X92827981Y-31796000D02*
G75*
G03X92827981Y-31796000I-283981J0D01*
G01*
D13*
X111450000Y-31650000D02*
X93450000Y-31650000D01*
X93450000Y-25650000D02*
X93450000Y-51150000D01*
X111450000Y-25650000D02*
X111450000Y-51150000D01*
X111450000Y-51150000D02*
X93450000Y-51150000D01*
X111450000Y-25650000D02*
X93450000Y-25650000D01*
D14*
X83250000Y-62000000D02*
X83250000Y-67500000D01*
X81150000Y-62000000D02*
X81150000Y-67500000D01*
X83250000Y-62000000D02*
X81150000Y-62000000D01*
X81000000Y-75050000D02*
X86500000Y-75050000D01*
X81000000Y-77150000D02*
X86500000Y-77150000D01*
X81000000Y-75050000D02*
X81000000Y-77150000D01*
X105860000Y-72990000D02*
X104600000Y-72990000D01*
X99040000Y-72990000D02*
X100300000Y-72990000D01*
X105860000Y-76750000D02*
X105860000Y-72990000D01*
X99040000Y-79000000D02*
X99040000Y-72990000D01*
D13*
X94850000Y-63750000D02*
X94850000Y-64275000D01*
X90550000Y-68050000D02*
X90550000Y-67525000D01*
X94850000Y-68050000D02*
X94850000Y-67525000D01*
X90550000Y-63750000D02*
X91075000Y-63750000D01*
X90550000Y-68050000D02*
X91075000Y-68050000D01*
X94850000Y-68050000D02*
X94325000Y-68050000D01*
X94850000Y-63750000D02*
X94325000Y-63750000D01*
D14*
X87470000Y-67150000D02*
X87470000Y-65150000D01*
X85430000Y-65150000D02*
X85430000Y-67150000D01*
X85200000Y-71380000D02*
X83200000Y-71380000D01*
X83200000Y-73420000D02*
X85200000Y-73420000D01*
X113700000Y-61880000D02*
X111700000Y-61880000D01*
X111700000Y-63920000D02*
X113700000Y-63920000D01*
X85500000Y-32750000D02*
X85500000Y-38250000D01*
X83400000Y-32750000D02*
X83400000Y-38250000D01*
X85500000Y-32750000D02*
X83400000Y-32750000D01*
X89970000Y-37650000D02*
X89970000Y-35650000D01*
X87930000Y-35650000D02*
X87930000Y-37650000D01*
X85200000Y-54130000D02*
X83200000Y-54130000D01*
X83200000Y-56170000D02*
X85200000Y-56170000D01*
X125650000Y-81800000D02*
X116050000Y-81800000D01*
X125650000Y-77000000D02*
X116050000Y-77000000D01*
X125650000Y-81800000D02*
X125650000Y-77000000D01*
X104700000Y-84100000D02*
X104700000Y-82100000D01*
X104700000Y-82100000D02*
X100850000Y-82100000D01*
X104700000Y-84100000D02*
X100850000Y-84100000D01*
X95800000Y-56350000D02*
X95800000Y-54450000D01*
X95800000Y-54450000D02*
X91100000Y-54450000D01*
X95800000Y-56350000D02*
X91100000Y-56350000D01*
X115800000Y-56350000D02*
X115800000Y-54450000D01*
X115800000Y-54450000D02*
X111100000Y-54450000D01*
X115800000Y-56350000D02*
X111100000Y-56350000D01*
X83500000Y-48750000D02*
X85400000Y-48750000D01*
X85400000Y-48750000D02*
X85400000Y-44050000D01*
X83500000Y-48750000D02*
X83500000Y-44050000D01*
X99000000Y-61500000D02*
X106000000Y-61500000D01*
X99000000Y-66700000D02*
X106000000Y-66700000D01*
X106000000Y-66700000D02*
X106000000Y-65700000D01*
X121780000Y-61040000D02*
X120850000Y-61040000D01*
X118620000Y-61040000D02*
X119550000Y-61040000D01*
X118620000Y-61040000D02*
X118620000Y-64200000D01*
X121780000Y-61040000D02*
X121780000Y-62500000D01*
X121780000Y-54540000D02*
X120850000Y-54540000D01*
X118620000Y-54540000D02*
X119550000Y-54540000D01*
X118620000Y-54540000D02*
X118620000Y-57700000D01*
X121780000Y-54540000D02*
X121780000Y-56000000D01*
X91700000Y-71330000D02*
X93700000Y-71330000D01*
X93700000Y-73470000D02*
X91700000Y-73470000D01*
X93700000Y-60220000D02*
X91700000Y-60220000D01*
X91700000Y-58080000D02*
X93700000Y-58080000D01*
X113700000Y-60220000D02*
X111700000Y-60220000D01*
X111700000Y-58080000D02*
X113700000Y-58080000D01*
X87880000Y-46650000D02*
X87880000Y-44650000D01*
X90020000Y-44650000D02*
X90020000Y-46650000D01*
X125770000Y-60900000D02*
X125770000Y-62900000D01*
X123630000Y-62900000D02*
X123630000Y-60900000D01*
X125670000Y-53800000D02*
X125670000Y-55800000D01*
X123530000Y-55800000D02*
X123530000Y-53800000D01*
X122200000Y-47720000D02*
X120200000Y-47720000D01*
X120200000Y-45580000D02*
X122200000Y-45580000D01*
X122200000Y-50870000D02*
X120200000Y-50870000D01*
X120200000Y-48730000D02*
X122200000Y-48730000D01*
X103450000Y-58470000D02*
X101450000Y-58470000D01*
X101450000Y-56330000D02*
X103450000Y-56330000D01*
X85200000Y-60220000D02*
X83200000Y-60220000D01*
X83200000Y-58080000D02*
X85200000Y-58080000D01*
D13*
X121775000Y-68425000D02*
X121750000Y-68425000D01*
X121775000Y-72575000D02*
X121670000Y-72575000D01*
X111625000Y-72575000D02*
X111730000Y-72575000D01*
X111625000Y-68425000D02*
X111730000Y-68425000D01*
X121775000Y-68425000D02*
X121775000Y-72575000D01*
X111625000Y-68425000D02*
X111625000Y-72575000D01*
X121750000Y-68425000D02*
X121750000Y-67050000D01*
D14*
X93400000Y-83050000D02*
X93400000Y-77550000D01*
X95500000Y-83050000D02*
X95500000Y-77550000D01*
X93400000Y-83050000D02*
X95500000Y-83050000D01*
X111450000Y-75300000D02*
X111450000Y-80800000D01*
X109350000Y-75300000D02*
X109350000Y-80800000D01*
X111450000Y-75300000D02*
X109350000Y-75300000D01*
D15*
G36*
X91624250Y-93146500D02*
X84575750Y-93146500D01*
X84575750Y-91257375D01*
X86353750Y-91257375D01*
X86369625Y-91273250D01*
X86385500Y-91257375D01*
X86369625Y-91241500D01*
X86353750Y-91257375D01*
X84575750Y-91257375D01*
X84575750Y-91225625D01*
X86290250Y-91225625D01*
X86306125Y-91241500D01*
X86322000Y-91225625D01*
X86306125Y-91209750D01*
X86290250Y-91225625D01*
X84575750Y-91225625D01*
X84575750Y-90038668D01*
X85567583Y-90038668D01*
X85575864Y-90082625D01*
X85613160Y-90198458D01*
X85684308Y-90357456D01*
X85785530Y-90551636D01*
X85861546Y-90685875D01*
X85956787Y-90856168D01*
X86015062Y-90976005D01*
X86036169Y-91044963D01*
X86036249Y-91047701D01*
X86064404Y-91082197D01*
X86138252Y-91123733D01*
X86241876Y-91163990D01*
X86282312Y-91176261D01*
X86357075Y-91190290D01*
X86384909Y-91174721D01*
X86385695Y-91167846D01*
X86397874Y-91166060D01*
X86427520Y-91210479D01*
X86433320Y-91221316D01*
X86466414Y-91292795D01*
X86480734Y-91339630D01*
X86480750Y-91340379D01*
X86455291Y-91363470D01*
X86396882Y-91366952D01*
X86332477Y-91352284D01*
X86296600Y-91330400D01*
X86265693Y-91311254D01*
X86258500Y-91343660D01*
X86284703Y-91388860D01*
X86350124Y-91439096D01*
X86376057Y-91453197D01*
X86463477Y-91515366D01*
X86561333Y-91612459D01*
X86650768Y-91723062D01*
X86712920Y-91825762D01*
X86720902Y-91844750D01*
X86797448Y-92005090D01*
X86903414Y-92142174D01*
X87035256Y-92261947D01*
X87202814Y-92387631D01*
X87348151Y-92472140D01*
X87488342Y-92524182D01*
X87592000Y-92545870D01*
X87690296Y-92568723D01*
X87821611Y-92609138D01*
X87960785Y-92659228D01*
X87988875Y-92670325D01*
X88195898Y-92748118D01*
X88363412Y-92796397D01*
X88506880Y-92817439D01*
X88641762Y-92813519D01*
X88782625Y-92787133D01*
X89014387Y-92705472D01*
X89231604Y-92575437D01*
X89400334Y-92434938D01*
X89514501Y-92331707D01*
X89637134Y-92225482D01*
X89730495Y-92148324D01*
X89842456Y-92039472D01*
X89961424Y-91891762D01*
X90072718Y-91726018D01*
X90161657Y-91563065D01*
X90190742Y-91495500D01*
X90249178Y-91309332D01*
X90299397Y-91081113D01*
X90311468Y-91011312D01*
X90334646Y-90927428D01*
X90372745Y-90894216D01*
X90390180Y-90892250D01*
X90439373Y-90873555D01*
X90449500Y-90850041D01*
X90422767Y-90818034D01*
X90378062Y-90810354D01*
X90342876Y-90807678D01*
X90320960Y-90788230D01*
X90310964Y-90749375D01*
X90449500Y-90749375D01*
X90465375Y-90765250D01*
X90481250Y-90749375D01*
X90465375Y-90733500D01*
X90449500Y-90749375D01*
X90310964Y-90749375D01*
X90308408Y-90739441D01*
X90304217Y-90685875D01*
X90481250Y-90685875D01*
X90497125Y-90701750D01*
X90513000Y-90685875D01*
X90497125Y-90670000D01*
X90481250Y-90685875D01*
X90304217Y-90685875D01*
X90301311Y-90648741D01*
X90297403Y-90550937D01*
X90296157Y-90495375D01*
X90354250Y-90495375D01*
X90370125Y-90511250D01*
X90386000Y-90495375D01*
X90370125Y-90479500D01*
X90354250Y-90495375D01*
X90296157Y-90495375D01*
X90294478Y-90420519D01*
X90294604Y-90417873D01*
X90544750Y-90417873D01*
X90554953Y-90446721D01*
X90578366Y-90421555D01*
X90588614Y-90398475D01*
X90590833Y-90365701D01*
X90576136Y-90368599D01*
X90545878Y-90409250D01*
X90544750Y-90417873D01*
X90294604Y-90417873D01*
X90297729Y-90352500D01*
X90433625Y-90352500D01*
X90435076Y-90381803D01*
X90445752Y-90384250D01*
X90490636Y-90361080D01*
X90497125Y-90352500D01*
X90495673Y-90323196D01*
X90484997Y-90320750D01*
X90440113Y-90343919D01*
X90433625Y-90352500D01*
X90297729Y-90352500D01*
X90298259Y-90341427D01*
X90310669Y-90301671D01*
X90333635Y-90289257D01*
X90339448Y-90289000D01*
X90365036Y-90273125D01*
X90513000Y-90273125D01*
X90528875Y-90289000D01*
X90544750Y-90273125D01*
X90528875Y-90257250D01*
X90513000Y-90273125D01*
X90365036Y-90273125D01*
X90384424Y-90261097D01*
X90431979Y-90188503D01*
X90443920Y-90162353D01*
X90489244Y-90078709D01*
X90527809Y-90050086D01*
X90553094Y-90077674D01*
X90559373Y-90141286D01*
X90562304Y-90209668D01*
X90575764Y-90216309D01*
X90602328Y-90161360D01*
X90608976Y-90144214D01*
X90640685Y-90091335D01*
X90670208Y-90081672D01*
X90696611Y-90066933D01*
X90725265Y-90000814D01*
X90752683Y-89895177D01*
X90775379Y-89761881D01*
X90782886Y-89698349D01*
X90798836Y-89542875D01*
X90757024Y-89724873D01*
X90730244Y-89827120D01*
X90704241Y-89903274D01*
X90689014Y-89931248D01*
X90677648Y-89922471D01*
X90684799Y-89868585D01*
X90686789Y-89860375D01*
X90703032Y-89771507D01*
X90716881Y-89654792D01*
X90721383Y-89598031D01*
X90730876Y-89497463D01*
X90734392Y-89476729D01*
X90769506Y-89476729D01*
X90775344Y-89517909D01*
X90786182Y-89518401D01*
X90793761Y-89475907D01*
X90788688Y-89457546D01*
X90774590Y-89445520D01*
X90769506Y-89476729D01*
X90734392Y-89476729D01*
X90743570Y-89422617D01*
X90751375Y-89399594D01*
X90764975Y-89364743D01*
X90739528Y-89370828D01*
X90680760Y-89413753D01*
X90594397Y-89489426D01*
X90502280Y-89577710D01*
X90403605Y-89676772D01*
X90341676Y-89746828D01*
X90307935Y-89803371D01*
X90293823Y-89861889D01*
X90290783Y-89937874D01*
X90290750Y-89960584D01*
X90285734Y-90066479D01*
X90270260Y-90112405D01*
X90255598Y-90112272D01*
X90234666Y-90114563D01*
X90244619Y-90165961D01*
X90256183Y-90242993D01*
X90260155Y-90363484D01*
X90257388Y-90507957D01*
X90248738Y-90656935D01*
X90235058Y-90790942D01*
X90217205Y-90890499D01*
X90212055Y-90908125D01*
X90098420Y-91172500D01*
X89937462Y-91417828D01*
X89790687Y-91587270D01*
X89719684Y-91665832D01*
X89670804Y-91727425D01*
X89655750Y-91755180D01*
X89629831Y-91778081D01*
X89606251Y-91781250D01*
X89571917Y-91794558D01*
X89573505Y-91808357D01*
X89564666Y-91840676D01*
X89512438Y-91869833D01*
X89436821Y-91888885D01*
X89357813Y-91890889D01*
X89342671Y-91888496D01*
X89253405Y-91853199D01*
X89172502Y-91797012D01*
X89061474Y-91707569D01*
X88947520Y-91649475D01*
X88814041Y-91617909D01*
X88644440Y-91608048D01*
X88529239Y-91610147D01*
X88371673Y-91618173D01*
X88262763Y-91630840D01*
X88187693Y-91650913D01*
X88131648Y-91681157D01*
X88125713Y-91685442D01*
X88057396Y-91729292D01*
X88008344Y-91749367D01*
X88006035Y-91749500D01*
X87974129Y-91768757D01*
X87973000Y-91775482D01*
X87953472Y-91812090D01*
X87903427Y-91877741D01*
X87861899Y-91926295D01*
X87798957Y-92003059D01*
X87758679Y-92063795D01*
X87750774Y-92085278D01*
X87729513Y-92128927D01*
X87678097Y-92187660D01*
X87675257Y-92190352D01*
X87609580Y-92236877D01*
X87532286Y-92250481D01*
X87464787Y-92245766D01*
X87372877Y-92228555D01*
X87307030Y-92204365D01*
X87295804Y-92196254D01*
X87249941Y-92165505D01*
X87223176Y-92170317D01*
X87230091Y-92201937D01*
X87238049Y-92225688D01*
X87229319Y-92220458D01*
X87214505Y-92191014D01*
X87216291Y-92187859D01*
X87204368Y-92159617D01*
X87155119Y-92109282D01*
X87084374Y-92049504D01*
X87007959Y-91992931D01*
X86941705Y-91952211D01*
X86905526Y-91939513D01*
X86866828Y-91933985D01*
X86887296Y-91912862D01*
X86891844Y-91909945D01*
X86912571Y-91885995D01*
X86878812Y-91866715D01*
X86852156Y-91859364D01*
X86789703Y-91830387D01*
X86766500Y-91795950D01*
X86745729Y-91741200D01*
X86716607Y-91704142D01*
X86685149Y-91665556D01*
X86686093Y-91654250D01*
X86681506Y-91634662D01*
X86643321Y-91587537D01*
X86643069Y-91587267D01*
X86603286Y-91522364D01*
X86599603Y-91470933D01*
X86602160Y-91438051D01*
X86581759Y-91444315D01*
X86557997Y-91445506D01*
X86564040Y-91417369D01*
X86564604Y-91352253D01*
X86552728Y-91328408D01*
X86527624Y-91276235D01*
X86497455Y-91186989D01*
X86481743Y-91130375D01*
X86480562Y-91126064D01*
X87880122Y-91126064D01*
X87884279Y-91157781D01*
X87915312Y-91202829D01*
X87917327Y-91204877D01*
X87976405Y-91226722D01*
X88055585Y-91220004D01*
X88120901Y-91189463D01*
X88133806Y-91174671D01*
X88171686Y-91159929D01*
X88258016Y-91145180D01*
X88377789Y-91132651D01*
X88451318Y-91127579D01*
X88615343Y-91114344D01*
X88726075Y-91095449D01*
X88793614Y-91068909D01*
X88809108Y-91057274D01*
X88845764Y-91018478D01*
X88836138Y-90993662D01*
X88777665Y-90965441D01*
X88621300Y-90928537D01*
X88462940Y-90942854D01*
X88381307Y-90973922D01*
X88301615Y-91003020D01*
X88238836Y-91006065D01*
X88235747Y-91005033D01*
X88155826Y-90994854D01*
X88064634Y-91010112D01*
X87987323Y-91043636D01*
X87949417Y-91086695D01*
X87925008Y-91127296D01*
X87905890Y-91128144D01*
X87880122Y-91126064D01*
X86480562Y-91126064D01*
X86446306Y-91001081D01*
X86406316Y-90867889D01*
X86393673Y-90828750D01*
X86358438Y-90718803D01*
X86327704Y-90616598D01*
X86320435Y-90590625D01*
X86296427Y-90503238D01*
X86264630Y-90389100D01*
X86248427Y-90331438D01*
X86223149Y-90222847D01*
X86223074Y-90185782D01*
X86398632Y-90185782D01*
X86405098Y-90267609D01*
X86421383Y-90315570D01*
X86482729Y-90384257D01*
X86549869Y-90417533D01*
X86605021Y-90408522D01*
X86619396Y-90392139D01*
X86647672Y-90362467D01*
X86672539Y-90386336D01*
X86711170Y-90410138D01*
X86740267Y-90395912D01*
X86798448Y-90375295D01*
X86886485Y-90366178D01*
X86901430Y-90366203D01*
X86982630Y-90360879D01*
X87016553Y-90336415D01*
X87020493Y-90312812D01*
X87033481Y-90264441D01*
X87073694Y-90270685D01*
X87143035Y-90331902D01*
X87147500Y-90336625D01*
X87215347Y-90391303D01*
X87278425Y-90415893D01*
X87281611Y-90416000D01*
X87382237Y-90393378D01*
X87476086Y-90336446D01*
X87538862Y-90261602D01*
X87548614Y-90235786D01*
X87566489Y-90179289D01*
X87586916Y-90178806D01*
X87612246Y-90210234D01*
X87654972Y-90250539D01*
X87677451Y-90238449D01*
X87673915Y-90183394D01*
X87657786Y-90135769D01*
X87589642Y-90030047D01*
X88704803Y-90030047D01*
X88726944Y-90065541D01*
X88735000Y-90066750D01*
X88757292Y-90039160D01*
X88766747Y-89972685D01*
X88766750Y-89971500D01*
X88775946Y-89904621D01*
X88798104Y-89876257D01*
X88798500Y-89876250D01*
X88827856Y-89901400D01*
X88830250Y-89916810D01*
X88847316Y-89971771D01*
X88879675Y-90027935D01*
X88931002Y-90076099D01*
X89009160Y-90096249D01*
X89068375Y-90098500D01*
X89169679Y-90089587D01*
X89232178Y-90057138D01*
X89257074Y-90027935D01*
X89295286Y-89947168D01*
X89306500Y-89886056D01*
X89319209Y-89834292D01*
X89354125Y-89833018D01*
X89396314Y-89872614D01*
X89401750Y-89894841D01*
X89413644Y-89921736D01*
X89459492Y-89911705D01*
X89478612Y-89903367D01*
X89530335Y-89863978D01*
X89539604Y-89826990D01*
X89545581Y-89798816D01*
X89589742Y-89802894D01*
X89648782Y-89811219D01*
X89658495Y-89795651D01*
X89625292Y-89762716D01*
X89555586Y-89718941D01*
X89463157Y-89674025D01*
X89369879Y-89638125D01*
X90259000Y-89638125D01*
X90274875Y-89654000D01*
X90290750Y-89638125D01*
X90274875Y-89622250D01*
X90259000Y-89638125D01*
X89369879Y-89638125D01*
X89321742Y-89619599D01*
X89204008Y-89595308D01*
X89080024Y-89597251D01*
X88979851Y-89611075D01*
X88895515Y-89635370D01*
X88833895Y-89686101D01*
X88781413Y-89764327D01*
X88734510Y-89863325D01*
X88708149Y-89957270D01*
X88704803Y-90030047D01*
X87589642Y-90030047D01*
X87577006Y-90010443D01*
X87464263Y-89934133D01*
X87327655Y-89906587D01*
X87175284Y-89927554D01*
X87015250Y-89996785D01*
X86855652Y-90114027D01*
X86805497Y-90162152D01*
X86731705Y-90233940D01*
X86685659Y-90264997D01*
X86652829Y-90261975D01*
X86629516Y-90242730D01*
X86566094Y-90202419D01*
X86527245Y-90193750D01*
X86489247Y-90175182D01*
X86492231Y-90146125D01*
X86498338Y-90082494D01*
X86479294Y-90024980D01*
X86448393Y-90003250D01*
X86422231Y-90031049D01*
X86404993Y-90099410D01*
X86398632Y-90185782D01*
X86223074Y-90185782D01*
X86223016Y-90157370D01*
X86238286Y-90128342D01*
X86256978Y-90102830D01*
X86229291Y-90114925D01*
X86198191Y-90122639D01*
X86204482Y-90087833D01*
X86208898Y-90043786D01*
X86196975Y-90035000D01*
X86181008Y-90009849D01*
X86184951Y-89974745D01*
X86184181Y-89923875D01*
X86226750Y-89923875D01*
X86242625Y-89939750D01*
X86258500Y-89923875D01*
X86242625Y-89908000D01*
X86226750Y-89923875D01*
X86184181Y-89923875D01*
X86183770Y-89896752D01*
X86182161Y-89892125D01*
X86417250Y-89892125D01*
X86433125Y-89908000D01*
X86449000Y-89892125D01*
X86433125Y-89876250D01*
X86417250Y-89892125D01*
X86182161Y-89892125D01*
X86169485Y-89855683D01*
X86157420Y-89791608D01*
X86180392Y-89757910D01*
X86214093Y-89739593D01*
X86230419Y-89775778D01*
X86232573Y-89789335D01*
X86257356Y-89841266D01*
X86300050Y-89870180D01*
X86339220Y-89868112D01*
X86353749Y-89834349D01*
X86378973Y-89782326D01*
X86396826Y-89771263D01*
X86432863Y-89727504D01*
X86455108Y-89643284D01*
X86461534Y-89540544D01*
X86450115Y-89441223D01*
X86432152Y-89388866D01*
X86414758Y-89344437D01*
X90355247Y-89344437D01*
X90369336Y-89367974D01*
X90409148Y-89344579D01*
X90457381Y-89288875D01*
X90735250Y-89288875D01*
X90751125Y-89304750D01*
X90767000Y-89288875D01*
X90751125Y-89273000D01*
X90735250Y-89288875D01*
X90457381Y-89288875D01*
X90463470Y-89281844D01*
X90525065Y-89197434D01*
X90440655Y-89259029D01*
X90382452Y-89307833D01*
X90355455Y-89342915D01*
X90355247Y-89344437D01*
X86414758Y-89344437D01*
X86393702Y-89290655D01*
X86366455Y-89187894D01*
X86341216Y-89109446D01*
X86306755Y-89063026D01*
X86302115Y-89060693D01*
X86262520Y-89021261D01*
X86258500Y-89002301D01*
X86245019Y-88947821D01*
X86211917Y-88868252D01*
X86206890Y-88858001D01*
X89763300Y-88858001D01*
X89767942Y-88925400D01*
X89784905Y-89031927D01*
X89809791Y-89119956D01*
X89822682Y-89147303D01*
X89861485Y-89201035D01*
X89876271Y-89197149D01*
X89872060Y-89150877D01*
X89882955Y-89078809D01*
X89904636Y-89041036D01*
X89929503Y-88979887D01*
X89944632Y-88881380D01*
X89946986Y-88821846D01*
X89943798Y-88629693D01*
X89933757Y-88493756D01*
X89915524Y-88406993D01*
X89910015Y-88398136D01*
X90137767Y-88398136D01*
X90154262Y-88418962D01*
X90173679Y-88479230D01*
X90164475Y-88540220D01*
X90158240Y-88626776D01*
X90172474Y-88760908D01*
X90196260Y-88887023D01*
X90231178Y-89043410D01*
X90257449Y-89146564D01*
X90278466Y-89205601D01*
X90297621Y-89229634D01*
X90318309Y-89227780D01*
X90322275Y-89225513D01*
X90351693Y-89227818D01*
X90354250Y-89239376D01*
X90368211Y-89271789D01*
X90373257Y-89273000D01*
X90380404Y-89244429D01*
X90379749Y-89193625D01*
X90544750Y-89193625D01*
X90560625Y-89209500D01*
X90576500Y-89193625D01*
X90560625Y-89177750D01*
X90544750Y-89193625D01*
X90379749Y-89193625D01*
X90379449Y-89170390D01*
X90372900Y-89090437D01*
X90345595Y-88839406D01*
X90322370Y-88642880D01*
X90301781Y-88492105D01*
X90282385Y-88378326D01*
X90262737Y-88292789D01*
X90241393Y-88226740D01*
X90223596Y-88185132D01*
X90159933Y-88050625D01*
X90173056Y-88217312D01*
X90175363Y-88322090D01*
X90163068Y-88377496D01*
X90152739Y-88384000D01*
X90137767Y-88398136D01*
X89910015Y-88398136D01*
X89887758Y-88362358D01*
X89857632Y-88352250D01*
X89824384Y-88360309D01*
X89841775Y-88394375D01*
X89847148Y-88400957D01*
X89871083Y-88463400D01*
X89854989Y-88520019D01*
X89798362Y-88653367D01*
X89769593Y-88757673D01*
X89763300Y-88858001D01*
X86206890Y-88858001D01*
X86205361Y-88854885D01*
X86184156Y-88812625D01*
X86226750Y-88812625D01*
X86242625Y-88828500D01*
X86258500Y-88812625D01*
X86242625Y-88796750D01*
X86226750Y-88812625D01*
X86184156Y-88812625D01*
X86156360Y-88757230D01*
X86111333Y-88667298D01*
X86110111Y-88664851D01*
X86078244Y-88572395D01*
X86068000Y-88498163D01*
X86058803Y-88437037D01*
X86040218Y-88415750D01*
X86019935Y-88388369D01*
X86012437Y-88329760D01*
X86008078Y-88304625D01*
X89846250Y-88304625D01*
X89862125Y-88320500D01*
X89878000Y-88304625D01*
X89862125Y-88288750D01*
X89846250Y-88304625D01*
X86008078Y-88304625D01*
X86000753Y-88262393D01*
X85976718Y-88231864D01*
X85954104Y-88195619D01*
X85948273Y-88159876D01*
X89846250Y-88159876D01*
X89855493Y-88233015D01*
X89875701Y-88255133D01*
X89895594Y-88222344D01*
X89902339Y-88179198D01*
X89895941Y-88112315D01*
X89877514Y-88082074D01*
X89855584Y-88094929D01*
X89846274Y-88155758D01*
X89846250Y-88159876D01*
X85948273Y-88159876D01*
X85941768Y-88120014D01*
X85941000Y-88093730D01*
X85935029Y-88019120D01*
X85920075Y-87984110D01*
X85913493Y-87984502D01*
X85874516Y-87976400D01*
X85849320Y-87953092D01*
X90099721Y-87953092D01*
X90104168Y-87996161D01*
X90112423Y-88003000D01*
X90126738Y-87976059D01*
X90139587Y-87924585D01*
X90141816Y-87872407D01*
X90127413Y-87862959D01*
X90108627Y-87897874D01*
X90099721Y-87953092D01*
X85849320Y-87953092D01*
X85824947Y-87930546D01*
X85783281Y-87865632D01*
X85774756Y-87844250D01*
X85762605Y-87839237D01*
X85749899Y-87882009D01*
X85738332Y-87956892D01*
X85729600Y-88048211D01*
X85725398Y-88140292D01*
X85727419Y-88217459D01*
X85731339Y-88245766D01*
X85741658Y-88313307D01*
X85755091Y-88427385D01*
X85769791Y-88571234D01*
X85782104Y-88706748D01*
X85803328Y-88893788D01*
X85834626Y-89095416D01*
X85871000Y-89281626D01*
X85893188Y-89373498D01*
X85928389Y-89517078D01*
X85955607Y-89651281D01*
X85970815Y-89755161D01*
X85972669Y-89787063D01*
X85980585Y-89868913D01*
X85999982Y-89919893D01*
X86004500Y-89923875D01*
X86038848Y-89960648D01*
X86023185Y-89981816D01*
X85970995Y-89972033D01*
X85964812Y-89969030D01*
X85938055Y-89962816D01*
X85960559Y-89996624D01*
X86012437Y-90050909D01*
X86079956Y-90125826D01*
X86123103Y-90188710D01*
X86131500Y-90213245D01*
X86106848Y-90249615D01*
X86040379Y-90252511D01*
X85943325Y-90223360D01*
X85850446Y-90177492D01*
X85761811Y-90131441D01*
X85691454Y-90102973D01*
X85669461Y-90098500D01*
X85618825Y-90074331D01*
X85591323Y-90042937D01*
X85569295Y-90014971D01*
X85567583Y-90038668D01*
X84575750Y-90038668D01*
X84575750Y-89955625D01*
X85591750Y-89955625D01*
X85607625Y-89971500D01*
X85623500Y-89955625D01*
X85607625Y-89939750D01*
X85591750Y-89955625D01*
X84575750Y-89955625D01*
X84575750Y-89923875D01*
X85845750Y-89923875D01*
X85861625Y-89939750D01*
X85877500Y-89923875D01*
X85861625Y-89908000D01*
X85845750Y-89923875D01*
X84575750Y-89923875D01*
X84575750Y-87730479D01*
X85721256Y-87730479D01*
X85727094Y-87771659D01*
X85737932Y-87772151D01*
X85745511Y-87729657D01*
X85740438Y-87711296D01*
X85726340Y-87699270D01*
X85721256Y-87730479D01*
X84575750Y-87730479D01*
X84575750Y-87543801D01*
X90104501Y-87543801D01*
X90109459Y-87599872D01*
X90121470Y-87673902D01*
X90136957Y-87743925D01*
X90152345Y-87787975D01*
X90152631Y-87788445D01*
X90174985Y-87811878D01*
X90177247Y-87776724D01*
X90159460Y-87682156D01*
X90158635Y-87678468D01*
X90136208Y-87592466D01*
X90115790Y-87536260D01*
X90110173Y-87527656D01*
X90104501Y-87543801D01*
X84575750Y-87543801D01*
X84575750Y-87289450D01*
X89958618Y-87289450D01*
X89988348Y-87378599D01*
X90013830Y-87416127D01*
X90039928Y-87395654D01*
X90040682Y-87394474D01*
X90062542Y-87375426D01*
X90071696Y-87415625D01*
X90076978Y-87456560D01*
X90086944Y-87436313D01*
X90090381Y-87423586D01*
X90082199Y-87361169D01*
X90042228Y-87288382D01*
X90041604Y-87287585D01*
X89989211Y-87236910D01*
X89960207Y-87239828D01*
X89958618Y-87289450D01*
X84575750Y-87289450D01*
X84575750Y-87156333D01*
X89920333Y-87156333D01*
X89924691Y-87175208D01*
X89941500Y-87177500D01*
X89967633Y-87165883D01*
X89962666Y-87156333D01*
X89924986Y-87152533D01*
X89920333Y-87156333D01*
X84575750Y-87156333D01*
X84575750Y-87098125D01*
X89909750Y-87098125D01*
X89925625Y-87114000D01*
X89941500Y-87098125D01*
X89925625Y-87082250D01*
X89909750Y-87098125D01*
X84575750Y-87098125D01*
X84575750Y-87066375D01*
X86099750Y-87066375D01*
X86115625Y-87082250D01*
X86131500Y-87066375D01*
X86115625Y-87050500D01*
X86099750Y-87066375D01*
X84575750Y-87066375D01*
X84575750Y-87004224D01*
X86153943Y-87004224D01*
X86160553Y-87017573D01*
X86204067Y-86982335D01*
X86213142Y-86973392D01*
X86214960Y-86971125D01*
X89814500Y-86971125D01*
X89830375Y-86987000D01*
X89846250Y-86971125D01*
X89830375Y-86955250D01*
X89814500Y-86971125D01*
X86214960Y-86971125D01*
X86250583Y-86926705D01*
X86258500Y-86906890D01*
X86280194Y-86869471D01*
X86301974Y-86844125D01*
X89687500Y-86844125D01*
X89703375Y-86860000D01*
X89719250Y-86844125D01*
X89703375Y-86828250D01*
X89687500Y-86844125D01*
X86301974Y-86844125D01*
X86335890Y-86804658D01*
X86411505Y-86726531D01*
X86492956Y-86649172D01*
X86566162Y-86586661D01*
X86607750Y-86557674D01*
X86702186Y-86507690D01*
X86705394Y-86506100D01*
X89371731Y-86506100D01*
X89400009Y-86540164D01*
X89449375Y-86586424D01*
X89535696Y-86660384D01*
X89581650Y-86694289D01*
X89585234Y-86687294D01*
X89544445Y-86638551D01*
X89526346Y-86618959D01*
X89454920Y-86552923D01*
X89388088Y-86506444D01*
X89385875Y-86505326D01*
X89371731Y-86506100D01*
X86705394Y-86506100D01*
X86820388Y-86449110D01*
X86944504Y-86390302D01*
X87056686Y-86339631D01*
X87065141Y-86336125D01*
X88989000Y-86336125D01*
X89004875Y-86352000D01*
X89020750Y-86336125D01*
X89004875Y-86320250D01*
X88989000Y-86336125D01*
X87065141Y-86336125D01*
X87139082Y-86305466D01*
X87142300Y-86304375D01*
X88893750Y-86304375D01*
X88909625Y-86320250D01*
X88925500Y-86304375D01*
X88909625Y-86288500D01*
X88893750Y-86304375D01*
X87142300Y-86304375D01*
X87163375Y-86297231D01*
X87236363Y-86285877D01*
X87335220Y-86280054D01*
X87355246Y-86279853D01*
X87438687Y-86274940D01*
X87477395Y-86253387D01*
X87489818Y-86204905D01*
X87489828Y-86204788D01*
X87486775Y-86175121D01*
X88555083Y-86175121D01*
X88582048Y-86207200D01*
X88630489Y-86217062D01*
X88684504Y-86214391D01*
X88696635Y-86209456D01*
X88664541Y-86190614D01*
X88621229Y-86167515D01*
X88570171Y-86149177D01*
X88555144Y-86171726D01*
X88555083Y-86175121D01*
X87486775Y-86175121D01*
X87484338Y-86151453D01*
X87443606Y-86131701D01*
X87400513Y-86129750D01*
X87302032Y-86145362D01*
X87170644Y-86186770D01*
X87027114Y-86245832D01*
X86892204Y-86314406D01*
X86827233Y-86354552D01*
X86737508Y-86415011D01*
X86623899Y-86491256D01*
X86540393Y-86547134D01*
X86384928Y-86676836D01*
X86253133Y-86834640D01*
X86248988Y-86840822D01*
X86183626Y-86944552D01*
X86153943Y-87004224D01*
X84575750Y-87004224D01*
X84575750Y-86113875D01*
X87528500Y-86113875D01*
X87544375Y-86129750D01*
X87560250Y-86113875D01*
X87544375Y-86098000D01*
X87528500Y-86113875D01*
X84575750Y-86113875D01*
X84575750Y-85653500D01*
X91624250Y-85653500D01*
X91624250Y-93146500D01*
X91624250Y-93146500D01*
G37*
X91624250Y-93146500D02*
X84575750Y-93146500D01*
X84575750Y-91257375D01*
X86353750Y-91257375D01*
X86369625Y-91273250D01*
X86385500Y-91257375D01*
X86369625Y-91241500D01*
X86353750Y-91257375D01*
X84575750Y-91257375D01*
X84575750Y-91225625D01*
X86290250Y-91225625D01*
X86306125Y-91241500D01*
X86322000Y-91225625D01*
X86306125Y-91209750D01*
X86290250Y-91225625D01*
X84575750Y-91225625D01*
X84575750Y-90038668D01*
X85567583Y-90038668D01*
X85575864Y-90082625D01*
X85613160Y-90198458D01*
X85684308Y-90357456D01*
X85785530Y-90551636D01*
X85861546Y-90685875D01*
X85956787Y-90856168D01*
X86015062Y-90976005D01*
X86036169Y-91044963D01*
X86036249Y-91047701D01*
X86064404Y-91082197D01*
X86138252Y-91123733D01*
X86241876Y-91163990D01*
X86282312Y-91176261D01*
X86357075Y-91190290D01*
X86384909Y-91174721D01*
X86385695Y-91167846D01*
X86397874Y-91166060D01*
X86427520Y-91210479D01*
X86433320Y-91221316D01*
X86466414Y-91292795D01*
X86480734Y-91339630D01*
X86480750Y-91340379D01*
X86455291Y-91363470D01*
X86396882Y-91366952D01*
X86332477Y-91352284D01*
X86296600Y-91330400D01*
X86265693Y-91311254D01*
X86258500Y-91343660D01*
X86284703Y-91388860D01*
X86350124Y-91439096D01*
X86376057Y-91453197D01*
X86463477Y-91515366D01*
X86561333Y-91612459D01*
X86650768Y-91723062D01*
X86712920Y-91825762D01*
X86720902Y-91844750D01*
X86797448Y-92005090D01*
X86903414Y-92142174D01*
X87035256Y-92261947D01*
X87202814Y-92387631D01*
X87348151Y-92472140D01*
X87488342Y-92524182D01*
X87592000Y-92545870D01*
X87690296Y-92568723D01*
X87821611Y-92609138D01*
X87960785Y-92659228D01*
X87988875Y-92670325D01*
X88195898Y-92748118D01*
X88363412Y-92796397D01*
X88506880Y-92817439D01*
X88641762Y-92813519D01*
X88782625Y-92787133D01*
X89014387Y-92705472D01*
X89231604Y-92575437D01*
X89400334Y-92434938D01*
X89514501Y-92331707D01*
X89637134Y-92225482D01*
X89730495Y-92148324D01*
X89842456Y-92039472D01*
X89961424Y-91891762D01*
X90072718Y-91726018D01*
X90161657Y-91563065D01*
X90190742Y-91495500D01*
X90249178Y-91309332D01*
X90299397Y-91081113D01*
X90311468Y-91011312D01*
X90334646Y-90927428D01*
X90372745Y-90894216D01*
X90390180Y-90892250D01*
X90439373Y-90873555D01*
X90449500Y-90850041D01*
X90422767Y-90818034D01*
X90378062Y-90810354D01*
X90342876Y-90807678D01*
X90320960Y-90788230D01*
X90310964Y-90749375D01*
X90449500Y-90749375D01*
X90465375Y-90765250D01*
X90481250Y-90749375D01*
X90465375Y-90733500D01*
X90449500Y-90749375D01*
X90310964Y-90749375D01*
X90308408Y-90739441D01*
X90304217Y-90685875D01*
X90481250Y-90685875D01*
X90497125Y-90701750D01*
X90513000Y-90685875D01*
X90497125Y-90670000D01*
X90481250Y-90685875D01*
X90304217Y-90685875D01*
X90301311Y-90648741D01*
X90297403Y-90550937D01*
X90296157Y-90495375D01*
X90354250Y-90495375D01*
X90370125Y-90511250D01*
X90386000Y-90495375D01*
X90370125Y-90479500D01*
X90354250Y-90495375D01*
X90296157Y-90495375D01*
X90294478Y-90420519D01*
X90294604Y-90417873D01*
X90544750Y-90417873D01*
X90554953Y-90446721D01*
X90578366Y-90421555D01*
X90588614Y-90398475D01*
X90590833Y-90365701D01*
X90576136Y-90368599D01*
X90545878Y-90409250D01*
X90544750Y-90417873D01*
X90294604Y-90417873D01*
X90297729Y-90352500D01*
X90433625Y-90352500D01*
X90435076Y-90381803D01*
X90445752Y-90384250D01*
X90490636Y-90361080D01*
X90497125Y-90352500D01*
X90495673Y-90323196D01*
X90484997Y-90320750D01*
X90440113Y-90343919D01*
X90433625Y-90352500D01*
X90297729Y-90352500D01*
X90298259Y-90341427D01*
X90310669Y-90301671D01*
X90333635Y-90289257D01*
X90339448Y-90289000D01*
X90365036Y-90273125D01*
X90513000Y-90273125D01*
X90528875Y-90289000D01*
X90544750Y-90273125D01*
X90528875Y-90257250D01*
X90513000Y-90273125D01*
X90365036Y-90273125D01*
X90384424Y-90261097D01*
X90431979Y-90188503D01*
X90443920Y-90162353D01*
X90489244Y-90078709D01*
X90527809Y-90050086D01*
X90553094Y-90077674D01*
X90559373Y-90141286D01*
X90562304Y-90209668D01*
X90575764Y-90216309D01*
X90602328Y-90161360D01*
X90608976Y-90144214D01*
X90640685Y-90091335D01*
X90670208Y-90081672D01*
X90696611Y-90066933D01*
X90725265Y-90000814D01*
X90752683Y-89895177D01*
X90775379Y-89761881D01*
X90782886Y-89698349D01*
X90798836Y-89542875D01*
X90757024Y-89724873D01*
X90730244Y-89827120D01*
X90704241Y-89903274D01*
X90689014Y-89931248D01*
X90677648Y-89922471D01*
X90684799Y-89868585D01*
X90686789Y-89860375D01*
X90703032Y-89771507D01*
X90716881Y-89654792D01*
X90721383Y-89598031D01*
X90730876Y-89497463D01*
X90734392Y-89476729D01*
X90769506Y-89476729D01*
X90775344Y-89517909D01*
X90786182Y-89518401D01*
X90793761Y-89475907D01*
X90788688Y-89457546D01*
X90774590Y-89445520D01*
X90769506Y-89476729D01*
X90734392Y-89476729D01*
X90743570Y-89422617D01*
X90751375Y-89399594D01*
X90764975Y-89364743D01*
X90739528Y-89370828D01*
X90680760Y-89413753D01*
X90594397Y-89489426D01*
X90502280Y-89577710D01*
X90403605Y-89676772D01*
X90341676Y-89746828D01*
X90307935Y-89803371D01*
X90293823Y-89861889D01*
X90290783Y-89937874D01*
X90290750Y-89960584D01*
X90285734Y-90066479D01*
X90270260Y-90112405D01*
X90255598Y-90112272D01*
X90234666Y-90114563D01*
X90244619Y-90165961D01*
X90256183Y-90242993D01*
X90260155Y-90363484D01*
X90257388Y-90507957D01*
X90248738Y-90656935D01*
X90235058Y-90790942D01*
X90217205Y-90890499D01*
X90212055Y-90908125D01*
X90098420Y-91172500D01*
X89937462Y-91417828D01*
X89790687Y-91587270D01*
X89719684Y-91665832D01*
X89670804Y-91727425D01*
X89655750Y-91755180D01*
X89629831Y-91778081D01*
X89606251Y-91781250D01*
X89571917Y-91794558D01*
X89573505Y-91808357D01*
X89564666Y-91840676D01*
X89512438Y-91869833D01*
X89436821Y-91888885D01*
X89357813Y-91890889D01*
X89342671Y-91888496D01*
X89253405Y-91853199D01*
X89172502Y-91797012D01*
X89061474Y-91707569D01*
X88947520Y-91649475D01*
X88814041Y-91617909D01*
X88644440Y-91608048D01*
X88529239Y-91610147D01*
X88371673Y-91618173D01*
X88262763Y-91630840D01*
X88187693Y-91650913D01*
X88131648Y-91681157D01*
X88125713Y-91685442D01*
X88057396Y-91729292D01*
X88008344Y-91749367D01*
X88006035Y-91749500D01*
X87974129Y-91768757D01*
X87973000Y-91775482D01*
X87953472Y-91812090D01*
X87903427Y-91877741D01*
X87861899Y-91926295D01*
X87798957Y-92003059D01*
X87758679Y-92063795D01*
X87750774Y-92085278D01*
X87729513Y-92128927D01*
X87678097Y-92187660D01*
X87675257Y-92190352D01*
X87609580Y-92236877D01*
X87532286Y-92250481D01*
X87464787Y-92245766D01*
X87372877Y-92228555D01*
X87307030Y-92204365D01*
X87295804Y-92196254D01*
X87249941Y-92165505D01*
X87223176Y-92170317D01*
X87230091Y-92201937D01*
X87238049Y-92225688D01*
X87229319Y-92220458D01*
X87214505Y-92191014D01*
X87216291Y-92187859D01*
X87204368Y-92159617D01*
X87155119Y-92109282D01*
X87084374Y-92049504D01*
X87007959Y-91992931D01*
X86941705Y-91952211D01*
X86905526Y-91939513D01*
X86866828Y-91933985D01*
X86887296Y-91912862D01*
X86891844Y-91909945D01*
X86912571Y-91885995D01*
X86878812Y-91866715D01*
X86852156Y-91859364D01*
X86789703Y-91830387D01*
X86766500Y-91795950D01*
X86745729Y-91741200D01*
X86716607Y-91704142D01*
X86685149Y-91665556D01*
X86686093Y-91654250D01*
X86681506Y-91634662D01*
X86643321Y-91587537D01*
X86643069Y-91587267D01*
X86603286Y-91522364D01*
X86599603Y-91470933D01*
X86602160Y-91438051D01*
X86581759Y-91444315D01*
X86557997Y-91445506D01*
X86564040Y-91417369D01*
X86564604Y-91352253D01*
X86552728Y-91328408D01*
X86527624Y-91276235D01*
X86497455Y-91186989D01*
X86481743Y-91130375D01*
X86480562Y-91126064D01*
X87880122Y-91126064D01*
X87884279Y-91157781D01*
X87915312Y-91202829D01*
X87917327Y-91204877D01*
X87976405Y-91226722D01*
X88055585Y-91220004D01*
X88120901Y-91189463D01*
X88133806Y-91174671D01*
X88171686Y-91159929D01*
X88258016Y-91145180D01*
X88377789Y-91132651D01*
X88451318Y-91127579D01*
X88615343Y-91114344D01*
X88726075Y-91095449D01*
X88793614Y-91068909D01*
X88809108Y-91057274D01*
X88845764Y-91018478D01*
X88836138Y-90993662D01*
X88777665Y-90965441D01*
X88621300Y-90928537D01*
X88462940Y-90942854D01*
X88381307Y-90973922D01*
X88301615Y-91003020D01*
X88238836Y-91006065D01*
X88235747Y-91005033D01*
X88155826Y-90994854D01*
X88064634Y-91010112D01*
X87987323Y-91043636D01*
X87949417Y-91086695D01*
X87925008Y-91127296D01*
X87905890Y-91128144D01*
X87880122Y-91126064D01*
X86480562Y-91126064D01*
X86446306Y-91001081D01*
X86406316Y-90867889D01*
X86393673Y-90828750D01*
X86358438Y-90718803D01*
X86327704Y-90616598D01*
X86320435Y-90590625D01*
X86296427Y-90503238D01*
X86264630Y-90389100D01*
X86248427Y-90331438D01*
X86223149Y-90222847D01*
X86223074Y-90185782D01*
X86398632Y-90185782D01*
X86405098Y-90267609D01*
X86421383Y-90315570D01*
X86482729Y-90384257D01*
X86549869Y-90417533D01*
X86605021Y-90408522D01*
X86619396Y-90392139D01*
X86647672Y-90362467D01*
X86672539Y-90386336D01*
X86711170Y-90410138D01*
X86740267Y-90395912D01*
X86798448Y-90375295D01*
X86886485Y-90366178D01*
X86901430Y-90366203D01*
X86982630Y-90360879D01*
X87016553Y-90336415D01*
X87020493Y-90312812D01*
X87033481Y-90264441D01*
X87073694Y-90270685D01*
X87143035Y-90331902D01*
X87147500Y-90336625D01*
X87215347Y-90391303D01*
X87278425Y-90415893D01*
X87281611Y-90416000D01*
X87382237Y-90393378D01*
X87476086Y-90336446D01*
X87538862Y-90261602D01*
X87548614Y-90235786D01*
X87566489Y-90179289D01*
X87586916Y-90178806D01*
X87612246Y-90210234D01*
X87654972Y-90250539D01*
X87677451Y-90238449D01*
X87673915Y-90183394D01*
X87657786Y-90135769D01*
X87589642Y-90030047D01*
X88704803Y-90030047D01*
X88726944Y-90065541D01*
X88735000Y-90066750D01*
X88757292Y-90039160D01*
X88766747Y-89972685D01*
X88766750Y-89971500D01*
X88775946Y-89904621D01*
X88798104Y-89876257D01*
X88798500Y-89876250D01*
X88827856Y-89901400D01*
X88830250Y-89916810D01*
X88847316Y-89971771D01*
X88879675Y-90027935D01*
X88931002Y-90076099D01*
X89009160Y-90096249D01*
X89068375Y-90098500D01*
X89169679Y-90089587D01*
X89232178Y-90057138D01*
X89257074Y-90027935D01*
X89295286Y-89947168D01*
X89306500Y-89886056D01*
X89319209Y-89834292D01*
X89354125Y-89833018D01*
X89396314Y-89872614D01*
X89401750Y-89894841D01*
X89413644Y-89921736D01*
X89459492Y-89911705D01*
X89478612Y-89903367D01*
X89530335Y-89863978D01*
X89539604Y-89826990D01*
X89545581Y-89798816D01*
X89589742Y-89802894D01*
X89648782Y-89811219D01*
X89658495Y-89795651D01*
X89625292Y-89762716D01*
X89555586Y-89718941D01*
X89463157Y-89674025D01*
X89369879Y-89638125D01*
X90259000Y-89638125D01*
X90274875Y-89654000D01*
X90290750Y-89638125D01*
X90274875Y-89622250D01*
X90259000Y-89638125D01*
X89369879Y-89638125D01*
X89321742Y-89619599D01*
X89204008Y-89595308D01*
X89080024Y-89597251D01*
X88979851Y-89611075D01*
X88895515Y-89635370D01*
X88833895Y-89686101D01*
X88781413Y-89764327D01*
X88734510Y-89863325D01*
X88708149Y-89957270D01*
X88704803Y-90030047D01*
X87589642Y-90030047D01*
X87577006Y-90010443D01*
X87464263Y-89934133D01*
X87327655Y-89906587D01*
X87175284Y-89927554D01*
X87015250Y-89996785D01*
X86855652Y-90114027D01*
X86805497Y-90162152D01*
X86731705Y-90233940D01*
X86685659Y-90264997D01*
X86652829Y-90261975D01*
X86629516Y-90242730D01*
X86566094Y-90202419D01*
X86527245Y-90193750D01*
X86489247Y-90175182D01*
X86492231Y-90146125D01*
X86498338Y-90082494D01*
X86479294Y-90024980D01*
X86448393Y-90003250D01*
X86422231Y-90031049D01*
X86404993Y-90099410D01*
X86398632Y-90185782D01*
X86223074Y-90185782D01*
X86223016Y-90157370D01*
X86238286Y-90128342D01*
X86256978Y-90102830D01*
X86229291Y-90114925D01*
X86198191Y-90122639D01*
X86204482Y-90087833D01*
X86208898Y-90043786D01*
X86196975Y-90035000D01*
X86181008Y-90009849D01*
X86184951Y-89974745D01*
X86184181Y-89923875D01*
X86226750Y-89923875D01*
X86242625Y-89939750D01*
X86258500Y-89923875D01*
X86242625Y-89908000D01*
X86226750Y-89923875D01*
X86184181Y-89923875D01*
X86183770Y-89896752D01*
X86182161Y-89892125D01*
X86417250Y-89892125D01*
X86433125Y-89908000D01*
X86449000Y-89892125D01*
X86433125Y-89876250D01*
X86417250Y-89892125D01*
X86182161Y-89892125D01*
X86169485Y-89855683D01*
X86157420Y-89791608D01*
X86180392Y-89757910D01*
X86214093Y-89739593D01*
X86230419Y-89775778D01*
X86232573Y-89789335D01*
X86257356Y-89841266D01*
X86300050Y-89870180D01*
X86339220Y-89868112D01*
X86353749Y-89834349D01*
X86378973Y-89782326D01*
X86396826Y-89771263D01*
X86432863Y-89727504D01*
X86455108Y-89643284D01*
X86461534Y-89540544D01*
X86450115Y-89441223D01*
X86432152Y-89388866D01*
X86414758Y-89344437D01*
X90355247Y-89344437D01*
X90369336Y-89367974D01*
X90409148Y-89344579D01*
X90457381Y-89288875D01*
X90735250Y-89288875D01*
X90751125Y-89304750D01*
X90767000Y-89288875D01*
X90751125Y-89273000D01*
X90735250Y-89288875D01*
X90457381Y-89288875D01*
X90463470Y-89281844D01*
X90525065Y-89197434D01*
X90440655Y-89259029D01*
X90382452Y-89307833D01*
X90355455Y-89342915D01*
X90355247Y-89344437D01*
X86414758Y-89344437D01*
X86393702Y-89290655D01*
X86366455Y-89187894D01*
X86341216Y-89109446D01*
X86306755Y-89063026D01*
X86302115Y-89060693D01*
X86262520Y-89021261D01*
X86258500Y-89002301D01*
X86245019Y-88947821D01*
X86211917Y-88868252D01*
X86206890Y-88858001D01*
X89763300Y-88858001D01*
X89767942Y-88925400D01*
X89784905Y-89031927D01*
X89809791Y-89119956D01*
X89822682Y-89147303D01*
X89861485Y-89201035D01*
X89876271Y-89197149D01*
X89872060Y-89150877D01*
X89882955Y-89078809D01*
X89904636Y-89041036D01*
X89929503Y-88979887D01*
X89944632Y-88881380D01*
X89946986Y-88821846D01*
X89943798Y-88629693D01*
X89933757Y-88493756D01*
X89915524Y-88406993D01*
X89910015Y-88398136D01*
X90137767Y-88398136D01*
X90154262Y-88418962D01*
X90173679Y-88479230D01*
X90164475Y-88540220D01*
X90158240Y-88626776D01*
X90172474Y-88760908D01*
X90196260Y-88887023D01*
X90231178Y-89043410D01*
X90257449Y-89146564D01*
X90278466Y-89205601D01*
X90297621Y-89229634D01*
X90318309Y-89227780D01*
X90322275Y-89225513D01*
X90351693Y-89227818D01*
X90354250Y-89239376D01*
X90368211Y-89271789D01*
X90373257Y-89273000D01*
X90380404Y-89244429D01*
X90379749Y-89193625D01*
X90544750Y-89193625D01*
X90560625Y-89209500D01*
X90576500Y-89193625D01*
X90560625Y-89177750D01*
X90544750Y-89193625D01*
X90379749Y-89193625D01*
X90379449Y-89170390D01*
X90372900Y-89090437D01*
X90345595Y-88839406D01*
X90322370Y-88642880D01*
X90301781Y-88492105D01*
X90282385Y-88378326D01*
X90262737Y-88292789D01*
X90241393Y-88226740D01*
X90223596Y-88185132D01*
X90159933Y-88050625D01*
X90173056Y-88217312D01*
X90175363Y-88322090D01*
X90163068Y-88377496D01*
X90152739Y-88384000D01*
X90137767Y-88398136D01*
X89910015Y-88398136D01*
X89887758Y-88362358D01*
X89857632Y-88352250D01*
X89824384Y-88360309D01*
X89841775Y-88394375D01*
X89847148Y-88400957D01*
X89871083Y-88463400D01*
X89854989Y-88520019D01*
X89798362Y-88653367D01*
X89769593Y-88757673D01*
X89763300Y-88858001D01*
X86206890Y-88858001D01*
X86205361Y-88854885D01*
X86184156Y-88812625D01*
X86226750Y-88812625D01*
X86242625Y-88828500D01*
X86258500Y-88812625D01*
X86242625Y-88796750D01*
X86226750Y-88812625D01*
X86184156Y-88812625D01*
X86156360Y-88757230D01*
X86111333Y-88667298D01*
X86110111Y-88664851D01*
X86078244Y-88572395D01*
X86068000Y-88498163D01*
X86058803Y-88437037D01*
X86040218Y-88415750D01*
X86019935Y-88388369D01*
X86012437Y-88329760D01*
X86008078Y-88304625D01*
X89846250Y-88304625D01*
X89862125Y-88320500D01*
X89878000Y-88304625D01*
X89862125Y-88288750D01*
X89846250Y-88304625D01*
X86008078Y-88304625D01*
X86000753Y-88262393D01*
X85976718Y-88231864D01*
X85954104Y-88195619D01*
X85948273Y-88159876D01*
X89846250Y-88159876D01*
X89855493Y-88233015D01*
X89875701Y-88255133D01*
X89895594Y-88222344D01*
X89902339Y-88179198D01*
X89895941Y-88112315D01*
X89877514Y-88082074D01*
X89855584Y-88094929D01*
X89846274Y-88155758D01*
X89846250Y-88159876D01*
X85948273Y-88159876D01*
X85941768Y-88120014D01*
X85941000Y-88093730D01*
X85935029Y-88019120D01*
X85920075Y-87984110D01*
X85913493Y-87984502D01*
X85874516Y-87976400D01*
X85849320Y-87953092D01*
X90099721Y-87953092D01*
X90104168Y-87996161D01*
X90112423Y-88003000D01*
X90126738Y-87976059D01*
X90139587Y-87924585D01*
X90141816Y-87872407D01*
X90127413Y-87862959D01*
X90108627Y-87897874D01*
X90099721Y-87953092D01*
X85849320Y-87953092D01*
X85824947Y-87930546D01*
X85783281Y-87865632D01*
X85774756Y-87844250D01*
X85762605Y-87839237D01*
X85749899Y-87882009D01*
X85738332Y-87956892D01*
X85729600Y-88048211D01*
X85725398Y-88140292D01*
X85727419Y-88217459D01*
X85731339Y-88245766D01*
X85741658Y-88313307D01*
X85755091Y-88427385D01*
X85769791Y-88571234D01*
X85782104Y-88706748D01*
X85803328Y-88893788D01*
X85834626Y-89095416D01*
X85871000Y-89281626D01*
X85893188Y-89373498D01*
X85928389Y-89517078D01*
X85955607Y-89651281D01*
X85970815Y-89755161D01*
X85972669Y-89787063D01*
X85980585Y-89868913D01*
X85999982Y-89919893D01*
X86004500Y-89923875D01*
X86038848Y-89960648D01*
X86023185Y-89981816D01*
X85970995Y-89972033D01*
X85964812Y-89969030D01*
X85938055Y-89962816D01*
X85960559Y-89996624D01*
X86012437Y-90050909D01*
X86079956Y-90125826D01*
X86123103Y-90188710D01*
X86131500Y-90213245D01*
X86106848Y-90249615D01*
X86040379Y-90252511D01*
X85943325Y-90223360D01*
X85850446Y-90177492D01*
X85761811Y-90131441D01*
X85691454Y-90102973D01*
X85669461Y-90098500D01*
X85618825Y-90074331D01*
X85591323Y-90042937D01*
X85569295Y-90014971D01*
X85567583Y-90038668D01*
X84575750Y-90038668D01*
X84575750Y-89955625D01*
X85591750Y-89955625D01*
X85607625Y-89971500D01*
X85623500Y-89955625D01*
X85607625Y-89939750D01*
X85591750Y-89955625D01*
X84575750Y-89955625D01*
X84575750Y-89923875D01*
X85845750Y-89923875D01*
X85861625Y-89939750D01*
X85877500Y-89923875D01*
X85861625Y-89908000D01*
X85845750Y-89923875D01*
X84575750Y-89923875D01*
X84575750Y-87730479D01*
X85721256Y-87730479D01*
X85727094Y-87771659D01*
X85737932Y-87772151D01*
X85745511Y-87729657D01*
X85740438Y-87711296D01*
X85726340Y-87699270D01*
X85721256Y-87730479D01*
X84575750Y-87730479D01*
X84575750Y-87543801D01*
X90104501Y-87543801D01*
X90109459Y-87599872D01*
X90121470Y-87673902D01*
X90136957Y-87743925D01*
X90152345Y-87787975D01*
X90152631Y-87788445D01*
X90174985Y-87811878D01*
X90177247Y-87776724D01*
X90159460Y-87682156D01*
X90158635Y-87678468D01*
X90136208Y-87592466D01*
X90115790Y-87536260D01*
X90110173Y-87527656D01*
X90104501Y-87543801D01*
X84575750Y-87543801D01*
X84575750Y-87289450D01*
X89958618Y-87289450D01*
X89988348Y-87378599D01*
X90013830Y-87416127D01*
X90039928Y-87395654D01*
X90040682Y-87394474D01*
X90062542Y-87375426D01*
X90071696Y-87415625D01*
X90076978Y-87456560D01*
X90086944Y-87436313D01*
X90090381Y-87423586D01*
X90082199Y-87361169D01*
X90042228Y-87288382D01*
X90041604Y-87287585D01*
X89989211Y-87236910D01*
X89960207Y-87239828D01*
X89958618Y-87289450D01*
X84575750Y-87289450D01*
X84575750Y-87156333D01*
X89920333Y-87156333D01*
X89924691Y-87175208D01*
X89941500Y-87177500D01*
X89967633Y-87165883D01*
X89962666Y-87156333D01*
X89924986Y-87152533D01*
X89920333Y-87156333D01*
X84575750Y-87156333D01*
X84575750Y-87098125D01*
X89909750Y-87098125D01*
X89925625Y-87114000D01*
X89941500Y-87098125D01*
X89925625Y-87082250D01*
X89909750Y-87098125D01*
X84575750Y-87098125D01*
X84575750Y-87066375D01*
X86099750Y-87066375D01*
X86115625Y-87082250D01*
X86131500Y-87066375D01*
X86115625Y-87050500D01*
X86099750Y-87066375D01*
X84575750Y-87066375D01*
X84575750Y-87004224D01*
X86153943Y-87004224D01*
X86160553Y-87017573D01*
X86204067Y-86982335D01*
X86213142Y-86973392D01*
X86214960Y-86971125D01*
X89814500Y-86971125D01*
X89830375Y-86987000D01*
X89846250Y-86971125D01*
X89830375Y-86955250D01*
X89814500Y-86971125D01*
X86214960Y-86971125D01*
X86250583Y-86926705D01*
X86258500Y-86906890D01*
X86280194Y-86869471D01*
X86301974Y-86844125D01*
X89687500Y-86844125D01*
X89703375Y-86860000D01*
X89719250Y-86844125D01*
X89703375Y-86828250D01*
X89687500Y-86844125D01*
X86301974Y-86844125D01*
X86335890Y-86804658D01*
X86411505Y-86726531D01*
X86492956Y-86649172D01*
X86566162Y-86586661D01*
X86607750Y-86557674D01*
X86702186Y-86507690D01*
X86705394Y-86506100D01*
X89371731Y-86506100D01*
X89400009Y-86540164D01*
X89449375Y-86586424D01*
X89535696Y-86660384D01*
X89581650Y-86694289D01*
X89585234Y-86687294D01*
X89544445Y-86638551D01*
X89526346Y-86618959D01*
X89454920Y-86552923D01*
X89388088Y-86506444D01*
X89385875Y-86505326D01*
X89371731Y-86506100D01*
X86705394Y-86506100D01*
X86820388Y-86449110D01*
X86944504Y-86390302D01*
X87056686Y-86339631D01*
X87065141Y-86336125D01*
X88989000Y-86336125D01*
X89004875Y-86352000D01*
X89020750Y-86336125D01*
X89004875Y-86320250D01*
X88989000Y-86336125D01*
X87065141Y-86336125D01*
X87139082Y-86305466D01*
X87142300Y-86304375D01*
X88893750Y-86304375D01*
X88909625Y-86320250D01*
X88925500Y-86304375D01*
X88909625Y-86288500D01*
X88893750Y-86304375D01*
X87142300Y-86304375D01*
X87163375Y-86297231D01*
X87236363Y-86285877D01*
X87335220Y-86280054D01*
X87355246Y-86279853D01*
X87438687Y-86274940D01*
X87477395Y-86253387D01*
X87489818Y-86204905D01*
X87489828Y-86204788D01*
X87486775Y-86175121D01*
X88555083Y-86175121D01*
X88582048Y-86207200D01*
X88630489Y-86217062D01*
X88684504Y-86214391D01*
X88696635Y-86209456D01*
X88664541Y-86190614D01*
X88621229Y-86167515D01*
X88570171Y-86149177D01*
X88555144Y-86171726D01*
X88555083Y-86175121D01*
X87486775Y-86175121D01*
X87484338Y-86151453D01*
X87443606Y-86131701D01*
X87400513Y-86129750D01*
X87302032Y-86145362D01*
X87170644Y-86186770D01*
X87027114Y-86245832D01*
X86892204Y-86314406D01*
X86827233Y-86354552D01*
X86737508Y-86415011D01*
X86623899Y-86491256D01*
X86540393Y-86547134D01*
X86384928Y-86676836D01*
X86253133Y-86834640D01*
X86248988Y-86840822D01*
X86183626Y-86944552D01*
X86153943Y-87004224D01*
X84575750Y-87004224D01*
X84575750Y-86113875D01*
X87528500Y-86113875D01*
X87544375Y-86129750D01*
X87560250Y-86113875D01*
X87544375Y-86098000D01*
X87528500Y-86113875D01*
X84575750Y-86113875D01*
X84575750Y-85653500D01*
X91624250Y-85653500D01*
X91624250Y-93146500D01*
G36*
X88954600Y-92466086D02*
X88989102Y-92475078D01*
X88997029Y-92490739D01*
X88988735Y-92511994D01*
X88941832Y-92550824D01*
X88849857Y-92594345D01*
X88730380Y-92636854D01*
X88600973Y-92672652D01*
X88479207Y-92696036D01*
X88403117Y-92702000D01*
X88292746Y-92681464D01*
X88208784Y-92617099D01*
X88163622Y-92555800D01*
X88152083Y-92512299D01*
X88155050Y-92507249D01*
X88194500Y-92497019D01*
X88284802Y-92486678D01*
X88413320Y-92477317D01*
X88567416Y-92470024D01*
X88599467Y-92468932D01*
X88769001Y-92464033D01*
X88884306Y-92462744D01*
X88954600Y-92466086D01*
X88954600Y-92466086D01*
G37*
X88954600Y-92466086D02*
X88989102Y-92475078D01*
X88997029Y-92490739D01*
X88988735Y-92511994D01*
X88941832Y-92550824D01*
X88849857Y-92594345D01*
X88730380Y-92636854D01*
X88600973Y-92672652D01*
X88479207Y-92696036D01*
X88403117Y-92702000D01*
X88292746Y-92681464D01*
X88208784Y-92617099D01*
X88163622Y-92555800D01*
X88152083Y-92512299D01*
X88155050Y-92507249D01*
X88194500Y-92497019D01*
X88284802Y-92486678D01*
X88413320Y-92477317D01*
X88567416Y-92470024D01*
X88599467Y-92468932D01*
X88769001Y-92464033D01*
X88884306Y-92462744D01*
X88954600Y-92466086D01*
G36*
X88937574Y-91974389D02*
X88933875Y-92047862D01*
X88933023Y-92052419D01*
X88885531Y-92142760D01*
X88789123Y-92215683D01*
X88657834Y-92262086D01*
X88595164Y-92271525D01*
X88501970Y-92283203D01*
X88436038Y-92296809D01*
X88422213Y-92302211D01*
X88385146Y-92308682D01*
X88381525Y-92306192D01*
X88343789Y-92291377D01*
X88284632Y-92277913D01*
X88188351Y-92249128D01*
X88126597Y-92220763D01*
X88093096Y-92198550D01*
X88094312Y-92183619D01*
X88138932Y-92172206D01*
X88235643Y-92160541D01*
X88274625Y-92156579D01*
X88484987Y-92127076D01*
X88661723Y-92085331D01*
X88793840Y-92034416D01*
X88854306Y-91994587D01*
X88911210Y-91956748D01*
X88937574Y-91974389D01*
X88937574Y-91974389D01*
G37*
X88937574Y-91974389D02*
X88933875Y-92047862D01*
X88933023Y-92052419D01*
X88885531Y-92142760D01*
X88789123Y-92215683D01*
X88657834Y-92262086D01*
X88595164Y-92271525D01*
X88501970Y-92283203D01*
X88436038Y-92296809D01*
X88422213Y-92302211D01*
X88385146Y-92308682D01*
X88381525Y-92306192D01*
X88343789Y-92291377D01*
X88284632Y-92277913D01*
X88188351Y-92249128D01*
X88126597Y-92220763D01*
X88093096Y-92198550D01*
X88094312Y-92183619D01*
X88138932Y-92172206D01*
X88235643Y-92160541D01*
X88274625Y-92156579D01*
X88484987Y-92127076D01*
X88661723Y-92085331D01*
X88793840Y-92034416D01*
X88854306Y-91994587D01*
X88911210Y-91956748D01*
X88937574Y-91974389D01*
G36*
X88013828Y-92185352D02*
X88020625Y-92194000D01*
X88031800Y-92222556D01*
X88001761Y-92211801D01*
X87973000Y-92194000D01*
X87948591Y-92168511D01*
X87963188Y-92162736D01*
X88013828Y-92185352D01*
X88013828Y-92185352D01*
G37*
X88013828Y-92185352D02*
X88020625Y-92194000D01*
X88031800Y-92222556D01*
X88001761Y-92211801D01*
X87973000Y-92194000D01*
X87948591Y-92168511D01*
X87963188Y-92162736D01*
X88013828Y-92185352D01*
G36*
X87877750Y-92178125D02*
X87861875Y-92194000D01*
X87846000Y-92178125D01*
X87861875Y-92162250D01*
X87877750Y-92178125D01*
X87877750Y-92178125D01*
G37*
X87877750Y-92178125D02*
X87861875Y-92194000D01*
X87846000Y-92178125D01*
X87861875Y-92162250D01*
X87877750Y-92178125D01*
G36*
X89080972Y-91930725D02*
X89072653Y-91985849D01*
X89038663Y-92045087D01*
X88996499Y-92079644D01*
X88974704Y-92069556D01*
X88972442Y-92018747D01*
X88998395Y-91956290D01*
X89037410Y-91913157D01*
X89053617Y-91908250D01*
X89080972Y-91930725D01*
X89080972Y-91930725D01*
G37*
X89080972Y-91930725D02*
X89072653Y-91985849D01*
X89038663Y-92045087D01*
X88996499Y-92079644D01*
X88974704Y-92069556D01*
X88972442Y-92018747D01*
X88998395Y-91956290D01*
X89037410Y-91913157D01*
X89053617Y-91908250D01*
X89080972Y-91930725D01*
G36*
X88322250Y-91638375D02*
X88306375Y-91654250D01*
X88290500Y-91638375D01*
X88306375Y-91622500D01*
X88322250Y-91638375D01*
X88322250Y-91638375D01*
G37*
X88322250Y-91638375D02*
X88306375Y-91654250D01*
X88290500Y-91638375D01*
X88306375Y-91622500D01*
X88322250Y-91638375D01*
G36*
X86353750Y-91130375D02*
X86337875Y-91146250D01*
X86322000Y-91130375D01*
X86337875Y-91114500D01*
X86353750Y-91130375D01*
X86353750Y-91130375D01*
G37*
X86353750Y-91130375D02*
X86337875Y-91146250D01*
X86322000Y-91130375D01*
X86337875Y-91114500D01*
X86353750Y-91130375D01*
G36*
X86043061Y-90888615D02*
X86097721Y-90937931D01*
X86167411Y-91008406D01*
X86193535Y-91043816D01*
X86174250Y-91041287D01*
X86157854Y-91031790D01*
X86134011Y-91030251D01*
X86140982Y-91061666D01*
X86153268Y-91108380D01*
X86136538Y-91102631D01*
X86095016Y-91046060D01*
X86093090Y-91043062D01*
X86048108Y-90962474D01*
X86023910Y-90908178D01*
X86018183Y-90877266D01*
X86043061Y-90888615D01*
X86043061Y-90888615D01*
G37*
X86043061Y-90888615D02*
X86097721Y-90937931D01*
X86167411Y-91008406D01*
X86193535Y-91043816D01*
X86174250Y-91041287D01*
X86157854Y-91031790D01*
X86134011Y-91030251D01*
X86140982Y-91061666D01*
X86153268Y-91108380D01*
X86136538Y-91102631D01*
X86095016Y-91046060D01*
X86093090Y-91043062D01*
X86048108Y-90962474D01*
X86023910Y-90908178D01*
X86018183Y-90877266D01*
X86043061Y-90888615D01*
G36*
X86353750Y-91003375D02*
X86337875Y-91019250D01*
X86322000Y-91003375D01*
X86337875Y-90987500D01*
X86353750Y-91003375D01*
X86353750Y-91003375D01*
G37*
X86353750Y-91003375D02*
X86337875Y-91019250D01*
X86322000Y-91003375D01*
X86337875Y-90987500D01*
X86353750Y-91003375D01*
G36*
X86188788Y-90848721D02*
X86236717Y-90890240D01*
X86258500Y-90900857D01*
X86277200Y-90915372D01*
X86236561Y-90921493D01*
X86172021Y-90909681D01*
X86146069Y-90890137D01*
X86139068Y-90847946D01*
X86162044Y-90829834D01*
X86188788Y-90848721D01*
X86188788Y-90848721D01*
G37*
X86188788Y-90848721D02*
X86236717Y-90890240D01*
X86258500Y-90900857D01*
X86277200Y-90915372D01*
X86236561Y-90921493D01*
X86172021Y-90909681D01*
X86146069Y-90890137D01*
X86139068Y-90847946D01*
X86162044Y-90829834D01*
X86188788Y-90848721D01*
G36*
X86127917Y-90695716D02*
X86131500Y-90717625D01*
X86114355Y-90759876D01*
X86099750Y-90765250D01*
X86071582Y-90739533D01*
X86068000Y-90717625D01*
X86085144Y-90675373D01*
X86099750Y-90670000D01*
X86127917Y-90695716D01*
X86127917Y-90695716D01*
G37*
X86127917Y-90695716D02*
X86131500Y-90717625D01*
X86114355Y-90759876D01*
X86099750Y-90765250D01*
X86071582Y-90739533D01*
X86068000Y-90717625D01*
X86085144Y-90675373D01*
X86099750Y-90670000D01*
X86127917Y-90695716D01*
G36*
X90671750Y-90019125D02*
X90655875Y-90035000D01*
X90640000Y-90019125D01*
X90655875Y-90003250D01*
X90671750Y-90019125D01*
X90671750Y-90019125D01*
G37*
X90671750Y-90019125D02*
X90655875Y-90035000D01*
X90640000Y-90019125D01*
X90655875Y-90003250D01*
X90671750Y-90019125D01*
G36*
X86290250Y-89828625D02*
X86274375Y-89844500D01*
X86258500Y-89828625D01*
X86274375Y-89812750D01*
X86290250Y-89828625D01*
X86290250Y-89828625D01*
G37*
X86290250Y-89828625D02*
X86274375Y-89844500D01*
X86258500Y-89828625D01*
X86274375Y-89812750D01*
X86290250Y-89828625D01*
G36*
X86576000Y-90304875D02*
X86560125Y-90320750D01*
X86544250Y-90304875D01*
X86560125Y-90289000D01*
X86576000Y-90304875D01*
X86576000Y-90304875D01*
G37*
X86576000Y-90304875D02*
X86560125Y-90320750D01*
X86544250Y-90304875D01*
X86560125Y-90289000D01*
X86576000Y-90304875D01*
G36*
X87306250Y-90146125D02*
X87290375Y-90162000D01*
X87274500Y-90146125D01*
X87290375Y-90130250D01*
X87306250Y-90146125D01*
X87306250Y-90146125D01*
G37*
X87306250Y-90146125D02*
X87290375Y-90162000D01*
X87274500Y-90146125D01*
X87290375Y-90130250D01*
X87306250Y-90146125D01*
G36*
X87369750Y-90082625D02*
X87353875Y-90098500D01*
X87338000Y-90082625D01*
X87353875Y-90066750D01*
X87369750Y-90082625D01*
X87369750Y-90082625D01*
G37*
X87369750Y-90082625D02*
X87353875Y-90098500D01*
X87338000Y-90082625D01*
X87353875Y-90066750D01*
X87369750Y-90082625D01*
G36*
X89019457Y-89835797D02*
X89020750Y-89844500D01*
X89009917Y-89875424D01*
X89006748Y-89876250D01*
X88979641Y-89854001D01*
X88973125Y-89844500D01*
X88975642Y-89815242D01*
X88987126Y-89812750D01*
X89019457Y-89835797D01*
X89019457Y-89835797D01*
G37*
X89019457Y-89835797D02*
X89020750Y-89844500D01*
X89009917Y-89875424D01*
X89006748Y-89876250D01*
X88979641Y-89854001D01*
X88973125Y-89844500D01*
X88975642Y-89815242D01*
X88987126Y-89812750D01*
X89019457Y-89835797D01*
G36*
X89073666Y-89759833D02*
X89077466Y-89797513D01*
X89073666Y-89802166D01*
X89054791Y-89797808D01*
X89052500Y-89781000D01*
X89064116Y-89754866D01*
X89073666Y-89759833D01*
X89073666Y-89759833D01*
G37*
X89073666Y-89759833D02*
X89077466Y-89797513D01*
X89073666Y-89802166D01*
X89054791Y-89797808D01*
X89052500Y-89781000D01*
X89064116Y-89754866D01*
X89073666Y-89759833D01*
G36*
X89480900Y-89781363D02*
X89446941Y-89807683D01*
X89410549Y-89812100D01*
X89401750Y-89800271D01*
X89426654Y-89779880D01*
X89451024Y-89768885D01*
X89483798Y-89766666D01*
X89480900Y-89781363D01*
X89480900Y-89781363D01*
G37*
X89480900Y-89781363D02*
X89446941Y-89807683D01*
X89410549Y-89812100D01*
X89401750Y-89800271D01*
X89426654Y-89779880D01*
X89451024Y-89768885D01*
X89483798Y-89766666D01*
X89480900Y-89781363D01*
G36*
X89338250Y-89733375D02*
X89322375Y-89749250D01*
X89306500Y-89733375D01*
X89322375Y-89717500D01*
X89338250Y-89733375D01*
X89338250Y-89733375D01*
G37*
X89338250Y-89733375D02*
X89322375Y-89749250D01*
X89306500Y-89733375D01*
X89322375Y-89717500D01*
X89338250Y-89733375D01*
G36*
X90290750Y-89034875D02*
X90274875Y-89050750D01*
X90259000Y-89034875D01*
X90274875Y-89019000D01*
X90290750Y-89034875D01*
X90290750Y-89034875D01*
G37*
X90290750Y-89034875D02*
X90274875Y-89050750D01*
X90259000Y-89034875D01*
X90274875Y-89019000D01*
X90290750Y-89034875D01*
G36*
X120224250Y-93146500D02*
X113175750Y-93146500D01*
X113175750Y-91257375D01*
X114953750Y-91257375D01*
X114969625Y-91273250D01*
X114985500Y-91257375D01*
X114969625Y-91241500D01*
X114953750Y-91257375D01*
X113175750Y-91257375D01*
X113175750Y-91225625D01*
X114890250Y-91225625D01*
X114906125Y-91241500D01*
X114922000Y-91225625D01*
X114906125Y-91209750D01*
X114890250Y-91225625D01*
X113175750Y-91225625D01*
X113175750Y-90038668D01*
X114167583Y-90038668D01*
X114175864Y-90082625D01*
X114213160Y-90198458D01*
X114284308Y-90357456D01*
X114385530Y-90551636D01*
X114461546Y-90685875D01*
X114556787Y-90856168D01*
X114615062Y-90976005D01*
X114636169Y-91044963D01*
X114636249Y-91047701D01*
X114664404Y-91082197D01*
X114738252Y-91123733D01*
X114841876Y-91163990D01*
X114882312Y-91176261D01*
X114957075Y-91190290D01*
X114984909Y-91174721D01*
X114985695Y-91167846D01*
X114997874Y-91166060D01*
X115027520Y-91210479D01*
X115033320Y-91221316D01*
X115066414Y-91292795D01*
X115080734Y-91339630D01*
X115080750Y-91340379D01*
X115055291Y-91363470D01*
X114996882Y-91366952D01*
X114932477Y-91352284D01*
X114896600Y-91330400D01*
X114865693Y-91311254D01*
X114858500Y-91343660D01*
X114884703Y-91388860D01*
X114950124Y-91439096D01*
X114976057Y-91453197D01*
X115063477Y-91515366D01*
X115161333Y-91612459D01*
X115250768Y-91723062D01*
X115312920Y-91825762D01*
X115320902Y-91844750D01*
X115397448Y-92005090D01*
X115503414Y-92142174D01*
X115635256Y-92261947D01*
X115802814Y-92387631D01*
X115948151Y-92472140D01*
X116088342Y-92524182D01*
X116192000Y-92545870D01*
X116290296Y-92568723D01*
X116421611Y-92609138D01*
X116560785Y-92659228D01*
X116588875Y-92670325D01*
X116795898Y-92748118D01*
X116963412Y-92796397D01*
X117106880Y-92817439D01*
X117241762Y-92813519D01*
X117382625Y-92787133D01*
X117614387Y-92705472D01*
X117831604Y-92575437D01*
X118000334Y-92434938D01*
X118114501Y-92331707D01*
X118237134Y-92225482D01*
X118330495Y-92148324D01*
X118442456Y-92039472D01*
X118561424Y-91891762D01*
X118672718Y-91726018D01*
X118761657Y-91563065D01*
X118790742Y-91495500D01*
X118849178Y-91309332D01*
X118899397Y-91081113D01*
X118911468Y-91011312D01*
X118934646Y-90927428D01*
X118972745Y-90894216D01*
X118990180Y-90892250D01*
X119039373Y-90873555D01*
X119049500Y-90850041D01*
X119022767Y-90818034D01*
X118978062Y-90810354D01*
X118942876Y-90807678D01*
X118920960Y-90788230D01*
X118910964Y-90749375D01*
X119049500Y-90749375D01*
X119065375Y-90765250D01*
X119081250Y-90749375D01*
X119065375Y-90733500D01*
X119049500Y-90749375D01*
X118910964Y-90749375D01*
X118908408Y-90739441D01*
X118904217Y-90685875D01*
X119081250Y-90685875D01*
X119097125Y-90701750D01*
X119113000Y-90685875D01*
X119097125Y-90670000D01*
X119081250Y-90685875D01*
X118904217Y-90685875D01*
X118901311Y-90648741D01*
X118897403Y-90550937D01*
X118896157Y-90495375D01*
X118954250Y-90495375D01*
X118970125Y-90511250D01*
X118986000Y-90495375D01*
X118970125Y-90479500D01*
X118954250Y-90495375D01*
X118896157Y-90495375D01*
X118894478Y-90420519D01*
X118894604Y-90417873D01*
X119144750Y-90417873D01*
X119154953Y-90446721D01*
X119178366Y-90421555D01*
X119188614Y-90398475D01*
X119190833Y-90365701D01*
X119176136Y-90368599D01*
X119145878Y-90409250D01*
X119144750Y-90417873D01*
X118894604Y-90417873D01*
X118897729Y-90352500D01*
X119033625Y-90352500D01*
X119035076Y-90381803D01*
X119045752Y-90384250D01*
X119090636Y-90361080D01*
X119097125Y-90352500D01*
X119095673Y-90323196D01*
X119084997Y-90320750D01*
X119040113Y-90343919D01*
X119033625Y-90352500D01*
X118897729Y-90352500D01*
X118898259Y-90341427D01*
X118910669Y-90301671D01*
X118933635Y-90289257D01*
X118939448Y-90289000D01*
X118965036Y-90273125D01*
X119113000Y-90273125D01*
X119128875Y-90289000D01*
X119144750Y-90273125D01*
X119128875Y-90257250D01*
X119113000Y-90273125D01*
X118965036Y-90273125D01*
X118984424Y-90261097D01*
X119031979Y-90188503D01*
X119043920Y-90162353D01*
X119089244Y-90078709D01*
X119127809Y-90050086D01*
X119153094Y-90077674D01*
X119159373Y-90141286D01*
X119162304Y-90209668D01*
X119175764Y-90216309D01*
X119202328Y-90161360D01*
X119208976Y-90144214D01*
X119240685Y-90091335D01*
X119270208Y-90081672D01*
X119296611Y-90066933D01*
X119325265Y-90000814D01*
X119352683Y-89895177D01*
X119375379Y-89761881D01*
X119382886Y-89698349D01*
X119398836Y-89542875D01*
X119357024Y-89724873D01*
X119330244Y-89827120D01*
X119304241Y-89903274D01*
X119289014Y-89931248D01*
X119277648Y-89922471D01*
X119284799Y-89868585D01*
X119286789Y-89860375D01*
X119303032Y-89771507D01*
X119316881Y-89654792D01*
X119321383Y-89598031D01*
X119330876Y-89497463D01*
X119334392Y-89476729D01*
X119369506Y-89476729D01*
X119375344Y-89517909D01*
X119386182Y-89518401D01*
X119393761Y-89475907D01*
X119388688Y-89457546D01*
X119374590Y-89445520D01*
X119369506Y-89476729D01*
X119334392Y-89476729D01*
X119343570Y-89422617D01*
X119351375Y-89399594D01*
X119364975Y-89364743D01*
X119339528Y-89370828D01*
X119280760Y-89413753D01*
X119194397Y-89489426D01*
X119102280Y-89577710D01*
X119003605Y-89676772D01*
X118941676Y-89746828D01*
X118907935Y-89803371D01*
X118893823Y-89861889D01*
X118890783Y-89937874D01*
X118890750Y-89960584D01*
X118885734Y-90066479D01*
X118870260Y-90112405D01*
X118855598Y-90112272D01*
X118834666Y-90114563D01*
X118844619Y-90165961D01*
X118856183Y-90242993D01*
X118860155Y-90363484D01*
X118857388Y-90507957D01*
X118848738Y-90656935D01*
X118835058Y-90790942D01*
X118817205Y-90890499D01*
X118812055Y-90908125D01*
X118698420Y-91172500D01*
X118537462Y-91417828D01*
X118390687Y-91587270D01*
X118319684Y-91665832D01*
X118270804Y-91727425D01*
X118255750Y-91755180D01*
X118229831Y-91778081D01*
X118206251Y-91781250D01*
X118171917Y-91794558D01*
X118173505Y-91808357D01*
X118164666Y-91840676D01*
X118112438Y-91869833D01*
X118036821Y-91888885D01*
X117957813Y-91890889D01*
X117942671Y-91888496D01*
X117853405Y-91853199D01*
X117772502Y-91797012D01*
X117661474Y-91707569D01*
X117547520Y-91649475D01*
X117414041Y-91617909D01*
X117244440Y-91608048D01*
X117129239Y-91610147D01*
X116971673Y-91618173D01*
X116862763Y-91630840D01*
X116787693Y-91650913D01*
X116731648Y-91681157D01*
X116725713Y-91685442D01*
X116657396Y-91729292D01*
X116608344Y-91749367D01*
X116606035Y-91749500D01*
X116574129Y-91768757D01*
X116573000Y-91775482D01*
X116553472Y-91812090D01*
X116503427Y-91877741D01*
X116461899Y-91926295D01*
X116398957Y-92003059D01*
X116358679Y-92063795D01*
X116350774Y-92085278D01*
X116329513Y-92128927D01*
X116278097Y-92187660D01*
X116275257Y-92190352D01*
X116209580Y-92236877D01*
X116132286Y-92250481D01*
X116064787Y-92245766D01*
X115972877Y-92228555D01*
X115907030Y-92204365D01*
X115895804Y-92196254D01*
X115849941Y-92165505D01*
X115823176Y-92170317D01*
X115830091Y-92201937D01*
X115838049Y-92225688D01*
X115829319Y-92220458D01*
X115814505Y-92191014D01*
X115816291Y-92187859D01*
X115804368Y-92159617D01*
X115755119Y-92109282D01*
X115684374Y-92049504D01*
X115607959Y-91992931D01*
X115541705Y-91952211D01*
X115505526Y-91939513D01*
X115466828Y-91933985D01*
X115487296Y-91912862D01*
X115491844Y-91909945D01*
X115512571Y-91885995D01*
X115478812Y-91866715D01*
X115452156Y-91859364D01*
X115389703Y-91830387D01*
X115366500Y-91795950D01*
X115345729Y-91741200D01*
X115316607Y-91704142D01*
X115285149Y-91665556D01*
X115286093Y-91654250D01*
X115281506Y-91634662D01*
X115243321Y-91587537D01*
X115243069Y-91587267D01*
X115203286Y-91522364D01*
X115199603Y-91470933D01*
X115202160Y-91438051D01*
X115181759Y-91444315D01*
X115157997Y-91445506D01*
X115164040Y-91417369D01*
X115164604Y-91352253D01*
X115152728Y-91328408D01*
X115127624Y-91276235D01*
X115097455Y-91186989D01*
X115081743Y-91130375D01*
X115080562Y-91126064D01*
X116480122Y-91126064D01*
X116484279Y-91157781D01*
X116515312Y-91202829D01*
X116517327Y-91204877D01*
X116576405Y-91226722D01*
X116655585Y-91220004D01*
X116720901Y-91189463D01*
X116733806Y-91174671D01*
X116771686Y-91159929D01*
X116858016Y-91145180D01*
X116977789Y-91132651D01*
X117051318Y-91127579D01*
X117215343Y-91114344D01*
X117326075Y-91095449D01*
X117393614Y-91068909D01*
X117409108Y-91057274D01*
X117445764Y-91018478D01*
X117436138Y-90993662D01*
X117377665Y-90965441D01*
X117221300Y-90928537D01*
X117062940Y-90942854D01*
X116981307Y-90973922D01*
X116901615Y-91003020D01*
X116838836Y-91006065D01*
X116835747Y-91005033D01*
X116755826Y-90994854D01*
X116664634Y-91010112D01*
X116587323Y-91043636D01*
X116549417Y-91086695D01*
X116525008Y-91127296D01*
X116505890Y-91128144D01*
X116480122Y-91126064D01*
X115080562Y-91126064D01*
X115046306Y-91001081D01*
X115006316Y-90867889D01*
X114993673Y-90828750D01*
X114958438Y-90718803D01*
X114927704Y-90616598D01*
X114920435Y-90590625D01*
X114896427Y-90503238D01*
X114864630Y-90389100D01*
X114848427Y-90331438D01*
X114823149Y-90222847D01*
X114823074Y-90185782D01*
X114998632Y-90185782D01*
X115005098Y-90267609D01*
X115021383Y-90315570D01*
X115082729Y-90384257D01*
X115149869Y-90417533D01*
X115205021Y-90408522D01*
X115219396Y-90392139D01*
X115247672Y-90362467D01*
X115272539Y-90386336D01*
X115311170Y-90410138D01*
X115340267Y-90395912D01*
X115398448Y-90375295D01*
X115486485Y-90366178D01*
X115501430Y-90366203D01*
X115582630Y-90360879D01*
X115616553Y-90336415D01*
X115620493Y-90312812D01*
X115633481Y-90264441D01*
X115673694Y-90270685D01*
X115743035Y-90331902D01*
X115747500Y-90336625D01*
X115815347Y-90391303D01*
X115878425Y-90415893D01*
X115881611Y-90416000D01*
X115982237Y-90393378D01*
X116076086Y-90336446D01*
X116138862Y-90261602D01*
X116148614Y-90235786D01*
X116166489Y-90179289D01*
X116186916Y-90178806D01*
X116212246Y-90210234D01*
X116254972Y-90250539D01*
X116277451Y-90238449D01*
X116273915Y-90183394D01*
X116257786Y-90135769D01*
X116189642Y-90030047D01*
X117304803Y-90030047D01*
X117326944Y-90065541D01*
X117335000Y-90066750D01*
X117357292Y-90039160D01*
X117366747Y-89972685D01*
X117366750Y-89971500D01*
X117375946Y-89904621D01*
X117398104Y-89876257D01*
X117398500Y-89876250D01*
X117427856Y-89901400D01*
X117430250Y-89916810D01*
X117447316Y-89971771D01*
X117479675Y-90027935D01*
X117531002Y-90076099D01*
X117609160Y-90096249D01*
X117668375Y-90098500D01*
X117769679Y-90089587D01*
X117832178Y-90057138D01*
X117857074Y-90027935D01*
X117895286Y-89947168D01*
X117906500Y-89886056D01*
X117919209Y-89834292D01*
X117954125Y-89833018D01*
X117996314Y-89872614D01*
X118001750Y-89894841D01*
X118013644Y-89921736D01*
X118059492Y-89911705D01*
X118078612Y-89903367D01*
X118130335Y-89863978D01*
X118139604Y-89826990D01*
X118145581Y-89798816D01*
X118189742Y-89802894D01*
X118248782Y-89811219D01*
X118258495Y-89795651D01*
X118225292Y-89762716D01*
X118155586Y-89718941D01*
X118063157Y-89674025D01*
X117969879Y-89638125D01*
X118859000Y-89638125D01*
X118874875Y-89654000D01*
X118890750Y-89638125D01*
X118874875Y-89622250D01*
X118859000Y-89638125D01*
X117969879Y-89638125D01*
X117921742Y-89619599D01*
X117804008Y-89595308D01*
X117680024Y-89597251D01*
X117579851Y-89611075D01*
X117495515Y-89635370D01*
X117433895Y-89686101D01*
X117381413Y-89764327D01*
X117334510Y-89863325D01*
X117308149Y-89957270D01*
X117304803Y-90030047D01*
X116189642Y-90030047D01*
X116177006Y-90010443D01*
X116064263Y-89934133D01*
X115927655Y-89906587D01*
X115775284Y-89927554D01*
X115615250Y-89996785D01*
X115455652Y-90114027D01*
X115405497Y-90162152D01*
X115331705Y-90233940D01*
X115285659Y-90264997D01*
X115252829Y-90261975D01*
X115229516Y-90242730D01*
X115166094Y-90202419D01*
X115127245Y-90193750D01*
X115089247Y-90175182D01*
X115092231Y-90146125D01*
X115098338Y-90082494D01*
X115079294Y-90024980D01*
X115048393Y-90003250D01*
X115022231Y-90031049D01*
X115004993Y-90099410D01*
X114998632Y-90185782D01*
X114823074Y-90185782D01*
X114823016Y-90157370D01*
X114838286Y-90128342D01*
X114856978Y-90102830D01*
X114829291Y-90114925D01*
X114798191Y-90122639D01*
X114804482Y-90087833D01*
X114808898Y-90043786D01*
X114796975Y-90035000D01*
X114781008Y-90009849D01*
X114784951Y-89974745D01*
X114784181Y-89923875D01*
X114826750Y-89923875D01*
X114842625Y-89939750D01*
X114858500Y-89923875D01*
X114842625Y-89908000D01*
X114826750Y-89923875D01*
X114784181Y-89923875D01*
X114783770Y-89896752D01*
X114782161Y-89892125D01*
X115017250Y-89892125D01*
X115033125Y-89908000D01*
X115049000Y-89892125D01*
X115033125Y-89876250D01*
X115017250Y-89892125D01*
X114782161Y-89892125D01*
X114769485Y-89855683D01*
X114757420Y-89791608D01*
X114780392Y-89757910D01*
X114814093Y-89739593D01*
X114830419Y-89775778D01*
X114832573Y-89789335D01*
X114857356Y-89841266D01*
X114900050Y-89870180D01*
X114939220Y-89868112D01*
X114953749Y-89834349D01*
X114978973Y-89782326D01*
X114996826Y-89771263D01*
X115032863Y-89727504D01*
X115055108Y-89643284D01*
X115061534Y-89540544D01*
X115050115Y-89441223D01*
X115032152Y-89388866D01*
X115014758Y-89344437D01*
X118955247Y-89344437D01*
X118969336Y-89367974D01*
X119009148Y-89344579D01*
X119057381Y-89288875D01*
X119335250Y-89288875D01*
X119351125Y-89304750D01*
X119367000Y-89288875D01*
X119351125Y-89273000D01*
X119335250Y-89288875D01*
X119057381Y-89288875D01*
X119063470Y-89281844D01*
X119125065Y-89197434D01*
X119040655Y-89259029D01*
X118982452Y-89307833D01*
X118955455Y-89342915D01*
X118955247Y-89344437D01*
X115014758Y-89344437D01*
X114993702Y-89290655D01*
X114966455Y-89187894D01*
X114941216Y-89109446D01*
X114906755Y-89063026D01*
X114902115Y-89060693D01*
X114862520Y-89021261D01*
X114858500Y-89002301D01*
X114845019Y-88947821D01*
X114811917Y-88868252D01*
X114806890Y-88858001D01*
X118363300Y-88858001D01*
X118367942Y-88925400D01*
X118384905Y-89031927D01*
X118409791Y-89119956D01*
X118422682Y-89147303D01*
X118461485Y-89201035D01*
X118476271Y-89197149D01*
X118472060Y-89150877D01*
X118482955Y-89078809D01*
X118504636Y-89041036D01*
X118529503Y-88979887D01*
X118544632Y-88881380D01*
X118546986Y-88821846D01*
X118543798Y-88629693D01*
X118533757Y-88493756D01*
X118515524Y-88406993D01*
X118510015Y-88398136D01*
X118737767Y-88398136D01*
X118754262Y-88418962D01*
X118773679Y-88479230D01*
X118764475Y-88540220D01*
X118758240Y-88626776D01*
X118772474Y-88760908D01*
X118796260Y-88887023D01*
X118831178Y-89043410D01*
X118857449Y-89146564D01*
X118878466Y-89205601D01*
X118897621Y-89229634D01*
X118918309Y-89227780D01*
X118922275Y-89225513D01*
X118951693Y-89227818D01*
X118954250Y-89239376D01*
X118968211Y-89271789D01*
X118973257Y-89273000D01*
X118980404Y-89244429D01*
X118979749Y-89193625D01*
X119144750Y-89193625D01*
X119160625Y-89209500D01*
X119176500Y-89193625D01*
X119160625Y-89177750D01*
X119144750Y-89193625D01*
X118979749Y-89193625D01*
X118979449Y-89170390D01*
X118972900Y-89090437D01*
X118945595Y-88839406D01*
X118922370Y-88642880D01*
X118901781Y-88492105D01*
X118882385Y-88378326D01*
X118862737Y-88292789D01*
X118841393Y-88226740D01*
X118823596Y-88185132D01*
X118759933Y-88050625D01*
X118773056Y-88217312D01*
X118775363Y-88322090D01*
X118763068Y-88377496D01*
X118752739Y-88384000D01*
X118737767Y-88398136D01*
X118510015Y-88398136D01*
X118487758Y-88362358D01*
X118457632Y-88352250D01*
X118424384Y-88360309D01*
X118441775Y-88394375D01*
X118447148Y-88400957D01*
X118471083Y-88463400D01*
X118454989Y-88520019D01*
X118398362Y-88653367D01*
X118369593Y-88757673D01*
X118363300Y-88858001D01*
X114806890Y-88858001D01*
X114805361Y-88854885D01*
X114784156Y-88812625D01*
X114826750Y-88812625D01*
X114842625Y-88828500D01*
X114858500Y-88812625D01*
X114842625Y-88796750D01*
X114826750Y-88812625D01*
X114784156Y-88812625D01*
X114756360Y-88757230D01*
X114711333Y-88667298D01*
X114710111Y-88664851D01*
X114678244Y-88572395D01*
X114668000Y-88498163D01*
X114658803Y-88437037D01*
X114640218Y-88415750D01*
X114619935Y-88388369D01*
X114612437Y-88329760D01*
X114608078Y-88304625D01*
X118446250Y-88304625D01*
X118462125Y-88320500D01*
X118478000Y-88304625D01*
X118462125Y-88288750D01*
X118446250Y-88304625D01*
X114608078Y-88304625D01*
X114600753Y-88262393D01*
X114576718Y-88231864D01*
X114554104Y-88195619D01*
X114548273Y-88159876D01*
X118446250Y-88159876D01*
X118455493Y-88233015D01*
X118475701Y-88255133D01*
X118495594Y-88222344D01*
X118502339Y-88179198D01*
X118495941Y-88112315D01*
X118477514Y-88082074D01*
X118455584Y-88094929D01*
X118446274Y-88155758D01*
X118446250Y-88159876D01*
X114548273Y-88159876D01*
X114541768Y-88120014D01*
X114541000Y-88093730D01*
X114535029Y-88019120D01*
X114520075Y-87984110D01*
X114513493Y-87984502D01*
X114474516Y-87976400D01*
X114449320Y-87953092D01*
X118699721Y-87953092D01*
X118704168Y-87996161D01*
X118712423Y-88003000D01*
X118726738Y-87976059D01*
X118739587Y-87924585D01*
X118741816Y-87872407D01*
X118727413Y-87862959D01*
X118708627Y-87897874D01*
X118699721Y-87953092D01*
X114449320Y-87953092D01*
X114424947Y-87930546D01*
X114383281Y-87865632D01*
X114374756Y-87844250D01*
X114362605Y-87839237D01*
X114349899Y-87882009D01*
X114338332Y-87956892D01*
X114329600Y-88048211D01*
X114325398Y-88140292D01*
X114327419Y-88217459D01*
X114331339Y-88245766D01*
X114341658Y-88313307D01*
X114355091Y-88427385D01*
X114369791Y-88571234D01*
X114382104Y-88706748D01*
X114403328Y-88893788D01*
X114434626Y-89095416D01*
X114471000Y-89281626D01*
X114493188Y-89373498D01*
X114528389Y-89517078D01*
X114555607Y-89651281D01*
X114570815Y-89755161D01*
X114572669Y-89787063D01*
X114580585Y-89868913D01*
X114599982Y-89919893D01*
X114604500Y-89923875D01*
X114638848Y-89960648D01*
X114623185Y-89981816D01*
X114570995Y-89972033D01*
X114564812Y-89969030D01*
X114538055Y-89962816D01*
X114560559Y-89996624D01*
X114612437Y-90050909D01*
X114679956Y-90125826D01*
X114723103Y-90188710D01*
X114731500Y-90213245D01*
X114706848Y-90249615D01*
X114640379Y-90252511D01*
X114543325Y-90223360D01*
X114450446Y-90177492D01*
X114361811Y-90131441D01*
X114291454Y-90102973D01*
X114269461Y-90098500D01*
X114218825Y-90074331D01*
X114191323Y-90042937D01*
X114169295Y-90014971D01*
X114167583Y-90038668D01*
X113175750Y-90038668D01*
X113175750Y-89955625D01*
X114191750Y-89955625D01*
X114207625Y-89971500D01*
X114223500Y-89955625D01*
X114207625Y-89939750D01*
X114191750Y-89955625D01*
X113175750Y-89955625D01*
X113175750Y-89923875D01*
X114445750Y-89923875D01*
X114461625Y-89939750D01*
X114477500Y-89923875D01*
X114461625Y-89908000D01*
X114445750Y-89923875D01*
X113175750Y-89923875D01*
X113175750Y-87730479D01*
X114321256Y-87730479D01*
X114327094Y-87771659D01*
X114337932Y-87772151D01*
X114345511Y-87729657D01*
X114340438Y-87711296D01*
X114326340Y-87699270D01*
X114321256Y-87730479D01*
X113175750Y-87730479D01*
X113175750Y-87543801D01*
X118704501Y-87543801D01*
X118709459Y-87599872D01*
X118721470Y-87673902D01*
X118736957Y-87743925D01*
X118752345Y-87787975D01*
X118752631Y-87788445D01*
X118774985Y-87811878D01*
X118777247Y-87776724D01*
X118759460Y-87682156D01*
X118758635Y-87678468D01*
X118736208Y-87592466D01*
X118715790Y-87536260D01*
X118710173Y-87527656D01*
X118704501Y-87543801D01*
X113175750Y-87543801D01*
X113175750Y-87289450D01*
X118558618Y-87289450D01*
X118588348Y-87378599D01*
X118613830Y-87416127D01*
X118639928Y-87395654D01*
X118640682Y-87394474D01*
X118662542Y-87375426D01*
X118671696Y-87415625D01*
X118676978Y-87456560D01*
X118686944Y-87436313D01*
X118690381Y-87423586D01*
X118682199Y-87361169D01*
X118642228Y-87288382D01*
X118641604Y-87287585D01*
X118589211Y-87236910D01*
X118560207Y-87239828D01*
X118558618Y-87289450D01*
X113175750Y-87289450D01*
X113175750Y-87156333D01*
X118520333Y-87156333D01*
X118524691Y-87175208D01*
X118541500Y-87177500D01*
X118567633Y-87165883D01*
X118562666Y-87156333D01*
X118524986Y-87152533D01*
X118520333Y-87156333D01*
X113175750Y-87156333D01*
X113175750Y-87098125D01*
X118509750Y-87098125D01*
X118525625Y-87114000D01*
X118541500Y-87098125D01*
X118525625Y-87082250D01*
X118509750Y-87098125D01*
X113175750Y-87098125D01*
X113175750Y-87066375D01*
X114699750Y-87066375D01*
X114715625Y-87082250D01*
X114731500Y-87066375D01*
X114715625Y-87050500D01*
X114699750Y-87066375D01*
X113175750Y-87066375D01*
X113175750Y-87004224D01*
X114753943Y-87004224D01*
X114760553Y-87017573D01*
X114804067Y-86982335D01*
X114813142Y-86973392D01*
X114814960Y-86971125D01*
X118414500Y-86971125D01*
X118430375Y-86987000D01*
X118446250Y-86971125D01*
X118430375Y-86955250D01*
X118414500Y-86971125D01*
X114814960Y-86971125D01*
X114850583Y-86926705D01*
X114858500Y-86906890D01*
X114880194Y-86869471D01*
X114901974Y-86844125D01*
X118287500Y-86844125D01*
X118303375Y-86860000D01*
X118319250Y-86844125D01*
X118303375Y-86828250D01*
X118287500Y-86844125D01*
X114901974Y-86844125D01*
X114935890Y-86804658D01*
X115011505Y-86726531D01*
X115092956Y-86649172D01*
X115166162Y-86586661D01*
X115207750Y-86557674D01*
X115302186Y-86507690D01*
X115305394Y-86506100D01*
X117971731Y-86506100D01*
X118000009Y-86540164D01*
X118049375Y-86586424D01*
X118135696Y-86660384D01*
X118181650Y-86694289D01*
X118185234Y-86687294D01*
X118144445Y-86638551D01*
X118126346Y-86618959D01*
X118054920Y-86552923D01*
X117988088Y-86506444D01*
X117985875Y-86505326D01*
X117971731Y-86506100D01*
X115305394Y-86506100D01*
X115420388Y-86449110D01*
X115544504Y-86390302D01*
X115656686Y-86339631D01*
X115665141Y-86336125D01*
X117589000Y-86336125D01*
X117604875Y-86352000D01*
X117620750Y-86336125D01*
X117604875Y-86320250D01*
X117589000Y-86336125D01*
X115665141Y-86336125D01*
X115739082Y-86305466D01*
X115742300Y-86304375D01*
X117493750Y-86304375D01*
X117509625Y-86320250D01*
X117525500Y-86304375D01*
X117509625Y-86288500D01*
X117493750Y-86304375D01*
X115742300Y-86304375D01*
X115763375Y-86297231D01*
X115836363Y-86285877D01*
X115935220Y-86280054D01*
X115955246Y-86279853D01*
X116038687Y-86274940D01*
X116077395Y-86253387D01*
X116089818Y-86204905D01*
X116089828Y-86204788D01*
X116086775Y-86175121D01*
X117155083Y-86175121D01*
X117182048Y-86207200D01*
X117230489Y-86217062D01*
X117284504Y-86214391D01*
X117296635Y-86209456D01*
X117264541Y-86190614D01*
X117221229Y-86167515D01*
X117170171Y-86149177D01*
X117155144Y-86171726D01*
X117155083Y-86175121D01*
X116086775Y-86175121D01*
X116084338Y-86151453D01*
X116043606Y-86131701D01*
X116000513Y-86129750D01*
X115902032Y-86145362D01*
X115770644Y-86186770D01*
X115627114Y-86245832D01*
X115492204Y-86314406D01*
X115427233Y-86354552D01*
X115337508Y-86415011D01*
X115223899Y-86491256D01*
X115140393Y-86547134D01*
X114984928Y-86676836D01*
X114853133Y-86834640D01*
X114848988Y-86840822D01*
X114783626Y-86944552D01*
X114753943Y-87004224D01*
X113175750Y-87004224D01*
X113175750Y-86113875D01*
X116128500Y-86113875D01*
X116144375Y-86129750D01*
X116160250Y-86113875D01*
X116144375Y-86098000D01*
X116128500Y-86113875D01*
X113175750Y-86113875D01*
X113175750Y-85653500D01*
X120224250Y-85653500D01*
X120224250Y-93146500D01*
X120224250Y-93146500D01*
G37*
X120224250Y-93146500D02*
X113175750Y-93146500D01*
X113175750Y-91257375D01*
X114953750Y-91257375D01*
X114969625Y-91273250D01*
X114985500Y-91257375D01*
X114969625Y-91241500D01*
X114953750Y-91257375D01*
X113175750Y-91257375D01*
X113175750Y-91225625D01*
X114890250Y-91225625D01*
X114906125Y-91241500D01*
X114922000Y-91225625D01*
X114906125Y-91209750D01*
X114890250Y-91225625D01*
X113175750Y-91225625D01*
X113175750Y-90038668D01*
X114167583Y-90038668D01*
X114175864Y-90082625D01*
X114213160Y-90198458D01*
X114284308Y-90357456D01*
X114385530Y-90551636D01*
X114461546Y-90685875D01*
X114556787Y-90856168D01*
X114615062Y-90976005D01*
X114636169Y-91044963D01*
X114636249Y-91047701D01*
X114664404Y-91082197D01*
X114738252Y-91123733D01*
X114841876Y-91163990D01*
X114882312Y-91176261D01*
X114957075Y-91190290D01*
X114984909Y-91174721D01*
X114985695Y-91167846D01*
X114997874Y-91166060D01*
X115027520Y-91210479D01*
X115033320Y-91221316D01*
X115066414Y-91292795D01*
X115080734Y-91339630D01*
X115080750Y-91340379D01*
X115055291Y-91363470D01*
X114996882Y-91366952D01*
X114932477Y-91352284D01*
X114896600Y-91330400D01*
X114865693Y-91311254D01*
X114858500Y-91343660D01*
X114884703Y-91388860D01*
X114950124Y-91439096D01*
X114976057Y-91453197D01*
X115063477Y-91515366D01*
X115161333Y-91612459D01*
X115250768Y-91723062D01*
X115312920Y-91825762D01*
X115320902Y-91844750D01*
X115397448Y-92005090D01*
X115503414Y-92142174D01*
X115635256Y-92261947D01*
X115802814Y-92387631D01*
X115948151Y-92472140D01*
X116088342Y-92524182D01*
X116192000Y-92545870D01*
X116290296Y-92568723D01*
X116421611Y-92609138D01*
X116560785Y-92659228D01*
X116588875Y-92670325D01*
X116795898Y-92748118D01*
X116963412Y-92796397D01*
X117106880Y-92817439D01*
X117241762Y-92813519D01*
X117382625Y-92787133D01*
X117614387Y-92705472D01*
X117831604Y-92575437D01*
X118000334Y-92434938D01*
X118114501Y-92331707D01*
X118237134Y-92225482D01*
X118330495Y-92148324D01*
X118442456Y-92039472D01*
X118561424Y-91891762D01*
X118672718Y-91726018D01*
X118761657Y-91563065D01*
X118790742Y-91495500D01*
X118849178Y-91309332D01*
X118899397Y-91081113D01*
X118911468Y-91011312D01*
X118934646Y-90927428D01*
X118972745Y-90894216D01*
X118990180Y-90892250D01*
X119039373Y-90873555D01*
X119049500Y-90850041D01*
X119022767Y-90818034D01*
X118978062Y-90810354D01*
X118942876Y-90807678D01*
X118920960Y-90788230D01*
X118910964Y-90749375D01*
X119049500Y-90749375D01*
X119065375Y-90765250D01*
X119081250Y-90749375D01*
X119065375Y-90733500D01*
X119049500Y-90749375D01*
X118910964Y-90749375D01*
X118908408Y-90739441D01*
X118904217Y-90685875D01*
X119081250Y-90685875D01*
X119097125Y-90701750D01*
X119113000Y-90685875D01*
X119097125Y-90670000D01*
X119081250Y-90685875D01*
X118904217Y-90685875D01*
X118901311Y-90648741D01*
X118897403Y-90550937D01*
X118896157Y-90495375D01*
X118954250Y-90495375D01*
X118970125Y-90511250D01*
X118986000Y-90495375D01*
X118970125Y-90479500D01*
X118954250Y-90495375D01*
X118896157Y-90495375D01*
X118894478Y-90420519D01*
X118894604Y-90417873D01*
X119144750Y-90417873D01*
X119154953Y-90446721D01*
X119178366Y-90421555D01*
X119188614Y-90398475D01*
X119190833Y-90365701D01*
X119176136Y-90368599D01*
X119145878Y-90409250D01*
X119144750Y-90417873D01*
X118894604Y-90417873D01*
X118897729Y-90352500D01*
X119033625Y-90352500D01*
X119035076Y-90381803D01*
X119045752Y-90384250D01*
X119090636Y-90361080D01*
X119097125Y-90352500D01*
X119095673Y-90323196D01*
X119084997Y-90320750D01*
X119040113Y-90343919D01*
X119033625Y-90352500D01*
X118897729Y-90352500D01*
X118898259Y-90341427D01*
X118910669Y-90301671D01*
X118933635Y-90289257D01*
X118939448Y-90289000D01*
X118965036Y-90273125D01*
X119113000Y-90273125D01*
X119128875Y-90289000D01*
X119144750Y-90273125D01*
X119128875Y-90257250D01*
X119113000Y-90273125D01*
X118965036Y-90273125D01*
X118984424Y-90261097D01*
X119031979Y-90188503D01*
X119043920Y-90162353D01*
X119089244Y-90078709D01*
X119127809Y-90050086D01*
X119153094Y-90077674D01*
X119159373Y-90141286D01*
X119162304Y-90209668D01*
X119175764Y-90216309D01*
X119202328Y-90161360D01*
X119208976Y-90144214D01*
X119240685Y-90091335D01*
X119270208Y-90081672D01*
X119296611Y-90066933D01*
X119325265Y-90000814D01*
X119352683Y-89895177D01*
X119375379Y-89761881D01*
X119382886Y-89698349D01*
X119398836Y-89542875D01*
X119357024Y-89724873D01*
X119330244Y-89827120D01*
X119304241Y-89903274D01*
X119289014Y-89931248D01*
X119277648Y-89922471D01*
X119284799Y-89868585D01*
X119286789Y-89860375D01*
X119303032Y-89771507D01*
X119316881Y-89654792D01*
X119321383Y-89598031D01*
X119330876Y-89497463D01*
X119334392Y-89476729D01*
X119369506Y-89476729D01*
X119375344Y-89517909D01*
X119386182Y-89518401D01*
X119393761Y-89475907D01*
X119388688Y-89457546D01*
X119374590Y-89445520D01*
X119369506Y-89476729D01*
X119334392Y-89476729D01*
X119343570Y-89422617D01*
X119351375Y-89399594D01*
X119364975Y-89364743D01*
X119339528Y-89370828D01*
X119280760Y-89413753D01*
X119194397Y-89489426D01*
X119102280Y-89577710D01*
X119003605Y-89676772D01*
X118941676Y-89746828D01*
X118907935Y-89803371D01*
X118893823Y-89861889D01*
X118890783Y-89937874D01*
X118890750Y-89960584D01*
X118885734Y-90066479D01*
X118870260Y-90112405D01*
X118855598Y-90112272D01*
X118834666Y-90114563D01*
X118844619Y-90165961D01*
X118856183Y-90242993D01*
X118860155Y-90363484D01*
X118857388Y-90507957D01*
X118848738Y-90656935D01*
X118835058Y-90790942D01*
X118817205Y-90890499D01*
X118812055Y-90908125D01*
X118698420Y-91172500D01*
X118537462Y-91417828D01*
X118390687Y-91587270D01*
X118319684Y-91665832D01*
X118270804Y-91727425D01*
X118255750Y-91755180D01*
X118229831Y-91778081D01*
X118206251Y-91781250D01*
X118171917Y-91794558D01*
X118173505Y-91808357D01*
X118164666Y-91840676D01*
X118112438Y-91869833D01*
X118036821Y-91888885D01*
X117957813Y-91890889D01*
X117942671Y-91888496D01*
X117853405Y-91853199D01*
X117772502Y-91797012D01*
X117661474Y-91707569D01*
X117547520Y-91649475D01*
X117414041Y-91617909D01*
X117244440Y-91608048D01*
X117129239Y-91610147D01*
X116971673Y-91618173D01*
X116862763Y-91630840D01*
X116787693Y-91650913D01*
X116731648Y-91681157D01*
X116725713Y-91685442D01*
X116657396Y-91729292D01*
X116608344Y-91749367D01*
X116606035Y-91749500D01*
X116574129Y-91768757D01*
X116573000Y-91775482D01*
X116553472Y-91812090D01*
X116503427Y-91877741D01*
X116461899Y-91926295D01*
X116398957Y-92003059D01*
X116358679Y-92063795D01*
X116350774Y-92085278D01*
X116329513Y-92128927D01*
X116278097Y-92187660D01*
X116275257Y-92190352D01*
X116209580Y-92236877D01*
X116132286Y-92250481D01*
X116064787Y-92245766D01*
X115972877Y-92228555D01*
X115907030Y-92204365D01*
X115895804Y-92196254D01*
X115849941Y-92165505D01*
X115823176Y-92170317D01*
X115830091Y-92201937D01*
X115838049Y-92225688D01*
X115829319Y-92220458D01*
X115814505Y-92191014D01*
X115816291Y-92187859D01*
X115804368Y-92159617D01*
X115755119Y-92109282D01*
X115684374Y-92049504D01*
X115607959Y-91992931D01*
X115541705Y-91952211D01*
X115505526Y-91939513D01*
X115466828Y-91933985D01*
X115487296Y-91912862D01*
X115491844Y-91909945D01*
X115512571Y-91885995D01*
X115478812Y-91866715D01*
X115452156Y-91859364D01*
X115389703Y-91830387D01*
X115366500Y-91795950D01*
X115345729Y-91741200D01*
X115316607Y-91704142D01*
X115285149Y-91665556D01*
X115286093Y-91654250D01*
X115281506Y-91634662D01*
X115243321Y-91587537D01*
X115243069Y-91587267D01*
X115203286Y-91522364D01*
X115199603Y-91470933D01*
X115202160Y-91438051D01*
X115181759Y-91444315D01*
X115157997Y-91445506D01*
X115164040Y-91417369D01*
X115164604Y-91352253D01*
X115152728Y-91328408D01*
X115127624Y-91276235D01*
X115097455Y-91186989D01*
X115081743Y-91130375D01*
X115080562Y-91126064D01*
X116480122Y-91126064D01*
X116484279Y-91157781D01*
X116515312Y-91202829D01*
X116517327Y-91204877D01*
X116576405Y-91226722D01*
X116655585Y-91220004D01*
X116720901Y-91189463D01*
X116733806Y-91174671D01*
X116771686Y-91159929D01*
X116858016Y-91145180D01*
X116977789Y-91132651D01*
X117051318Y-91127579D01*
X117215343Y-91114344D01*
X117326075Y-91095449D01*
X117393614Y-91068909D01*
X117409108Y-91057274D01*
X117445764Y-91018478D01*
X117436138Y-90993662D01*
X117377665Y-90965441D01*
X117221300Y-90928537D01*
X117062940Y-90942854D01*
X116981307Y-90973922D01*
X116901615Y-91003020D01*
X116838836Y-91006065D01*
X116835747Y-91005033D01*
X116755826Y-90994854D01*
X116664634Y-91010112D01*
X116587323Y-91043636D01*
X116549417Y-91086695D01*
X116525008Y-91127296D01*
X116505890Y-91128144D01*
X116480122Y-91126064D01*
X115080562Y-91126064D01*
X115046306Y-91001081D01*
X115006316Y-90867889D01*
X114993673Y-90828750D01*
X114958438Y-90718803D01*
X114927704Y-90616598D01*
X114920435Y-90590625D01*
X114896427Y-90503238D01*
X114864630Y-90389100D01*
X114848427Y-90331438D01*
X114823149Y-90222847D01*
X114823074Y-90185782D01*
X114998632Y-90185782D01*
X115005098Y-90267609D01*
X115021383Y-90315570D01*
X115082729Y-90384257D01*
X115149869Y-90417533D01*
X115205021Y-90408522D01*
X115219396Y-90392139D01*
X115247672Y-90362467D01*
X115272539Y-90386336D01*
X115311170Y-90410138D01*
X115340267Y-90395912D01*
X115398448Y-90375295D01*
X115486485Y-90366178D01*
X115501430Y-90366203D01*
X115582630Y-90360879D01*
X115616553Y-90336415D01*
X115620493Y-90312812D01*
X115633481Y-90264441D01*
X115673694Y-90270685D01*
X115743035Y-90331902D01*
X115747500Y-90336625D01*
X115815347Y-90391303D01*
X115878425Y-90415893D01*
X115881611Y-90416000D01*
X115982237Y-90393378D01*
X116076086Y-90336446D01*
X116138862Y-90261602D01*
X116148614Y-90235786D01*
X116166489Y-90179289D01*
X116186916Y-90178806D01*
X116212246Y-90210234D01*
X116254972Y-90250539D01*
X116277451Y-90238449D01*
X116273915Y-90183394D01*
X116257786Y-90135769D01*
X116189642Y-90030047D01*
X117304803Y-90030047D01*
X117326944Y-90065541D01*
X117335000Y-90066750D01*
X117357292Y-90039160D01*
X117366747Y-89972685D01*
X117366750Y-89971500D01*
X117375946Y-89904621D01*
X117398104Y-89876257D01*
X117398500Y-89876250D01*
X117427856Y-89901400D01*
X117430250Y-89916810D01*
X117447316Y-89971771D01*
X117479675Y-90027935D01*
X117531002Y-90076099D01*
X117609160Y-90096249D01*
X117668375Y-90098500D01*
X117769679Y-90089587D01*
X117832178Y-90057138D01*
X117857074Y-90027935D01*
X117895286Y-89947168D01*
X117906500Y-89886056D01*
X117919209Y-89834292D01*
X117954125Y-89833018D01*
X117996314Y-89872614D01*
X118001750Y-89894841D01*
X118013644Y-89921736D01*
X118059492Y-89911705D01*
X118078612Y-89903367D01*
X118130335Y-89863978D01*
X118139604Y-89826990D01*
X118145581Y-89798816D01*
X118189742Y-89802894D01*
X118248782Y-89811219D01*
X118258495Y-89795651D01*
X118225292Y-89762716D01*
X118155586Y-89718941D01*
X118063157Y-89674025D01*
X117969879Y-89638125D01*
X118859000Y-89638125D01*
X118874875Y-89654000D01*
X118890750Y-89638125D01*
X118874875Y-89622250D01*
X118859000Y-89638125D01*
X117969879Y-89638125D01*
X117921742Y-89619599D01*
X117804008Y-89595308D01*
X117680024Y-89597251D01*
X117579851Y-89611075D01*
X117495515Y-89635370D01*
X117433895Y-89686101D01*
X117381413Y-89764327D01*
X117334510Y-89863325D01*
X117308149Y-89957270D01*
X117304803Y-90030047D01*
X116189642Y-90030047D01*
X116177006Y-90010443D01*
X116064263Y-89934133D01*
X115927655Y-89906587D01*
X115775284Y-89927554D01*
X115615250Y-89996785D01*
X115455652Y-90114027D01*
X115405497Y-90162152D01*
X115331705Y-90233940D01*
X115285659Y-90264997D01*
X115252829Y-90261975D01*
X115229516Y-90242730D01*
X115166094Y-90202419D01*
X115127245Y-90193750D01*
X115089247Y-90175182D01*
X115092231Y-90146125D01*
X115098338Y-90082494D01*
X115079294Y-90024980D01*
X115048393Y-90003250D01*
X115022231Y-90031049D01*
X115004993Y-90099410D01*
X114998632Y-90185782D01*
X114823074Y-90185782D01*
X114823016Y-90157370D01*
X114838286Y-90128342D01*
X114856978Y-90102830D01*
X114829291Y-90114925D01*
X114798191Y-90122639D01*
X114804482Y-90087833D01*
X114808898Y-90043786D01*
X114796975Y-90035000D01*
X114781008Y-90009849D01*
X114784951Y-89974745D01*
X114784181Y-89923875D01*
X114826750Y-89923875D01*
X114842625Y-89939750D01*
X114858500Y-89923875D01*
X114842625Y-89908000D01*
X114826750Y-89923875D01*
X114784181Y-89923875D01*
X114783770Y-89896752D01*
X114782161Y-89892125D01*
X115017250Y-89892125D01*
X115033125Y-89908000D01*
X115049000Y-89892125D01*
X115033125Y-89876250D01*
X115017250Y-89892125D01*
X114782161Y-89892125D01*
X114769485Y-89855683D01*
X114757420Y-89791608D01*
X114780392Y-89757910D01*
X114814093Y-89739593D01*
X114830419Y-89775778D01*
X114832573Y-89789335D01*
X114857356Y-89841266D01*
X114900050Y-89870180D01*
X114939220Y-89868112D01*
X114953749Y-89834349D01*
X114978973Y-89782326D01*
X114996826Y-89771263D01*
X115032863Y-89727504D01*
X115055108Y-89643284D01*
X115061534Y-89540544D01*
X115050115Y-89441223D01*
X115032152Y-89388866D01*
X115014758Y-89344437D01*
X118955247Y-89344437D01*
X118969336Y-89367974D01*
X119009148Y-89344579D01*
X119057381Y-89288875D01*
X119335250Y-89288875D01*
X119351125Y-89304750D01*
X119367000Y-89288875D01*
X119351125Y-89273000D01*
X119335250Y-89288875D01*
X119057381Y-89288875D01*
X119063470Y-89281844D01*
X119125065Y-89197434D01*
X119040655Y-89259029D01*
X118982452Y-89307833D01*
X118955455Y-89342915D01*
X118955247Y-89344437D01*
X115014758Y-89344437D01*
X114993702Y-89290655D01*
X114966455Y-89187894D01*
X114941216Y-89109446D01*
X114906755Y-89063026D01*
X114902115Y-89060693D01*
X114862520Y-89021261D01*
X114858500Y-89002301D01*
X114845019Y-88947821D01*
X114811917Y-88868252D01*
X114806890Y-88858001D01*
X118363300Y-88858001D01*
X118367942Y-88925400D01*
X118384905Y-89031927D01*
X118409791Y-89119956D01*
X118422682Y-89147303D01*
X118461485Y-89201035D01*
X118476271Y-89197149D01*
X118472060Y-89150877D01*
X118482955Y-89078809D01*
X118504636Y-89041036D01*
X118529503Y-88979887D01*
X118544632Y-88881380D01*
X118546986Y-88821846D01*
X118543798Y-88629693D01*
X118533757Y-88493756D01*
X118515524Y-88406993D01*
X118510015Y-88398136D01*
X118737767Y-88398136D01*
X118754262Y-88418962D01*
X118773679Y-88479230D01*
X118764475Y-88540220D01*
X118758240Y-88626776D01*
X118772474Y-88760908D01*
X118796260Y-88887023D01*
X118831178Y-89043410D01*
X118857449Y-89146564D01*
X118878466Y-89205601D01*
X118897621Y-89229634D01*
X118918309Y-89227780D01*
X118922275Y-89225513D01*
X118951693Y-89227818D01*
X118954250Y-89239376D01*
X118968211Y-89271789D01*
X118973257Y-89273000D01*
X118980404Y-89244429D01*
X118979749Y-89193625D01*
X119144750Y-89193625D01*
X119160625Y-89209500D01*
X119176500Y-89193625D01*
X119160625Y-89177750D01*
X119144750Y-89193625D01*
X118979749Y-89193625D01*
X118979449Y-89170390D01*
X118972900Y-89090437D01*
X118945595Y-88839406D01*
X118922370Y-88642880D01*
X118901781Y-88492105D01*
X118882385Y-88378326D01*
X118862737Y-88292789D01*
X118841393Y-88226740D01*
X118823596Y-88185132D01*
X118759933Y-88050625D01*
X118773056Y-88217312D01*
X118775363Y-88322090D01*
X118763068Y-88377496D01*
X118752739Y-88384000D01*
X118737767Y-88398136D01*
X118510015Y-88398136D01*
X118487758Y-88362358D01*
X118457632Y-88352250D01*
X118424384Y-88360309D01*
X118441775Y-88394375D01*
X118447148Y-88400957D01*
X118471083Y-88463400D01*
X118454989Y-88520019D01*
X118398362Y-88653367D01*
X118369593Y-88757673D01*
X118363300Y-88858001D01*
X114806890Y-88858001D01*
X114805361Y-88854885D01*
X114784156Y-88812625D01*
X114826750Y-88812625D01*
X114842625Y-88828500D01*
X114858500Y-88812625D01*
X114842625Y-88796750D01*
X114826750Y-88812625D01*
X114784156Y-88812625D01*
X114756360Y-88757230D01*
X114711333Y-88667298D01*
X114710111Y-88664851D01*
X114678244Y-88572395D01*
X114668000Y-88498163D01*
X114658803Y-88437037D01*
X114640218Y-88415750D01*
X114619935Y-88388369D01*
X114612437Y-88329760D01*
X114608078Y-88304625D01*
X118446250Y-88304625D01*
X118462125Y-88320500D01*
X118478000Y-88304625D01*
X118462125Y-88288750D01*
X118446250Y-88304625D01*
X114608078Y-88304625D01*
X114600753Y-88262393D01*
X114576718Y-88231864D01*
X114554104Y-88195619D01*
X114548273Y-88159876D01*
X118446250Y-88159876D01*
X118455493Y-88233015D01*
X118475701Y-88255133D01*
X118495594Y-88222344D01*
X118502339Y-88179198D01*
X118495941Y-88112315D01*
X118477514Y-88082074D01*
X118455584Y-88094929D01*
X118446274Y-88155758D01*
X118446250Y-88159876D01*
X114548273Y-88159876D01*
X114541768Y-88120014D01*
X114541000Y-88093730D01*
X114535029Y-88019120D01*
X114520075Y-87984110D01*
X114513493Y-87984502D01*
X114474516Y-87976400D01*
X114449320Y-87953092D01*
X118699721Y-87953092D01*
X118704168Y-87996161D01*
X118712423Y-88003000D01*
X118726738Y-87976059D01*
X118739587Y-87924585D01*
X118741816Y-87872407D01*
X118727413Y-87862959D01*
X118708627Y-87897874D01*
X118699721Y-87953092D01*
X114449320Y-87953092D01*
X114424947Y-87930546D01*
X114383281Y-87865632D01*
X114374756Y-87844250D01*
X114362605Y-87839237D01*
X114349899Y-87882009D01*
X114338332Y-87956892D01*
X114329600Y-88048211D01*
X114325398Y-88140292D01*
X114327419Y-88217459D01*
X114331339Y-88245766D01*
X114341658Y-88313307D01*
X114355091Y-88427385D01*
X114369791Y-88571234D01*
X114382104Y-88706748D01*
X114403328Y-88893788D01*
X114434626Y-89095416D01*
X114471000Y-89281626D01*
X114493188Y-89373498D01*
X114528389Y-89517078D01*
X114555607Y-89651281D01*
X114570815Y-89755161D01*
X114572669Y-89787063D01*
X114580585Y-89868913D01*
X114599982Y-89919893D01*
X114604500Y-89923875D01*
X114638848Y-89960648D01*
X114623185Y-89981816D01*
X114570995Y-89972033D01*
X114564812Y-89969030D01*
X114538055Y-89962816D01*
X114560559Y-89996624D01*
X114612437Y-90050909D01*
X114679956Y-90125826D01*
X114723103Y-90188710D01*
X114731500Y-90213245D01*
X114706848Y-90249615D01*
X114640379Y-90252511D01*
X114543325Y-90223360D01*
X114450446Y-90177492D01*
X114361811Y-90131441D01*
X114291454Y-90102973D01*
X114269461Y-90098500D01*
X114218825Y-90074331D01*
X114191323Y-90042937D01*
X114169295Y-90014971D01*
X114167583Y-90038668D01*
X113175750Y-90038668D01*
X113175750Y-89955625D01*
X114191750Y-89955625D01*
X114207625Y-89971500D01*
X114223500Y-89955625D01*
X114207625Y-89939750D01*
X114191750Y-89955625D01*
X113175750Y-89955625D01*
X113175750Y-89923875D01*
X114445750Y-89923875D01*
X114461625Y-89939750D01*
X114477500Y-89923875D01*
X114461625Y-89908000D01*
X114445750Y-89923875D01*
X113175750Y-89923875D01*
X113175750Y-87730479D01*
X114321256Y-87730479D01*
X114327094Y-87771659D01*
X114337932Y-87772151D01*
X114345511Y-87729657D01*
X114340438Y-87711296D01*
X114326340Y-87699270D01*
X114321256Y-87730479D01*
X113175750Y-87730479D01*
X113175750Y-87543801D01*
X118704501Y-87543801D01*
X118709459Y-87599872D01*
X118721470Y-87673902D01*
X118736957Y-87743925D01*
X118752345Y-87787975D01*
X118752631Y-87788445D01*
X118774985Y-87811878D01*
X118777247Y-87776724D01*
X118759460Y-87682156D01*
X118758635Y-87678468D01*
X118736208Y-87592466D01*
X118715790Y-87536260D01*
X118710173Y-87527656D01*
X118704501Y-87543801D01*
X113175750Y-87543801D01*
X113175750Y-87289450D01*
X118558618Y-87289450D01*
X118588348Y-87378599D01*
X118613830Y-87416127D01*
X118639928Y-87395654D01*
X118640682Y-87394474D01*
X118662542Y-87375426D01*
X118671696Y-87415625D01*
X118676978Y-87456560D01*
X118686944Y-87436313D01*
X118690381Y-87423586D01*
X118682199Y-87361169D01*
X118642228Y-87288382D01*
X118641604Y-87287585D01*
X118589211Y-87236910D01*
X118560207Y-87239828D01*
X118558618Y-87289450D01*
X113175750Y-87289450D01*
X113175750Y-87156333D01*
X118520333Y-87156333D01*
X118524691Y-87175208D01*
X118541500Y-87177500D01*
X118567633Y-87165883D01*
X118562666Y-87156333D01*
X118524986Y-87152533D01*
X118520333Y-87156333D01*
X113175750Y-87156333D01*
X113175750Y-87098125D01*
X118509750Y-87098125D01*
X118525625Y-87114000D01*
X118541500Y-87098125D01*
X118525625Y-87082250D01*
X118509750Y-87098125D01*
X113175750Y-87098125D01*
X113175750Y-87066375D01*
X114699750Y-87066375D01*
X114715625Y-87082250D01*
X114731500Y-87066375D01*
X114715625Y-87050500D01*
X114699750Y-87066375D01*
X113175750Y-87066375D01*
X113175750Y-87004224D01*
X114753943Y-87004224D01*
X114760553Y-87017573D01*
X114804067Y-86982335D01*
X114813142Y-86973392D01*
X114814960Y-86971125D01*
X118414500Y-86971125D01*
X118430375Y-86987000D01*
X118446250Y-86971125D01*
X118430375Y-86955250D01*
X118414500Y-86971125D01*
X114814960Y-86971125D01*
X114850583Y-86926705D01*
X114858500Y-86906890D01*
X114880194Y-86869471D01*
X114901974Y-86844125D01*
X118287500Y-86844125D01*
X118303375Y-86860000D01*
X118319250Y-86844125D01*
X118303375Y-86828250D01*
X118287500Y-86844125D01*
X114901974Y-86844125D01*
X114935890Y-86804658D01*
X115011505Y-86726531D01*
X115092956Y-86649172D01*
X115166162Y-86586661D01*
X115207750Y-86557674D01*
X115302186Y-86507690D01*
X115305394Y-86506100D01*
X117971731Y-86506100D01*
X118000009Y-86540164D01*
X118049375Y-86586424D01*
X118135696Y-86660384D01*
X118181650Y-86694289D01*
X118185234Y-86687294D01*
X118144445Y-86638551D01*
X118126346Y-86618959D01*
X118054920Y-86552923D01*
X117988088Y-86506444D01*
X117985875Y-86505326D01*
X117971731Y-86506100D01*
X115305394Y-86506100D01*
X115420388Y-86449110D01*
X115544504Y-86390302D01*
X115656686Y-86339631D01*
X115665141Y-86336125D01*
X117589000Y-86336125D01*
X117604875Y-86352000D01*
X117620750Y-86336125D01*
X117604875Y-86320250D01*
X117589000Y-86336125D01*
X115665141Y-86336125D01*
X115739082Y-86305466D01*
X115742300Y-86304375D01*
X117493750Y-86304375D01*
X117509625Y-86320250D01*
X117525500Y-86304375D01*
X117509625Y-86288500D01*
X117493750Y-86304375D01*
X115742300Y-86304375D01*
X115763375Y-86297231D01*
X115836363Y-86285877D01*
X115935220Y-86280054D01*
X115955246Y-86279853D01*
X116038687Y-86274940D01*
X116077395Y-86253387D01*
X116089818Y-86204905D01*
X116089828Y-86204788D01*
X116086775Y-86175121D01*
X117155083Y-86175121D01*
X117182048Y-86207200D01*
X117230489Y-86217062D01*
X117284504Y-86214391D01*
X117296635Y-86209456D01*
X117264541Y-86190614D01*
X117221229Y-86167515D01*
X117170171Y-86149177D01*
X117155144Y-86171726D01*
X117155083Y-86175121D01*
X116086775Y-86175121D01*
X116084338Y-86151453D01*
X116043606Y-86131701D01*
X116000513Y-86129750D01*
X115902032Y-86145362D01*
X115770644Y-86186770D01*
X115627114Y-86245832D01*
X115492204Y-86314406D01*
X115427233Y-86354552D01*
X115337508Y-86415011D01*
X115223899Y-86491256D01*
X115140393Y-86547134D01*
X114984928Y-86676836D01*
X114853133Y-86834640D01*
X114848988Y-86840822D01*
X114783626Y-86944552D01*
X114753943Y-87004224D01*
X113175750Y-87004224D01*
X113175750Y-86113875D01*
X116128500Y-86113875D01*
X116144375Y-86129750D01*
X116160250Y-86113875D01*
X116144375Y-86098000D01*
X116128500Y-86113875D01*
X113175750Y-86113875D01*
X113175750Y-85653500D01*
X120224250Y-85653500D01*
X120224250Y-93146500D01*
G36*
X117554600Y-92466086D02*
X117589102Y-92475078D01*
X117597029Y-92490739D01*
X117588735Y-92511994D01*
X117541832Y-92550824D01*
X117449857Y-92594345D01*
X117330380Y-92636854D01*
X117200973Y-92672652D01*
X117079207Y-92696036D01*
X117003117Y-92702000D01*
X116892746Y-92681464D01*
X116808784Y-92617099D01*
X116763622Y-92555800D01*
X116752083Y-92512299D01*
X116755050Y-92507249D01*
X116794500Y-92497019D01*
X116884802Y-92486678D01*
X117013320Y-92477317D01*
X117167416Y-92470024D01*
X117199467Y-92468932D01*
X117369001Y-92464033D01*
X117484306Y-92462744D01*
X117554600Y-92466086D01*
X117554600Y-92466086D01*
G37*
X117554600Y-92466086D02*
X117589102Y-92475078D01*
X117597029Y-92490739D01*
X117588735Y-92511994D01*
X117541832Y-92550824D01*
X117449857Y-92594345D01*
X117330380Y-92636854D01*
X117200973Y-92672652D01*
X117079207Y-92696036D01*
X117003117Y-92702000D01*
X116892746Y-92681464D01*
X116808784Y-92617099D01*
X116763622Y-92555800D01*
X116752083Y-92512299D01*
X116755050Y-92507249D01*
X116794500Y-92497019D01*
X116884802Y-92486678D01*
X117013320Y-92477317D01*
X117167416Y-92470024D01*
X117199467Y-92468932D01*
X117369001Y-92464033D01*
X117484306Y-92462744D01*
X117554600Y-92466086D01*
G36*
X117537574Y-91974389D02*
X117533875Y-92047862D01*
X117533023Y-92052419D01*
X117485531Y-92142760D01*
X117389123Y-92215683D01*
X117257834Y-92262086D01*
X117195164Y-92271525D01*
X117101970Y-92283203D01*
X117036038Y-92296809D01*
X117022213Y-92302211D01*
X116985146Y-92308682D01*
X116981525Y-92306192D01*
X116943789Y-92291377D01*
X116884632Y-92277913D01*
X116788351Y-92249128D01*
X116726597Y-92220763D01*
X116693096Y-92198550D01*
X116694312Y-92183619D01*
X116738932Y-92172206D01*
X116835643Y-92160541D01*
X116874625Y-92156579D01*
X117084987Y-92127076D01*
X117261723Y-92085331D01*
X117393840Y-92034416D01*
X117454306Y-91994587D01*
X117511210Y-91956748D01*
X117537574Y-91974389D01*
X117537574Y-91974389D01*
G37*
X117537574Y-91974389D02*
X117533875Y-92047862D01*
X117533023Y-92052419D01*
X117485531Y-92142760D01*
X117389123Y-92215683D01*
X117257834Y-92262086D01*
X117195164Y-92271525D01*
X117101970Y-92283203D01*
X117036038Y-92296809D01*
X117022213Y-92302211D01*
X116985146Y-92308682D01*
X116981525Y-92306192D01*
X116943789Y-92291377D01*
X116884632Y-92277913D01*
X116788351Y-92249128D01*
X116726597Y-92220763D01*
X116693096Y-92198550D01*
X116694312Y-92183619D01*
X116738932Y-92172206D01*
X116835643Y-92160541D01*
X116874625Y-92156579D01*
X117084987Y-92127076D01*
X117261723Y-92085331D01*
X117393840Y-92034416D01*
X117454306Y-91994587D01*
X117511210Y-91956748D01*
X117537574Y-91974389D01*
G36*
X116613828Y-92185352D02*
X116620625Y-92194000D01*
X116631800Y-92222556D01*
X116601761Y-92211801D01*
X116573000Y-92194000D01*
X116548591Y-92168511D01*
X116563188Y-92162736D01*
X116613828Y-92185352D01*
X116613828Y-92185352D01*
G37*
X116613828Y-92185352D02*
X116620625Y-92194000D01*
X116631800Y-92222556D01*
X116601761Y-92211801D01*
X116573000Y-92194000D01*
X116548591Y-92168511D01*
X116563188Y-92162736D01*
X116613828Y-92185352D01*
G36*
X116477750Y-92178125D02*
X116461875Y-92194000D01*
X116446000Y-92178125D01*
X116461875Y-92162250D01*
X116477750Y-92178125D01*
X116477750Y-92178125D01*
G37*
X116477750Y-92178125D02*
X116461875Y-92194000D01*
X116446000Y-92178125D01*
X116461875Y-92162250D01*
X116477750Y-92178125D01*
G36*
X117680972Y-91930725D02*
X117672653Y-91985849D01*
X117638663Y-92045087D01*
X117596499Y-92079644D01*
X117574704Y-92069556D01*
X117572442Y-92018747D01*
X117598395Y-91956290D01*
X117637410Y-91913157D01*
X117653617Y-91908250D01*
X117680972Y-91930725D01*
X117680972Y-91930725D01*
G37*
X117680972Y-91930725D02*
X117672653Y-91985849D01*
X117638663Y-92045087D01*
X117596499Y-92079644D01*
X117574704Y-92069556D01*
X117572442Y-92018747D01*
X117598395Y-91956290D01*
X117637410Y-91913157D01*
X117653617Y-91908250D01*
X117680972Y-91930725D01*
G36*
X116922250Y-91638375D02*
X116906375Y-91654250D01*
X116890500Y-91638375D01*
X116906375Y-91622500D01*
X116922250Y-91638375D01*
X116922250Y-91638375D01*
G37*
X116922250Y-91638375D02*
X116906375Y-91654250D01*
X116890500Y-91638375D01*
X116906375Y-91622500D01*
X116922250Y-91638375D01*
G36*
X114953750Y-91130375D02*
X114937875Y-91146250D01*
X114922000Y-91130375D01*
X114937875Y-91114500D01*
X114953750Y-91130375D01*
X114953750Y-91130375D01*
G37*
X114953750Y-91130375D02*
X114937875Y-91146250D01*
X114922000Y-91130375D01*
X114937875Y-91114500D01*
X114953750Y-91130375D01*
G36*
X114643061Y-90888615D02*
X114697721Y-90937931D01*
X114767411Y-91008406D01*
X114793535Y-91043816D01*
X114774250Y-91041287D01*
X114757854Y-91031790D01*
X114734011Y-91030251D01*
X114740982Y-91061666D01*
X114753268Y-91108380D01*
X114736538Y-91102631D01*
X114695016Y-91046060D01*
X114693090Y-91043062D01*
X114648108Y-90962474D01*
X114623910Y-90908178D01*
X114618183Y-90877266D01*
X114643061Y-90888615D01*
X114643061Y-90888615D01*
G37*
X114643061Y-90888615D02*
X114697721Y-90937931D01*
X114767411Y-91008406D01*
X114793535Y-91043816D01*
X114774250Y-91041287D01*
X114757854Y-91031790D01*
X114734011Y-91030251D01*
X114740982Y-91061666D01*
X114753268Y-91108380D01*
X114736538Y-91102631D01*
X114695016Y-91046060D01*
X114693090Y-91043062D01*
X114648108Y-90962474D01*
X114623910Y-90908178D01*
X114618183Y-90877266D01*
X114643061Y-90888615D01*
G36*
X114953750Y-91003375D02*
X114937875Y-91019250D01*
X114922000Y-91003375D01*
X114937875Y-90987500D01*
X114953750Y-91003375D01*
X114953750Y-91003375D01*
G37*
X114953750Y-91003375D02*
X114937875Y-91019250D01*
X114922000Y-91003375D01*
X114937875Y-90987500D01*
X114953750Y-91003375D01*
G36*
X114788788Y-90848721D02*
X114836717Y-90890240D01*
X114858500Y-90900857D01*
X114877200Y-90915372D01*
X114836561Y-90921493D01*
X114772021Y-90909681D01*
X114746069Y-90890137D01*
X114739068Y-90847946D01*
X114762044Y-90829834D01*
X114788788Y-90848721D01*
X114788788Y-90848721D01*
G37*
X114788788Y-90848721D02*
X114836717Y-90890240D01*
X114858500Y-90900857D01*
X114877200Y-90915372D01*
X114836561Y-90921493D01*
X114772021Y-90909681D01*
X114746069Y-90890137D01*
X114739068Y-90847946D01*
X114762044Y-90829834D01*
X114788788Y-90848721D01*
G36*
X114727917Y-90695716D02*
X114731500Y-90717625D01*
X114714355Y-90759876D01*
X114699750Y-90765250D01*
X114671582Y-90739533D01*
X114668000Y-90717625D01*
X114685144Y-90675373D01*
X114699750Y-90670000D01*
X114727917Y-90695716D01*
X114727917Y-90695716D01*
G37*
X114727917Y-90695716D02*
X114731500Y-90717625D01*
X114714355Y-90759876D01*
X114699750Y-90765250D01*
X114671582Y-90739533D01*
X114668000Y-90717625D01*
X114685144Y-90675373D01*
X114699750Y-90670000D01*
X114727917Y-90695716D01*
G36*
X119271750Y-90019125D02*
X119255875Y-90035000D01*
X119240000Y-90019125D01*
X119255875Y-90003250D01*
X119271750Y-90019125D01*
X119271750Y-90019125D01*
G37*
X119271750Y-90019125D02*
X119255875Y-90035000D01*
X119240000Y-90019125D01*
X119255875Y-90003250D01*
X119271750Y-90019125D01*
G36*
X114890250Y-89828625D02*
X114874375Y-89844500D01*
X114858500Y-89828625D01*
X114874375Y-89812750D01*
X114890250Y-89828625D01*
X114890250Y-89828625D01*
G37*
X114890250Y-89828625D02*
X114874375Y-89844500D01*
X114858500Y-89828625D01*
X114874375Y-89812750D01*
X114890250Y-89828625D01*
G36*
X115176000Y-90304875D02*
X115160125Y-90320750D01*
X115144250Y-90304875D01*
X115160125Y-90289000D01*
X115176000Y-90304875D01*
X115176000Y-90304875D01*
G37*
X115176000Y-90304875D02*
X115160125Y-90320750D01*
X115144250Y-90304875D01*
X115160125Y-90289000D01*
X115176000Y-90304875D01*
G36*
X115906250Y-90146125D02*
X115890375Y-90162000D01*
X115874500Y-90146125D01*
X115890375Y-90130250D01*
X115906250Y-90146125D01*
X115906250Y-90146125D01*
G37*
X115906250Y-90146125D02*
X115890375Y-90162000D01*
X115874500Y-90146125D01*
X115890375Y-90130250D01*
X115906250Y-90146125D01*
G36*
X115969750Y-90082625D02*
X115953875Y-90098500D01*
X115938000Y-90082625D01*
X115953875Y-90066750D01*
X115969750Y-90082625D01*
X115969750Y-90082625D01*
G37*
X115969750Y-90082625D02*
X115953875Y-90098500D01*
X115938000Y-90082625D01*
X115953875Y-90066750D01*
X115969750Y-90082625D01*
G36*
X117619457Y-89835797D02*
X117620750Y-89844500D01*
X117609917Y-89875424D01*
X117606748Y-89876250D01*
X117579641Y-89854001D01*
X117573125Y-89844500D01*
X117575642Y-89815242D01*
X117587126Y-89812750D01*
X117619457Y-89835797D01*
X117619457Y-89835797D01*
G37*
X117619457Y-89835797D02*
X117620750Y-89844500D01*
X117609917Y-89875424D01*
X117606748Y-89876250D01*
X117579641Y-89854001D01*
X117573125Y-89844500D01*
X117575642Y-89815242D01*
X117587126Y-89812750D01*
X117619457Y-89835797D01*
G36*
X117673666Y-89759833D02*
X117677466Y-89797513D01*
X117673666Y-89802166D01*
X117654791Y-89797808D01*
X117652500Y-89781000D01*
X117664116Y-89754866D01*
X117673666Y-89759833D01*
X117673666Y-89759833D01*
G37*
X117673666Y-89759833D02*
X117677466Y-89797513D01*
X117673666Y-89802166D01*
X117654791Y-89797808D01*
X117652500Y-89781000D01*
X117664116Y-89754866D01*
X117673666Y-89759833D01*
G36*
X118080900Y-89781363D02*
X118046941Y-89807683D01*
X118010549Y-89812100D01*
X118001750Y-89800271D01*
X118026654Y-89779880D01*
X118051024Y-89768885D01*
X118083798Y-89766666D01*
X118080900Y-89781363D01*
X118080900Y-89781363D01*
G37*
X118080900Y-89781363D02*
X118046941Y-89807683D01*
X118010549Y-89812100D01*
X118001750Y-89800271D01*
X118026654Y-89779880D01*
X118051024Y-89768885D01*
X118083798Y-89766666D01*
X118080900Y-89781363D01*
G36*
X117938250Y-89733375D02*
X117922375Y-89749250D01*
X117906500Y-89733375D01*
X117922375Y-89717500D01*
X117938250Y-89733375D01*
X117938250Y-89733375D01*
G37*
X117938250Y-89733375D02*
X117922375Y-89749250D01*
X117906500Y-89733375D01*
X117922375Y-89717500D01*
X117938250Y-89733375D01*
G36*
X118890750Y-89034875D02*
X118874875Y-89050750D01*
X118859000Y-89034875D01*
X118874875Y-89019000D01*
X118890750Y-89034875D01*
X118890750Y-89034875D01*
G37*
X118890750Y-89034875D02*
X118874875Y-89050750D01*
X118859000Y-89034875D01*
X118874875Y-89019000D01*
X118890750Y-89034875D01*
D16*
X106380000Y-89010000D02*
X98480000Y-89010000D01*
X106380000Y-94650000D02*
X106380000Y-89020000D01*
X98480000Y-89070000D02*
X98480000Y-94650000D01*
X98480000Y-94680000D02*
X106380000Y-94680000D01*
X125900000Y-43300000D02*
X125900000Y-34300000D01*
X125900000Y-34300000D02*
X126900000Y-33300000D01*
X126900000Y-33300000D02*
X118900000Y-33300000D01*
X118900000Y-33300000D02*
X118900000Y-43300000D01*
X118900000Y-43300000D02*
X126900000Y-43300000D01*
X126900000Y-43300000D02*
X126900000Y-33300000D01*
D13*
X94688095Y-31852381D02*
X94688095Y-32661905D01*
X94735714Y-32757143D01*
X94783333Y-32804762D01*
X94878571Y-32852381D01*
X95069048Y-32852381D01*
X95164286Y-32804762D01*
X95211905Y-32757143D01*
X95259524Y-32661905D01*
X95259524Y-31852381D01*
X95640476Y-31852381D02*
X96259524Y-31852381D01*
X95926190Y-32233333D01*
X96069048Y-32233333D01*
X96164286Y-32280952D01*
X96211905Y-32328571D01*
X96259524Y-32423810D01*
X96259524Y-32661905D01*
X96211905Y-32757143D01*
X96164286Y-32804762D01*
X96069048Y-32852381D01*
X95783333Y-32852381D01*
X95688095Y-32804762D01*
X95640476Y-32757143D01*
X109236571Y-45860430D02*
X109236571Y-45527096D01*
X109760381Y-45384239D02*
X109760381Y-45860430D01*
X108760381Y-45860430D01*
X108760381Y-45384239D01*
X109712762Y-45003287D02*
X109760381Y-44908049D01*
X109760381Y-44717573D01*
X109712762Y-44622334D01*
X109617524Y-44574715D01*
X109569905Y-44574715D01*
X109474667Y-44622334D01*
X109427048Y-44717573D01*
X109427048Y-44860430D01*
X109379429Y-44955668D01*
X109284190Y-45003287D01*
X109236571Y-45003287D01*
X109141333Y-44955668D01*
X109093714Y-44860430D01*
X109093714Y-44717573D01*
X109141333Y-44622334D01*
X109093714Y-44146144D02*
X110093714Y-44146144D01*
X109141333Y-44146144D02*
X109093714Y-44050906D01*
X109093714Y-43860429D01*
X109141333Y-43765191D01*
X109188952Y-43717572D01*
X109284190Y-43669953D01*
X109569905Y-43669953D01*
X109665143Y-43717572D01*
X109712762Y-43765191D01*
X109760381Y-43860429D01*
X109760381Y-44050906D01*
X109712762Y-44146144D01*
X109760381Y-43241382D02*
X109093714Y-43241382D01*
X109284190Y-43241382D02*
X109188952Y-43193763D01*
X109141333Y-43146144D01*
X109093714Y-43050906D01*
X109093714Y-42955667D01*
X109712762Y-42241381D02*
X109760381Y-42336619D01*
X109760381Y-42527096D01*
X109712762Y-42622334D01*
X109617524Y-42669953D01*
X109236571Y-42669953D01*
X109141333Y-42622334D01*
X109093714Y-42527096D01*
X109093714Y-42336619D01*
X109141333Y-42241381D01*
X109236571Y-42193762D01*
X109331810Y-42193762D01*
X109427048Y-42669953D01*
X109712762Y-41812810D02*
X109760381Y-41717572D01*
X109760381Y-41527096D01*
X109712762Y-41431857D01*
X109617524Y-41384238D01*
X109569905Y-41384238D01*
X109474667Y-41431857D01*
X109427048Y-41527096D01*
X109427048Y-41669953D01*
X109379429Y-41765191D01*
X109284190Y-41812810D01*
X109236571Y-41812810D01*
X109141333Y-41765191D01*
X109093714Y-41669953D01*
X109093714Y-41527096D01*
X109141333Y-41431857D01*
X109712762Y-41003286D02*
X109760381Y-40908048D01*
X109760381Y-40717572D01*
X109712762Y-40622333D01*
X109617524Y-40574714D01*
X109569905Y-40574714D01*
X109474667Y-40622333D01*
X109427048Y-40717572D01*
X109427048Y-40860429D01*
X109379429Y-40955667D01*
X109284190Y-41003286D01*
X109236571Y-41003286D01*
X109141333Y-40955667D01*
X109093714Y-40860429D01*
X109093714Y-40717572D01*
X109141333Y-40622333D01*
X109760381Y-40146143D02*
X109093714Y-40146143D01*
X108760381Y-40146143D02*
X108808000Y-40193762D01*
X108855619Y-40146143D01*
X108808000Y-40098524D01*
X108760381Y-40146143D01*
X108855619Y-40146143D01*
X109093714Y-39812810D02*
X109093714Y-39431858D01*
X109760381Y-39669953D02*
X108903238Y-39669953D01*
X108808000Y-39622334D01*
X108760381Y-39527096D01*
X108760381Y-39431858D01*
X109712762Y-38384238D02*
X109760381Y-38241381D01*
X109760381Y-38003285D01*
X109712762Y-37908047D01*
X109665143Y-37860428D01*
X109569905Y-37812809D01*
X109474667Y-37812809D01*
X109379429Y-37860428D01*
X109331810Y-37908047D01*
X109284190Y-38003285D01*
X109236571Y-38193762D01*
X109188952Y-38289000D01*
X109141333Y-38336619D01*
X109046095Y-38384238D01*
X108950857Y-38384238D01*
X108855619Y-38336619D01*
X108808000Y-38289000D01*
X108760381Y-38193762D01*
X108760381Y-37955666D01*
X108808000Y-37812809D01*
X109093714Y-37479476D02*
X109760381Y-37241381D01*
X109093714Y-37003285D02*
X109760381Y-37241381D01*
X109998476Y-37336619D01*
X110046095Y-37384238D01*
X110093714Y-37479476D01*
X109712762Y-36669952D02*
X109760381Y-36574714D01*
X109760381Y-36384238D01*
X109712762Y-36288999D01*
X109617524Y-36241380D01*
X109569905Y-36241380D01*
X109474667Y-36288999D01*
X109427048Y-36384238D01*
X109427048Y-36527095D01*
X109379429Y-36622333D01*
X109284190Y-36669952D01*
X109236571Y-36669952D01*
X109141333Y-36622333D01*
X109093714Y-36527095D01*
X109093714Y-36384238D01*
X109141333Y-36288999D01*
X109093714Y-35955666D02*
X109093714Y-35574714D01*
X108760381Y-35812809D02*
X109617524Y-35812809D01*
X109712762Y-35765190D01*
X109760381Y-35669952D01*
X109760381Y-35574714D01*
X109712762Y-34860427D02*
X109760381Y-34955665D01*
X109760381Y-35146142D01*
X109712762Y-35241380D01*
X109617524Y-35288999D01*
X109236571Y-35288999D01*
X109141333Y-35241380D01*
X109093714Y-35146142D01*
X109093714Y-34955665D01*
X109141333Y-34860427D01*
X109236571Y-34812808D01*
X109331810Y-34812808D01*
X109427048Y-35288999D01*
X109760381Y-34384237D02*
X109093714Y-34384237D01*
X109188952Y-34384237D02*
X109141333Y-34336618D01*
X109093714Y-34241380D01*
X109093714Y-34098522D01*
X109141333Y-34003284D01*
X109236571Y-33955665D01*
X109760381Y-33955665D01*
X109236571Y-33955665D02*
X109141333Y-33908046D01*
X109093714Y-33812808D01*
X109093714Y-33669951D01*
X109141333Y-33574713D01*
X109236571Y-33527094D01*
X109760381Y-33527094D01*
X109712762Y-33098523D02*
X109760381Y-33003285D01*
X109760381Y-32812809D01*
X109712762Y-32717570D01*
X109617524Y-32669951D01*
X109569905Y-32669951D01*
X109474667Y-32717570D01*
X109427048Y-32812809D01*
X109427048Y-32955666D01*
X109379429Y-33050904D01*
X109284190Y-33098523D01*
X109236571Y-33098523D01*
X109141333Y-33050904D01*
X109093714Y-32955666D01*
X109093714Y-32812809D01*
X109141333Y-32717570D01*
X107585571Y-43598381D02*
X107585571Y-43265047D01*
X108109381Y-43122190D02*
X108109381Y-43598381D01*
X107109381Y-43598381D01*
X107109381Y-43122190D01*
X108061762Y-42741238D02*
X108109381Y-42598381D01*
X108109381Y-42360285D01*
X108061762Y-42265047D01*
X108014143Y-42217428D01*
X107918905Y-42169809D01*
X107823667Y-42169809D01*
X107728429Y-42217428D01*
X107680810Y-42265047D01*
X107633190Y-42360285D01*
X107585571Y-42550762D01*
X107537952Y-42646000D01*
X107490333Y-42693619D01*
X107395095Y-42741238D01*
X107299857Y-42741238D01*
X107204619Y-42693619D01*
X107157000Y-42646000D01*
X107109381Y-42550762D01*
X107109381Y-42312666D01*
X107157000Y-42169809D01*
X108109381Y-41741238D02*
X107109381Y-41741238D01*
X107109381Y-41360285D01*
X107157000Y-41265047D01*
X107204619Y-41217428D01*
X107299857Y-41169809D01*
X107442714Y-41169809D01*
X107537952Y-41217428D01*
X107585571Y-41265047D01*
X107633190Y-41360285D01*
X107633190Y-41741238D01*
X107109381Y-40836476D02*
X107109381Y-40217428D01*
X107490333Y-40550762D01*
X107490333Y-40407904D01*
X107537952Y-40312666D01*
X107585571Y-40265047D01*
X107680810Y-40217428D01*
X107918905Y-40217428D01*
X108014143Y-40265047D01*
X108061762Y-40312666D01*
X108109381Y-40407904D01*
X108109381Y-40693619D01*
X108061762Y-40788857D01*
X108014143Y-40836476D01*
X107204619Y-39836476D02*
X107157000Y-39788857D01*
X107109381Y-39693619D01*
X107109381Y-39455523D01*
X107157000Y-39360285D01*
X107204619Y-39312666D01*
X107299857Y-39265047D01*
X107395095Y-39265047D01*
X107537952Y-39312666D01*
X108109381Y-39884095D01*
X108109381Y-39265047D01*
X107728429Y-38836476D02*
X107728429Y-38074571D01*
X107109381Y-37693619D02*
X108109381Y-37455524D01*
X107395095Y-37265047D01*
X108109381Y-37074571D01*
X107109381Y-36836476D01*
X108109381Y-35884095D02*
X107633190Y-36217429D01*
X108109381Y-36455524D02*
X107109381Y-36455524D01*
X107109381Y-36074571D01*
X107157000Y-35979333D01*
X107204619Y-35931714D01*
X107299857Y-35884095D01*
X107442714Y-35884095D01*
X107537952Y-35931714D01*
X107585571Y-35979333D01*
X107633190Y-36074571D01*
X107633190Y-36455524D01*
X107109381Y-35265048D02*
X107109381Y-35074571D01*
X107157000Y-34979333D01*
X107252238Y-34884095D01*
X107442714Y-34836476D01*
X107776048Y-34836476D01*
X107966524Y-34884095D01*
X108061762Y-34979333D01*
X108109381Y-35074571D01*
X108109381Y-35265048D01*
X108061762Y-35360286D01*
X107966524Y-35455524D01*
X107776048Y-35503143D01*
X107442714Y-35503143D01*
X107252238Y-35455524D01*
X107157000Y-35360286D01*
X107109381Y-35265048D01*
X107109381Y-34217429D02*
X107109381Y-34026952D01*
X107157000Y-33931714D01*
X107252238Y-33836476D01*
X107442714Y-33788857D01*
X107776048Y-33788857D01*
X107966524Y-33836476D01*
X108061762Y-33931714D01*
X108109381Y-34026952D01*
X108109381Y-34217429D01*
X108061762Y-34312667D01*
X107966524Y-34407905D01*
X107776048Y-34455524D01*
X107442714Y-34455524D01*
X107252238Y-34407905D01*
X107157000Y-34312667D01*
X107109381Y-34217429D01*
X108109381Y-33360286D02*
X107109381Y-33360286D01*
X107823667Y-33026952D01*
X107109381Y-32693619D01*
X108109381Y-32693619D01*
X85107143Y-66066666D02*
X85154762Y-66114285D01*
X85202381Y-66257142D01*
X85202381Y-66352380D01*
X85154762Y-66495238D01*
X85059524Y-66590476D01*
X84964286Y-66638095D01*
X84773810Y-66685714D01*
X84630952Y-66685714D01*
X84440476Y-66638095D01*
X84345238Y-66590476D01*
X84250000Y-66495238D01*
X84202381Y-66352380D01*
X84202381Y-66257142D01*
X84250000Y-66114285D01*
X84297619Y-66066666D01*
X84202381Y-65733333D02*
X84202381Y-65114285D01*
X84583333Y-65447619D01*
X84583333Y-65304761D01*
X84630952Y-65209523D01*
X84678571Y-65161904D01*
X84773810Y-65114285D01*
X85011905Y-65114285D01*
X85107143Y-65161904D01*
X85154762Y-65209523D01*
X85202381Y-65304761D01*
X85202381Y-65590476D01*
X85154762Y-65685714D01*
X85107143Y-65733333D01*
X84733334Y-73907143D02*
X84685715Y-73954762D01*
X84542858Y-74002381D01*
X84447620Y-74002381D01*
X84304762Y-73954762D01*
X84209524Y-73859524D01*
X84161905Y-73764286D01*
X84114286Y-73573810D01*
X84114286Y-73430952D01*
X84161905Y-73240476D01*
X84209524Y-73145238D01*
X84304762Y-73050000D01*
X84447620Y-73002381D01*
X84542858Y-73002381D01*
X84685715Y-73050000D01*
X84733334Y-73097619D01*
X85638096Y-73002381D02*
X85161905Y-73002381D01*
X85114286Y-73478571D01*
X85161905Y-73430952D01*
X85257143Y-73383333D01*
X85495239Y-73383333D01*
X85590477Y-73430952D01*
X85638096Y-73478571D01*
X85685715Y-73573810D01*
X85685715Y-73811905D01*
X85638096Y-73907143D01*
X85590477Y-73954762D01*
X85495239Y-74002381D01*
X85257143Y-74002381D01*
X85161905Y-73954762D01*
X85114286Y-73907143D01*
X97402381Y-75661905D02*
X98211905Y-75661905D01*
X98307143Y-75614286D01*
X98354762Y-75566667D01*
X98402381Y-75471429D01*
X98402381Y-75280952D01*
X98354762Y-75185714D01*
X98307143Y-75138095D01*
X98211905Y-75090476D01*
X97402381Y-75090476D01*
X98402381Y-74090476D02*
X98402381Y-74661905D01*
X98402381Y-74376191D02*
X97402381Y-74376191D01*
X97545238Y-74471429D01*
X97640476Y-74566667D01*
X97688095Y-74661905D01*
X91938095Y-61977381D02*
X91938095Y-62786905D01*
X91985714Y-62882143D01*
X92033333Y-62929762D01*
X92128571Y-62977381D01*
X92319048Y-62977381D01*
X92414286Y-62929762D01*
X92461905Y-62882143D01*
X92509524Y-62786905D01*
X92509524Y-61977381D01*
X92938095Y-62072619D02*
X92985714Y-62025000D01*
X93080952Y-61977381D01*
X93319048Y-61977381D01*
X93414286Y-62025000D01*
X93461905Y-62072619D01*
X93509524Y-62167857D01*
X93509524Y-62263095D01*
X93461905Y-62405952D01*
X92890476Y-62977381D01*
X93509524Y-62977381D01*
X88557143Y-66316666D02*
X88604762Y-66364285D01*
X88652381Y-66507142D01*
X88652381Y-66602380D01*
X88604762Y-66745238D01*
X88509524Y-66840476D01*
X88414286Y-66888095D01*
X88223810Y-66935714D01*
X88080952Y-66935714D01*
X87890476Y-66888095D01*
X87795238Y-66840476D01*
X87700000Y-66745238D01*
X87652381Y-66602380D01*
X87652381Y-66507142D01*
X87700000Y-66364285D01*
X87747619Y-66316666D01*
X87985714Y-65459523D02*
X88652381Y-65459523D01*
X87604762Y-65697619D02*
X88319048Y-65935714D01*
X88319048Y-65316666D01*
X84033334Y-71007143D02*
X83985715Y-71054762D01*
X83842858Y-71102381D01*
X83747620Y-71102381D01*
X83604762Y-71054762D01*
X83509524Y-70959524D01*
X83461905Y-70864286D01*
X83414286Y-70673810D01*
X83414286Y-70530952D01*
X83461905Y-70340476D01*
X83509524Y-70245238D01*
X83604762Y-70150000D01*
X83747620Y-70102381D01*
X83842858Y-70102381D01*
X83985715Y-70150000D01*
X84033334Y-70197619D01*
X84890477Y-70102381D02*
X84700000Y-70102381D01*
X84604762Y-70150000D01*
X84557143Y-70197619D01*
X84461905Y-70340476D01*
X84414286Y-70530952D01*
X84414286Y-70911905D01*
X84461905Y-71007143D01*
X84509524Y-71054762D01*
X84604762Y-71102381D01*
X84795239Y-71102381D01*
X84890477Y-71054762D01*
X84938096Y-71007143D01*
X84985715Y-70911905D01*
X84985715Y-70673810D01*
X84938096Y-70578571D01*
X84890477Y-70530952D01*
X84795239Y-70483333D01*
X84604762Y-70483333D01*
X84509524Y-70530952D01*
X84461905Y-70578571D01*
X84414286Y-70673810D01*
X112533334Y-61507143D02*
X112485715Y-61554762D01*
X112342858Y-61602381D01*
X112247620Y-61602381D01*
X112104762Y-61554762D01*
X112009524Y-61459524D01*
X111961905Y-61364286D01*
X111914286Y-61173810D01*
X111914286Y-61030952D01*
X111961905Y-60840476D01*
X112009524Y-60745238D01*
X112104762Y-60650000D01*
X112247620Y-60602381D01*
X112342858Y-60602381D01*
X112485715Y-60650000D01*
X112533334Y-60697619D01*
X112866667Y-60602381D02*
X113533334Y-60602381D01*
X113104762Y-61602381D01*
X87357143Y-36816666D02*
X87404762Y-36864285D01*
X87452381Y-37007142D01*
X87452381Y-37102380D01*
X87404762Y-37245238D01*
X87309524Y-37340476D01*
X87214286Y-37388095D01*
X87023810Y-37435714D01*
X86880952Y-37435714D01*
X86690476Y-37388095D01*
X86595238Y-37340476D01*
X86500000Y-37245238D01*
X86452381Y-37102380D01*
X86452381Y-37007142D01*
X86500000Y-36864285D01*
X86547619Y-36816666D01*
X86880952Y-36245238D02*
X86833333Y-36340476D01*
X86785714Y-36388095D01*
X86690476Y-36435714D01*
X86642857Y-36435714D01*
X86547619Y-36388095D01*
X86500000Y-36340476D01*
X86452381Y-36245238D01*
X86452381Y-36054761D01*
X86500000Y-35959523D01*
X86547619Y-35911904D01*
X86642857Y-35864285D01*
X86690476Y-35864285D01*
X86785714Y-35911904D01*
X86833333Y-35959523D01*
X86880952Y-36054761D01*
X86880952Y-36245238D01*
X86928571Y-36340476D01*
X86976190Y-36388095D01*
X87071429Y-36435714D01*
X87261905Y-36435714D01*
X87357143Y-36388095D01*
X87404762Y-36340476D01*
X87452381Y-36245238D01*
X87452381Y-36054761D01*
X87404762Y-35959523D01*
X87357143Y-35911904D01*
X87261905Y-35864285D01*
X87071429Y-35864285D01*
X86976190Y-35911904D01*
X86928571Y-35959523D01*
X86880952Y-36054761D01*
X91057143Y-36816666D02*
X91104762Y-36864285D01*
X91152381Y-37007142D01*
X91152381Y-37102380D01*
X91104762Y-37245238D01*
X91009524Y-37340476D01*
X90914286Y-37388095D01*
X90723810Y-37435714D01*
X90580952Y-37435714D01*
X90390476Y-37388095D01*
X90295238Y-37340476D01*
X90200000Y-37245238D01*
X90152381Y-37102380D01*
X90152381Y-37007142D01*
X90200000Y-36864285D01*
X90247619Y-36816666D01*
X91152381Y-36340476D02*
X91152381Y-36150000D01*
X91104762Y-36054761D01*
X91057143Y-36007142D01*
X90914286Y-35911904D01*
X90723810Y-35864285D01*
X90342857Y-35864285D01*
X90247619Y-35911904D01*
X90200000Y-35959523D01*
X90152381Y-36054761D01*
X90152381Y-36245238D01*
X90200000Y-36340476D01*
X90247619Y-36388095D01*
X90342857Y-36435714D01*
X90580952Y-36435714D01*
X90676190Y-36388095D01*
X90723810Y-36340476D01*
X90771429Y-36245238D01*
X90771429Y-36054761D01*
X90723810Y-35959523D01*
X90676190Y-35911904D01*
X90580952Y-35864285D01*
X83557143Y-53757143D02*
X83509524Y-53804762D01*
X83366667Y-53852381D01*
X83271429Y-53852381D01*
X83128571Y-53804762D01*
X83033333Y-53709524D01*
X82985714Y-53614286D01*
X82938095Y-53423810D01*
X82938095Y-53280952D01*
X82985714Y-53090476D01*
X83033333Y-52995238D01*
X83128571Y-52900000D01*
X83271429Y-52852381D01*
X83366667Y-52852381D01*
X83509524Y-52900000D01*
X83557143Y-52947619D01*
X84509524Y-53852381D02*
X83938095Y-53852381D01*
X84223809Y-53852381D02*
X84223809Y-52852381D01*
X84128571Y-52995238D01*
X84033333Y-53090476D01*
X83938095Y-53138095D01*
X85461905Y-53852381D02*
X84890476Y-53852381D01*
X85176190Y-53852381D02*
X85176190Y-52852381D01*
X85080952Y-52995238D01*
X84985714Y-53090476D01*
X84890476Y-53138095D01*
X119057143Y-83657143D02*
X119009524Y-83704762D01*
X118866667Y-83752381D01*
X118771429Y-83752381D01*
X118628571Y-83704762D01*
X118533333Y-83609524D01*
X118485714Y-83514286D01*
X118438095Y-83323810D01*
X118438095Y-83180952D01*
X118485714Y-82990476D01*
X118533333Y-82895238D01*
X118628571Y-82800000D01*
X118771429Y-82752381D01*
X118866667Y-82752381D01*
X119009524Y-82800000D01*
X119057143Y-82847619D01*
X120009524Y-83752381D02*
X119438095Y-83752381D01*
X119723809Y-83752381D02*
X119723809Y-82752381D01*
X119628571Y-82895238D01*
X119533333Y-82990476D01*
X119438095Y-83038095D01*
X120390476Y-82847619D02*
X120438095Y-82800000D01*
X120533333Y-82752381D01*
X120771429Y-82752381D01*
X120866667Y-82800000D01*
X120914286Y-82847619D01*
X120961905Y-82942857D01*
X120961905Y-83038095D01*
X120914286Y-83180952D01*
X120342857Y-83752381D01*
X120961905Y-83752381D01*
X101888905Y-85457381D02*
X101888905Y-84457381D01*
X102127000Y-84457381D01*
X102269858Y-84505000D01*
X102365096Y-84600238D01*
X102412715Y-84695476D01*
X102460334Y-84885952D01*
X102460334Y-85028810D01*
X102412715Y-85219286D01*
X102365096Y-85314524D01*
X102269858Y-85409762D01*
X102127000Y-85457381D01*
X101888905Y-85457381D01*
X103412715Y-85457381D02*
X102841286Y-85457381D01*
X103127000Y-85457381D02*
X103127000Y-84457381D01*
X103031762Y-84600238D01*
X102936524Y-84695476D01*
X102841286Y-84743095D01*
X91961905Y-57702381D02*
X91961905Y-56702381D01*
X92200000Y-56702381D01*
X92342858Y-56750000D01*
X92438096Y-56845238D01*
X92485715Y-56940476D01*
X92533334Y-57130952D01*
X92533334Y-57273810D01*
X92485715Y-57464286D01*
X92438096Y-57559524D01*
X92342858Y-57654762D01*
X92200000Y-57702381D01*
X91961905Y-57702381D01*
X92914286Y-56797619D02*
X92961905Y-56750000D01*
X93057143Y-56702381D01*
X93295239Y-56702381D01*
X93390477Y-56750000D01*
X93438096Y-56797619D01*
X93485715Y-56892857D01*
X93485715Y-56988095D01*
X93438096Y-57130952D01*
X92866667Y-57702381D01*
X93485715Y-57702381D01*
X111961905Y-57702381D02*
X111961905Y-56702381D01*
X112200000Y-56702381D01*
X112342858Y-56750000D01*
X112438096Y-56845238D01*
X112485715Y-56940476D01*
X112533334Y-57130952D01*
X112533334Y-57273810D01*
X112485715Y-57464286D01*
X112438096Y-57559524D01*
X112342858Y-57654762D01*
X112200000Y-57702381D01*
X111961905Y-57702381D01*
X112866667Y-56702381D02*
X113485715Y-56702381D01*
X113152381Y-57083333D01*
X113295239Y-57083333D01*
X113390477Y-57130952D01*
X113438096Y-57178571D01*
X113485715Y-57273810D01*
X113485715Y-57511905D01*
X113438096Y-57607143D01*
X113390477Y-57654762D01*
X113295239Y-57702381D01*
X113009524Y-57702381D01*
X112914286Y-57654762D01*
X112866667Y-57607143D01*
X83052381Y-46388095D02*
X82052381Y-46388095D01*
X82052381Y-46150000D01*
X82100000Y-46007142D01*
X82195238Y-45911904D01*
X82290476Y-45864285D01*
X82480952Y-45816666D01*
X82623810Y-45816666D01*
X82814286Y-45864285D01*
X82909524Y-45911904D01*
X83004762Y-46007142D01*
X83052381Y-46150000D01*
X83052381Y-46388095D01*
X82385714Y-44959523D02*
X83052381Y-44959523D01*
X82004762Y-45197619D02*
X82719048Y-45435714D01*
X82719048Y-44816666D01*
X101761905Y-61052381D02*
X101761905Y-60052381D01*
X102000000Y-60052381D01*
X102142858Y-60100000D01*
X102238096Y-60195238D01*
X102285715Y-60290476D01*
X102333334Y-60480952D01*
X102333334Y-60623810D01*
X102285715Y-60814286D01*
X102238096Y-60909524D01*
X102142858Y-61004762D01*
X102000000Y-61052381D01*
X101761905Y-61052381D01*
X103238096Y-60052381D02*
X102761905Y-60052381D01*
X102714286Y-60528571D01*
X102761905Y-60480952D01*
X102857143Y-60433333D01*
X103095239Y-60433333D01*
X103190477Y-60480952D01*
X103238096Y-60528571D01*
X103285715Y-60623810D01*
X103285715Y-60861905D01*
X103238096Y-60957143D01*
X103190477Y-61004762D01*
X103095239Y-61052381D01*
X102857143Y-61052381D01*
X102761905Y-61004762D01*
X102714286Y-60957143D01*
X118247619Y-61895238D02*
X118200000Y-61990476D01*
X118104762Y-62085714D01*
X117961905Y-62228571D01*
X117914286Y-62323810D01*
X117914286Y-62419048D01*
X118152381Y-62371429D02*
X118104762Y-62466667D01*
X118009524Y-62561905D01*
X117819048Y-62609524D01*
X117485714Y-62609524D01*
X117295238Y-62561905D01*
X117200000Y-62466667D01*
X117152381Y-62371429D01*
X117152381Y-62180952D01*
X117200000Y-62085714D01*
X117295238Y-61990476D01*
X117485714Y-61942857D01*
X117819048Y-61942857D01*
X118009524Y-61990476D01*
X118104762Y-62085714D01*
X118152381Y-62180952D01*
X118152381Y-62371429D01*
X118152381Y-60990476D02*
X118152381Y-61561905D01*
X118152381Y-61276191D02*
X117152381Y-61276191D01*
X117295238Y-61371429D01*
X117390476Y-61466667D01*
X117438095Y-61561905D01*
X118247619Y-55395238D02*
X118200000Y-55490476D01*
X118104762Y-55585714D01*
X117961905Y-55728571D01*
X117914286Y-55823810D01*
X117914286Y-55919048D01*
X118152381Y-55871429D02*
X118104762Y-55966667D01*
X118009524Y-56061905D01*
X117819048Y-56109524D01*
X117485714Y-56109524D01*
X117295238Y-56061905D01*
X117200000Y-55966667D01*
X117152381Y-55871429D01*
X117152381Y-55680952D01*
X117200000Y-55585714D01*
X117295238Y-55490476D01*
X117485714Y-55442857D01*
X117819048Y-55442857D01*
X118009524Y-55490476D01*
X118104762Y-55585714D01*
X118152381Y-55680952D01*
X118152381Y-55871429D01*
X117247619Y-55061905D02*
X117200000Y-55014286D01*
X117152381Y-54919048D01*
X117152381Y-54680952D01*
X117200000Y-54585714D01*
X117247619Y-54538095D01*
X117342857Y-54490476D01*
X117438095Y-54490476D01*
X117580952Y-54538095D01*
X118152381Y-55109524D01*
X118152381Y-54490476D01*
X92533334Y-74702381D02*
X92200000Y-74226190D01*
X91961905Y-74702381D02*
X91961905Y-73702381D01*
X92342858Y-73702381D01*
X92438096Y-73750000D01*
X92485715Y-73797619D01*
X92533334Y-73892857D01*
X92533334Y-74035714D01*
X92485715Y-74130952D01*
X92438096Y-74178571D01*
X92342858Y-74226190D01*
X91961905Y-74226190D01*
X93485715Y-74702381D02*
X92914286Y-74702381D01*
X93200000Y-74702381D02*
X93200000Y-73702381D01*
X93104762Y-73845238D01*
X93009524Y-73940476D01*
X92914286Y-73988095D01*
X92533334Y-57752381D02*
X92200000Y-57276190D01*
X91961905Y-57752381D02*
X91961905Y-56752381D01*
X92342858Y-56752381D01*
X92438096Y-56800000D01*
X92485715Y-56847619D01*
X92533334Y-56942857D01*
X92533334Y-57085714D01*
X92485715Y-57180952D01*
X92438096Y-57228571D01*
X92342858Y-57276190D01*
X91961905Y-57276190D01*
X92914286Y-56847619D02*
X92961905Y-56800000D01*
X93057143Y-56752381D01*
X93295239Y-56752381D01*
X93390477Y-56800000D01*
X93438096Y-56847619D01*
X93485715Y-56942857D01*
X93485715Y-57038095D01*
X93438096Y-57180952D01*
X92866667Y-57752381D01*
X93485715Y-57752381D01*
X112533334Y-57752381D02*
X112200000Y-57276190D01*
X111961905Y-57752381D02*
X111961905Y-56752381D01*
X112342858Y-56752381D01*
X112438096Y-56800000D01*
X112485715Y-56847619D01*
X112533334Y-56942857D01*
X112533334Y-57085714D01*
X112485715Y-57180952D01*
X112438096Y-57228571D01*
X112342858Y-57276190D01*
X111961905Y-57276190D01*
X112866667Y-56752381D02*
X113485715Y-56752381D01*
X113152381Y-57133333D01*
X113295239Y-57133333D01*
X113390477Y-57180952D01*
X113438096Y-57228571D01*
X113485715Y-57323810D01*
X113485715Y-57561905D01*
X113438096Y-57657143D01*
X113390477Y-57704762D01*
X113295239Y-57752381D01*
X113009524Y-57752381D01*
X112914286Y-57704762D01*
X112866667Y-57657143D01*
X91252381Y-45816666D02*
X90776190Y-46150000D01*
X91252381Y-46388095D02*
X90252381Y-46388095D01*
X90252381Y-46007142D01*
X90300000Y-45911904D01*
X90347619Y-45864285D01*
X90442857Y-45816666D01*
X90585714Y-45816666D01*
X90680952Y-45864285D01*
X90728571Y-45911904D01*
X90776190Y-46007142D01*
X90776190Y-46388095D01*
X90585714Y-44959523D02*
X91252381Y-44959523D01*
X90204762Y-45197619D02*
X90919048Y-45435714D01*
X90919048Y-44816666D01*
X123302381Y-62066666D02*
X122826190Y-62400000D01*
X123302381Y-62638095D02*
X122302381Y-62638095D01*
X122302381Y-62257142D01*
X122350000Y-62161904D01*
X122397619Y-62114285D01*
X122492857Y-62066666D01*
X122635714Y-62066666D01*
X122730952Y-62114285D01*
X122778571Y-62161904D01*
X122826190Y-62257142D01*
X122826190Y-62638095D01*
X122302381Y-61161904D02*
X122302381Y-61638095D01*
X122778571Y-61685714D01*
X122730952Y-61638095D01*
X122683333Y-61542857D01*
X122683333Y-61304761D01*
X122730952Y-61209523D01*
X122778571Y-61161904D01*
X122873810Y-61114285D01*
X123111905Y-61114285D01*
X123207143Y-61161904D01*
X123254762Y-61209523D01*
X123302381Y-61304761D01*
X123302381Y-61542857D01*
X123254762Y-61638095D01*
X123207143Y-61685714D01*
X123202381Y-54966666D02*
X122726190Y-55300000D01*
X123202381Y-55538095D02*
X122202381Y-55538095D01*
X122202381Y-55157142D01*
X122250000Y-55061904D01*
X122297619Y-55014285D01*
X122392857Y-54966666D01*
X122535714Y-54966666D01*
X122630952Y-55014285D01*
X122678571Y-55061904D01*
X122726190Y-55157142D01*
X122726190Y-55538095D01*
X122202381Y-54109523D02*
X122202381Y-54300000D01*
X122250000Y-54395238D01*
X122297619Y-54442857D01*
X122440476Y-54538095D01*
X122630952Y-54585714D01*
X123011905Y-54585714D01*
X123107143Y-54538095D01*
X123154762Y-54490476D01*
X123202381Y-54395238D01*
X123202381Y-54204761D01*
X123154762Y-54109523D01*
X123107143Y-54061904D01*
X123011905Y-54014285D01*
X122773810Y-54014285D01*
X122678571Y-54061904D01*
X122630952Y-54109523D01*
X122583333Y-54204761D01*
X122583333Y-54395238D01*
X122630952Y-54490476D01*
X122678571Y-54538095D01*
X122773810Y-54585714D01*
X121033334Y-45252381D02*
X120700000Y-44776190D01*
X120461905Y-45252381D02*
X120461905Y-44252381D01*
X120842858Y-44252381D01*
X120938096Y-44300000D01*
X120985715Y-44347619D01*
X121033334Y-44442857D01*
X121033334Y-44585714D01*
X120985715Y-44680952D01*
X120938096Y-44728571D01*
X120842858Y-44776190D01*
X120461905Y-44776190D01*
X121604762Y-44680952D02*
X121509524Y-44633333D01*
X121461905Y-44585714D01*
X121414286Y-44490476D01*
X121414286Y-44442857D01*
X121461905Y-44347619D01*
X121509524Y-44300000D01*
X121604762Y-44252381D01*
X121795239Y-44252381D01*
X121890477Y-44300000D01*
X121938096Y-44347619D01*
X121985715Y-44442857D01*
X121985715Y-44490476D01*
X121938096Y-44585714D01*
X121890477Y-44633333D01*
X121795239Y-44680952D01*
X121604762Y-44680952D01*
X121509524Y-44728571D01*
X121461905Y-44776190D01*
X121414286Y-44871429D01*
X121414286Y-45061905D01*
X121461905Y-45157143D01*
X121509524Y-45204762D01*
X121604762Y-45252381D01*
X121795239Y-45252381D01*
X121890477Y-45204762D01*
X121938096Y-45157143D01*
X121985715Y-45061905D01*
X121985715Y-44871429D01*
X121938096Y-44776190D01*
X121890477Y-44728571D01*
X121795239Y-44680952D01*
X121033334Y-48402381D02*
X120700000Y-47926190D01*
X120461905Y-48402381D02*
X120461905Y-47402381D01*
X120842858Y-47402381D01*
X120938096Y-47450000D01*
X120985715Y-47497619D01*
X121033334Y-47592857D01*
X121033334Y-47735714D01*
X120985715Y-47830952D01*
X120938096Y-47878571D01*
X120842858Y-47926190D01*
X120461905Y-47926190D01*
X121509524Y-48402381D02*
X121700000Y-48402381D01*
X121795239Y-48354762D01*
X121842858Y-48307143D01*
X121938096Y-48164286D01*
X121985715Y-47973810D01*
X121985715Y-47592857D01*
X121938096Y-47497619D01*
X121890477Y-47450000D01*
X121795239Y-47402381D01*
X121604762Y-47402381D01*
X121509524Y-47450000D01*
X121461905Y-47497619D01*
X121414286Y-47592857D01*
X121414286Y-47830952D01*
X121461905Y-47926190D01*
X121509524Y-47973810D01*
X121604762Y-48021429D01*
X121795239Y-48021429D01*
X121890477Y-47973810D01*
X121938096Y-47926190D01*
X121985715Y-47830952D01*
X101807143Y-56002381D02*
X101473809Y-55526190D01*
X101235714Y-56002381D02*
X101235714Y-55002381D01*
X101616667Y-55002381D01*
X101711905Y-55050000D01*
X101759524Y-55097619D01*
X101807143Y-55192857D01*
X101807143Y-55335714D01*
X101759524Y-55430952D01*
X101711905Y-55478571D01*
X101616667Y-55526190D01*
X101235714Y-55526190D01*
X102759524Y-56002381D02*
X102188095Y-56002381D01*
X102473809Y-56002381D02*
X102473809Y-55002381D01*
X102378571Y-55145238D01*
X102283333Y-55240476D01*
X102188095Y-55288095D01*
X103378571Y-55002381D02*
X103473810Y-55002381D01*
X103569048Y-55050000D01*
X103616667Y-55097619D01*
X103664286Y-55192857D01*
X103711905Y-55383333D01*
X103711905Y-55621429D01*
X103664286Y-55811905D01*
X103616667Y-55907143D01*
X103569048Y-55954762D01*
X103473810Y-56002381D01*
X103378571Y-56002381D01*
X103283333Y-55954762D01*
X103235714Y-55907143D01*
X103188095Y-55811905D01*
X103140476Y-55621429D01*
X103140476Y-55383333D01*
X103188095Y-55192857D01*
X103235714Y-55097619D01*
X103283333Y-55050000D01*
X103378571Y-55002381D01*
X83557143Y-57752381D02*
X83223809Y-57276190D01*
X82985714Y-57752381D02*
X82985714Y-56752381D01*
X83366667Y-56752381D01*
X83461905Y-56800000D01*
X83509524Y-56847619D01*
X83557143Y-56942857D01*
X83557143Y-57085714D01*
X83509524Y-57180952D01*
X83461905Y-57228571D01*
X83366667Y-57276190D01*
X82985714Y-57276190D01*
X84509524Y-57752381D02*
X83938095Y-57752381D01*
X84223809Y-57752381D02*
X84223809Y-56752381D01*
X84128571Y-56895238D01*
X84033333Y-56990476D01*
X83938095Y-57038095D01*
X85461905Y-57752381D02*
X84890476Y-57752381D01*
X85176190Y-57752381D02*
X85176190Y-56752381D01*
X85080952Y-56895238D01*
X84985714Y-56990476D01*
X84890476Y-57038095D01*
X122152381Y-71261905D02*
X122961905Y-71261905D01*
X123057143Y-71214286D01*
X123104762Y-71166667D01*
X123152381Y-71071429D01*
X123152381Y-70880952D01*
X123104762Y-70785714D01*
X123057143Y-70738095D01*
X122961905Y-70690476D01*
X122152381Y-70690476D01*
X122152381Y-69738095D02*
X122152381Y-70214286D01*
X122628571Y-70261905D01*
X122580952Y-70214286D01*
X122533333Y-70119048D01*
X122533333Y-69880952D01*
X122580952Y-69785714D01*
X122628571Y-69738095D01*
X122723810Y-69690476D01*
X122961905Y-69690476D01*
X123057143Y-69738095D01*
X123104762Y-69785714D01*
X123152381Y-69880952D01*
X123152381Y-70119048D01*
X123104762Y-70214286D01*
X123057143Y-70261905D01*
X92257143Y-79316666D02*
X92304762Y-79364285D01*
X92352381Y-79507142D01*
X92352381Y-79602380D01*
X92304762Y-79745238D01*
X92209524Y-79840476D01*
X92114286Y-79888095D01*
X91923810Y-79935714D01*
X91780952Y-79935714D01*
X91590476Y-79888095D01*
X91495238Y-79840476D01*
X91400000Y-79745238D01*
X91352381Y-79602380D01*
X91352381Y-79507142D01*
X91400000Y-79364285D01*
X91447619Y-79316666D01*
X91447619Y-78935714D02*
X91400000Y-78888095D01*
X91352381Y-78792857D01*
X91352381Y-78554761D01*
X91400000Y-78459523D01*
X91447619Y-78411904D01*
X91542857Y-78364285D01*
X91638095Y-78364285D01*
X91780952Y-78411904D01*
X92352381Y-78983333D01*
X92352381Y-78364285D01*
X113307143Y-79366666D02*
X113354762Y-79414285D01*
X113402381Y-79557142D01*
X113402381Y-79652380D01*
X113354762Y-79795238D01*
X113259524Y-79890476D01*
X113164286Y-79938095D01*
X112973810Y-79985714D01*
X112830952Y-79985714D01*
X112640476Y-79938095D01*
X112545238Y-79890476D01*
X112450000Y-79795238D01*
X112402381Y-79652380D01*
X112402381Y-79557142D01*
X112450000Y-79414285D01*
X112497619Y-79366666D01*
X113402381Y-78414285D02*
X113402381Y-78985714D01*
X113402381Y-78700000D02*
X112402381Y-78700000D01*
X112545238Y-78795238D01*
X112640476Y-78890476D01*
X112688095Y-78985714D01*
X99480476Y-88382381D02*
X99480476Y-87382381D01*
X99813810Y-88096667D01*
X100147143Y-87382381D01*
X100147143Y-88382381D01*
X101147143Y-88382381D02*
X100575714Y-88382381D01*
X100861428Y-88382381D02*
X100861428Y-87382381D01*
X100766190Y-87525238D01*
X100670952Y-87620476D01*
X100575714Y-87668095D01*
X117352381Y-42633333D02*
X118066667Y-42633333D01*
X118209524Y-42680953D01*
X118304762Y-42776191D01*
X118352381Y-42919048D01*
X118352381Y-43014286D01*
X118352381Y-41633333D02*
X118352381Y-42204762D01*
X118352381Y-41919048D02*
X117352381Y-41919048D01*
X117495238Y-42014286D01*
X117590476Y-42109524D01*
X117638095Y-42204762D01*
M02*
