M48
;DRILL file {KiCad 4.0.7} date 03/22/18 13:14:40
;FORMAT={-:-/ absolute / metric / decimal}
FMAT,2
METRIC,TZ
T1C0.400
T2C0.500
T3C0.700
T4C1.300
%
G90
G05
M71
T1
X79.3Y-50.9
X79.3Y-52.1
X79.3Y-53.4
X79.3Y-54.8
X79.3Y-56.2
X79.3Y-57.6
X79.3Y-59.
X79.3Y-60.5
X79.3Y-61.9
X79.3Y-63.2
X79.3Y-64.6
X79.3Y-66.
X79.3Y-67.4
X79.3Y-68.7
X79.3Y-69.9
X79.3Y-71.2
X79.3Y-72.5
X79.3Y-73.7
X79.3Y-74.9
X79.3Y-76.2
X79.3Y-77.5
X79.3Y-78.9
X79.3Y-80.2
X79.3Y-81.4
X79.3Y-82.6
X79.3Y-83.8
X79.3Y-85.
X79.3Y-86.2
X79.3Y-87.5
X79.3Y-88.8
X79.3Y-90.
X79.3Y-91.2
X79.3Y-92.4
X83.734Y-59.358
X84.194Y-58.157
X84.419Y-71.639
X87.765Y-64.448
X90.78Y-67.85
X92.066Y-71.149
X92.186Y-62.09
X92.95Y-61.201
X93.765Y-61.431
X94.412Y-63.115
X95.213Y-35.877
X108.1Y-84.8
X109.198Y-51.345
X109.875Y-50.524
X111.426Y-67.358
X112.9Y-71.115
X113.233Y-49.868
X113.657Y-66.346
X117.299Y-66.547
X118.325Y-63.394
X118.981Y-59.089
X120.243Y-52.346
X120.245Y-58.787
T3
X100.005Y-89.23
X104.855Y-89.23
T4
X122.9Y-35.8
X122.9Y-40.8
T2
X98.83Y-91.625G85X98.83Y-92.415
G05
X106.03Y-91.625G85X106.03Y-92.415
G05
T0
M30
