G04 #@! TF.FileFunction,Copper,L2,Bot,Signal*
%FSLAX46Y46*%
G04 Gerber Fmt 4.6, Leading zero omitted, Abs format (unit mm)*
G04 Created by KiCad (PCBNEW 4.0.7) date 03/22/18 13:14:38*
%MOMM*%
%LPD*%
G01*
G04 APERTURE LIST*
%ADD10C,0.100000*%
%ADD11O,1.100000X1.800000*%
%ADD12C,1.250000*%
%ADD13C,1.700000*%
%ADD14C,0.600000*%
%ADD15C,0.250000*%
%ADD16C,0.254000*%
G04 APERTURE END LIST*
D10*
D11*
X98830000Y-92020000D03*
D12*
X100005000Y-89230000D03*
X104855000Y-89230000D03*
D11*
X106030000Y-92020000D03*
D13*
X122900000Y-35800000D03*
X122900000Y-40800000D03*
D14*
X79300000Y-90000000D03*
X79300000Y-88800000D03*
X79300000Y-87500000D03*
X79300000Y-86200000D03*
X79300000Y-78900000D03*
X79300000Y-72500000D03*
X79300000Y-92400000D03*
X79300000Y-91200000D03*
X79300000Y-85000000D03*
X79300000Y-83800000D03*
X79300000Y-82600000D03*
X79300000Y-80200000D03*
X79300000Y-81400000D03*
X79300000Y-77500000D03*
X79300000Y-76200000D03*
X79300000Y-74900000D03*
X79300000Y-73700000D03*
X79300000Y-71200000D03*
X79300000Y-69900000D03*
X79300000Y-68700000D03*
X79300000Y-67400000D03*
X79300000Y-66000000D03*
X79300000Y-64600000D03*
X79300000Y-63200000D03*
X79300000Y-61900000D03*
X79300000Y-60500000D03*
X79300000Y-59000000D03*
X79300000Y-57600000D03*
X79300000Y-56200000D03*
X79300000Y-54800000D03*
X79300000Y-53400000D03*
X79300000Y-52100000D03*
X79300000Y-50900000D03*
X92065600Y-71148600D03*
X112899600Y-71115000D03*
X84419200Y-71638600D03*
X108100000Y-84800000D03*
X111426400Y-67357800D03*
X87764700Y-64447700D03*
X90779900Y-67850000D03*
X94412200Y-63114800D03*
X118324700Y-63393800D03*
X109197900Y-51345200D03*
X93764700Y-61431300D03*
X92950000Y-61201500D03*
X109874700Y-50524000D03*
X118981100Y-59089100D03*
X92185600Y-62090000D03*
X120245400Y-58787500D03*
X95212800Y-35877500D03*
X120242800Y-52346400D03*
X113233500Y-49868200D03*
X113657100Y-66345700D03*
X84194000Y-58157500D03*
X117299200Y-66547200D03*
X83733600Y-59358300D03*
D15*
X79300000Y-71200000D02*
X79200000Y-71200000D01*
X92099200Y-71115000D02*
X112899600Y-71115000D01*
X92065600Y-71148600D02*
X92099200Y-71115000D01*
X84909200Y-71148600D02*
X84419200Y-71638600D01*
X92065600Y-71148600D02*
X84909200Y-71148600D01*
X90779900Y-67357800D02*
X90779900Y-67850000D01*
X111426400Y-67357800D02*
X90779900Y-67357800D01*
X90674800Y-67357800D02*
X87764700Y-64447700D01*
X90779900Y-67357800D02*
X90674800Y-67357800D01*
X94691200Y-63393800D02*
X118324700Y-63393800D01*
X94412200Y-63114800D02*
X94691200Y-63393800D01*
X103850800Y-51345200D02*
X109197900Y-51345200D01*
X93764700Y-61431300D02*
X103850800Y-51345200D01*
X103627500Y-50524000D02*
X109874700Y-50524000D01*
X92950000Y-61201500D02*
X103627500Y-50524000D01*
X115980200Y-62090000D02*
X92185600Y-62090000D01*
X118981100Y-59089100D02*
X115980200Y-62090000D01*
X97335400Y-35877500D02*
X95212800Y-35877500D01*
X120245400Y-58787500D02*
X97335400Y-35877500D01*
X115711700Y-52346400D02*
X120242800Y-52346400D01*
X113233500Y-49868200D02*
X115711700Y-52346400D01*
X90530900Y-64494400D02*
X84194000Y-58157500D01*
X111805800Y-64494400D02*
X90530900Y-64494400D01*
X113657100Y-66345700D02*
X111805800Y-64494400D01*
X116875400Y-66971000D02*
X117299200Y-66547200D01*
X113398100Y-66971000D02*
X116875400Y-66971000D01*
X113108500Y-66681400D02*
X113398100Y-66971000D01*
X91056700Y-66681400D02*
X113108500Y-66681400D01*
X83733600Y-59358300D02*
X91056700Y-66681400D01*
D16*
G36*
X126240000Y-93940000D02*
X78660000Y-93940000D01*
X78660000Y-91639928D01*
X97645000Y-91639928D01*
X97645000Y-92400072D01*
X97735203Y-92853552D01*
X97992078Y-93237994D01*
X98376520Y-93494869D01*
X98830000Y-93585072D01*
X99283480Y-93494869D01*
X99667922Y-93237994D01*
X99924797Y-92853552D01*
X100015000Y-92400072D01*
X100015000Y-91639928D01*
X104845000Y-91639928D01*
X104845000Y-92400072D01*
X104935203Y-92853552D01*
X105192078Y-93237994D01*
X105576520Y-93494869D01*
X106030000Y-93585072D01*
X106483480Y-93494869D01*
X106867922Y-93237994D01*
X107124797Y-92853552D01*
X107215000Y-92400072D01*
X107215000Y-91639928D01*
X107124797Y-91186448D01*
X106867922Y-90802006D01*
X106483480Y-90545131D01*
X106030000Y-90454928D01*
X105576520Y-90545131D01*
X105192078Y-90802006D01*
X104935203Y-91186448D01*
X104845000Y-91639928D01*
X100015000Y-91639928D01*
X99924797Y-91186448D01*
X99667922Y-90802006D01*
X99283480Y-90545131D01*
X98830000Y-90454928D01*
X98376520Y-90545131D01*
X97992078Y-90802006D01*
X97735203Y-91186448D01*
X97645000Y-91639928D01*
X78660000Y-91639928D01*
X78660000Y-89479530D01*
X98744782Y-89479530D01*
X98936201Y-89942800D01*
X99290335Y-90297553D01*
X99753271Y-90489781D01*
X100254530Y-90490218D01*
X100717800Y-90298799D01*
X101072553Y-89944665D01*
X101264781Y-89481729D01*
X101264782Y-89479530D01*
X103594782Y-89479530D01*
X103786201Y-89942800D01*
X104140335Y-90297553D01*
X104603271Y-90489781D01*
X105104530Y-90490218D01*
X105567800Y-90298799D01*
X105922553Y-89944665D01*
X106114781Y-89481729D01*
X106115218Y-88980470D01*
X105923799Y-88517200D01*
X105569665Y-88162447D01*
X105106729Y-87970219D01*
X104605470Y-87969782D01*
X104142200Y-88161201D01*
X103787447Y-88515335D01*
X103595219Y-88978271D01*
X103594782Y-89479530D01*
X101264782Y-89479530D01*
X101265218Y-88980470D01*
X101073799Y-88517200D01*
X100719665Y-88162447D01*
X100256729Y-87970219D01*
X99755470Y-87969782D01*
X99292200Y-88161201D01*
X98937447Y-88515335D01*
X98745219Y-88978271D01*
X98744782Y-89479530D01*
X78660000Y-89479530D01*
X78660000Y-71823767D01*
X83484038Y-71823767D01*
X83626083Y-72167543D01*
X83888873Y-72430792D01*
X84232401Y-72573438D01*
X84604367Y-72573762D01*
X84948143Y-72431717D01*
X85211392Y-72168927D01*
X85319490Y-71908600D01*
X91503137Y-71908600D01*
X91535273Y-71940792D01*
X91878801Y-72083438D01*
X92250767Y-72083762D01*
X92594543Y-71941717D01*
X92661377Y-71875000D01*
X112337137Y-71875000D01*
X112369273Y-71907192D01*
X112712801Y-72049838D01*
X113084767Y-72050162D01*
X113428543Y-71908117D01*
X113691792Y-71645327D01*
X113834438Y-71301799D01*
X113834762Y-70929833D01*
X113692717Y-70586057D01*
X113429927Y-70322808D01*
X113086399Y-70180162D01*
X112714433Y-70179838D01*
X112370657Y-70321883D01*
X112337482Y-70355000D01*
X92592536Y-70355000D01*
X92252399Y-70213762D01*
X91880433Y-70213438D01*
X91536657Y-70355483D01*
X91503482Y-70388600D01*
X84909200Y-70388600D01*
X84618361Y-70446452D01*
X84371799Y-70611199D01*
X84279520Y-70703478D01*
X84234033Y-70703438D01*
X83890257Y-70845483D01*
X83627008Y-71108273D01*
X83484362Y-71451801D01*
X83484038Y-71823767D01*
X78660000Y-71823767D01*
X78660000Y-59543467D01*
X82798438Y-59543467D01*
X82940483Y-59887243D01*
X83203273Y-60150492D01*
X83546801Y-60293138D01*
X83593677Y-60293179D01*
X87095297Y-63794799D01*
X86972508Y-63917373D01*
X86829862Y-64260901D01*
X86829538Y-64632867D01*
X86971583Y-64976643D01*
X87234373Y-65239892D01*
X87577901Y-65382538D01*
X87624777Y-65382579D01*
X89862765Y-67620567D01*
X89845062Y-67663201D01*
X89844738Y-68035167D01*
X89986783Y-68378943D01*
X90249573Y-68642192D01*
X90593101Y-68784838D01*
X90965067Y-68785162D01*
X91308843Y-68643117D01*
X91572092Y-68380327D01*
X91681103Y-68117800D01*
X110863937Y-68117800D01*
X110896073Y-68149992D01*
X111239601Y-68292638D01*
X111611567Y-68292962D01*
X111955343Y-68150917D01*
X112218592Y-67888127D01*
X112361238Y-67544599D01*
X112361328Y-67441400D01*
X112793698Y-67441400D01*
X112860699Y-67508401D01*
X113107260Y-67673148D01*
X113398100Y-67731000D01*
X116875400Y-67731000D01*
X117166239Y-67673148D01*
X117412801Y-67508401D01*
X117438880Y-67482322D01*
X117484367Y-67482362D01*
X117828143Y-67340317D01*
X118091392Y-67077527D01*
X118234038Y-66733999D01*
X118234362Y-66362033D01*
X118092317Y-66018257D01*
X117829527Y-65755008D01*
X117485999Y-65612362D01*
X117114033Y-65612038D01*
X116770257Y-65754083D01*
X116507008Y-66016873D01*
X116426399Y-66211000D01*
X114592218Y-66211000D01*
X114592262Y-66160533D01*
X114450217Y-65816757D01*
X114187427Y-65553508D01*
X113843899Y-65410862D01*
X113797023Y-65410821D01*
X112540002Y-64153800D01*
X117762237Y-64153800D01*
X117794373Y-64185992D01*
X118137901Y-64328638D01*
X118509867Y-64328962D01*
X118853643Y-64186917D01*
X119116892Y-63924127D01*
X119259538Y-63580599D01*
X119259862Y-63208633D01*
X119117817Y-62864857D01*
X118855027Y-62601608D01*
X118511499Y-62458962D01*
X118139533Y-62458638D01*
X117795757Y-62600683D01*
X117762582Y-62633800D01*
X116508024Y-62633800D01*
X116517601Y-62627401D01*
X119120780Y-60024222D01*
X119166267Y-60024262D01*
X119510043Y-59882217D01*
X119773292Y-59619427D01*
X119778803Y-59606155D01*
X120058601Y-59722338D01*
X120430567Y-59722662D01*
X120774343Y-59580617D01*
X121037592Y-59317827D01*
X121180238Y-58974299D01*
X121180562Y-58602333D01*
X121038517Y-58258557D01*
X120775727Y-57995308D01*
X120432199Y-57852662D01*
X120385323Y-57852621D01*
X115621076Y-53088374D01*
X115711700Y-53106400D01*
X119680337Y-53106400D01*
X119712473Y-53138592D01*
X120056001Y-53281238D01*
X120427967Y-53281562D01*
X120771743Y-53139517D01*
X121034992Y-52876727D01*
X121177638Y-52533199D01*
X121177962Y-52161233D01*
X121035917Y-51817457D01*
X120773127Y-51554208D01*
X120429599Y-51411562D01*
X120057633Y-51411238D01*
X119713857Y-51553283D01*
X119680682Y-51586400D01*
X116026502Y-51586400D01*
X114168622Y-49728520D01*
X114168662Y-49683033D01*
X114026617Y-49339257D01*
X113763827Y-49076008D01*
X113420299Y-48933362D01*
X113048333Y-48933038D01*
X112704557Y-49075083D01*
X112441308Y-49337873D01*
X112298662Y-49681401D01*
X112298588Y-49765886D01*
X103626791Y-41094089D01*
X121414743Y-41094089D01*
X121640344Y-41640086D01*
X122057717Y-42058188D01*
X122603319Y-42284742D01*
X123194089Y-42285257D01*
X123740086Y-42059656D01*
X124158188Y-41642283D01*
X124384742Y-41096681D01*
X124385257Y-40505911D01*
X124159656Y-39959914D01*
X123742283Y-39541812D01*
X123196681Y-39315258D01*
X122605911Y-39314743D01*
X122059914Y-39540344D01*
X121641812Y-39957717D01*
X121415258Y-40503319D01*
X121414743Y-41094089D01*
X103626791Y-41094089D01*
X98626791Y-36094089D01*
X121414743Y-36094089D01*
X121640344Y-36640086D01*
X122057717Y-37058188D01*
X122603319Y-37284742D01*
X123194089Y-37285257D01*
X123740086Y-37059656D01*
X124158188Y-36642283D01*
X124384742Y-36096681D01*
X124385257Y-35505911D01*
X124159656Y-34959914D01*
X123742283Y-34541812D01*
X123196681Y-34315258D01*
X122605911Y-34314743D01*
X122059914Y-34540344D01*
X121641812Y-34957717D01*
X121415258Y-35503319D01*
X121414743Y-36094089D01*
X98626791Y-36094089D01*
X97872801Y-35340099D01*
X97626239Y-35175352D01*
X97335400Y-35117500D01*
X95775263Y-35117500D01*
X95743127Y-35085308D01*
X95399599Y-34942662D01*
X95027633Y-34942338D01*
X94683857Y-35084383D01*
X94420608Y-35347173D01*
X94277962Y-35690701D01*
X94277638Y-36062667D01*
X94419683Y-36406443D01*
X94682473Y-36669692D01*
X95026001Y-36812338D01*
X95397967Y-36812662D01*
X95741743Y-36670617D01*
X95774918Y-36637500D01*
X97020598Y-36637500D01*
X109972182Y-49589084D01*
X109689533Y-49588838D01*
X109345757Y-49730883D01*
X109312582Y-49764000D01*
X103627500Y-49764000D01*
X103336660Y-49821852D01*
X103090099Y-49986599D01*
X92810320Y-60266378D01*
X92764833Y-60266338D01*
X92421057Y-60408383D01*
X92157808Y-60671173D01*
X92015162Y-61014701D01*
X92015040Y-61154851D01*
X92000433Y-61154838D01*
X91656657Y-61296883D01*
X91393408Y-61559673D01*
X91250762Y-61903201D01*
X91250438Y-62275167D01*
X91392483Y-62618943D01*
X91655273Y-62882192D01*
X91998801Y-63024838D01*
X92370767Y-63025162D01*
X92714543Y-62883117D01*
X92747718Y-62850000D01*
X93509751Y-62850000D01*
X93477362Y-62928001D01*
X93477038Y-63299967D01*
X93619083Y-63643743D01*
X93709582Y-63734400D01*
X90845702Y-63734400D01*
X85129122Y-58017820D01*
X85129162Y-57972333D01*
X84987117Y-57628557D01*
X84724327Y-57365308D01*
X84380799Y-57222662D01*
X84008833Y-57222338D01*
X83665057Y-57364383D01*
X83401808Y-57627173D01*
X83259162Y-57970701D01*
X83258838Y-58342667D01*
X83329471Y-58513611D01*
X83204657Y-58565183D01*
X82941408Y-58827973D01*
X82798762Y-59171501D01*
X82798438Y-59543467D01*
X78660000Y-59543467D01*
X78660000Y-32110000D01*
X126240000Y-32110000D01*
X126240000Y-93940000D01*
X126240000Y-93940000D01*
G37*
X126240000Y-93940000D02*
X78660000Y-93940000D01*
X78660000Y-91639928D01*
X97645000Y-91639928D01*
X97645000Y-92400072D01*
X97735203Y-92853552D01*
X97992078Y-93237994D01*
X98376520Y-93494869D01*
X98830000Y-93585072D01*
X99283480Y-93494869D01*
X99667922Y-93237994D01*
X99924797Y-92853552D01*
X100015000Y-92400072D01*
X100015000Y-91639928D01*
X104845000Y-91639928D01*
X104845000Y-92400072D01*
X104935203Y-92853552D01*
X105192078Y-93237994D01*
X105576520Y-93494869D01*
X106030000Y-93585072D01*
X106483480Y-93494869D01*
X106867922Y-93237994D01*
X107124797Y-92853552D01*
X107215000Y-92400072D01*
X107215000Y-91639928D01*
X107124797Y-91186448D01*
X106867922Y-90802006D01*
X106483480Y-90545131D01*
X106030000Y-90454928D01*
X105576520Y-90545131D01*
X105192078Y-90802006D01*
X104935203Y-91186448D01*
X104845000Y-91639928D01*
X100015000Y-91639928D01*
X99924797Y-91186448D01*
X99667922Y-90802006D01*
X99283480Y-90545131D01*
X98830000Y-90454928D01*
X98376520Y-90545131D01*
X97992078Y-90802006D01*
X97735203Y-91186448D01*
X97645000Y-91639928D01*
X78660000Y-91639928D01*
X78660000Y-89479530D01*
X98744782Y-89479530D01*
X98936201Y-89942800D01*
X99290335Y-90297553D01*
X99753271Y-90489781D01*
X100254530Y-90490218D01*
X100717800Y-90298799D01*
X101072553Y-89944665D01*
X101264781Y-89481729D01*
X101264782Y-89479530D01*
X103594782Y-89479530D01*
X103786201Y-89942800D01*
X104140335Y-90297553D01*
X104603271Y-90489781D01*
X105104530Y-90490218D01*
X105567800Y-90298799D01*
X105922553Y-89944665D01*
X106114781Y-89481729D01*
X106115218Y-88980470D01*
X105923799Y-88517200D01*
X105569665Y-88162447D01*
X105106729Y-87970219D01*
X104605470Y-87969782D01*
X104142200Y-88161201D01*
X103787447Y-88515335D01*
X103595219Y-88978271D01*
X103594782Y-89479530D01*
X101264782Y-89479530D01*
X101265218Y-88980470D01*
X101073799Y-88517200D01*
X100719665Y-88162447D01*
X100256729Y-87970219D01*
X99755470Y-87969782D01*
X99292200Y-88161201D01*
X98937447Y-88515335D01*
X98745219Y-88978271D01*
X98744782Y-89479530D01*
X78660000Y-89479530D01*
X78660000Y-71823767D01*
X83484038Y-71823767D01*
X83626083Y-72167543D01*
X83888873Y-72430792D01*
X84232401Y-72573438D01*
X84604367Y-72573762D01*
X84948143Y-72431717D01*
X85211392Y-72168927D01*
X85319490Y-71908600D01*
X91503137Y-71908600D01*
X91535273Y-71940792D01*
X91878801Y-72083438D01*
X92250767Y-72083762D01*
X92594543Y-71941717D01*
X92661377Y-71875000D01*
X112337137Y-71875000D01*
X112369273Y-71907192D01*
X112712801Y-72049838D01*
X113084767Y-72050162D01*
X113428543Y-71908117D01*
X113691792Y-71645327D01*
X113834438Y-71301799D01*
X113834762Y-70929833D01*
X113692717Y-70586057D01*
X113429927Y-70322808D01*
X113086399Y-70180162D01*
X112714433Y-70179838D01*
X112370657Y-70321883D01*
X112337482Y-70355000D01*
X92592536Y-70355000D01*
X92252399Y-70213762D01*
X91880433Y-70213438D01*
X91536657Y-70355483D01*
X91503482Y-70388600D01*
X84909200Y-70388600D01*
X84618361Y-70446452D01*
X84371799Y-70611199D01*
X84279520Y-70703478D01*
X84234033Y-70703438D01*
X83890257Y-70845483D01*
X83627008Y-71108273D01*
X83484362Y-71451801D01*
X83484038Y-71823767D01*
X78660000Y-71823767D01*
X78660000Y-59543467D01*
X82798438Y-59543467D01*
X82940483Y-59887243D01*
X83203273Y-60150492D01*
X83546801Y-60293138D01*
X83593677Y-60293179D01*
X87095297Y-63794799D01*
X86972508Y-63917373D01*
X86829862Y-64260901D01*
X86829538Y-64632867D01*
X86971583Y-64976643D01*
X87234373Y-65239892D01*
X87577901Y-65382538D01*
X87624777Y-65382579D01*
X89862765Y-67620567D01*
X89845062Y-67663201D01*
X89844738Y-68035167D01*
X89986783Y-68378943D01*
X90249573Y-68642192D01*
X90593101Y-68784838D01*
X90965067Y-68785162D01*
X91308843Y-68643117D01*
X91572092Y-68380327D01*
X91681103Y-68117800D01*
X110863937Y-68117800D01*
X110896073Y-68149992D01*
X111239601Y-68292638D01*
X111611567Y-68292962D01*
X111955343Y-68150917D01*
X112218592Y-67888127D01*
X112361238Y-67544599D01*
X112361328Y-67441400D01*
X112793698Y-67441400D01*
X112860699Y-67508401D01*
X113107260Y-67673148D01*
X113398100Y-67731000D01*
X116875400Y-67731000D01*
X117166239Y-67673148D01*
X117412801Y-67508401D01*
X117438880Y-67482322D01*
X117484367Y-67482362D01*
X117828143Y-67340317D01*
X118091392Y-67077527D01*
X118234038Y-66733999D01*
X118234362Y-66362033D01*
X118092317Y-66018257D01*
X117829527Y-65755008D01*
X117485999Y-65612362D01*
X117114033Y-65612038D01*
X116770257Y-65754083D01*
X116507008Y-66016873D01*
X116426399Y-66211000D01*
X114592218Y-66211000D01*
X114592262Y-66160533D01*
X114450217Y-65816757D01*
X114187427Y-65553508D01*
X113843899Y-65410862D01*
X113797023Y-65410821D01*
X112540002Y-64153800D01*
X117762237Y-64153800D01*
X117794373Y-64185992D01*
X118137901Y-64328638D01*
X118509867Y-64328962D01*
X118853643Y-64186917D01*
X119116892Y-63924127D01*
X119259538Y-63580599D01*
X119259862Y-63208633D01*
X119117817Y-62864857D01*
X118855027Y-62601608D01*
X118511499Y-62458962D01*
X118139533Y-62458638D01*
X117795757Y-62600683D01*
X117762582Y-62633800D01*
X116508024Y-62633800D01*
X116517601Y-62627401D01*
X119120780Y-60024222D01*
X119166267Y-60024262D01*
X119510043Y-59882217D01*
X119773292Y-59619427D01*
X119778803Y-59606155D01*
X120058601Y-59722338D01*
X120430567Y-59722662D01*
X120774343Y-59580617D01*
X121037592Y-59317827D01*
X121180238Y-58974299D01*
X121180562Y-58602333D01*
X121038517Y-58258557D01*
X120775727Y-57995308D01*
X120432199Y-57852662D01*
X120385323Y-57852621D01*
X115621076Y-53088374D01*
X115711700Y-53106400D01*
X119680337Y-53106400D01*
X119712473Y-53138592D01*
X120056001Y-53281238D01*
X120427967Y-53281562D01*
X120771743Y-53139517D01*
X121034992Y-52876727D01*
X121177638Y-52533199D01*
X121177962Y-52161233D01*
X121035917Y-51817457D01*
X120773127Y-51554208D01*
X120429599Y-51411562D01*
X120057633Y-51411238D01*
X119713857Y-51553283D01*
X119680682Y-51586400D01*
X116026502Y-51586400D01*
X114168622Y-49728520D01*
X114168662Y-49683033D01*
X114026617Y-49339257D01*
X113763827Y-49076008D01*
X113420299Y-48933362D01*
X113048333Y-48933038D01*
X112704557Y-49075083D01*
X112441308Y-49337873D01*
X112298662Y-49681401D01*
X112298588Y-49765886D01*
X103626791Y-41094089D01*
X121414743Y-41094089D01*
X121640344Y-41640086D01*
X122057717Y-42058188D01*
X122603319Y-42284742D01*
X123194089Y-42285257D01*
X123740086Y-42059656D01*
X124158188Y-41642283D01*
X124384742Y-41096681D01*
X124385257Y-40505911D01*
X124159656Y-39959914D01*
X123742283Y-39541812D01*
X123196681Y-39315258D01*
X122605911Y-39314743D01*
X122059914Y-39540344D01*
X121641812Y-39957717D01*
X121415258Y-40503319D01*
X121414743Y-41094089D01*
X103626791Y-41094089D01*
X98626791Y-36094089D01*
X121414743Y-36094089D01*
X121640344Y-36640086D01*
X122057717Y-37058188D01*
X122603319Y-37284742D01*
X123194089Y-37285257D01*
X123740086Y-37059656D01*
X124158188Y-36642283D01*
X124384742Y-36096681D01*
X124385257Y-35505911D01*
X124159656Y-34959914D01*
X123742283Y-34541812D01*
X123196681Y-34315258D01*
X122605911Y-34314743D01*
X122059914Y-34540344D01*
X121641812Y-34957717D01*
X121415258Y-35503319D01*
X121414743Y-36094089D01*
X98626791Y-36094089D01*
X97872801Y-35340099D01*
X97626239Y-35175352D01*
X97335400Y-35117500D01*
X95775263Y-35117500D01*
X95743127Y-35085308D01*
X95399599Y-34942662D01*
X95027633Y-34942338D01*
X94683857Y-35084383D01*
X94420608Y-35347173D01*
X94277962Y-35690701D01*
X94277638Y-36062667D01*
X94419683Y-36406443D01*
X94682473Y-36669692D01*
X95026001Y-36812338D01*
X95397967Y-36812662D01*
X95741743Y-36670617D01*
X95774918Y-36637500D01*
X97020598Y-36637500D01*
X109972182Y-49589084D01*
X109689533Y-49588838D01*
X109345757Y-49730883D01*
X109312582Y-49764000D01*
X103627500Y-49764000D01*
X103336660Y-49821852D01*
X103090099Y-49986599D01*
X92810320Y-60266378D01*
X92764833Y-60266338D01*
X92421057Y-60408383D01*
X92157808Y-60671173D01*
X92015162Y-61014701D01*
X92015040Y-61154851D01*
X92000433Y-61154838D01*
X91656657Y-61296883D01*
X91393408Y-61559673D01*
X91250762Y-61903201D01*
X91250438Y-62275167D01*
X91392483Y-62618943D01*
X91655273Y-62882192D01*
X91998801Y-63024838D01*
X92370767Y-63025162D01*
X92714543Y-62883117D01*
X92747718Y-62850000D01*
X93509751Y-62850000D01*
X93477362Y-62928001D01*
X93477038Y-63299967D01*
X93619083Y-63643743D01*
X93709582Y-63734400D01*
X90845702Y-63734400D01*
X85129122Y-58017820D01*
X85129162Y-57972333D01*
X84987117Y-57628557D01*
X84724327Y-57365308D01*
X84380799Y-57222662D01*
X84008833Y-57222338D01*
X83665057Y-57364383D01*
X83401808Y-57627173D01*
X83259162Y-57970701D01*
X83258838Y-58342667D01*
X83329471Y-58513611D01*
X83204657Y-58565183D01*
X82941408Y-58827973D01*
X82798762Y-59171501D01*
X82798438Y-59543467D01*
X78660000Y-59543467D01*
X78660000Y-32110000D01*
X126240000Y-32110000D01*
X126240000Y-93940000D01*
M02*
