%TF.GenerationSoftware,KiCad,Pcbnew,(5.1.9)-1*%
%TF.CreationDate,2021-04-27T12:53:02+02:00*%
%TF.ProjectId,MeterBoard32,4d657465-7242-46f6-9172-6433322e6b69,2*%
%TF.SameCoordinates,Original*%
%TF.FileFunction,Soldermask,Top*%
%TF.FilePolarity,Negative*%
%FSLAX46Y46*%
G04 Gerber Fmt 4.6, Leading zero omitted, Abs format (unit mm)*
G04 Created by KiCad (PCBNEW (5.1.9)-1) date 2021-04-27 12:53:02*
%MOMM*%
%LPD*%
G01*
G04 APERTURE LIST*
%ADD10O,2.900000X1.300000*%
%ADD11O,1.300000X2.900000*%
%ADD12O,1.500000X2.200000*%
%ADD13C,1.650000*%
%ADD14C,2.100000*%
G04 APERTURE END LIST*
%TO.C,U3*%
G36*
G01*
X105350000Y-37850000D02*
X105350000Y-43850000D01*
G75*
G02*
X105150000Y-44050000I-200000J0D01*
G01*
X99150000Y-44050000D01*
G75*
G02*
X98950000Y-43850000I0J200000D01*
G01*
X98950000Y-37850000D01*
G75*
G02*
X99150000Y-37650000I200000J0D01*
G01*
X105150000Y-37650000D01*
G75*
G02*
X105350000Y-37850000I0J-200000D01*
G01*
G37*
D10*
X93450000Y-33150000D03*
X93450000Y-34420000D03*
X93450000Y-35690000D03*
X93450000Y-36960000D03*
X93450000Y-38230000D03*
X93450000Y-39500000D03*
X93450000Y-40770000D03*
X93450000Y-42040000D03*
X93450000Y-43310000D03*
X93450000Y-44580000D03*
X93450000Y-45850000D03*
X93450000Y-47120000D03*
X93450000Y-48390000D03*
X93450000Y-49660000D03*
D11*
X96735000Y-51150000D03*
X98005000Y-51150000D03*
X99275000Y-51150000D03*
X100545000Y-51150000D03*
X101815000Y-51150000D03*
X103085000Y-51150000D03*
X104355000Y-51150000D03*
X105625000Y-51150000D03*
X106895000Y-51150000D03*
X108165000Y-51150000D03*
D10*
X111450000Y-49660000D03*
X111450000Y-48390000D03*
X111450000Y-47120000D03*
X111450000Y-45850000D03*
X111450000Y-44580000D03*
X111450000Y-43310000D03*
X111450000Y-42040000D03*
X111450000Y-40770000D03*
X111450000Y-39500000D03*
X111450000Y-38230000D03*
X111450000Y-36960000D03*
X111450000Y-35690000D03*
X111450000Y-34420000D03*
X111450000Y-33150000D03*
%TD*%
%TO.C,U5*%
G36*
G01*
X120895000Y-71800000D02*
X121395000Y-71800000D01*
G75*
G02*
X121645000Y-72050000I0J-250000D01*
G01*
X121645000Y-73900000D01*
G75*
G02*
X121395000Y-74150000I-250000J0D01*
G01*
X120895000Y-74150000D01*
G75*
G02*
X120645000Y-73900000I0J250000D01*
G01*
X120645000Y-72050000D01*
G75*
G02*
X120895000Y-71800000I250000J0D01*
G01*
G37*
G36*
G01*
X119625000Y-71800000D02*
X120125000Y-71800000D01*
G75*
G02*
X120375000Y-72050000I0J-250000D01*
G01*
X120375000Y-73900000D01*
G75*
G02*
X120125000Y-74150000I-250000J0D01*
G01*
X119625000Y-74150000D01*
G75*
G02*
X119375000Y-73900000I0J250000D01*
G01*
X119375000Y-72050000D01*
G75*
G02*
X119625000Y-71800000I250000J0D01*
G01*
G37*
G36*
G01*
X118355000Y-71800000D02*
X118855000Y-71800000D01*
G75*
G02*
X119105000Y-72050000I0J-250000D01*
G01*
X119105000Y-73900000D01*
G75*
G02*
X118855000Y-74150000I-250000J0D01*
G01*
X118355000Y-74150000D01*
G75*
G02*
X118105000Y-73900000I0J250000D01*
G01*
X118105000Y-72050000D01*
G75*
G02*
X118355000Y-71800000I250000J0D01*
G01*
G37*
G36*
G01*
X117085000Y-71800000D02*
X117585000Y-71800000D01*
G75*
G02*
X117835000Y-72050000I0J-250000D01*
G01*
X117835000Y-73900000D01*
G75*
G02*
X117585000Y-74150000I-250000J0D01*
G01*
X117085000Y-74150000D01*
G75*
G02*
X116835000Y-73900000I0J250000D01*
G01*
X116835000Y-72050000D01*
G75*
G02*
X117085000Y-71800000I250000J0D01*
G01*
G37*
G36*
G01*
X115815000Y-71800000D02*
X116315000Y-71800000D01*
G75*
G02*
X116565000Y-72050000I0J-250000D01*
G01*
X116565000Y-73900000D01*
G75*
G02*
X116315000Y-74150000I-250000J0D01*
G01*
X115815000Y-74150000D01*
G75*
G02*
X115565000Y-73900000I0J250000D01*
G01*
X115565000Y-72050000D01*
G75*
G02*
X115815000Y-71800000I250000J0D01*
G01*
G37*
G36*
G01*
X114545000Y-71800000D02*
X115045000Y-71800000D01*
G75*
G02*
X115295000Y-72050000I0J-250000D01*
G01*
X115295000Y-73900000D01*
G75*
G02*
X115045000Y-74150000I-250000J0D01*
G01*
X114545000Y-74150000D01*
G75*
G02*
X114295000Y-73900000I0J250000D01*
G01*
X114295000Y-72050000D01*
G75*
G02*
X114545000Y-71800000I250000J0D01*
G01*
G37*
G36*
G01*
X113275000Y-71800000D02*
X113775000Y-71800000D01*
G75*
G02*
X114025000Y-72050000I0J-250000D01*
G01*
X114025000Y-73900000D01*
G75*
G02*
X113775000Y-74150000I-250000J0D01*
G01*
X113275000Y-74150000D01*
G75*
G02*
X113025000Y-73900000I0J250000D01*
G01*
X113025000Y-72050000D01*
G75*
G02*
X113275000Y-71800000I250000J0D01*
G01*
G37*
G36*
G01*
X112005000Y-71800000D02*
X112505000Y-71800000D01*
G75*
G02*
X112755000Y-72050000I0J-250000D01*
G01*
X112755000Y-73900000D01*
G75*
G02*
X112505000Y-74150000I-250000J0D01*
G01*
X112005000Y-74150000D01*
G75*
G02*
X111755000Y-73900000I0J250000D01*
G01*
X111755000Y-72050000D01*
G75*
G02*
X112005000Y-71800000I250000J0D01*
G01*
G37*
G36*
G01*
X112005000Y-66850000D02*
X112505000Y-66850000D01*
G75*
G02*
X112755000Y-67100000I0J-250000D01*
G01*
X112755000Y-68950000D01*
G75*
G02*
X112505000Y-69200000I-250000J0D01*
G01*
X112005000Y-69200000D01*
G75*
G02*
X111755000Y-68950000I0J250000D01*
G01*
X111755000Y-67100000D01*
G75*
G02*
X112005000Y-66850000I250000J0D01*
G01*
G37*
G36*
G01*
X113275000Y-66850000D02*
X113775000Y-66850000D01*
G75*
G02*
X114025000Y-67100000I0J-250000D01*
G01*
X114025000Y-68950000D01*
G75*
G02*
X113775000Y-69200000I-250000J0D01*
G01*
X113275000Y-69200000D01*
G75*
G02*
X113025000Y-68950000I0J250000D01*
G01*
X113025000Y-67100000D01*
G75*
G02*
X113275000Y-66850000I250000J0D01*
G01*
G37*
G36*
G01*
X114545000Y-66850000D02*
X115045000Y-66850000D01*
G75*
G02*
X115295000Y-67100000I0J-250000D01*
G01*
X115295000Y-68950000D01*
G75*
G02*
X115045000Y-69200000I-250000J0D01*
G01*
X114545000Y-69200000D01*
G75*
G02*
X114295000Y-68950000I0J250000D01*
G01*
X114295000Y-67100000D01*
G75*
G02*
X114545000Y-66850000I250000J0D01*
G01*
G37*
G36*
G01*
X115815000Y-66850000D02*
X116315000Y-66850000D01*
G75*
G02*
X116565000Y-67100000I0J-250000D01*
G01*
X116565000Y-68950000D01*
G75*
G02*
X116315000Y-69200000I-250000J0D01*
G01*
X115815000Y-69200000D01*
G75*
G02*
X115565000Y-68950000I0J250000D01*
G01*
X115565000Y-67100000D01*
G75*
G02*
X115815000Y-66850000I250000J0D01*
G01*
G37*
G36*
G01*
X117085000Y-66850000D02*
X117585000Y-66850000D01*
G75*
G02*
X117835000Y-67100000I0J-250000D01*
G01*
X117835000Y-68950000D01*
G75*
G02*
X117585000Y-69200000I-250000J0D01*
G01*
X117085000Y-69200000D01*
G75*
G02*
X116835000Y-68950000I0J250000D01*
G01*
X116835000Y-67100000D01*
G75*
G02*
X117085000Y-66850000I250000J0D01*
G01*
G37*
G36*
G01*
X118355000Y-66850000D02*
X118855000Y-66850000D01*
G75*
G02*
X119105000Y-67100000I0J-250000D01*
G01*
X119105000Y-68950000D01*
G75*
G02*
X118855000Y-69200000I-250000J0D01*
G01*
X118355000Y-69200000D01*
G75*
G02*
X118105000Y-68950000I0J250000D01*
G01*
X118105000Y-67100000D01*
G75*
G02*
X118355000Y-66850000I250000J0D01*
G01*
G37*
G36*
G01*
X119625000Y-66850000D02*
X120125000Y-66850000D01*
G75*
G02*
X120375000Y-67100000I0J-250000D01*
G01*
X120375000Y-68950000D01*
G75*
G02*
X120125000Y-69200000I-250000J0D01*
G01*
X119625000Y-69200000D01*
G75*
G02*
X119375000Y-68950000I0J250000D01*
G01*
X119375000Y-67100000D01*
G75*
G02*
X119625000Y-66850000I250000J0D01*
G01*
G37*
G36*
G01*
X120895000Y-66850000D02*
X121395000Y-66850000D01*
G75*
G02*
X121645000Y-67100000I0J-250000D01*
G01*
X121645000Y-68950000D01*
G75*
G02*
X121395000Y-69200000I-250000J0D01*
G01*
X120895000Y-69200000D01*
G75*
G02*
X120645000Y-68950000I0J250000D01*
G01*
X120645000Y-67100000D01*
G75*
G02*
X120895000Y-66850000I250000J0D01*
G01*
G37*
%TD*%
%TO.C,U2*%
G36*
G01*
X91200000Y-67200000D02*
X91200000Y-64600000D01*
G75*
G02*
X91400000Y-64400000I200000J0D01*
G01*
X94000000Y-64400000D01*
G75*
G02*
X94200000Y-64600000I0J-200000D01*
G01*
X94200000Y-67200000D01*
G75*
G02*
X94000000Y-67400000I-200000J0D01*
G01*
X91400000Y-67400000D01*
G75*
G02*
X91200000Y-67200000I0J200000D01*
G01*
G37*
G36*
G01*
X91125000Y-64412500D02*
X91125000Y-63512500D01*
G75*
G02*
X91287500Y-63350000I162500J0D01*
G01*
X91612500Y-63350000D01*
G75*
G02*
X91775000Y-63512500I0J-162500D01*
G01*
X91775000Y-64412500D01*
G75*
G02*
X91612500Y-64575000I-162500J0D01*
G01*
X91287500Y-64575000D01*
G75*
G02*
X91125000Y-64412500I0J162500D01*
G01*
G37*
G36*
G01*
X91625000Y-64412500D02*
X91625000Y-63512500D01*
G75*
G02*
X91787500Y-63350000I162500J0D01*
G01*
X92112500Y-63350000D01*
G75*
G02*
X92275000Y-63512500I0J-162500D01*
G01*
X92275000Y-64412500D01*
G75*
G02*
X92112500Y-64575000I-162500J0D01*
G01*
X91787500Y-64575000D01*
G75*
G02*
X91625000Y-64412500I0J162500D01*
G01*
G37*
G36*
G01*
X92125000Y-64412500D02*
X92125000Y-63512500D01*
G75*
G02*
X92287500Y-63350000I162500J0D01*
G01*
X92612500Y-63350000D01*
G75*
G02*
X92775000Y-63512500I0J-162500D01*
G01*
X92775000Y-64412500D01*
G75*
G02*
X92612500Y-64575000I-162500J0D01*
G01*
X92287500Y-64575000D01*
G75*
G02*
X92125000Y-64412500I0J162500D01*
G01*
G37*
G36*
G01*
X92625000Y-64412500D02*
X92625000Y-63512500D01*
G75*
G02*
X92787500Y-63350000I162500J0D01*
G01*
X93112500Y-63350000D01*
G75*
G02*
X93275000Y-63512500I0J-162500D01*
G01*
X93275000Y-64412500D01*
G75*
G02*
X93112500Y-64575000I-162500J0D01*
G01*
X92787500Y-64575000D01*
G75*
G02*
X92625000Y-64412500I0J162500D01*
G01*
G37*
G36*
G01*
X93125000Y-64412500D02*
X93125000Y-63512500D01*
G75*
G02*
X93287500Y-63350000I162500J0D01*
G01*
X93612500Y-63350000D01*
G75*
G02*
X93775000Y-63512500I0J-162500D01*
G01*
X93775000Y-64412500D01*
G75*
G02*
X93612500Y-64575000I-162500J0D01*
G01*
X93287500Y-64575000D01*
G75*
G02*
X93125000Y-64412500I0J162500D01*
G01*
G37*
G36*
G01*
X93625000Y-64412500D02*
X93625000Y-63512500D01*
G75*
G02*
X93787500Y-63350000I162500J0D01*
G01*
X94112500Y-63350000D01*
G75*
G02*
X94275000Y-63512500I0J-162500D01*
G01*
X94275000Y-64412500D01*
G75*
G02*
X94112500Y-64575000I-162500J0D01*
G01*
X93787500Y-64575000D01*
G75*
G02*
X93625000Y-64412500I0J162500D01*
G01*
G37*
G36*
G01*
X94025000Y-64812500D02*
X94025000Y-64487500D01*
G75*
G02*
X94187500Y-64325000I162500J0D01*
G01*
X95087500Y-64325000D01*
G75*
G02*
X95250000Y-64487500I0J-162500D01*
G01*
X95250000Y-64812500D01*
G75*
G02*
X95087500Y-64975000I-162500J0D01*
G01*
X94187500Y-64975000D01*
G75*
G02*
X94025000Y-64812500I0J162500D01*
G01*
G37*
G36*
G01*
X94025000Y-65312500D02*
X94025000Y-64987500D01*
G75*
G02*
X94187500Y-64825000I162500J0D01*
G01*
X95087500Y-64825000D01*
G75*
G02*
X95250000Y-64987500I0J-162500D01*
G01*
X95250000Y-65312500D01*
G75*
G02*
X95087500Y-65475000I-162500J0D01*
G01*
X94187500Y-65475000D01*
G75*
G02*
X94025000Y-65312500I0J162500D01*
G01*
G37*
G36*
G01*
X94025000Y-65812500D02*
X94025000Y-65487500D01*
G75*
G02*
X94187500Y-65325000I162500J0D01*
G01*
X95087500Y-65325000D01*
G75*
G02*
X95250000Y-65487500I0J-162500D01*
G01*
X95250000Y-65812500D01*
G75*
G02*
X95087500Y-65975000I-162500J0D01*
G01*
X94187500Y-65975000D01*
G75*
G02*
X94025000Y-65812500I0J162500D01*
G01*
G37*
G36*
G01*
X94025000Y-66312500D02*
X94025000Y-65987500D01*
G75*
G02*
X94187500Y-65825000I162500J0D01*
G01*
X95087500Y-65825000D01*
G75*
G02*
X95250000Y-65987500I0J-162500D01*
G01*
X95250000Y-66312500D01*
G75*
G02*
X95087500Y-66475000I-162500J0D01*
G01*
X94187500Y-66475000D01*
G75*
G02*
X94025000Y-66312500I0J162500D01*
G01*
G37*
G36*
G01*
X94025000Y-66812500D02*
X94025000Y-66487500D01*
G75*
G02*
X94187500Y-66325000I162500J0D01*
G01*
X95087500Y-66325000D01*
G75*
G02*
X95250000Y-66487500I0J-162500D01*
G01*
X95250000Y-66812500D01*
G75*
G02*
X95087500Y-66975000I-162500J0D01*
G01*
X94187500Y-66975000D01*
G75*
G02*
X94025000Y-66812500I0J162500D01*
G01*
G37*
G36*
G01*
X94025000Y-67312500D02*
X94025000Y-66987500D01*
G75*
G02*
X94187500Y-66825000I162500J0D01*
G01*
X95087500Y-66825000D01*
G75*
G02*
X95250000Y-66987500I0J-162500D01*
G01*
X95250000Y-67312500D01*
G75*
G02*
X95087500Y-67475000I-162500J0D01*
G01*
X94187500Y-67475000D01*
G75*
G02*
X94025000Y-67312500I0J162500D01*
G01*
G37*
G36*
G01*
X93625000Y-68287500D02*
X93625000Y-67387500D01*
G75*
G02*
X93787500Y-67225000I162500J0D01*
G01*
X94112500Y-67225000D01*
G75*
G02*
X94275000Y-67387500I0J-162500D01*
G01*
X94275000Y-68287500D01*
G75*
G02*
X94112500Y-68450000I-162500J0D01*
G01*
X93787500Y-68450000D01*
G75*
G02*
X93625000Y-68287500I0J162500D01*
G01*
G37*
G36*
G01*
X93125000Y-68287500D02*
X93125000Y-67387500D01*
G75*
G02*
X93287500Y-67225000I162500J0D01*
G01*
X93612500Y-67225000D01*
G75*
G02*
X93775000Y-67387500I0J-162500D01*
G01*
X93775000Y-68287500D01*
G75*
G02*
X93612500Y-68450000I-162500J0D01*
G01*
X93287500Y-68450000D01*
G75*
G02*
X93125000Y-68287500I0J162500D01*
G01*
G37*
G36*
G01*
X92625000Y-68287500D02*
X92625000Y-67387500D01*
G75*
G02*
X92787500Y-67225000I162500J0D01*
G01*
X93112500Y-67225000D01*
G75*
G02*
X93275000Y-67387500I0J-162500D01*
G01*
X93275000Y-68287500D01*
G75*
G02*
X93112500Y-68450000I-162500J0D01*
G01*
X92787500Y-68450000D01*
G75*
G02*
X92625000Y-68287500I0J162500D01*
G01*
G37*
G36*
G01*
X92125000Y-68287500D02*
X92125000Y-67387500D01*
G75*
G02*
X92287500Y-67225000I162500J0D01*
G01*
X92612500Y-67225000D01*
G75*
G02*
X92775000Y-67387500I0J-162500D01*
G01*
X92775000Y-68287500D01*
G75*
G02*
X92612500Y-68450000I-162500J0D01*
G01*
X92287500Y-68450000D01*
G75*
G02*
X92125000Y-68287500I0J162500D01*
G01*
G37*
G36*
G01*
X91625000Y-68287500D02*
X91625000Y-67387500D01*
G75*
G02*
X91787500Y-67225000I162500J0D01*
G01*
X92112500Y-67225000D01*
G75*
G02*
X92275000Y-67387500I0J-162500D01*
G01*
X92275000Y-68287500D01*
G75*
G02*
X92112500Y-68450000I-162500J0D01*
G01*
X91787500Y-68450000D01*
G75*
G02*
X91625000Y-68287500I0J162500D01*
G01*
G37*
G36*
G01*
X91125000Y-68287500D02*
X91125000Y-67387500D01*
G75*
G02*
X91287500Y-67225000I162500J0D01*
G01*
X91612500Y-67225000D01*
G75*
G02*
X91775000Y-67387500I0J-162500D01*
G01*
X91775000Y-68287500D01*
G75*
G02*
X91612500Y-68450000I-162500J0D01*
G01*
X91287500Y-68450000D01*
G75*
G02*
X91125000Y-68287500I0J162500D01*
G01*
G37*
G36*
G01*
X90150000Y-67312500D02*
X90150000Y-66987500D01*
G75*
G02*
X90312500Y-66825000I162500J0D01*
G01*
X91212500Y-66825000D01*
G75*
G02*
X91375000Y-66987500I0J-162500D01*
G01*
X91375000Y-67312500D01*
G75*
G02*
X91212500Y-67475000I-162500J0D01*
G01*
X90312500Y-67475000D01*
G75*
G02*
X90150000Y-67312500I0J162500D01*
G01*
G37*
G36*
G01*
X90150000Y-66812500D02*
X90150000Y-66487500D01*
G75*
G02*
X90312500Y-66325000I162500J0D01*
G01*
X91212500Y-66325000D01*
G75*
G02*
X91375000Y-66487500I0J-162500D01*
G01*
X91375000Y-66812500D01*
G75*
G02*
X91212500Y-66975000I-162500J0D01*
G01*
X90312500Y-66975000D01*
G75*
G02*
X90150000Y-66812500I0J162500D01*
G01*
G37*
G36*
G01*
X90150000Y-66312500D02*
X90150000Y-65987500D01*
G75*
G02*
X90312500Y-65825000I162500J0D01*
G01*
X91212500Y-65825000D01*
G75*
G02*
X91375000Y-65987500I0J-162500D01*
G01*
X91375000Y-66312500D01*
G75*
G02*
X91212500Y-66475000I-162500J0D01*
G01*
X90312500Y-66475000D01*
G75*
G02*
X90150000Y-66312500I0J162500D01*
G01*
G37*
G36*
G01*
X90150000Y-65812500D02*
X90150000Y-65487500D01*
G75*
G02*
X90312500Y-65325000I162500J0D01*
G01*
X91212500Y-65325000D01*
G75*
G02*
X91375000Y-65487500I0J-162500D01*
G01*
X91375000Y-65812500D01*
G75*
G02*
X91212500Y-65975000I-162500J0D01*
G01*
X90312500Y-65975000D01*
G75*
G02*
X90150000Y-65812500I0J162500D01*
G01*
G37*
G36*
G01*
X90150000Y-65312500D02*
X90150000Y-64987500D01*
G75*
G02*
X90312500Y-64825000I162500J0D01*
G01*
X91212500Y-64825000D01*
G75*
G02*
X91375000Y-64987500I0J-162500D01*
G01*
X91375000Y-65312500D01*
G75*
G02*
X91212500Y-65475000I-162500J0D01*
G01*
X90312500Y-65475000D01*
G75*
G02*
X90150000Y-65312500I0J162500D01*
G01*
G37*
G36*
G01*
X90150000Y-64812500D02*
X90150000Y-64487500D01*
G75*
G02*
X90312500Y-64325000I162500J0D01*
G01*
X91212500Y-64325000D01*
G75*
G02*
X91375000Y-64487500I0J-162500D01*
G01*
X91375000Y-64812500D01*
G75*
G02*
X91212500Y-64975000I-162500J0D01*
G01*
X90312500Y-64975000D01*
G75*
G02*
X90150000Y-64812500I0J162500D01*
G01*
G37*
%TD*%
%TO.C,U1*%
G36*
G01*
X100900000Y-79250000D02*
X99400000Y-79250000D01*
G75*
G02*
X99200000Y-79050000I0J200000D01*
G01*
X99200000Y-77050000D01*
G75*
G02*
X99400000Y-76850000I200000J0D01*
G01*
X100900000Y-76850000D01*
G75*
G02*
X101100000Y-77050000I0J-200000D01*
G01*
X101100000Y-79050000D01*
G75*
G02*
X100900000Y-79250000I-200000J0D01*
G01*
G37*
G36*
G01*
X105500000Y-79250000D02*
X104000000Y-79250000D01*
G75*
G02*
X103800000Y-79050000I0J200000D01*
G01*
X103800000Y-77050000D01*
G75*
G02*
X104000000Y-76850000I200000J0D01*
G01*
X105500000Y-76850000D01*
G75*
G02*
X105700000Y-77050000I0J-200000D01*
G01*
X105700000Y-79050000D01*
G75*
G02*
X105500000Y-79250000I-200000J0D01*
G01*
G37*
G36*
G01*
X103200000Y-79250000D02*
X101700000Y-79250000D01*
G75*
G02*
X101500000Y-79050000I0J200000D01*
G01*
X101500000Y-77050000D01*
G75*
G02*
X101700000Y-76850000I200000J0D01*
G01*
X103200000Y-76850000D01*
G75*
G02*
X103400000Y-77050000I0J-200000D01*
G01*
X103400000Y-79050000D01*
G75*
G02*
X103200000Y-79250000I-200000J0D01*
G01*
G37*
G36*
G01*
X104350000Y-72950000D02*
X100550000Y-72950000D01*
G75*
G02*
X100350000Y-72750000I0J200000D01*
G01*
X100350000Y-70750000D01*
G75*
G02*
X100550000Y-70550000I200000J0D01*
G01*
X104350000Y-70550000D01*
G75*
G02*
X104550000Y-70750000I0J-200000D01*
G01*
X104550000Y-72750000D01*
G75*
G02*
X104350000Y-72950000I-200000J0D01*
G01*
G37*
%TD*%
%TO.C,R11*%
G36*
G01*
X84900000Y-59898077D02*
X84900000Y-58401923D01*
G75*
G02*
X85226923Y-58075000I326923J0D01*
G01*
X86273077Y-58075000D01*
G75*
G02*
X86600000Y-58401923I0J-326923D01*
G01*
X86600000Y-59898077D01*
G75*
G02*
X86273077Y-60225000I-326923J0D01*
G01*
X85226923Y-60225000D01*
G75*
G02*
X84900000Y-59898077I0J326923D01*
G01*
G37*
G36*
G01*
X81800000Y-59898077D02*
X81800000Y-58401923D01*
G75*
G02*
X82126923Y-58075000I326923J0D01*
G01*
X83173077Y-58075000D01*
G75*
G02*
X83500000Y-58401923I0J-326923D01*
G01*
X83500000Y-59898077D01*
G75*
G02*
X83173077Y-60225000I-326923J0D01*
G01*
X82126923Y-60225000D01*
G75*
G02*
X81800000Y-59898077I0J326923D01*
G01*
G37*
%TD*%
%TO.C,R10*%
G36*
G01*
X103150000Y-58148077D02*
X103150000Y-56651923D01*
G75*
G02*
X103476923Y-56325000I326923J0D01*
G01*
X104523077Y-56325000D01*
G75*
G02*
X104850000Y-56651923I0J-326923D01*
G01*
X104850000Y-58148077D01*
G75*
G02*
X104523077Y-58475000I-326923J0D01*
G01*
X103476923Y-58475000D01*
G75*
G02*
X103150000Y-58148077I0J326923D01*
G01*
G37*
G36*
G01*
X100050000Y-58148077D02*
X100050000Y-56651923D01*
G75*
G02*
X100376923Y-56325000I326923J0D01*
G01*
X101423077Y-56325000D01*
G75*
G02*
X101750000Y-56651923I0J-326923D01*
G01*
X101750000Y-58148077D01*
G75*
G02*
X101423077Y-58475000I-326923J0D01*
G01*
X100376923Y-58475000D01*
G75*
G02*
X100050000Y-58148077I0J326923D01*
G01*
G37*
%TD*%
%TO.C,R9*%
G36*
G01*
X121900000Y-50548077D02*
X121900000Y-49051923D01*
G75*
G02*
X122226923Y-48725000I326923J0D01*
G01*
X123273077Y-48725000D01*
G75*
G02*
X123600000Y-49051923I0J-326923D01*
G01*
X123600000Y-50548077D01*
G75*
G02*
X123273077Y-50875000I-326923J0D01*
G01*
X122226923Y-50875000D01*
G75*
G02*
X121900000Y-50548077I0J326923D01*
G01*
G37*
G36*
G01*
X118800000Y-50548077D02*
X118800000Y-49051923D01*
G75*
G02*
X119126923Y-48725000I326923J0D01*
G01*
X120173077Y-48725000D01*
G75*
G02*
X120500000Y-49051923I0J-326923D01*
G01*
X120500000Y-50548077D01*
G75*
G02*
X120173077Y-50875000I-326923J0D01*
G01*
X119126923Y-50875000D01*
G75*
G02*
X118800000Y-50548077I0J326923D01*
G01*
G37*
%TD*%
%TO.C,R8*%
G36*
G01*
X121900000Y-47398077D02*
X121900000Y-45901923D01*
G75*
G02*
X122226923Y-45575000I326923J0D01*
G01*
X123273077Y-45575000D01*
G75*
G02*
X123600000Y-45901923I0J-326923D01*
G01*
X123600000Y-47398077D01*
G75*
G02*
X123273077Y-47725000I-326923J0D01*
G01*
X122226923Y-47725000D01*
G75*
G02*
X121900000Y-47398077I0J326923D01*
G01*
G37*
G36*
G01*
X118800000Y-47398077D02*
X118800000Y-45901923D01*
G75*
G02*
X119126923Y-45575000I326923J0D01*
G01*
X120173077Y-45575000D01*
G75*
G02*
X120500000Y-45901923I0J-326923D01*
G01*
X120500000Y-47398077D01*
G75*
G02*
X120173077Y-47725000I-326923J0D01*
G01*
X119126923Y-47725000D01*
G75*
G02*
X118800000Y-47398077I0J326923D01*
G01*
G37*
%TD*%
%TO.C,R7*%
G36*
G01*
X83689923Y-40778900D02*
X85186077Y-40778900D01*
G75*
G02*
X85513000Y-41105823I0J-326923D01*
G01*
X85513000Y-42151977D01*
G75*
G02*
X85186077Y-42478900I-326923J0D01*
G01*
X83689923Y-42478900D01*
G75*
G02*
X83363000Y-42151977I0J326923D01*
G01*
X83363000Y-41105823D01*
G75*
G02*
X83689923Y-40778900I326923J0D01*
G01*
G37*
G36*
G01*
X83689923Y-43878900D02*
X85186077Y-43878900D01*
G75*
G02*
X85513000Y-44205823I0J-326923D01*
G01*
X85513000Y-45251977D01*
G75*
G02*
X85186077Y-45578900I-326923J0D01*
G01*
X83689923Y-45578900D01*
G75*
G02*
X83363000Y-45251977I0J326923D01*
G01*
X83363000Y-44205823D01*
G75*
G02*
X83689923Y-43878900I326923J0D01*
G01*
G37*
%TD*%
%TO.C,R6*%
G36*
G01*
X123711923Y-55500000D02*
X125208077Y-55500000D01*
G75*
G02*
X125535000Y-55826923I0J-326923D01*
G01*
X125535000Y-56873077D01*
G75*
G02*
X125208077Y-57200000I-326923J0D01*
G01*
X123711923Y-57200000D01*
G75*
G02*
X123385000Y-56873077I0J326923D01*
G01*
X123385000Y-55826923D01*
G75*
G02*
X123711923Y-55500000I326923J0D01*
G01*
G37*
G36*
G01*
X123711923Y-52400000D02*
X125208077Y-52400000D01*
G75*
G02*
X125535000Y-52726923I0J-326923D01*
G01*
X125535000Y-53773077D01*
G75*
G02*
X125208077Y-54100000I-326923J0D01*
G01*
X123711923Y-54100000D01*
G75*
G02*
X123385000Y-53773077I0J326923D01*
G01*
X123385000Y-52726923D01*
G75*
G02*
X123711923Y-52400000I326923J0D01*
G01*
G37*
%TD*%
%TO.C,R5*%
G36*
G01*
X125448077Y-61200000D02*
X123951923Y-61200000D01*
G75*
G02*
X123625000Y-60873077I0J326923D01*
G01*
X123625000Y-59826923D01*
G75*
G02*
X123951923Y-59500000I326923J0D01*
G01*
X125448077Y-59500000D01*
G75*
G02*
X125775000Y-59826923I0J-326923D01*
G01*
X125775000Y-60873077D01*
G75*
G02*
X125448077Y-61200000I-326923J0D01*
G01*
G37*
G36*
G01*
X125448077Y-64300000D02*
X123951923Y-64300000D01*
G75*
G02*
X123625000Y-63973077I0J326923D01*
G01*
X123625000Y-62926923D01*
G75*
G02*
X123951923Y-62600000I326923J0D01*
G01*
X125448077Y-62600000D01*
G75*
G02*
X125775000Y-62926923I0J-326923D01*
G01*
X125775000Y-63973077D01*
G75*
G02*
X125448077Y-64300000I-326923J0D01*
G01*
G37*
%TD*%
%TO.C,R4*%
G36*
G01*
X88201923Y-50160000D02*
X89698077Y-50160000D01*
G75*
G02*
X90025000Y-50486923I0J-326923D01*
G01*
X90025000Y-51533077D01*
G75*
G02*
X89698077Y-51860000I-326923J0D01*
G01*
X88201923Y-51860000D01*
G75*
G02*
X87875000Y-51533077I0J326923D01*
G01*
X87875000Y-50486923D01*
G75*
G02*
X88201923Y-50160000I326923J0D01*
G01*
G37*
G36*
G01*
X88201923Y-47060000D02*
X89698077Y-47060000D01*
G75*
G02*
X90025000Y-47386923I0J-326923D01*
G01*
X90025000Y-48433077D01*
G75*
G02*
X89698077Y-48760000I-326923J0D01*
G01*
X88201923Y-48760000D01*
G75*
G02*
X87875000Y-48433077I0J326923D01*
G01*
X87875000Y-47386923D01*
G75*
G02*
X88201923Y-47060000I326923J0D01*
G01*
G37*
%TD*%
%TO.C,R3*%
G36*
G01*
X113400000Y-59898077D02*
X113400000Y-58401923D01*
G75*
G02*
X113726923Y-58075000I326923J0D01*
G01*
X114773077Y-58075000D01*
G75*
G02*
X115100000Y-58401923I0J-326923D01*
G01*
X115100000Y-59898077D01*
G75*
G02*
X114773077Y-60225000I-326923J0D01*
G01*
X113726923Y-60225000D01*
G75*
G02*
X113400000Y-59898077I0J326923D01*
G01*
G37*
G36*
G01*
X110300000Y-59898077D02*
X110300000Y-58401923D01*
G75*
G02*
X110626923Y-58075000I326923J0D01*
G01*
X111673077Y-58075000D01*
G75*
G02*
X112000000Y-58401923I0J-326923D01*
G01*
X112000000Y-59898077D01*
G75*
G02*
X111673077Y-60225000I-326923J0D01*
G01*
X110626923Y-60225000D01*
G75*
G02*
X110300000Y-59898077I0J326923D01*
G01*
G37*
%TD*%
%TO.C,R2*%
G36*
G01*
X93400000Y-59898077D02*
X93400000Y-58401923D01*
G75*
G02*
X93726923Y-58075000I326923J0D01*
G01*
X94773077Y-58075000D01*
G75*
G02*
X95100000Y-58401923I0J-326923D01*
G01*
X95100000Y-59898077D01*
G75*
G02*
X94773077Y-60225000I-326923J0D01*
G01*
X93726923Y-60225000D01*
G75*
G02*
X93400000Y-59898077I0J326923D01*
G01*
G37*
G36*
G01*
X90300000Y-59898077D02*
X90300000Y-58401923D01*
G75*
G02*
X90626923Y-58075000I326923J0D01*
G01*
X91673077Y-58075000D01*
G75*
G02*
X92000000Y-58401923I0J-326923D01*
G01*
X92000000Y-59898077D01*
G75*
G02*
X91673077Y-60225000I-326923J0D01*
G01*
X90626923Y-60225000D01*
G75*
G02*
X90300000Y-59898077I0J326923D01*
G01*
G37*
%TD*%
%TO.C,R1*%
G36*
G01*
X92000000Y-71651923D02*
X92000000Y-73148077D01*
G75*
G02*
X91673077Y-73475000I-326923J0D01*
G01*
X90626923Y-73475000D01*
G75*
G02*
X90300000Y-73148077I0J326923D01*
G01*
X90300000Y-71651923D01*
G75*
G02*
X90626923Y-71325000I326923J0D01*
G01*
X91673077Y-71325000D01*
G75*
G02*
X92000000Y-71651923I0J-326923D01*
G01*
G37*
G36*
G01*
X95100000Y-71651923D02*
X95100000Y-73148077D01*
G75*
G02*
X94773077Y-73475000I-326923J0D01*
G01*
X93726923Y-73475000D01*
G75*
G02*
X93400000Y-73148077I0J326923D01*
G01*
X93400000Y-71651923D01*
G75*
G02*
X93726923Y-71325000I326923J0D01*
G01*
X94773077Y-71325000D01*
G75*
G02*
X95100000Y-71651923I0J-326923D01*
G01*
G37*
%TD*%
%TO.C,Q2*%
G36*
G01*
X120600000Y-54950000D02*
X119800000Y-54950000D01*
G75*
G02*
X119600000Y-54750000I0J200000D01*
G01*
X119600000Y-52850000D01*
G75*
G02*
X119800000Y-52650000I200000J0D01*
G01*
X120600000Y-52650000D01*
G75*
G02*
X120800000Y-52850000I0J-200000D01*
G01*
X120800000Y-54750000D01*
G75*
G02*
X120600000Y-54950000I-200000J0D01*
G01*
G37*
G36*
G01*
X121550000Y-57950000D02*
X120750000Y-57950000D01*
G75*
G02*
X120550000Y-57750000I0J200000D01*
G01*
X120550000Y-55850000D01*
G75*
G02*
X120750000Y-55650000I200000J0D01*
G01*
X121550000Y-55650000D01*
G75*
G02*
X121750000Y-55850000I0J-200000D01*
G01*
X121750000Y-57750000D01*
G75*
G02*
X121550000Y-57950000I-200000J0D01*
G01*
G37*
G36*
G01*
X119650000Y-57950000D02*
X118850000Y-57950000D01*
G75*
G02*
X118650000Y-57750000I0J200000D01*
G01*
X118650000Y-55850000D01*
G75*
G02*
X118850000Y-55650000I200000J0D01*
G01*
X119650000Y-55650000D01*
G75*
G02*
X119850000Y-55850000I0J-200000D01*
G01*
X119850000Y-57750000D01*
G75*
G02*
X119650000Y-57950000I-200000J0D01*
G01*
G37*
%TD*%
%TO.C,Q1*%
G36*
G01*
X120600000Y-61450000D02*
X119800000Y-61450000D01*
G75*
G02*
X119600000Y-61250000I0J200000D01*
G01*
X119600000Y-59350000D01*
G75*
G02*
X119800000Y-59150000I200000J0D01*
G01*
X120600000Y-59150000D01*
G75*
G02*
X120800000Y-59350000I0J-200000D01*
G01*
X120800000Y-61250000D01*
G75*
G02*
X120600000Y-61450000I-200000J0D01*
G01*
G37*
G36*
G01*
X121550000Y-64450000D02*
X120750000Y-64450000D01*
G75*
G02*
X120550000Y-64250000I0J200000D01*
G01*
X120550000Y-62350000D01*
G75*
G02*
X120750000Y-62150000I200000J0D01*
G01*
X121550000Y-62150000D01*
G75*
G02*
X121750000Y-62350000I0J-200000D01*
G01*
X121750000Y-64250000D01*
G75*
G02*
X121550000Y-64450000I-200000J0D01*
G01*
G37*
G36*
G01*
X119650000Y-64450000D02*
X118850000Y-64450000D01*
G75*
G02*
X118650000Y-64250000I0J200000D01*
G01*
X118650000Y-62350000D01*
G75*
G02*
X118850000Y-62150000I200000J0D01*
G01*
X119650000Y-62150000D01*
G75*
G02*
X119850000Y-62350000I0J-200000D01*
G01*
X119850000Y-64250000D01*
G75*
G02*
X119650000Y-64450000I-200000J0D01*
G01*
G37*
%TD*%
%TO.C,D5*%
G36*
G01*
X99100000Y-63000000D02*
X99100000Y-62000000D01*
G75*
G02*
X99300000Y-61800000I200000J0D01*
G01*
X100800000Y-61800000D01*
G75*
G02*
X101000000Y-62000000I0J-200000D01*
G01*
X101000000Y-63000000D01*
G75*
G02*
X100800000Y-63200000I-200000J0D01*
G01*
X99300000Y-63200000D01*
G75*
G02*
X99100000Y-63000000I0J200000D01*
G01*
G37*
G36*
G01*
X99100000Y-66200000D02*
X99100000Y-65200000D01*
G75*
G02*
X99300000Y-65000000I200000J0D01*
G01*
X100800000Y-65000000D01*
G75*
G02*
X101000000Y-65200000I0J-200000D01*
G01*
X101000000Y-66200000D01*
G75*
G02*
X100800000Y-66400000I-200000J0D01*
G01*
X99300000Y-66400000D01*
G75*
G02*
X99100000Y-66200000I0J200000D01*
G01*
G37*
G36*
G01*
X104000000Y-63000000D02*
X104000000Y-62000000D01*
G75*
G02*
X104200000Y-61800000I200000J0D01*
G01*
X105700000Y-61800000D01*
G75*
G02*
X105900000Y-62000000I0J-200000D01*
G01*
X105900000Y-63000000D01*
G75*
G02*
X105700000Y-63200000I-200000J0D01*
G01*
X104200000Y-63200000D01*
G75*
G02*
X104000000Y-63000000I0J200000D01*
G01*
G37*
G36*
G01*
X104000000Y-66200000D02*
X104000000Y-65200000D01*
G75*
G02*
X104200000Y-65000000I200000J0D01*
G01*
X105700000Y-65000000D01*
G75*
G02*
X105900000Y-65200000I0J-200000D01*
G01*
X105900000Y-66200000D01*
G75*
G02*
X105700000Y-66400000I-200000J0D01*
G01*
X104200000Y-66400000D01*
G75*
G02*
X104000000Y-66200000I0J200000D01*
G01*
G37*
%TD*%
%TO.C,D4*%
G36*
G01*
X85204825Y-48885000D02*
X83695175Y-48885000D01*
G75*
G02*
X83375000Y-48564825I0J320175D01*
G01*
X83375000Y-47380175D01*
G75*
G02*
X83695175Y-47060000I320175J0D01*
G01*
X85204825Y-47060000D01*
G75*
G02*
X85525000Y-47380175I0J-320175D01*
G01*
X85525000Y-48564825D01*
G75*
G02*
X85204825Y-48885000I-320175J0D01*
G01*
G37*
G36*
G01*
X85204825Y-51860000D02*
X83695175Y-51860000D01*
G75*
G02*
X83375000Y-51539825I0J320175D01*
G01*
X83375000Y-50355175D01*
G75*
G02*
X83695175Y-50035000I320175J0D01*
G01*
X85204825Y-50035000D01*
G75*
G02*
X85525000Y-50355175I0J-320175D01*
G01*
X85525000Y-51539825D01*
G75*
G02*
X85204825Y-51860000I-320175J0D01*
G01*
G37*
%TD*%
%TO.C,D3*%
G36*
G01*
X112125000Y-54645175D02*
X112125000Y-56154825D01*
G75*
G02*
X111804825Y-56475000I-320175J0D01*
G01*
X110620175Y-56475000D01*
G75*
G02*
X110300000Y-56154825I0J320175D01*
G01*
X110300000Y-54645175D01*
G75*
G02*
X110620175Y-54325000I320175J0D01*
G01*
X111804825Y-54325000D01*
G75*
G02*
X112125000Y-54645175I0J-320175D01*
G01*
G37*
G36*
G01*
X115100000Y-54645175D02*
X115100000Y-56154825D01*
G75*
G02*
X114779825Y-56475000I-320175J0D01*
G01*
X113595175Y-56475000D01*
G75*
G02*
X113275000Y-56154825I0J320175D01*
G01*
X113275000Y-54645175D01*
G75*
G02*
X113595175Y-54325000I320175J0D01*
G01*
X114779825Y-54325000D01*
G75*
G02*
X115100000Y-54645175I0J-320175D01*
G01*
G37*
%TD*%
%TO.C,D2*%
G36*
G01*
X92125000Y-54645175D02*
X92125000Y-56154825D01*
G75*
G02*
X91804825Y-56475000I-320175J0D01*
G01*
X90620175Y-56475000D01*
G75*
G02*
X90300000Y-56154825I0J320175D01*
G01*
X90300000Y-54645175D01*
G75*
G02*
X90620175Y-54325000I320175J0D01*
G01*
X91804825Y-54325000D01*
G75*
G02*
X92125000Y-54645175I0J-320175D01*
G01*
G37*
G36*
G01*
X95100000Y-54645175D02*
X95100000Y-56154825D01*
G75*
G02*
X94779825Y-56475000I-320175J0D01*
G01*
X93595175Y-56475000D01*
G75*
G02*
X93275000Y-56154825I0J320175D01*
G01*
X93275000Y-54645175D01*
G75*
G02*
X93595175Y-54325000I320175J0D01*
G01*
X94779825Y-54325000D01*
G75*
G02*
X95100000Y-54645175I0J-320175D01*
G01*
G37*
%TD*%
%TO.C,D1*%
G36*
G01*
X101850000Y-82550000D02*
X101850000Y-83650000D01*
G75*
G02*
X101650000Y-83850000I-200000J0D01*
G01*
X100550000Y-83850000D01*
G75*
G02*
X100350000Y-83650000I0J200000D01*
G01*
X100350000Y-82550000D01*
G75*
G02*
X100550000Y-82350000I200000J0D01*
G01*
X101650000Y-82350000D01*
G75*
G02*
X101850000Y-82550000I0J-200000D01*
G01*
G37*
G36*
G01*
X104650000Y-82550000D02*
X104650000Y-83650000D01*
G75*
G02*
X104450000Y-83850000I-200000J0D01*
G01*
X103350000Y-83850000D01*
G75*
G02*
X103150000Y-83650000I0J200000D01*
G01*
X103150000Y-82550000D01*
G75*
G02*
X103350000Y-82350000I200000J0D01*
G01*
X104450000Y-82350000D01*
G75*
G02*
X104650000Y-82550000I0J-200000D01*
G01*
G37*
%TD*%
%TO.C,C12*%
G36*
G01*
X117825000Y-78219443D02*
X117825000Y-80580557D01*
G75*
G02*
X117530557Y-80875000I-294443J0D01*
G01*
X115469443Y-80875000D01*
G75*
G02*
X115175000Y-80580557I0J294443D01*
G01*
X115175000Y-78219443D01*
G75*
G02*
X115469443Y-77925000I294443J0D01*
G01*
X117530557Y-77925000D01*
G75*
G02*
X117825000Y-78219443I0J-294443D01*
G01*
G37*
G36*
G01*
X124225000Y-78219443D02*
X124225000Y-80580557D01*
G75*
G02*
X123930557Y-80875000I-294443J0D01*
G01*
X121869443Y-80875000D01*
G75*
G02*
X121575000Y-80580557I0J294443D01*
G01*
X121575000Y-78219443D01*
G75*
G02*
X121869443Y-77925000I294443J0D01*
G01*
X123930557Y-77925000D01*
G75*
G02*
X124225000Y-78219443I0J-294443D01*
G01*
G37*
%TD*%
%TO.C,C11*%
G36*
G01*
X84900000Y-55924530D02*
X84900000Y-54375470D01*
G75*
G02*
X85225470Y-54050000I325470J0D01*
G01*
X86299530Y-54050000D01*
G75*
G02*
X86625000Y-54375470I0J-325470D01*
G01*
X86625000Y-55924530D01*
G75*
G02*
X86299530Y-56250000I-325470J0D01*
G01*
X85225470Y-56250000D01*
G75*
G02*
X84900000Y-55924530I0J325470D01*
G01*
G37*
G36*
G01*
X81775000Y-55924530D02*
X81775000Y-54375470D01*
G75*
G02*
X82100470Y-54050000I325470J0D01*
G01*
X83174530Y-54050000D01*
G75*
G02*
X83500000Y-54375470I0J-325470D01*
G01*
X83500000Y-55924530D01*
G75*
G02*
X83174530Y-56250000I-325470J0D01*
G01*
X82100470Y-56250000D01*
G75*
G02*
X81775000Y-55924530I0J325470D01*
G01*
G37*
%TD*%
%TO.C,C10*%
G36*
G01*
X89707530Y-45668900D02*
X88158470Y-45668900D01*
G75*
G02*
X87833000Y-45343430I0J325470D01*
G01*
X87833000Y-44269370D01*
G75*
G02*
X88158470Y-43943900I325470J0D01*
G01*
X89707530Y-43943900D01*
G75*
G02*
X90033000Y-44269370I0J-325470D01*
G01*
X90033000Y-45343430D01*
G75*
G02*
X89707530Y-45668900I-325470J0D01*
G01*
G37*
G36*
G01*
X89707530Y-42543900D02*
X88158470Y-42543900D01*
G75*
G02*
X87833000Y-42218430I0J325470D01*
G01*
X87833000Y-41144370D01*
G75*
G02*
X88158470Y-40818900I325470J0D01*
G01*
X89707530Y-40818900D01*
G75*
G02*
X90033000Y-41144370I0J-325470D01*
G01*
X90033000Y-42218430D01*
G75*
G02*
X89707530Y-42543900I-325470J0D01*
G01*
G37*
%TD*%
%TO.C,C9*%
G36*
G01*
X88175470Y-37350000D02*
X89724530Y-37350000D01*
G75*
G02*
X90050000Y-37675470I0J-325470D01*
G01*
X90050000Y-38749530D01*
G75*
G02*
X89724530Y-39075000I-325470J0D01*
G01*
X88175470Y-39075000D01*
G75*
G02*
X87850000Y-38749530I0J325470D01*
G01*
X87850000Y-37675470D01*
G75*
G02*
X88175470Y-37350000I325470J0D01*
G01*
G37*
G36*
G01*
X88175470Y-34225000D02*
X89724530Y-34225000D01*
G75*
G02*
X90050000Y-34550470I0J-325470D01*
G01*
X90050000Y-35624530D01*
G75*
G02*
X89724530Y-35950000I-325470J0D01*
G01*
X88175470Y-35950000D01*
G75*
G02*
X87850000Y-35624530I0J325470D01*
G01*
X87850000Y-34550470D01*
G75*
G02*
X88175470Y-34225000I325470J0D01*
G01*
G37*
%TD*%
%TO.C,C8*%
G36*
G01*
X83675470Y-37350000D02*
X85224530Y-37350000D01*
G75*
G02*
X85550000Y-37675470I0J-325470D01*
G01*
X85550000Y-38749530D01*
G75*
G02*
X85224530Y-39075000I-325470J0D01*
G01*
X83675470Y-39075000D01*
G75*
G02*
X83350000Y-38749530I0J325470D01*
G01*
X83350000Y-37675470D01*
G75*
G02*
X83675470Y-37350000I325470J0D01*
G01*
G37*
G36*
G01*
X83675470Y-34225000D02*
X85224530Y-34225000D01*
G75*
G02*
X85550000Y-34550470I0J-325470D01*
G01*
X85550000Y-35624530D01*
G75*
G02*
X85224530Y-35950000I-325470J0D01*
G01*
X83675470Y-35950000D01*
G75*
G02*
X83350000Y-35624530I0J325470D01*
G01*
X83350000Y-34550470D01*
G75*
G02*
X83675470Y-34225000I325470J0D01*
G01*
G37*
%TD*%
%TO.C,C7*%
G36*
G01*
X113400000Y-63674530D02*
X113400000Y-62125470D01*
G75*
G02*
X113725470Y-61800000I325470J0D01*
G01*
X114799530Y-61800000D01*
G75*
G02*
X115125000Y-62125470I0J-325470D01*
G01*
X115125000Y-63674530D01*
G75*
G02*
X114799530Y-64000000I-325470J0D01*
G01*
X113725470Y-64000000D01*
G75*
G02*
X113400000Y-63674530I0J325470D01*
G01*
G37*
G36*
G01*
X110275000Y-63674530D02*
X110275000Y-62125470D01*
G75*
G02*
X110600470Y-61800000I325470J0D01*
G01*
X111674530Y-61800000D01*
G75*
G02*
X112000000Y-62125470I0J-325470D01*
G01*
X112000000Y-63674530D01*
G75*
G02*
X111674530Y-64000000I-325470J0D01*
G01*
X110600470Y-64000000D01*
G75*
G02*
X110275000Y-63674530I0J325470D01*
G01*
G37*
%TD*%
%TO.C,C6*%
G36*
G01*
X84520000Y-73164530D02*
X84520000Y-71615470D01*
G75*
G02*
X84845470Y-71290000I325470J0D01*
G01*
X85919530Y-71290000D01*
G75*
G02*
X86245000Y-71615470I0J-325470D01*
G01*
X86245000Y-73164530D01*
G75*
G02*
X85919530Y-73490000I-325470J0D01*
G01*
X84845470Y-73490000D01*
G75*
G02*
X84520000Y-73164530I0J325470D01*
G01*
G37*
G36*
G01*
X81395000Y-73164530D02*
X81395000Y-71615470D01*
G75*
G02*
X81720470Y-71290000I325470J0D01*
G01*
X82794530Y-71290000D01*
G75*
G02*
X83120000Y-71615470I0J-325470D01*
G01*
X83120000Y-73164530D01*
G75*
G02*
X82794530Y-73490000I-325470J0D01*
G01*
X81720470Y-73490000D01*
G75*
G02*
X81395000Y-73164530I0J325470D01*
G01*
G37*
%TD*%
%TO.C,C5*%
G36*
G01*
X84520000Y-78244530D02*
X84520000Y-76695470D01*
G75*
G02*
X84845470Y-76370000I325470J0D01*
G01*
X85919530Y-76370000D01*
G75*
G02*
X86245000Y-76695470I0J-325470D01*
G01*
X86245000Y-78244530D01*
G75*
G02*
X85919530Y-78570000I-325470J0D01*
G01*
X84845470Y-78570000D01*
G75*
G02*
X84520000Y-78244530I0J325470D01*
G01*
G37*
G36*
G01*
X81395000Y-78244530D02*
X81395000Y-76695470D01*
G75*
G02*
X81720470Y-76370000I325470J0D01*
G01*
X82794530Y-76370000D01*
G75*
G02*
X83120000Y-76695470I0J-325470D01*
G01*
X83120000Y-78244530D01*
G75*
G02*
X82794530Y-78570000I-325470J0D01*
G01*
X81720470Y-78570000D01*
G75*
G02*
X81395000Y-78244530I0J325470D01*
G01*
G37*
%TD*%
%TO.C,C4*%
G36*
G01*
X84817835Y-66598316D02*
X86366895Y-66598316D01*
G75*
G02*
X86692365Y-66923786I0J-325470D01*
G01*
X86692365Y-67997846D01*
G75*
G02*
X86366895Y-68323316I-325470J0D01*
G01*
X84817835Y-68323316D01*
G75*
G02*
X84492365Y-67997846I0J325470D01*
G01*
X84492365Y-66923786D01*
G75*
G02*
X84817835Y-66598316I325470J0D01*
G01*
G37*
G36*
G01*
X84817835Y-63473316D02*
X86366895Y-63473316D01*
G75*
G02*
X86692365Y-63798786I0J-325470D01*
G01*
X86692365Y-64872846D01*
G75*
G02*
X86366895Y-65198316I-325470J0D01*
G01*
X84817835Y-65198316D01*
G75*
G02*
X84492365Y-64872846I0J325470D01*
G01*
X84492365Y-63798786D01*
G75*
G02*
X84817835Y-63473316I325470J0D01*
G01*
G37*
%TD*%
%TO.C,C3*%
G36*
G01*
X81425470Y-66600000D02*
X82974530Y-66600000D01*
G75*
G02*
X83300000Y-66925470I0J-325470D01*
G01*
X83300000Y-67999530D01*
G75*
G02*
X82974530Y-68325000I-325470J0D01*
G01*
X81425470Y-68325000D01*
G75*
G02*
X81100000Y-67999530I0J325470D01*
G01*
X81100000Y-66925470D01*
G75*
G02*
X81425470Y-66600000I325470J0D01*
G01*
G37*
G36*
G01*
X81425470Y-63475000D02*
X82974530Y-63475000D01*
G75*
G02*
X83300000Y-63800470I0J-325470D01*
G01*
X83300000Y-64874530D01*
G75*
G02*
X82974530Y-65200000I-325470J0D01*
G01*
X81425470Y-65200000D01*
G75*
G02*
X81100000Y-64874530I0J325470D01*
G01*
X81100000Y-63800470D01*
G75*
G02*
X81425470Y-63475000I325470J0D01*
G01*
G37*
%TD*%
%TO.C,C2*%
G36*
G01*
X95224530Y-78450000D02*
X93675470Y-78450000D01*
G75*
G02*
X93350000Y-78124530I0J325470D01*
G01*
X93350000Y-77050470D01*
G75*
G02*
X93675470Y-76725000I325470J0D01*
G01*
X95224530Y-76725000D01*
G75*
G02*
X95550000Y-77050470I0J-325470D01*
G01*
X95550000Y-78124530D01*
G75*
G02*
X95224530Y-78450000I-325470J0D01*
G01*
G37*
G36*
G01*
X95224530Y-81575000D02*
X93675470Y-81575000D01*
G75*
G02*
X93350000Y-81249530I0J325470D01*
G01*
X93350000Y-80175470D01*
G75*
G02*
X93675470Y-79850000I325470J0D01*
G01*
X95224530Y-79850000D01*
G75*
G02*
X95550000Y-80175470I0J-325470D01*
G01*
X95550000Y-81249530D01*
G75*
G02*
X95224530Y-81575000I-325470J0D01*
G01*
G37*
%TD*%
%TO.C,C1*%
G36*
G01*
X109625470Y-79900000D02*
X111174530Y-79900000D01*
G75*
G02*
X111500000Y-80225470I0J-325470D01*
G01*
X111500000Y-81299530D01*
G75*
G02*
X111174530Y-81625000I-325470J0D01*
G01*
X109625470Y-81625000D01*
G75*
G02*
X109300000Y-81299530I0J325470D01*
G01*
X109300000Y-80225470D01*
G75*
G02*
X109625470Y-79900000I325470J0D01*
G01*
G37*
G36*
G01*
X109625470Y-76775000D02*
X111174530Y-76775000D01*
G75*
G02*
X111500000Y-77100470I0J-325470D01*
G01*
X111500000Y-78174530D01*
G75*
G02*
X111174530Y-78500000I-325470J0D01*
G01*
X109625470Y-78500000D01*
G75*
G02*
X109300000Y-78174530I0J325470D01*
G01*
X109300000Y-77100470D01*
G75*
G02*
X109625470Y-76775000I325470J0D01*
G01*
G37*
%TD*%
D12*
%TO.C,M1*%
X98830000Y-92020000D03*
G36*
G01*
X100730000Y-89855000D02*
X100730000Y-88605000D01*
G75*
G02*
X100930000Y-88405000I200000J0D01*
G01*
X101330000Y-88405000D01*
G75*
G02*
X101530000Y-88605000I0J-200000D01*
G01*
X101530000Y-89855000D01*
G75*
G02*
X101330000Y-90055000I-200000J0D01*
G01*
X100930000Y-90055000D01*
G75*
G02*
X100730000Y-89855000I0J200000D01*
G01*
G37*
G36*
G01*
X101380000Y-89855000D02*
X101380000Y-88605000D01*
G75*
G02*
X101580000Y-88405000I200000J0D01*
G01*
X101980000Y-88405000D01*
G75*
G02*
X102180000Y-88605000I0J-200000D01*
G01*
X102180000Y-89855000D01*
G75*
G02*
X101980000Y-90055000I-200000J0D01*
G01*
X101580000Y-90055000D01*
G75*
G02*
X101380000Y-89855000I0J200000D01*
G01*
G37*
G36*
G01*
X103330000Y-89855000D02*
X103330000Y-88605000D01*
G75*
G02*
X103530000Y-88405000I200000J0D01*
G01*
X103930000Y-88405000D01*
G75*
G02*
X104130000Y-88605000I0J-200000D01*
G01*
X104130000Y-89855000D01*
G75*
G02*
X103930000Y-90055000I-200000J0D01*
G01*
X103530000Y-90055000D01*
G75*
G02*
X103330000Y-89855000I0J200000D01*
G01*
G37*
G36*
G01*
X102680000Y-89855000D02*
X102680000Y-88605000D01*
G75*
G02*
X102880000Y-88405000I200000J0D01*
G01*
X103280000Y-88405000D01*
G75*
G02*
X103480000Y-88605000I0J-200000D01*
G01*
X103480000Y-89855000D01*
G75*
G02*
X103280000Y-90055000I-200000J0D01*
G01*
X102880000Y-90055000D01*
G75*
G02*
X102680000Y-89855000I0J200000D01*
G01*
G37*
D13*
X100005000Y-89230000D03*
X104855000Y-89230000D03*
G36*
G01*
X102030000Y-89855000D02*
X102030000Y-88605000D01*
G75*
G02*
X102230000Y-88405000I200000J0D01*
G01*
X102630000Y-88405000D01*
G75*
G02*
X102830000Y-88605000I0J-200000D01*
G01*
X102830000Y-89855000D01*
G75*
G02*
X102630000Y-90055000I-200000J0D01*
G01*
X102230000Y-90055000D01*
G75*
G02*
X102030000Y-89855000I0J200000D01*
G01*
G37*
D12*
X106030000Y-92020000D03*
%TD*%
D14*
%TO.C,J1*%
X122900000Y-35800000D03*
X122900000Y-40800000D03*
%TD*%
M02*
