%TF.GenerationSoftware,KiCad,Pcbnew,(5.1.9)-1*%
%TF.CreationDate,2021-04-27T12:53:02+02:00*%
%TF.ProjectId,MeterBoard32,4d657465-7242-46f6-9172-6433322e6b69,2*%
%TF.SameCoordinates,Original*%
%TF.FileFunction,Legend,Top*%
%TF.FilePolarity,Positive*%
%FSLAX46Y46*%
G04 Gerber Fmt 4.6, Leading zero omitted, Abs format (unit mm)*
G04 Created by KiCad (PCBNEW (5.1.9)-1) date 2021-04-27 12:53:02*
%MOMM*%
%LPD*%
G01*
G04 APERTURE LIST*
%ADD10C,0.300000*%
%ADD11C,0.010000*%
%ADD12C,0.500000*%
%ADD13C,0.150000*%
%ADD14C,0.120000*%
%ADD15C,0.250000*%
G04 APERTURE END LIST*
D10*
X81098175Y-48403395D02*
X79598175Y-48403395D01*
X80669604Y-47903395D01*
X79598175Y-47403395D01*
X81098175Y-47403395D01*
X81026746Y-46117681D02*
X81098175Y-46260538D01*
X81098175Y-46546253D01*
X81026746Y-46689110D01*
X80883889Y-46760538D01*
X80312461Y-46760538D01*
X80169604Y-46689110D01*
X80098175Y-46546253D01*
X80098175Y-46260538D01*
X80169604Y-46117681D01*
X80312461Y-46046253D01*
X80455318Y-46046253D01*
X80598175Y-46760538D01*
X80098175Y-45617681D02*
X80098175Y-45046253D01*
X79598175Y-45403395D02*
X80883889Y-45403395D01*
X81026746Y-45331967D01*
X81098175Y-45189110D01*
X81098175Y-45046253D01*
X81026746Y-43974824D02*
X81098175Y-44117681D01*
X81098175Y-44403395D01*
X81026746Y-44546253D01*
X80883889Y-44617681D01*
X80312461Y-44617681D01*
X80169604Y-44546253D01*
X80098175Y-44403395D01*
X80098175Y-44117681D01*
X80169604Y-43974824D01*
X80312461Y-43903395D01*
X80455318Y-43903395D01*
X80598175Y-44617681D01*
X81098175Y-43260538D02*
X80098175Y-43260538D01*
X80383889Y-43260538D02*
X80241032Y-43189110D01*
X80169604Y-43117681D01*
X80098175Y-42974824D01*
X80098175Y-42831967D01*
X80312461Y-41831967D02*
X80383889Y-41617681D01*
X80455318Y-41546253D01*
X80598175Y-41474824D01*
X80812461Y-41474824D01*
X80955318Y-41546253D01*
X81026746Y-41617681D01*
X81098175Y-41760538D01*
X81098175Y-42331967D01*
X79598175Y-42331967D01*
X79598175Y-41831967D01*
X79669604Y-41689110D01*
X79741032Y-41617681D01*
X79883889Y-41546253D01*
X80026746Y-41546253D01*
X80169604Y-41617681D01*
X80241032Y-41689110D01*
X80312461Y-41831967D01*
X80312461Y-42331967D01*
X81098175Y-40617681D02*
X81026746Y-40760538D01*
X80955318Y-40831967D01*
X80812461Y-40903395D01*
X80383889Y-40903395D01*
X80241032Y-40831967D01*
X80169604Y-40760538D01*
X80098175Y-40617681D01*
X80098175Y-40403395D01*
X80169604Y-40260538D01*
X80241032Y-40189110D01*
X80383889Y-40117681D01*
X80812461Y-40117681D01*
X80955318Y-40189110D01*
X81026746Y-40260538D01*
X81098175Y-40403395D01*
X81098175Y-40617681D01*
X81098175Y-38831967D02*
X80312461Y-38831967D01*
X80169604Y-38903395D01*
X80098175Y-39046253D01*
X80098175Y-39331967D01*
X80169604Y-39474824D01*
X81026746Y-38831967D02*
X81098175Y-38974824D01*
X81098175Y-39331967D01*
X81026746Y-39474824D01*
X80883889Y-39546253D01*
X80741032Y-39546253D01*
X80598175Y-39474824D01*
X80526746Y-39331967D01*
X80526746Y-38974824D01*
X80455318Y-38831967D01*
X81098175Y-38117681D02*
X80098175Y-38117681D01*
X80383889Y-38117681D02*
X80241032Y-38046253D01*
X80169604Y-37974824D01*
X80098175Y-37831967D01*
X80098175Y-37689110D01*
X81098175Y-36546253D02*
X79598175Y-36546253D01*
X81026746Y-36546253D02*
X81098175Y-36689110D01*
X81098175Y-36974824D01*
X81026746Y-37117681D01*
X80955318Y-37189110D01*
X80812461Y-37260538D01*
X80383889Y-37260538D01*
X80241032Y-37189110D01*
X80169604Y-37117681D01*
X80098175Y-36974824D01*
X80098175Y-36689110D01*
X80169604Y-36546253D01*
X79598175Y-35974824D02*
X79598175Y-35046253D01*
X80169604Y-35546253D01*
X80169604Y-35331967D01*
X80241032Y-35189110D01*
X80312461Y-35117681D01*
X80455318Y-35046253D01*
X80812461Y-35046253D01*
X80955318Y-35117681D01*
X81026746Y-35189110D01*
X81098175Y-35331967D01*
X81098175Y-35760538D01*
X81026746Y-35903395D01*
X80955318Y-35974824D01*
X79741032Y-34474824D02*
X79669604Y-34403395D01*
X79598175Y-34260538D01*
X79598175Y-33903395D01*
X79669604Y-33760538D01*
X79741032Y-33689110D01*
X79883889Y-33617681D01*
X80026746Y-33617681D01*
X80241032Y-33689110D01*
X81098175Y-34546253D01*
X81098175Y-33617681D01*
D11*
%TO.C,G1*%
G36*
X117130817Y-82741107D02*
G01*
X117428457Y-82794786D01*
X117680236Y-82879932D01*
X117872675Y-82994948D01*
X117873172Y-82995355D01*
X118006265Y-83089871D01*
X118151698Y-83172207D01*
X118211976Y-83199077D01*
X118322674Y-83244243D01*
X118403761Y-83281174D01*
X118422615Y-83291608D01*
X118488673Y-83320003D01*
X118605355Y-83357527D01*
X118746946Y-83396547D01*
X118885217Y-83428909D01*
X118958615Y-83452568D01*
X118965258Y-83486243D01*
X118951705Y-83505516D01*
X118929995Y-83563532D01*
X118946177Y-83583081D01*
X118988873Y-83627269D01*
X119055715Y-83714139D01*
X119100806Y-83778605D01*
X119216541Y-83950092D01*
X119118286Y-83974752D01*
X119045130Y-83980862D01*
X118966643Y-83956899D01*
X118871055Y-83895457D01*
X118746595Y-83789129D01*
X118599595Y-83648372D01*
X118481902Y-83535878D01*
X118397710Y-83468949D01*
X118326795Y-83436390D01*
X118248934Y-83427007D01*
X118200647Y-83427520D01*
X118086151Y-83436376D01*
X118003463Y-83452514D01*
X117988342Y-83458968D01*
X117928013Y-83476467D01*
X117817430Y-83493792D01*
X117722332Y-83503543D01*
X117545659Y-83529950D01*
X117437638Y-83577206D01*
X117390578Y-83649431D01*
X117387077Y-83683231D01*
X117353014Y-83774421D01*
X117248644Y-83839562D01*
X117181271Y-83860280D01*
X117083970Y-83910864D01*
X116996086Y-83996254D01*
X116992794Y-84000781D01*
X116901960Y-84098551D01*
X116798571Y-84172909D01*
X116722207Y-84209756D01*
X116700381Y-84202853D01*
X116718270Y-84144467D01*
X116722531Y-84133242D01*
X116741445Y-84062178D01*
X116709542Y-84037447D01*
X116654813Y-84034923D01*
X116583109Y-84030794D01*
X116580394Y-84007121D01*
X116617962Y-83966539D01*
X116704425Y-83904816D01*
X116809591Y-83856385D01*
X116899411Y-83813241D01*
X116949208Y-83765490D01*
X116950246Y-83762800D01*
X116941541Y-83736740D01*
X116887535Y-83727681D01*
X116780741Y-83736251D01*
X116613673Y-83763077D01*
X116378843Y-83808786D01*
X116363394Y-83811946D01*
X116163694Y-83862612D01*
X116039157Y-83919281D01*
X115986831Y-83985472D01*
X116003763Y-84064700D01*
X116077941Y-84152099D01*
X116140646Y-84217709D01*
X116149677Y-84262253D01*
X116110957Y-84315224D01*
X116110745Y-84315458D01*
X116069607Y-84377505D01*
X116068604Y-84409784D01*
X116102747Y-84397281D01*
X116154479Y-84335981D01*
X116157525Y-84331391D01*
X116228051Y-84253717D01*
X116289888Y-84234298D01*
X116327312Y-84274741D01*
X116332000Y-84313575D01*
X116341627Y-84367794D01*
X116385319Y-84383934D01*
X116468769Y-84374647D01*
X116561243Y-84366189D01*
X116599617Y-84386930D01*
X116605538Y-84423968D01*
X116638863Y-84495315D01*
X116725968Y-84535626D01*
X116847546Y-84541549D01*
X116984291Y-84509732D01*
X117018288Y-84495623D01*
X117099451Y-84468743D01*
X117149629Y-84489455D01*
X117170962Y-84515147D01*
X117260645Y-84578352D01*
X117380725Y-84579100D01*
X117515249Y-84517858D01*
X117534120Y-84504517D01*
X117659975Y-84411468D01*
X117755095Y-84500828D01*
X117842004Y-84557910D01*
X117906528Y-84554846D01*
X117933996Y-84492880D01*
X117934154Y-84485660D01*
X117963763Y-84449035D01*
X118002944Y-84450998D01*
X118063460Y-84439032D01*
X118112664Y-84360015D01*
X118118252Y-84345750D01*
X118169460Y-84258331D01*
X118220860Y-84245170D01*
X118261304Y-84303198D01*
X118277582Y-84389625D01*
X118293365Y-84525432D01*
X118315777Y-84592643D01*
X118351234Y-84600815D01*
X118397199Y-84567781D01*
X118492845Y-84510584D01*
X118576809Y-84527383D01*
X118654847Y-84620014D01*
X118674672Y-84656345D01*
X118752471Y-84808843D01*
X118670438Y-84913132D01*
X118619786Y-85003347D01*
X118636775Y-85062339D01*
X118723539Y-85092076D01*
X118868004Y-85095234D01*
X118982013Y-85095157D01*
X119051012Y-85117799D01*
X119086439Y-85178262D01*
X119099733Y-85291648D01*
X119101947Y-85404111D01*
X119116468Y-85558891D01*
X119163598Y-85710557D01*
X119252410Y-85885768D01*
X119284173Y-85939676D01*
X119353887Y-86028985D01*
X119436487Y-86063506D01*
X119489237Y-86066676D01*
X119596274Y-86042182D01*
X119702638Y-85981000D01*
X119782354Y-85902147D01*
X119809846Y-85831932D01*
X119820232Y-85793799D01*
X119843320Y-85811165D01*
X119867001Y-85865417D01*
X119879169Y-85937942D01*
X119879187Y-85938530D01*
X119896626Y-86029158D01*
X119939222Y-86160964D01*
X119996031Y-86301385D01*
X120078574Y-86495494D01*
X120126759Y-86637567D01*
X120144258Y-86743848D01*
X120134741Y-86830578D01*
X120123492Y-86865288D01*
X120070343Y-86936983D01*
X119998268Y-86966545D01*
X119935156Y-86947053D01*
X119915712Y-86916846D01*
X119881547Y-86902796D01*
X119812703Y-86956780D01*
X119806359Y-86963310D01*
X119747445Y-87044537D01*
X119721405Y-87145766D01*
X119717774Y-87258634D01*
X119730375Y-87413224D01*
X119758638Y-87565280D01*
X119772275Y-87612708D01*
X119804081Y-87733794D01*
X119817581Y-87838791D01*
X119817191Y-87856044D01*
X119838010Y-87940393D01*
X119907276Y-87973011D01*
X120010783Y-87948886D01*
X120038894Y-87934240D01*
X120196193Y-87860529D01*
X120312221Y-87846673D01*
X120395600Y-87892369D01*
X120417714Y-87920913D01*
X120457885Y-88017898D01*
X120434317Y-88080117D01*
X120363549Y-88098923D01*
X120302437Y-88120936D01*
X120198783Y-88179480D01*
X120071897Y-88263313D01*
X120031481Y-88292229D01*
X119904168Y-88378662D01*
X119796663Y-88440040D01*
X119726899Y-88466519D01*
X119715124Y-88465887D01*
X119678066Y-88488234D01*
X119638294Y-88566187D01*
X119603227Y-88677854D01*
X119580283Y-88801345D01*
X119575384Y-88878227D01*
X119599191Y-88939312D01*
X119660736Y-88949979D01*
X119745204Y-88917657D01*
X119837780Y-88849776D01*
X119923648Y-88753763D01*
X119968072Y-88681316D01*
X120056042Y-88556655D01*
X120181121Y-88470347D01*
X120360690Y-88411640D01*
X120425833Y-88398170D01*
X120511257Y-88386454D01*
X120539213Y-88406847D01*
X120528581Y-88474753D01*
X120527098Y-88480795D01*
X120481607Y-88645660D01*
X120419246Y-88845040D01*
X120346728Y-89060103D01*
X120270767Y-89272014D01*
X120198075Y-89461942D01*
X120135365Y-89611053D01*
X120096400Y-89689144D01*
X119964481Y-89850709D01*
X119798792Y-89955529D01*
X119615622Y-89994868D01*
X119536307Y-89989594D01*
X119446921Y-89982459D01*
X119390870Y-90008034D01*
X119339955Y-90083174D01*
X119321384Y-90118058D01*
X119110504Y-90464216D01*
X118871407Y-90753787D01*
X118835854Y-90789344D01*
X118732432Y-90884144D01*
X118657159Y-90931867D01*
X118586441Y-90944003D01*
X118530519Y-90938056D01*
X118384324Y-90875776D01*
X118263943Y-90744167D01*
X118208750Y-90638718D01*
X118157011Y-90564020D01*
X118074169Y-90484372D01*
X117985076Y-90419879D01*
X117914582Y-90390648D01*
X117902828Y-90391195D01*
X117856567Y-90394678D01*
X117745584Y-90400381D01*
X117583257Y-90407696D01*
X117382966Y-90416011D01*
X117211230Y-90422715D01*
X116985493Y-90432294D01*
X116782319Y-90442782D01*
X116616625Y-90453265D01*
X116503332Y-90462827D01*
X116462472Y-90468654D01*
X116377821Y-90465559D01*
X116259620Y-90434098D01*
X116200369Y-90410760D01*
X116027383Y-90357833D01*
X115893023Y-90367223D01*
X115801855Y-90438019D01*
X115774005Y-90495829D01*
X115764800Y-90611423D01*
X115817622Y-90689753D01*
X115917782Y-90717077D01*
X116013092Y-90739247D01*
X116093178Y-90780944D01*
X116201828Y-90822032D01*
X116374905Y-90843091D01*
X116601138Y-90843537D01*
X116869257Y-90822785D01*
X116879077Y-90821689D01*
X117021292Y-90805903D01*
X117206547Y-90785683D01*
X117400158Y-90764808D01*
X117445692Y-90759941D01*
X117612897Y-90740328D01*
X117757901Y-90720112D01*
X117857553Y-90702641D01*
X117879597Y-90697152D01*
X117939897Y-90695443D01*
X118003459Y-90737774D01*
X118087586Y-90835891D01*
X118091525Y-90841013D01*
X118173317Y-90943801D01*
X118241951Y-91023396D01*
X118269041Y-91050584D01*
X118315095Y-91112244D01*
X118365494Y-91210555D01*
X118372191Y-91226430D01*
X118402385Y-91338157D01*
X118386784Y-91435745D01*
X118317915Y-91534204D01*
X118188308Y-91648543D01*
X118145809Y-91681165D01*
X118003244Y-91792250D01*
X117853060Y-91914684D01*
X117782113Y-91974916D01*
X117610535Y-92123846D01*
X117136765Y-92123846D01*
X116925454Y-92121992D01*
X116774212Y-92114863D01*
X116665011Y-92100112D01*
X116579821Y-92075393D01*
X116507267Y-92041888D01*
X116310609Y-91924512D01*
X116117480Y-91784610D01*
X115939617Y-91633418D01*
X115788757Y-91482171D01*
X115676637Y-91342104D01*
X115614993Y-91224451D01*
X115606792Y-91179915D01*
X115571283Y-91076807D01*
X116538300Y-91076807D01*
X116564171Y-91139068D01*
X116638722Y-91202500D01*
X116748158Y-91259173D01*
X116878678Y-91301159D01*
X117016488Y-91320526D01*
X117088559Y-91318837D01*
X117217310Y-91300404D01*
X117322619Y-91274086D01*
X117352329Y-91261837D01*
X117414420Y-91196273D01*
X117418321Y-91117794D01*
X117365190Y-91056698D01*
X117344140Y-91048006D01*
X117254286Y-91037283D01*
X117130989Y-91042505D01*
X117093605Y-91047247D01*
X116973479Y-91055166D01*
X116905500Y-91037947D01*
X116899774Y-91031567D01*
X116844467Y-91003008D01*
X116747734Y-90992229D01*
X116644445Y-91000079D01*
X116574907Y-91023646D01*
X116538300Y-91076807D01*
X115571283Y-91076807D01*
X115568524Y-91068796D01*
X115470008Y-90967625D01*
X115342831Y-90899851D01*
X115295458Y-90862077D01*
X115296461Y-90834308D01*
X115288069Y-90789498D01*
X115259169Y-90770970D01*
X115211024Y-90721669D01*
X115207846Y-90689261D01*
X115179341Y-90636136D01*
X115081486Y-90579769D01*
X115049233Y-90566707D01*
X114905008Y-90495775D01*
X114760472Y-90398062D01*
X114628318Y-90286023D01*
X114521242Y-90172114D01*
X114451937Y-90068790D01*
X114433100Y-89988505D01*
X114440161Y-89969127D01*
X114434973Y-89937104D01*
X114425177Y-89935539D01*
X114405269Y-89899710D01*
X114385442Y-89805038D01*
X114370777Y-89681275D01*
X116270555Y-89681275D01*
X116280409Y-89764476D01*
X116364715Y-89827469D01*
X116410629Y-89845410D01*
X116633487Y-89890718D01*
X116840044Y-89873365D01*
X116905840Y-89851859D01*
X117001378Y-89825565D01*
X117143117Y-89800600D01*
X117289384Y-89783475D01*
X117435324Y-89767820D01*
X117520071Y-89748479D01*
X117560550Y-89719365D01*
X117572902Y-89681539D01*
X117552944Y-89611384D01*
X117466890Y-89546622D01*
X117444296Y-89535000D01*
X117297298Y-89480238D01*
X117158381Y-89475764D01*
X116994865Y-89519479D01*
X116879473Y-89548604D01*
X116782627Y-89535546D01*
X116740865Y-89519526D01*
X116570146Y-89471131D01*
X116435533Y-89489253D01*
X116333349Y-89571467D01*
X116270555Y-89681275D01*
X114370777Y-89681275D01*
X114369528Y-89670743D01*
X114367613Y-89647014D01*
X114341856Y-89446639D01*
X114300336Y-89286174D01*
X114247517Y-89176572D01*
X114187864Y-89128786D01*
X114157393Y-89131294D01*
X114065565Y-89152248D01*
X114037783Y-89154000D01*
X114007707Y-89165074D01*
X113992409Y-89208306D01*
X113989958Y-89298711D01*
X113998421Y-89451305D01*
X113998812Y-89456846D01*
X114012807Y-89616665D01*
X114029797Y-89757193D01*
X114046368Y-89850703D01*
X114048149Y-89857385D01*
X114056551Y-89903482D01*
X114037865Y-89907017D01*
X113982569Y-89863292D01*
X113896822Y-89782720D01*
X113779504Y-89654745D01*
X113710491Y-89534065D01*
X113676429Y-89418258D01*
X113642531Y-89286782D01*
X113604213Y-89175367D01*
X113588329Y-89141230D01*
X113547508Y-89053433D01*
X113498398Y-88929404D01*
X113477335Y-88870692D01*
X113442585Y-88756931D01*
X113439096Y-88699885D01*
X113463544Y-88685077D01*
X113527522Y-88711562D01*
X113538000Y-88724154D01*
X113589394Y-88755036D01*
X113666053Y-88761820D01*
X113732018Y-88745676D01*
X113752923Y-88717159D01*
X113734957Y-88614089D01*
X113724745Y-88590227D01*
X113980543Y-88590227D01*
X113980851Y-88665820D01*
X113991544Y-88692850D01*
X114048269Y-88748759D01*
X114103839Y-88734680D01*
X114134147Y-88662478D01*
X114122838Y-88568409D01*
X114104096Y-88528769D01*
X114071350Y-88509231D01*
X114143692Y-88509231D01*
X114163230Y-88528769D01*
X114182769Y-88509231D01*
X114163230Y-88489692D01*
X114143692Y-88509231D01*
X114071350Y-88509231D01*
X114056711Y-88500497D01*
X114010678Y-88528051D01*
X113980543Y-88590227D01*
X113724745Y-88590227D01*
X113690744Y-88510785D01*
X113634809Y-88434597D01*
X113590604Y-88411539D01*
X113512370Y-88396735D01*
X113405380Y-88361789D01*
X113311081Y-88320893D01*
X113289874Y-88308552D01*
X113291967Y-88269720D01*
X113298169Y-88246173D01*
X114612795Y-88246173D01*
X114627890Y-88313213D01*
X114683224Y-88352554D01*
X114789599Y-88378099D01*
X114930399Y-88392416D01*
X115075382Y-88394633D01*
X115194307Y-88383877D01*
X115244768Y-88368757D01*
X115317567Y-88349446D01*
X115389459Y-88387386D01*
X115407610Y-88403217D01*
X115531726Y-88494523D01*
X115640832Y-88520335D01*
X115754668Y-88485164D01*
X115758184Y-88483309D01*
X115877616Y-88390316D01*
X115923009Y-88276249D01*
X115917879Y-88206385D01*
X115915228Y-88122417D01*
X115952755Y-88103273D01*
X116027360Y-88148699D01*
X116102548Y-88221517D01*
X116173812Y-88292776D01*
X116218953Y-88328429D01*
X116225688Y-88328979D01*
X116291319Y-88206236D01*
X116323376Y-88121212D01*
X116325904Y-88099400D01*
X117585760Y-88099400D01*
X117611555Y-88129053D01*
X117688392Y-88121622D01*
X117711039Y-88117420D01*
X117802160Y-88106469D01*
X117845333Y-88131589D01*
X117868390Y-88209742D01*
X117869209Y-88213815D01*
X117926529Y-88324853D01*
X118034406Y-88391672D01*
X118175504Y-88408763D01*
X118332484Y-88370614D01*
X118345078Y-88365071D01*
X118439335Y-88281865D01*
X118470193Y-88202955D01*
X118489630Y-88127212D01*
X118512649Y-88119494D01*
X118543895Y-88156468D01*
X118615007Y-88205947D01*
X118694156Y-88200609D01*
X118768277Y-88169238D01*
X118793846Y-88137256D01*
X118826703Y-88106482D01*
X118874865Y-88098923D01*
X118939785Y-88080990D01*
X118942956Y-88033599D01*
X118890314Y-87966363D01*
X118787799Y-87888894D01*
X118721183Y-87850125D01*
X118581640Y-87785338D01*
X118440020Y-87745965D01*
X118263686Y-87723895D01*
X118194022Y-87719128D01*
X118030126Y-87711759D01*
X117920247Y-87715914D01*
X117840623Y-87735467D01*
X117767493Y-87774290D01*
X117738769Y-87793328D01*
X117637034Y-87883691D01*
X117593343Y-87986598D01*
X117589585Y-88014514D01*
X117585760Y-88099400D01*
X116325904Y-88099400D01*
X116331997Y-88046843D01*
X116332000Y-88045167D01*
X116299777Y-87916006D01*
X116201392Y-87821859D01*
X116034272Y-87760620D01*
X115968546Y-87748060D01*
X115806812Y-87733615D01*
X115671906Y-87742916D01*
X115580856Y-87773148D01*
X115550461Y-87817191D01*
X115516239Y-87844748D01*
X115426121Y-87886584D01*
X115298932Y-87934064D01*
X115286692Y-87938191D01*
X115144730Y-87987508D01*
X115025684Y-88032177D01*
X114955233Y-88062560D01*
X114955068Y-88062648D01*
X114870232Y-88093758D01*
X114832535Y-88098923D01*
X114725601Y-88121220D01*
X114648860Y-88176239D01*
X114612795Y-88246173D01*
X113298169Y-88246173D01*
X113314330Y-88184827D01*
X113322212Y-88160157D01*
X113359657Y-88069522D01*
X113410761Y-88030049D01*
X113505644Y-88020835D01*
X113523048Y-88020769D01*
X113660916Y-88039729D01*
X113804882Y-88086580D01*
X113831487Y-88099133D01*
X113927547Y-88142372D01*
X113966034Y-88143144D01*
X113964359Y-88123465D01*
X113969785Y-88057367D01*
X114009469Y-87962363D01*
X114022095Y-87940401D01*
X114067927Y-87850301D01*
X114083505Y-87788125D01*
X114081302Y-87780201D01*
X114078065Y-87725486D01*
X114094163Y-87628836D01*
X114100885Y-87601594D01*
X114122051Y-87488907D01*
X114141264Y-87330844D01*
X114154600Y-87160155D01*
X114155265Y-87147543D01*
X114167226Y-86999658D01*
X114184946Y-86883631D01*
X114194212Y-86854390D01*
X119356797Y-86854390D01*
X119362079Y-86909097D01*
X119401037Y-86952082D01*
X119483912Y-86998696D01*
X119525732Y-86992342D01*
X119520950Y-86942958D01*
X119499864Y-86868510D01*
X119497230Y-86845266D01*
X119469217Y-86813205D01*
X119410469Y-86815991D01*
X119358923Y-86851159D01*
X119356797Y-86854390D01*
X114194212Y-86854390D01*
X114205028Y-86820262D01*
X114209520Y-86815390D01*
X114251170Y-86759830D01*
X114272309Y-86682509D01*
X114266110Y-86619241D01*
X114249856Y-86603798D01*
X114229221Y-86565815D01*
X114243453Y-86533540D01*
X114262725Y-86465724D01*
X114275918Y-86348538D01*
X114279679Y-86242840D01*
X114280461Y-86008450D01*
X114400078Y-86008379D01*
X114495947Y-85989184D01*
X114589947Y-85922387D01*
X114654078Y-85854785D01*
X114801099Y-85726370D01*
X115021504Y-85594227D01*
X115140154Y-85535494D01*
X115384490Y-85413792D01*
X115568780Y-85305175D01*
X115707614Y-85199548D01*
X115815583Y-85086814D01*
X115846761Y-85046554D01*
X115917958Y-84939563D01*
X115932516Y-84880257D01*
X115887896Y-84859917D01*
X115794692Y-84867775D01*
X115666834Y-84870822D01*
X115514565Y-84852658D01*
X115452769Y-84839064D01*
X115269386Y-84812475D01*
X115123723Y-84843718D01*
X115010362Y-84923467D01*
X114932903Y-84961776D01*
X114858445Y-84972769D01*
X114779612Y-84996138D01*
X114670940Y-85056222D01*
X114552593Y-85137984D01*
X114444735Y-85226389D01*
X114367530Y-85306403D01*
X114340925Y-85358654D01*
X114314073Y-85394299D01*
X114229810Y-85390515D01*
X114225254Y-85389620D01*
X114110729Y-85391939D01*
X114063563Y-85424534D01*
X113996273Y-85480360D01*
X113897129Y-85538395D01*
X113888409Y-85542613D01*
X113777332Y-85630976D01*
X113673763Y-85778561D01*
X113590303Y-85966601D01*
X113577844Y-86005073D01*
X113548077Y-86057421D01*
X113516716Y-86041811D01*
X113488592Y-85968176D01*
X113468535Y-85846448D01*
X113462956Y-85768809D01*
X113469661Y-85586585D01*
X113500332Y-85382850D01*
X113548916Y-85182645D01*
X113609359Y-85011006D01*
X113674292Y-84894616D01*
X113735598Y-84804729D01*
X113810347Y-84677824D01*
X113858443Y-84587776D01*
X113939788Y-84452136D01*
X114033506Y-84330018D01*
X114088171Y-84275161D01*
X114108470Y-84255371D01*
X115512828Y-84255371D01*
X115526391Y-84330283D01*
X115577673Y-84378894D01*
X115648367Y-84379734D01*
X115686120Y-84349336D01*
X115699186Y-84277186D01*
X115677591Y-84194485D01*
X115634211Y-84133466D01*
X115595029Y-84121340D01*
X115535366Y-84167246D01*
X115512828Y-84255371D01*
X114108470Y-84255371D01*
X114205952Y-84160338D01*
X114356930Y-83987483D01*
X114533770Y-83765388D01*
X114655266Y-83602675D01*
X116978253Y-83602675D01*
X116988055Y-83645306D01*
X117040097Y-83686064D01*
X117101063Y-83703103D01*
X117122473Y-83697247D01*
X117150085Y-83646394D01*
X117152615Y-83622309D01*
X117121997Y-83579778D01*
X117055807Y-83566524D01*
X116992538Y-83586880D01*
X116978253Y-83602675D01*
X114655266Y-83602675D01*
X114706847Y-83533596D01*
X114832339Y-83383177D01*
X114909472Y-83326168D01*
X116651040Y-83326168D01*
X116668648Y-83352601D01*
X116745195Y-83348446D01*
X116748252Y-83347736D01*
X116841589Y-83317719D01*
X116896010Y-83288068D01*
X116918651Y-83244728D01*
X116880955Y-83225087D01*
X116798732Y-83235238D01*
X116776500Y-83241987D01*
X116688336Y-83284260D01*
X116651040Y-83326168D01*
X114909472Y-83326168D01*
X114951691Y-83294964D01*
X115083801Y-83257129D01*
X115154585Y-83253385D01*
X115234852Y-83235221D01*
X115344073Y-83189115D01*
X115425308Y-83145923D01*
X117435727Y-83145923D01*
X117482813Y-83188429D01*
X117546445Y-83207847D01*
X117635098Y-83231860D01*
X117678200Y-83256694D01*
X117760450Y-83290084D01*
X117852929Y-83256110D01*
X117872053Y-83226290D01*
X117829445Y-83190933D01*
X117760234Y-83159016D01*
X117629283Y-83115295D01*
X117520255Y-83098415D01*
X117450268Y-83109067D01*
X117435727Y-83145923D01*
X115425308Y-83145923D01*
X115459686Y-83127645D01*
X115559127Y-83063388D01*
X115619836Y-83008922D01*
X115628615Y-82989132D01*
X115664595Y-82940020D01*
X115762034Y-82885673D01*
X115905177Y-82832956D01*
X116078270Y-82788730D01*
X116097538Y-82784859D01*
X116451878Y-82734546D01*
X116800798Y-82720495D01*
X117130817Y-82741107D01*
G37*
X117130817Y-82741107D02*
X117428457Y-82794786D01*
X117680236Y-82879932D01*
X117872675Y-82994948D01*
X117873172Y-82995355D01*
X118006265Y-83089871D01*
X118151698Y-83172207D01*
X118211976Y-83199077D01*
X118322674Y-83244243D01*
X118403761Y-83281174D01*
X118422615Y-83291608D01*
X118488673Y-83320003D01*
X118605355Y-83357527D01*
X118746946Y-83396547D01*
X118885217Y-83428909D01*
X118958615Y-83452568D01*
X118965258Y-83486243D01*
X118951705Y-83505516D01*
X118929995Y-83563532D01*
X118946177Y-83583081D01*
X118988873Y-83627269D01*
X119055715Y-83714139D01*
X119100806Y-83778605D01*
X119216541Y-83950092D01*
X119118286Y-83974752D01*
X119045130Y-83980862D01*
X118966643Y-83956899D01*
X118871055Y-83895457D01*
X118746595Y-83789129D01*
X118599595Y-83648372D01*
X118481902Y-83535878D01*
X118397710Y-83468949D01*
X118326795Y-83436390D01*
X118248934Y-83427007D01*
X118200647Y-83427520D01*
X118086151Y-83436376D01*
X118003463Y-83452514D01*
X117988342Y-83458968D01*
X117928013Y-83476467D01*
X117817430Y-83493792D01*
X117722332Y-83503543D01*
X117545659Y-83529950D01*
X117437638Y-83577206D01*
X117390578Y-83649431D01*
X117387077Y-83683231D01*
X117353014Y-83774421D01*
X117248644Y-83839562D01*
X117181271Y-83860280D01*
X117083970Y-83910864D01*
X116996086Y-83996254D01*
X116992794Y-84000781D01*
X116901960Y-84098551D01*
X116798571Y-84172909D01*
X116722207Y-84209756D01*
X116700381Y-84202853D01*
X116718270Y-84144467D01*
X116722531Y-84133242D01*
X116741445Y-84062178D01*
X116709542Y-84037447D01*
X116654813Y-84034923D01*
X116583109Y-84030794D01*
X116580394Y-84007121D01*
X116617962Y-83966539D01*
X116704425Y-83904816D01*
X116809591Y-83856385D01*
X116899411Y-83813241D01*
X116949208Y-83765490D01*
X116950246Y-83762800D01*
X116941541Y-83736740D01*
X116887535Y-83727681D01*
X116780741Y-83736251D01*
X116613673Y-83763077D01*
X116378843Y-83808786D01*
X116363394Y-83811946D01*
X116163694Y-83862612D01*
X116039157Y-83919281D01*
X115986831Y-83985472D01*
X116003763Y-84064700D01*
X116077941Y-84152099D01*
X116140646Y-84217709D01*
X116149677Y-84262253D01*
X116110957Y-84315224D01*
X116110745Y-84315458D01*
X116069607Y-84377505D01*
X116068604Y-84409784D01*
X116102747Y-84397281D01*
X116154479Y-84335981D01*
X116157525Y-84331391D01*
X116228051Y-84253717D01*
X116289888Y-84234298D01*
X116327312Y-84274741D01*
X116332000Y-84313575D01*
X116341627Y-84367794D01*
X116385319Y-84383934D01*
X116468769Y-84374647D01*
X116561243Y-84366189D01*
X116599617Y-84386930D01*
X116605538Y-84423968D01*
X116638863Y-84495315D01*
X116725968Y-84535626D01*
X116847546Y-84541549D01*
X116984291Y-84509732D01*
X117018288Y-84495623D01*
X117099451Y-84468743D01*
X117149629Y-84489455D01*
X117170962Y-84515147D01*
X117260645Y-84578352D01*
X117380725Y-84579100D01*
X117515249Y-84517858D01*
X117534120Y-84504517D01*
X117659975Y-84411468D01*
X117755095Y-84500828D01*
X117842004Y-84557910D01*
X117906528Y-84554846D01*
X117933996Y-84492880D01*
X117934154Y-84485660D01*
X117963763Y-84449035D01*
X118002944Y-84450998D01*
X118063460Y-84439032D01*
X118112664Y-84360015D01*
X118118252Y-84345750D01*
X118169460Y-84258331D01*
X118220860Y-84245170D01*
X118261304Y-84303198D01*
X118277582Y-84389625D01*
X118293365Y-84525432D01*
X118315777Y-84592643D01*
X118351234Y-84600815D01*
X118397199Y-84567781D01*
X118492845Y-84510584D01*
X118576809Y-84527383D01*
X118654847Y-84620014D01*
X118674672Y-84656345D01*
X118752471Y-84808843D01*
X118670438Y-84913132D01*
X118619786Y-85003347D01*
X118636775Y-85062339D01*
X118723539Y-85092076D01*
X118868004Y-85095234D01*
X118982013Y-85095157D01*
X119051012Y-85117799D01*
X119086439Y-85178262D01*
X119099733Y-85291648D01*
X119101947Y-85404111D01*
X119116468Y-85558891D01*
X119163598Y-85710557D01*
X119252410Y-85885768D01*
X119284173Y-85939676D01*
X119353887Y-86028985D01*
X119436487Y-86063506D01*
X119489237Y-86066676D01*
X119596274Y-86042182D01*
X119702638Y-85981000D01*
X119782354Y-85902147D01*
X119809846Y-85831932D01*
X119820232Y-85793799D01*
X119843320Y-85811165D01*
X119867001Y-85865417D01*
X119879169Y-85937942D01*
X119879187Y-85938530D01*
X119896626Y-86029158D01*
X119939222Y-86160964D01*
X119996031Y-86301385D01*
X120078574Y-86495494D01*
X120126759Y-86637567D01*
X120144258Y-86743848D01*
X120134741Y-86830578D01*
X120123492Y-86865288D01*
X120070343Y-86936983D01*
X119998268Y-86966545D01*
X119935156Y-86947053D01*
X119915712Y-86916846D01*
X119881547Y-86902796D01*
X119812703Y-86956780D01*
X119806359Y-86963310D01*
X119747445Y-87044537D01*
X119721405Y-87145766D01*
X119717774Y-87258634D01*
X119730375Y-87413224D01*
X119758638Y-87565280D01*
X119772275Y-87612708D01*
X119804081Y-87733794D01*
X119817581Y-87838791D01*
X119817191Y-87856044D01*
X119838010Y-87940393D01*
X119907276Y-87973011D01*
X120010783Y-87948886D01*
X120038894Y-87934240D01*
X120196193Y-87860529D01*
X120312221Y-87846673D01*
X120395600Y-87892369D01*
X120417714Y-87920913D01*
X120457885Y-88017898D01*
X120434317Y-88080117D01*
X120363549Y-88098923D01*
X120302437Y-88120936D01*
X120198783Y-88179480D01*
X120071897Y-88263313D01*
X120031481Y-88292229D01*
X119904168Y-88378662D01*
X119796663Y-88440040D01*
X119726899Y-88466519D01*
X119715124Y-88465887D01*
X119678066Y-88488234D01*
X119638294Y-88566187D01*
X119603227Y-88677854D01*
X119580283Y-88801345D01*
X119575384Y-88878227D01*
X119599191Y-88939312D01*
X119660736Y-88949979D01*
X119745204Y-88917657D01*
X119837780Y-88849776D01*
X119923648Y-88753763D01*
X119968072Y-88681316D01*
X120056042Y-88556655D01*
X120181121Y-88470347D01*
X120360690Y-88411640D01*
X120425833Y-88398170D01*
X120511257Y-88386454D01*
X120539213Y-88406847D01*
X120528581Y-88474753D01*
X120527098Y-88480795D01*
X120481607Y-88645660D01*
X120419246Y-88845040D01*
X120346728Y-89060103D01*
X120270767Y-89272014D01*
X120198075Y-89461942D01*
X120135365Y-89611053D01*
X120096400Y-89689144D01*
X119964481Y-89850709D01*
X119798792Y-89955529D01*
X119615622Y-89994868D01*
X119536307Y-89989594D01*
X119446921Y-89982459D01*
X119390870Y-90008034D01*
X119339955Y-90083174D01*
X119321384Y-90118058D01*
X119110504Y-90464216D01*
X118871407Y-90753787D01*
X118835854Y-90789344D01*
X118732432Y-90884144D01*
X118657159Y-90931867D01*
X118586441Y-90944003D01*
X118530519Y-90938056D01*
X118384324Y-90875776D01*
X118263943Y-90744167D01*
X118208750Y-90638718D01*
X118157011Y-90564020D01*
X118074169Y-90484372D01*
X117985076Y-90419879D01*
X117914582Y-90390648D01*
X117902828Y-90391195D01*
X117856567Y-90394678D01*
X117745584Y-90400381D01*
X117583257Y-90407696D01*
X117382966Y-90416011D01*
X117211230Y-90422715D01*
X116985493Y-90432294D01*
X116782319Y-90442782D01*
X116616625Y-90453265D01*
X116503332Y-90462827D01*
X116462472Y-90468654D01*
X116377821Y-90465559D01*
X116259620Y-90434098D01*
X116200369Y-90410760D01*
X116027383Y-90357833D01*
X115893023Y-90367223D01*
X115801855Y-90438019D01*
X115774005Y-90495829D01*
X115764800Y-90611423D01*
X115817622Y-90689753D01*
X115917782Y-90717077D01*
X116013092Y-90739247D01*
X116093178Y-90780944D01*
X116201828Y-90822032D01*
X116374905Y-90843091D01*
X116601138Y-90843537D01*
X116869257Y-90822785D01*
X116879077Y-90821689D01*
X117021292Y-90805903D01*
X117206547Y-90785683D01*
X117400158Y-90764808D01*
X117445692Y-90759941D01*
X117612897Y-90740328D01*
X117757901Y-90720112D01*
X117857553Y-90702641D01*
X117879597Y-90697152D01*
X117939897Y-90695443D01*
X118003459Y-90737774D01*
X118087586Y-90835891D01*
X118091525Y-90841013D01*
X118173317Y-90943801D01*
X118241951Y-91023396D01*
X118269041Y-91050584D01*
X118315095Y-91112244D01*
X118365494Y-91210555D01*
X118372191Y-91226430D01*
X118402385Y-91338157D01*
X118386784Y-91435745D01*
X118317915Y-91534204D01*
X118188308Y-91648543D01*
X118145809Y-91681165D01*
X118003244Y-91792250D01*
X117853060Y-91914684D01*
X117782113Y-91974916D01*
X117610535Y-92123846D01*
X117136765Y-92123846D01*
X116925454Y-92121992D01*
X116774212Y-92114863D01*
X116665011Y-92100112D01*
X116579821Y-92075393D01*
X116507267Y-92041888D01*
X116310609Y-91924512D01*
X116117480Y-91784610D01*
X115939617Y-91633418D01*
X115788757Y-91482171D01*
X115676637Y-91342104D01*
X115614993Y-91224451D01*
X115606792Y-91179915D01*
X115571283Y-91076807D01*
X116538300Y-91076807D01*
X116564171Y-91139068D01*
X116638722Y-91202500D01*
X116748158Y-91259173D01*
X116878678Y-91301159D01*
X117016488Y-91320526D01*
X117088559Y-91318837D01*
X117217310Y-91300404D01*
X117322619Y-91274086D01*
X117352329Y-91261837D01*
X117414420Y-91196273D01*
X117418321Y-91117794D01*
X117365190Y-91056698D01*
X117344140Y-91048006D01*
X117254286Y-91037283D01*
X117130989Y-91042505D01*
X117093605Y-91047247D01*
X116973479Y-91055166D01*
X116905500Y-91037947D01*
X116899774Y-91031567D01*
X116844467Y-91003008D01*
X116747734Y-90992229D01*
X116644445Y-91000079D01*
X116574907Y-91023646D01*
X116538300Y-91076807D01*
X115571283Y-91076807D01*
X115568524Y-91068796D01*
X115470008Y-90967625D01*
X115342831Y-90899851D01*
X115295458Y-90862077D01*
X115296461Y-90834308D01*
X115288069Y-90789498D01*
X115259169Y-90770970D01*
X115211024Y-90721669D01*
X115207846Y-90689261D01*
X115179341Y-90636136D01*
X115081486Y-90579769D01*
X115049233Y-90566707D01*
X114905008Y-90495775D01*
X114760472Y-90398062D01*
X114628318Y-90286023D01*
X114521242Y-90172114D01*
X114451937Y-90068790D01*
X114433100Y-89988505D01*
X114440161Y-89969127D01*
X114434973Y-89937104D01*
X114425177Y-89935539D01*
X114405269Y-89899710D01*
X114385442Y-89805038D01*
X114370777Y-89681275D01*
X116270555Y-89681275D01*
X116280409Y-89764476D01*
X116364715Y-89827469D01*
X116410629Y-89845410D01*
X116633487Y-89890718D01*
X116840044Y-89873365D01*
X116905840Y-89851859D01*
X117001378Y-89825565D01*
X117143117Y-89800600D01*
X117289384Y-89783475D01*
X117435324Y-89767820D01*
X117520071Y-89748479D01*
X117560550Y-89719365D01*
X117572902Y-89681539D01*
X117552944Y-89611384D01*
X117466890Y-89546622D01*
X117444296Y-89535000D01*
X117297298Y-89480238D01*
X117158381Y-89475764D01*
X116994865Y-89519479D01*
X116879473Y-89548604D01*
X116782627Y-89535546D01*
X116740865Y-89519526D01*
X116570146Y-89471131D01*
X116435533Y-89489253D01*
X116333349Y-89571467D01*
X116270555Y-89681275D01*
X114370777Y-89681275D01*
X114369528Y-89670743D01*
X114367613Y-89647014D01*
X114341856Y-89446639D01*
X114300336Y-89286174D01*
X114247517Y-89176572D01*
X114187864Y-89128786D01*
X114157393Y-89131294D01*
X114065565Y-89152248D01*
X114037783Y-89154000D01*
X114007707Y-89165074D01*
X113992409Y-89208306D01*
X113989958Y-89298711D01*
X113998421Y-89451305D01*
X113998812Y-89456846D01*
X114012807Y-89616665D01*
X114029797Y-89757193D01*
X114046368Y-89850703D01*
X114048149Y-89857385D01*
X114056551Y-89903482D01*
X114037865Y-89907017D01*
X113982569Y-89863292D01*
X113896822Y-89782720D01*
X113779504Y-89654745D01*
X113710491Y-89534065D01*
X113676429Y-89418258D01*
X113642531Y-89286782D01*
X113604213Y-89175367D01*
X113588329Y-89141230D01*
X113547508Y-89053433D01*
X113498398Y-88929404D01*
X113477335Y-88870692D01*
X113442585Y-88756931D01*
X113439096Y-88699885D01*
X113463544Y-88685077D01*
X113527522Y-88711562D01*
X113538000Y-88724154D01*
X113589394Y-88755036D01*
X113666053Y-88761820D01*
X113732018Y-88745676D01*
X113752923Y-88717159D01*
X113734957Y-88614089D01*
X113724745Y-88590227D01*
X113980543Y-88590227D01*
X113980851Y-88665820D01*
X113991544Y-88692850D01*
X114048269Y-88748759D01*
X114103839Y-88734680D01*
X114134147Y-88662478D01*
X114122838Y-88568409D01*
X114104096Y-88528769D01*
X114071350Y-88509231D01*
X114143692Y-88509231D01*
X114163230Y-88528769D01*
X114182769Y-88509231D01*
X114163230Y-88489692D01*
X114143692Y-88509231D01*
X114071350Y-88509231D01*
X114056711Y-88500497D01*
X114010678Y-88528051D01*
X113980543Y-88590227D01*
X113724745Y-88590227D01*
X113690744Y-88510785D01*
X113634809Y-88434597D01*
X113590604Y-88411539D01*
X113512370Y-88396735D01*
X113405380Y-88361789D01*
X113311081Y-88320893D01*
X113289874Y-88308552D01*
X113291967Y-88269720D01*
X113298169Y-88246173D01*
X114612795Y-88246173D01*
X114627890Y-88313213D01*
X114683224Y-88352554D01*
X114789599Y-88378099D01*
X114930399Y-88392416D01*
X115075382Y-88394633D01*
X115194307Y-88383877D01*
X115244768Y-88368757D01*
X115317567Y-88349446D01*
X115389459Y-88387386D01*
X115407610Y-88403217D01*
X115531726Y-88494523D01*
X115640832Y-88520335D01*
X115754668Y-88485164D01*
X115758184Y-88483309D01*
X115877616Y-88390316D01*
X115923009Y-88276249D01*
X115917879Y-88206385D01*
X115915228Y-88122417D01*
X115952755Y-88103273D01*
X116027360Y-88148699D01*
X116102548Y-88221517D01*
X116173812Y-88292776D01*
X116218953Y-88328429D01*
X116225688Y-88328979D01*
X116291319Y-88206236D01*
X116323376Y-88121212D01*
X116325904Y-88099400D01*
X117585760Y-88099400D01*
X117611555Y-88129053D01*
X117688392Y-88121622D01*
X117711039Y-88117420D01*
X117802160Y-88106469D01*
X117845333Y-88131589D01*
X117868390Y-88209742D01*
X117869209Y-88213815D01*
X117926529Y-88324853D01*
X118034406Y-88391672D01*
X118175504Y-88408763D01*
X118332484Y-88370614D01*
X118345078Y-88365071D01*
X118439335Y-88281865D01*
X118470193Y-88202955D01*
X118489630Y-88127212D01*
X118512649Y-88119494D01*
X118543895Y-88156468D01*
X118615007Y-88205947D01*
X118694156Y-88200609D01*
X118768277Y-88169238D01*
X118793846Y-88137256D01*
X118826703Y-88106482D01*
X118874865Y-88098923D01*
X118939785Y-88080990D01*
X118942956Y-88033599D01*
X118890314Y-87966363D01*
X118787799Y-87888894D01*
X118721183Y-87850125D01*
X118581640Y-87785338D01*
X118440020Y-87745965D01*
X118263686Y-87723895D01*
X118194022Y-87719128D01*
X118030126Y-87711759D01*
X117920247Y-87715914D01*
X117840623Y-87735467D01*
X117767493Y-87774290D01*
X117738769Y-87793328D01*
X117637034Y-87883691D01*
X117593343Y-87986598D01*
X117589585Y-88014514D01*
X117585760Y-88099400D01*
X116325904Y-88099400D01*
X116331997Y-88046843D01*
X116332000Y-88045167D01*
X116299777Y-87916006D01*
X116201392Y-87821859D01*
X116034272Y-87760620D01*
X115968546Y-87748060D01*
X115806812Y-87733615D01*
X115671906Y-87742916D01*
X115580856Y-87773148D01*
X115550461Y-87817191D01*
X115516239Y-87844748D01*
X115426121Y-87886584D01*
X115298932Y-87934064D01*
X115286692Y-87938191D01*
X115144730Y-87987508D01*
X115025684Y-88032177D01*
X114955233Y-88062560D01*
X114955068Y-88062648D01*
X114870232Y-88093758D01*
X114832535Y-88098923D01*
X114725601Y-88121220D01*
X114648860Y-88176239D01*
X114612795Y-88246173D01*
X113298169Y-88246173D01*
X113314330Y-88184827D01*
X113322212Y-88160157D01*
X113359657Y-88069522D01*
X113410761Y-88030049D01*
X113505644Y-88020835D01*
X113523048Y-88020769D01*
X113660916Y-88039729D01*
X113804882Y-88086580D01*
X113831487Y-88099133D01*
X113927547Y-88142372D01*
X113966034Y-88143144D01*
X113964359Y-88123465D01*
X113969785Y-88057367D01*
X114009469Y-87962363D01*
X114022095Y-87940401D01*
X114067927Y-87850301D01*
X114083505Y-87788125D01*
X114081302Y-87780201D01*
X114078065Y-87725486D01*
X114094163Y-87628836D01*
X114100885Y-87601594D01*
X114122051Y-87488907D01*
X114141264Y-87330844D01*
X114154600Y-87160155D01*
X114155265Y-87147543D01*
X114167226Y-86999658D01*
X114184946Y-86883631D01*
X114194212Y-86854390D01*
X119356797Y-86854390D01*
X119362079Y-86909097D01*
X119401037Y-86952082D01*
X119483912Y-86998696D01*
X119525732Y-86992342D01*
X119520950Y-86942958D01*
X119499864Y-86868510D01*
X119497230Y-86845266D01*
X119469217Y-86813205D01*
X119410469Y-86815991D01*
X119358923Y-86851159D01*
X119356797Y-86854390D01*
X114194212Y-86854390D01*
X114205028Y-86820262D01*
X114209520Y-86815390D01*
X114251170Y-86759830D01*
X114272309Y-86682509D01*
X114266110Y-86619241D01*
X114249856Y-86603798D01*
X114229221Y-86565815D01*
X114243453Y-86533540D01*
X114262725Y-86465724D01*
X114275918Y-86348538D01*
X114279679Y-86242840D01*
X114280461Y-86008450D01*
X114400078Y-86008379D01*
X114495947Y-85989184D01*
X114589947Y-85922387D01*
X114654078Y-85854785D01*
X114801099Y-85726370D01*
X115021504Y-85594227D01*
X115140154Y-85535494D01*
X115384490Y-85413792D01*
X115568780Y-85305175D01*
X115707614Y-85199548D01*
X115815583Y-85086814D01*
X115846761Y-85046554D01*
X115917958Y-84939563D01*
X115932516Y-84880257D01*
X115887896Y-84859917D01*
X115794692Y-84867775D01*
X115666834Y-84870822D01*
X115514565Y-84852658D01*
X115452769Y-84839064D01*
X115269386Y-84812475D01*
X115123723Y-84843718D01*
X115010362Y-84923467D01*
X114932903Y-84961776D01*
X114858445Y-84972769D01*
X114779612Y-84996138D01*
X114670940Y-85056222D01*
X114552593Y-85137984D01*
X114444735Y-85226389D01*
X114367530Y-85306403D01*
X114340925Y-85358654D01*
X114314073Y-85394299D01*
X114229810Y-85390515D01*
X114225254Y-85389620D01*
X114110729Y-85391939D01*
X114063563Y-85424534D01*
X113996273Y-85480360D01*
X113897129Y-85538395D01*
X113888409Y-85542613D01*
X113777332Y-85630976D01*
X113673763Y-85778561D01*
X113590303Y-85966601D01*
X113577844Y-86005073D01*
X113548077Y-86057421D01*
X113516716Y-86041811D01*
X113488592Y-85968176D01*
X113468535Y-85846448D01*
X113462956Y-85768809D01*
X113469661Y-85586585D01*
X113500332Y-85382850D01*
X113548916Y-85182645D01*
X113609359Y-85011006D01*
X113674292Y-84894616D01*
X113735598Y-84804729D01*
X113810347Y-84677824D01*
X113858443Y-84587776D01*
X113939788Y-84452136D01*
X114033506Y-84330018D01*
X114088171Y-84275161D01*
X114108470Y-84255371D01*
X115512828Y-84255371D01*
X115526391Y-84330283D01*
X115577673Y-84378894D01*
X115648367Y-84379734D01*
X115686120Y-84349336D01*
X115699186Y-84277186D01*
X115677591Y-84194485D01*
X115634211Y-84133466D01*
X115595029Y-84121340D01*
X115535366Y-84167246D01*
X115512828Y-84255371D01*
X114108470Y-84255371D01*
X114205952Y-84160338D01*
X114356930Y-83987483D01*
X114533770Y-83765388D01*
X114655266Y-83602675D01*
X116978253Y-83602675D01*
X116988055Y-83645306D01*
X117040097Y-83686064D01*
X117101063Y-83703103D01*
X117122473Y-83697247D01*
X117150085Y-83646394D01*
X117152615Y-83622309D01*
X117121997Y-83579778D01*
X117055807Y-83566524D01*
X116992538Y-83586880D01*
X116978253Y-83602675D01*
X114655266Y-83602675D01*
X114706847Y-83533596D01*
X114832339Y-83383177D01*
X114909472Y-83326168D01*
X116651040Y-83326168D01*
X116668648Y-83352601D01*
X116745195Y-83348446D01*
X116748252Y-83347736D01*
X116841589Y-83317719D01*
X116896010Y-83288068D01*
X116918651Y-83244728D01*
X116880955Y-83225087D01*
X116798732Y-83235238D01*
X116776500Y-83241987D01*
X116688336Y-83284260D01*
X116651040Y-83326168D01*
X114909472Y-83326168D01*
X114951691Y-83294964D01*
X115083801Y-83257129D01*
X115154585Y-83253385D01*
X115234852Y-83235221D01*
X115344073Y-83189115D01*
X115425308Y-83145923D01*
X117435727Y-83145923D01*
X117482813Y-83188429D01*
X117546445Y-83207847D01*
X117635098Y-83231860D01*
X117678200Y-83256694D01*
X117760450Y-83290084D01*
X117852929Y-83256110D01*
X117872053Y-83226290D01*
X117829445Y-83190933D01*
X117760234Y-83159016D01*
X117629283Y-83115295D01*
X117520255Y-83098415D01*
X117450268Y-83109067D01*
X117435727Y-83145923D01*
X115425308Y-83145923D01*
X115459686Y-83127645D01*
X115559127Y-83063388D01*
X115619836Y-83008922D01*
X115628615Y-82989132D01*
X115664595Y-82940020D01*
X115762034Y-82885673D01*
X115905177Y-82832956D01*
X116078270Y-82788730D01*
X116097538Y-82784859D01*
X116451878Y-82734546D01*
X116800798Y-82720495D01*
X117130817Y-82741107D01*
G36*
X119497230Y-90189539D02*
G01*
X119477692Y-90209077D01*
X119458154Y-90189539D01*
X119477692Y-90170000D01*
X119497230Y-90189539D01*
G37*
X119497230Y-90189539D02*
X119477692Y-90209077D01*
X119458154Y-90189539D01*
X119477692Y-90170000D01*
X119497230Y-90189539D01*
G36*
X113822387Y-87428035D02*
G01*
X113831610Y-87481155D01*
X113842769Y-87596656D01*
X113855706Y-87659308D01*
X113858910Y-87729418D01*
X113835634Y-87747231D01*
X113790927Y-87740214D01*
X113788035Y-87737462D01*
X113774315Y-87665637D01*
X113770686Y-87565969D01*
X113776505Y-87471851D01*
X113791127Y-87416675D01*
X113794276Y-87413670D01*
X113822387Y-87428035D01*
G37*
X113822387Y-87428035D02*
X113831610Y-87481155D01*
X113842769Y-87596656D01*
X113855706Y-87659308D01*
X113858910Y-87729418D01*
X113835634Y-87747231D01*
X113790927Y-87740214D01*
X113788035Y-87737462D01*
X113774315Y-87665637D01*
X113770686Y-87565969D01*
X113776505Y-87471851D01*
X113791127Y-87416675D01*
X113794276Y-87413670D01*
X113822387Y-87428035D01*
G36*
X113824612Y-86835449D02*
G01*
X113888823Y-86875137D01*
X113886171Y-86925217D01*
X113822986Y-86957842D01*
X113760263Y-86936861D01*
X113737381Y-86903402D01*
X113722092Y-86838651D01*
X113755681Y-86821814D01*
X113824612Y-86835449D01*
G37*
X113824612Y-86835449D02*
X113888823Y-86875137D01*
X113886171Y-86925217D01*
X113822986Y-86957842D01*
X113760263Y-86936861D01*
X113737381Y-86903402D01*
X113722092Y-86838651D01*
X113755681Y-86821814D01*
X113824612Y-86835449D01*
G36*
X113655230Y-86223231D02*
G01*
X113701224Y-86284993D01*
X113712499Y-86347221D01*
X113684393Y-86379188D01*
X113678950Y-86379539D01*
X113636670Y-86348308D01*
X113620334Y-86317727D01*
X113596900Y-86229675D01*
X113613996Y-86200558D01*
X113655230Y-86223231D01*
G37*
X113655230Y-86223231D02*
X113701224Y-86284993D01*
X113712499Y-86347221D01*
X113684393Y-86379188D01*
X113678950Y-86379539D01*
X113636670Y-86348308D01*
X113620334Y-86317727D01*
X113596900Y-86229675D01*
X113613996Y-86200558D01*
X113655230Y-86223231D01*
G36*
X119923513Y-85363539D02*
G01*
X119988511Y-85502481D01*
X119996980Y-85601461D01*
X119949971Y-85673362D01*
X119948821Y-85674323D01*
X119904278Y-85698207D01*
X119892820Y-85654475D01*
X119892822Y-85649800D01*
X119887898Y-85567922D01*
X119875059Y-85448043D01*
X119869152Y-85402616D01*
X119845071Y-85226769D01*
X119923513Y-85363539D01*
G37*
X119923513Y-85363539D02*
X119988511Y-85502481D01*
X119996980Y-85601461D01*
X119949971Y-85673362D01*
X119948821Y-85674323D01*
X119904278Y-85698207D01*
X119892820Y-85654475D01*
X119892822Y-85649800D01*
X119887898Y-85567922D01*
X119875059Y-85448043D01*
X119869152Y-85402616D01*
X119845071Y-85226769D01*
X119923513Y-85363539D01*
G36*
X119447889Y-84186533D02*
G01*
X119540791Y-84278669D01*
X119639245Y-84412059D01*
X119733846Y-84570199D01*
X119815190Y-84736586D01*
X119873871Y-84894718D01*
X119900485Y-85028091D01*
X119898844Y-85080231D01*
X119872444Y-85178937D01*
X119839494Y-85200262D01*
X119805404Y-85144058D01*
X119788823Y-85083240D01*
X119759800Y-84995198D01*
X119704559Y-84860443D01*
X119632705Y-84699397D01*
X119553841Y-84532485D01*
X119477572Y-84380126D01*
X119413501Y-84262745D01*
X119376589Y-84206660D01*
X119355337Y-84161434D01*
X119369945Y-84152154D01*
X119447889Y-84186533D01*
G37*
X119447889Y-84186533D02*
X119540791Y-84278669D01*
X119639245Y-84412059D01*
X119733846Y-84570199D01*
X119815190Y-84736586D01*
X119873871Y-84894718D01*
X119900485Y-85028091D01*
X119898844Y-85080231D01*
X119872444Y-85178937D01*
X119839494Y-85200262D01*
X119805404Y-85144058D01*
X119788823Y-85083240D01*
X119759800Y-84995198D01*
X119704559Y-84860443D01*
X119632705Y-84699397D01*
X119553841Y-84532485D01*
X119477572Y-84380126D01*
X119413501Y-84262745D01*
X119376589Y-84206660D01*
X119355337Y-84161434D01*
X119369945Y-84152154D01*
X119447889Y-84186533D01*
G36*
X115771897Y-88111949D02*
G01*
X115766533Y-88135180D01*
X115745846Y-88138000D01*
X115713681Y-88123702D01*
X115719795Y-88111949D01*
X115766170Y-88107272D01*
X115771897Y-88111949D01*
G37*
X115771897Y-88111949D02*
X115766533Y-88135180D01*
X115745846Y-88138000D01*
X115713681Y-88123702D01*
X115719795Y-88111949D01*
X115766170Y-88107272D01*
X115771897Y-88111949D01*
G36*
X118206556Y-88011429D02*
G01*
X118207692Y-88020769D01*
X118177955Y-88058711D01*
X118168615Y-88059846D01*
X118130674Y-88030110D01*
X118129538Y-88020769D01*
X118159275Y-87982828D01*
X118168615Y-87981692D01*
X118206556Y-88011429D01*
G37*
X118206556Y-88011429D02*
X118207692Y-88020769D01*
X118177955Y-88058711D01*
X118168615Y-88059846D01*
X118130674Y-88030110D01*
X118129538Y-88020769D01*
X118159275Y-87982828D01*
X118168615Y-87981692D01*
X118206556Y-88011429D01*
G36*
X118328368Y-87832233D02*
G01*
X118463948Y-87867117D01*
X118596757Y-87919419D01*
X118708248Y-87985560D01*
X118711193Y-87987815D01*
X118763474Y-88037383D01*
X118749102Y-88052365D01*
X118671299Y-88033178D01*
X118533291Y-87980239D01*
X118481230Y-87958098D01*
X118350039Y-87910724D01*
X118235171Y-87885302D01*
X118178384Y-87885054D01*
X118110830Y-87886978D01*
X118090461Y-87867924D01*
X118123077Y-87829055D01*
X118208562Y-87818352D01*
X118328368Y-87832233D01*
G37*
X118328368Y-87832233D02*
X118463948Y-87867117D01*
X118596757Y-87919419D01*
X118708248Y-87985560D01*
X118711193Y-87987815D01*
X118763474Y-88037383D01*
X118749102Y-88052365D01*
X118671299Y-88033178D01*
X118533291Y-87980239D01*
X118481230Y-87958098D01*
X118350039Y-87910724D01*
X118235171Y-87885302D01*
X118178384Y-87885054D01*
X118110830Y-87886978D01*
X118090461Y-87867924D01*
X118123077Y-87829055D01*
X118208562Y-87818352D01*
X118328368Y-87832233D01*
G36*
X86650817Y-82741107D02*
G01*
X86948457Y-82794786D01*
X87200236Y-82879932D01*
X87392675Y-82994948D01*
X87393172Y-82995355D01*
X87526265Y-83089871D01*
X87671698Y-83172207D01*
X87731976Y-83199077D01*
X87842674Y-83244243D01*
X87923761Y-83281174D01*
X87942615Y-83291608D01*
X88008673Y-83320003D01*
X88125355Y-83357527D01*
X88266946Y-83396547D01*
X88405217Y-83428909D01*
X88478615Y-83452568D01*
X88485258Y-83486243D01*
X88471705Y-83505516D01*
X88449995Y-83563532D01*
X88466177Y-83583081D01*
X88508873Y-83627269D01*
X88575715Y-83714139D01*
X88620806Y-83778605D01*
X88736541Y-83950092D01*
X88638286Y-83974752D01*
X88565130Y-83980862D01*
X88486643Y-83956899D01*
X88391055Y-83895457D01*
X88266595Y-83789129D01*
X88119595Y-83648372D01*
X88001902Y-83535878D01*
X87917710Y-83468949D01*
X87846795Y-83436390D01*
X87768934Y-83427007D01*
X87720647Y-83427520D01*
X87606151Y-83436376D01*
X87523463Y-83452514D01*
X87508342Y-83458968D01*
X87448013Y-83476467D01*
X87337430Y-83493792D01*
X87242332Y-83503543D01*
X87065659Y-83529950D01*
X86957638Y-83577206D01*
X86910578Y-83649431D01*
X86907077Y-83683231D01*
X86873014Y-83774421D01*
X86768644Y-83839562D01*
X86701271Y-83860280D01*
X86603970Y-83910864D01*
X86516086Y-83996254D01*
X86512794Y-84000781D01*
X86421960Y-84098551D01*
X86318571Y-84172909D01*
X86242207Y-84209756D01*
X86220381Y-84202853D01*
X86238270Y-84144467D01*
X86242531Y-84133242D01*
X86261445Y-84062178D01*
X86229542Y-84037447D01*
X86174813Y-84034923D01*
X86103109Y-84030794D01*
X86100394Y-84007121D01*
X86137962Y-83966539D01*
X86224425Y-83904816D01*
X86329591Y-83856385D01*
X86419411Y-83813241D01*
X86469208Y-83765490D01*
X86470246Y-83762800D01*
X86461541Y-83736740D01*
X86407535Y-83727681D01*
X86300741Y-83736251D01*
X86133673Y-83763077D01*
X85898843Y-83808786D01*
X85883394Y-83811946D01*
X85683694Y-83862612D01*
X85559157Y-83919281D01*
X85506831Y-83985472D01*
X85523763Y-84064700D01*
X85597941Y-84152099D01*
X85660646Y-84217709D01*
X85669677Y-84262253D01*
X85630957Y-84315224D01*
X85630745Y-84315458D01*
X85589607Y-84377505D01*
X85588604Y-84409784D01*
X85622747Y-84397281D01*
X85674479Y-84335981D01*
X85677525Y-84331391D01*
X85748051Y-84253717D01*
X85809888Y-84234298D01*
X85847312Y-84274741D01*
X85852000Y-84313575D01*
X85861627Y-84367794D01*
X85905319Y-84383934D01*
X85988769Y-84374647D01*
X86081243Y-84366189D01*
X86119617Y-84386930D01*
X86125538Y-84423968D01*
X86158863Y-84495315D01*
X86245968Y-84535626D01*
X86367546Y-84541549D01*
X86504291Y-84509732D01*
X86538288Y-84495623D01*
X86619451Y-84468743D01*
X86669629Y-84489455D01*
X86690962Y-84515147D01*
X86780645Y-84578352D01*
X86900725Y-84579100D01*
X87035249Y-84517858D01*
X87054120Y-84504517D01*
X87179975Y-84411468D01*
X87275095Y-84500828D01*
X87362004Y-84557910D01*
X87426528Y-84554846D01*
X87453996Y-84492880D01*
X87454154Y-84485660D01*
X87483763Y-84449035D01*
X87522944Y-84450998D01*
X87583460Y-84439032D01*
X87632664Y-84360015D01*
X87638252Y-84345750D01*
X87689460Y-84258331D01*
X87740860Y-84245170D01*
X87781304Y-84303198D01*
X87797582Y-84389625D01*
X87813365Y-84525432D01*
X87835777Y-84592643D01*
X87871234Y-84600815D01*
X87917199Y-84567781D01*
X88012845Y-84510584D01*
X88096809Y-84527383D01*
X88174847Y-84620014D01*
X88194672Y-84656345D01*
X88272471Y-84808843D01*
X88190438Y-84913132D01*
X88139786Y-85003347D01*
X88156775Y-85062339D01*
X88243539Y-85092076D01*
X88388004Y-85095234D01*
X88502013Y-85095157D01*
X88571012Y-85117799D01*
X88606439Y-85178262D01*
X88619733Y-85291648D01*
X88621947Y-85404111D01*
X88636468Y-85558891D01*
X88683598Y-85710557D01*
X88772410Y-85885768D01*
X88804173Y-85939676D01*
X88873887Y-86028985D01*
X88956487Y-86063506D01*
X89009237Y-86066676D01*
X89116274Y-86042182D01*
X89222638Y-85981000D01*
X89302354Y-85902147D01*
X89329846Y-85831932D01*
X89340232Y-85793799D01*
X89363320Y-85811165D01*
X89387001Y-85865417D01*
X89399169Y-85937942D01*
X89399187Y-85938530D01*
X89416626Y-86029158D01*
X89459222Y-86160964D01*
X89516031Y-86301385D01*
X89598574Y-86495494D01*
X89646759Y-86637567D01*
X89664258Y-86743848D01*
X89654741Y-86830578D01*
X89643492Y-86865288D01*
X89590343Y-86936983D01*
X89518268Y-86966545D01*
X89455156Y-86947053D01*
X89435712Y-86916846D01*
X89401547Y-86902796D01*
X89332703Y-86956780D01*
X89326359Y-86963310D01*
X89267445Y-87044537D01*
X89241405Y-87145766D01*
X89237774Y-87258634D01*
X89250375Y-87413224D01*
X89278638Y-87565280D01*
X89292275Y-87612708D01*
X89324081Y-87733794D01*
X89337581Y-87838791D01*
X89337191Y-87856044D01*
X89358010Y-87940393D01*
X89427276Y-87973011D01*
X89530783Y-87948886D01*
X89558894Y-87934240D01*
X89716193Y-87860529D01*
X89832221Y-87846673D01*
X89915600Y-87892369D01*
X89937714Y-87920913D01*
X89977885Y-88017898D01*
X89954317Y-88080117D01*
X89883549Y-88098923D01*
X89822437Y-88120936D01*
X89718783Y-88179480D01*
X89591897Y-88263313D01*
X89551481Y-88292229D01*
X89424168Y-88378662D01*
X89316663Y-88440040D01*
X89246899Y-88466519D01*
X89235124Y-88465887D01*
X89198066Y-88488234D01*
X89158294Y-88566187D01*
X89123227Y-88677854D01*
X89100283Y-88801345D01*
X89095384Y-88878227D01*
X89119191Y-88939312D01*
X89180736Y-88949979D01*
X89265204Y-88917657D01*
X89357780Y-88849776D01*
X89443648Y-88753763D01*
X89488072Y-88681316D01*
X89576042Y-88556655D01*
X89701121Y-88470347D01*
X89880690Y-88411640D01*
X89945833Y-88398170D01*
X90031257Y-88386454D01*
X90059213Y-88406847D01*
X90048581Y-88474753D01*
X90047098Y-88480795D01*
X90001607Y-88645660D01*
X89939246Y-88845040D01*
X89866728Y-89060103D01*
X89790767Y-89272014D01*
X89718075Y-89461942D01*
X89655365Y-89611053D01*
X89616400Y-89689144D01*
X89484481Y-89850709D01*
X89318792Y-89955529D01*
X89135622Y-89994868D01*
X89056307Y-89989594D01*
X88966921Y-89982459D01*
X88910870Y-90008034D01*
X88859955Y-90083174D01*
X88841384Y-90118058D01*
X88630504Y-90464216D01*
X88391407Y-90753787D01*
X88355854Y-90789344D01*
X88252432Y-90884144D01*
X88177159Y-90931867D01*
X88106441Y-90944003D01*
X88050519Y-90938056D01*
X87904324Y-90875776D01*
X87783943Y-90744167D01*
X87728750Y-90638718D01*
X87677011Y-90564020D01*
X87594169Y-90484372D01*
X87505076Y-90419879D01*
X87434582Y-90390648D01*
X87422828Y-90391195D01*
X87376567Y-90394678D01*
X87265584Y-90400381D01*
X87103257Y-90407696D01*
X86902966Y-90416011D01*
X86731230Y-90422715D01*
X86505493Y-90432294D01*
X86302319Y-90442782D01*
X86136625Y-90453265D01*
X86023332Y-90462827D01*
X85982472Y-90468654D01*
X85897821Y-90465559D01*
X85779620Y-90434098D01*
X85720369Y-90410760D01*
X85547383Y-90357833D01*
X85413023Y-90367223D01*
X85321855Y-90438019D01*
X85294005Y-90495829D01*
X85284800Y-90611423D01*
X85337622Y-90689753D01*
X85437782Y-90717077D01*
X85533092Y-90739247D01*
X85613178Y-90780944D01*
X85721828Y-90822032D01*
X85894905Y-90843091D01*
X86121138Y-90843537D01*
X86389257Y-90822785D01*
X86399077Y-90821689D01*
X86541292Y-90805903D01*
X86726547Y-90785683D01*
X86920158Y-90764808D01*
X86965692Y-90759941D01*
X87132897Y-90740328D01*
X87277901Y-90720112D01*
X87377553Y-90702641D01*
X87399597Y-90697152D01*
X87459897Y-90695443D01*
X87523459Y-90737774D01*
X87607586Y-90835891D01*
X87611525Y-90841013D01*
X87693317Y-90943801D01*
X87761951Y-91023396D01*
X87789041Y-91050584D01*
X87835095Y-91112244D01*
X87885494Y-91210555D01*
X87892191Y-91226430D01*
X87922385Y-91338157D01*
X87906784Y-91435745D01*
X87837915Y-91534204D01*
X87708308Y-91648543D01*
X87665809Y-91681165D01*
X87523244Y-91792250D01*
X87373060Y-91914684D01*
X87302113Y-91974916D01*
X87130535Y-92123846D01*
X86656765Y-92123846D01*
X86445454Y-92121992D01*
X86294212Y-92114863D01*
X86185011Y-92100112D01*
X86099821Y-92075393D01*
X86027267Y-92041888D01*
X85830609Y-91924512D01*
X85637480Y-91784610D01*
X85459617Y-91633418D01*
X85308757Y-91482171D01*
X85196637Y-91342104D01*
X85134993Y-91224451D01*
X85126792Y-91179915D01*
X85091283Y-91076807D01*
X86058300Y-91076807D01*
X86084171Y-91139068D01*
X86158722Y-91202500D01*
X86268158Y-91259173D01*
X86398678Y-91301159D01*
X86536488Y-91320526D01*
X86608559Y-91318837D01*
X86737310Y-91300404D01*
X86842619Y-91274086D01*
X86872329Y-91261837D01*
X86934420Y-91196273D01*
X86938321Y-91117794D01*
X86885190Y-91056698D01*
X86864140Y-91048006D01*
X86774286Y-91037283D01*
X86650989Y-91042505D01*
X86613605Y-91047247D01*
X86493479Y-91055166D01*
X86425500Y-91037947D01*
X86419774Y-91031567D01*
X86364467Y-91003008D01*
X86267734Y-90992229D01*
X86164445Y-91000079D01*
X86094907Y-91023646D01*
X86058300Y-91076807D01*
X85091283Y-91076807D01*
X85088524Y-91068796D01*
X84990008Y-90967625D01*
X84862831Y-90899851D01*
X84815458Y-90862077D01*
X84816461Y-90834308D01*
X84808069Y-90789498D01*
X84779169Y-90770970D01*
X84731024Y-90721669D01*
X84727846Y-90689261D01*
X84699341Y-90636136D01*
X84601486Y-90579769D01*
X84569233Y-90566707D01*
X84425008Y-90495775D01*
X84280472Y-90398062D01*
X84148318Y-90286023D01*
X84041242Y-90172114D01*
X83971937Y-90068790D01*
X83953100Y-89988505D01*
X83960161Y-89969127D01*
X83954973Y-89937104D01*
X83945177Y-89935539D01*
X83925269Y-89899710D01*
X83905442Y-89805038D01*
X83890777Y-89681275D01*
X85790555Y-89681275D01*
X85800409Y-89764476D01*
X85884715Y-89827469D01*
X85930629Y-89845410D01*
X86153487Y-89890718D01*
X86360044Y-89873365D01*
X86425840Y-89851859D01*
X86521378Y-89825565D01*
X86663117Y-89800600D01*
X86809384Y-89783475D01*
X86955324Y-89767820D01*
X87040071Y-89748479D01*
X87080550Y-89719365D01*
X87092902Y-89681539D01*
X87072944Y-89611384D01*
X86986890Y-89546622D01*
X86964296Y-89535000D01*
X86817298Y-89480238D01*
X86678381Y-89475764D01*
X86514865Y-89519479D01*
X86399473Y-89548604D01*
X86302627Y-89535546D01*
X86260865Y-89519526D01*
X86090146Y-89471131D01*
X85955533Y-89489253D01*
X85853349Y-89571467D01*
X85790555Y-89681275D01*
X83890777Y-89681275D01*
X83889528Y-89670743D01*
X83887613Y-89647014D01*
X83861856Y-89446639D01*
X83820336Y-89286174D01*
X83767517Y-89176572D01*
X83707864Y-89128786D01*
X83677393Y-89131294D01*
X83585565Y-89152248D01*
X83557783Y-89154000D01*
X83527707Y-89165074D01*
X83512409Y-89208306D01*
X83509958Y-89298711D01*
X83518421Y-89451305D01*
X83518812Y-89456846D01*
X83532807Y-89616665D01*
X83549797Y-89757193D01*
X83566368Y-89850703D01*
X83568149Y-89857385D01*
X83576551Y-89903482D01*
X83557865Y-89907017D01*
X83502569Y-89863292D01*
X83416822Y-89782720D01*
X83299504Y-89654745D01*
X83230491Y-89534065D01*
X83196429Y-89418258D01*
X83162531Y-89286782D01*
X83124213Y-89175367D01*
X83108329Y-89141230D01*
X83067508Y-89053433D01*
X83018398Y-88929404D01*
X82997335Y-88870692D01*
X82962585Y-88756931D01*
X82959096Y-88699885D01*
X82983544Y-88685077D01*
X83047522Y-88711562D01*
X83058000Y-88724154D01*
X83109394Y-88755036D01*
X83186053Y-88761820D01*
X83252018Y-88745676D01*
X83272923Y-88717159D01*
X83254957Y-88614089D01*
X83244745Y-88590227D01*
X83500543Y-88590227D01*
X83500851Y-88665820D01*
X83511544Y-88692850D01*
X83568269Y-88748759D01*
X83623839Y-88734680D01*
X83654147Y-88662478D01*
X83642838Y-88568409D01*
X83624096Y-88528769D01*
X83591350Y-88509231D01*
X83663692Y-88509231D01*
X83683230Y-88528769D01*
X83702769Y-88509231D01*
X83683230Y-88489692D01*
X83663692Y-88509231D01*
X83591350Y-88509231D01*
X83576711Y-88500497D01*
X83530678Y-88528051D01*
X83500543Y-88590227D01*
X83244745Y-88590227D01*
X83210744Y-88510785D01*
X83154809Y-88434597D01*
X83110604Y-88411539D01*
X83032370Y-88396735D01*
X82925380Y-88361789D01*
X82831081Y-88320893D01*
X82809874Y-88308552D01*
X82811967Y-88269720D01*
X82818169Y-88246173D01*
X84132795Y-88246173D01*
X84147890Y-88313213D01*
X84203224Y-88352554D01*
X84309599Y-88378099D01*
X84450399Y-88392416D01*
X84595382Y-88394633D01*
X84714307Y-88383877D01*
X84764768Y-88368757D01*
X84837567Y-88349446D01*
X84909459Y-88387386D01*
X84927610Y-88403217D01*
X85051726Y-88494523D01*
X85160832Y-88520335D01*
X85274668Y-88485164D01*
X85278184Y-88483309D01*
X85397616Y-88390316D01*
X85443009Y-88276249D01*
X85437879Y-88206385D01*
X85435228Y-88122417D01*
X85472755Y-88103273D01*
X85547360Y-88148699D01*
X85622548Y-88221517D01*
X85693812Y-88292776D01*
X85738953Y-88328429D01*
X85745688Y-88328979D01*
X85811319Y-88206236D01*
X85843376Y-88121212D01*
X85845904Y-88099400D01*
X87105760Y-88099400D01*
X87131555Y-88129053D01*
X87208392Y-88121622D01*
X87231039Y-88117420D01*
X87322160Y-88106469D01*
X87365333Y-88131589D01*
X87388390Y-88209742D01*
X87389209Y-88213815D01*
X87446529Y-88324853D01*
X87554406Y-88391672D01*
X87695504Y-88408763D01*
X87852484Y-88370614D01*
X87865078Y-88365071D01*
X87959335Y-88281865D01*
X87990193Y-88202955D01*
X88009630Y-88127212D01*
X88032649Y-88119494D01*
X88063895Y-88156468D01*
X88135007Y-88205947D01*
X88214156Y-88200609D01*
X88288277Y-88169238D01*
X88313846Y-88137256D01*
X88346703Y-88106482D01*
X88394865Y-88098923D01*
X88459785Y-88080990D01*
X88462956Y-88033599D01*
X88410314Y-87966363D01*
X88307799Y-87888894D01*
X88241183Y-87850125D01*
X88101640Y-87785338D01*
X87960020Y-87745965D01*
X87783686Y-87723895D01*
X87714022Y-87719128D01*
X87550126Y-87711759D01*
X87440247Y-87715914D01*
X87360623Y-87735467D01*
X87287493Y-87774290D01*
X87258769Y-87793328D01*
X87157034Y-87883691D01*
X87113343Y-87986598D01*
X87109585Y-88014514D01*
X87105760Y-88099400D01*
X85845904Y-88099400D01*
X85851997Y-88046843D01*
X85852000Y-88045167D01*
X85819777Y-87916006D01*
X85721392Y-87821859D01*
X85554272Y-87760620D01*
X85488546Y-87748060D01*
X85326812Y-87733615D01*
X85191906Y-87742916D01*
X85100856Y-87773148D01*
X85070461Y-87817191D01*
X85036239Y-87844748D01*
X84946121Y-87886584D01*
X84818932Y-87934064D01*
X84806692Y-87938191D01*
X84664730Y-87987508D01*
X84545684Y-88032177D01*
X84475233Y-88062560D01*
X84475068Y-88062648D01*
X84390232Y-88093758D01*
X84352535Y-88098923D01*
X84245601Y-88121220D01*
X84168860Y-88176239D01*
X84132795Y-88246173D01*
X82818169Y-88246173D01*
X82834330Y-88184827D01*
X82842212Y-88160157D01*
X82879657Y-88069522D01*
X82930761Y-88030049D01*
X83025644Y-88020835D01*
X83043048Y-88020769D01*
X83180916Y-88039729D01*
X83324882Y-88086580D01*
X83351487Y-88099133D01*
X83447547Y-88142372D01*
X83486034Y-88143144D01*
X83484359Y-88123465D01*
X83489785Y-88057367D01*
X83529469Y-87962363D01*
X83542095Y-87940401D01*
X83587927Y-87850301D01*
X83603505Y-87788125D01*
X83601302Y-87780201D01*
X83598065Y-87725486D01*
X83614163Y-87628836D01*
X83620885Y-87601594D01*
X83642051Y-87488907D01*
X83661264Y-87330844D01*
X83674600Y-87160155D01*
X83675265Y-87147543D01*
X83687226Y-86999658D01*
X83704946Y-86883631D01*
X83714212Y-86854390D01*
X88876797Y-86854390D01*
X88882079Y-86909097D01*
X88921037Y-86952082D01*
X89003912Y-86998696D01*
X89045732Y-86992342D01*
X89040950Y-86942958D01*
X89019864Y-86868510D01*
X89017230Y-86845266D01*
X88989217Y-86813205D01*
X88930469Y-86815991D01*
X88878923Y-86851159D01*
X88876797Y-86854390D01*
X83714212Y-86854390D01*
X83725028Y-86820262D01*
X83729520Y-86815390D01*
X83771170Y-86759830D01*
X83792309Y-86682509D01*
X83786110Y-86619241D01*
X83769856Y-86603798D01*
X83749221Y-86565815D01*
X83763453Y-86533540D01*
X83782725Y-86465724D01*
X83795918Y-86348538D01*
X83799679Y-86242840D01*
X83800461Y-86008450D01*
X83920078Y-86008379D01*
X84015947Y-85989184D01*
X84109947Y-85922387D01*
X84174078Y-85854785D01*
X84321099Y-85726370D01*
X84541504Y-85594227D01*
X84660154Y-85535494D01*
X84904490Y-85413792D01*
X85088780Y-85305175D01*
X85227614Y-85199548D01*
X85335583Y-85086814D01*
X85366761Y-85046554D01*
X85437958Y-84939563D01*
X85452516Y-84880257D01*
X85407896Y-84859917D01*
X85314692Y-84867775D01*
X85186834Y-84870822D01*
X85034565Y-84852658D01*
X84972769Y-84839064D01*
X84789386Y-84812475D01*
X84643723Y-84843718D01*
X84530362Y-84923467D01*
X84452903Y-84961776D01*
X84378445Y-84972769D01*
X84299612Y-84996138D01*
X84190940Y-85056222D01*
X84072593Y-85137984D01*
X83964735Y-85226389D01*
X83887530Y-85306403D01*
X83860925Y-85358654D01*
X83834073Y-85394299D01*
X83749810Y-85390515D01*
X83745254Y-85389620D01*
X83630729Y-85391939D01*
X83583563Y-85424534D01*
X83516273Y-85480360D01*
X83417129Y-85538395D01*
X83408409Y-85542613D01*
X83297332Y-85630976D01*
X83193763Y-85778561D01*
X83110303Y-85966601D01*
X83097844Y-86005073D01*
X83068077Y-86057421D01*
X83036716Y-86041811D01*
X83008592Y-85968176D01*
X82988535Y-85846448D01*
X82982956Y-85768809D01*
X82989661Y-85586585D01*
X83020332Y-85382850D01*
X83068916Y-85182645D01*
X83129359Y-85011006D01*
X83194292Y-84894616D01*
X83255598Y-84804729D01*
X83330347Y-84677824D01*
X83378443Y-84587776D01*
X83459788Y-84452136D01*
X83553506Y-84330018D01*
X83608171Y-84275161D01*
X83628470Y-84255371D01*
X85032828Y-84255371D01*
X85046391Y-84330283D01*
X85097673Y-84378894D01*
X85168367Y-84379734D01*
X85206120Y-84349336D01*
X85219186Y-84277186D01*
X85197591Y-84194485D01*
X85154211Y-84133466D01*
X85115029Y-84121340D01*
X85055366Y-84167246D01*
X85032828Y-84255371D01*
X83628470Y-84255371D01*
X83725952Y-84160338D01*
X83876930Y-83987483D01*
X84053770Y-83765388D01*
X84175266Y-83602675D01*
X86498253Y-83602675D01*
X86508055Y-83645306D01*
X86560097Y-83686064D01*
X86621063Y-83703103D01*
X86642473Y-83697247D01*
X86670085Y-83646394D01*
X86672615Y-83622309D01*
X86641997Y-83579778D01*
X86575807Y-83566524D01*
X86512538Y-83586880D01*
X86498253Y-83602675D01*
X84175266Y-83602675D01*
X84226847Y-83533596D01*
X84352339Y-83383177D01*
X84429472Y-83326168D01*
X86171040Y-83326168D01*
X86188648Y-83352601D01*
X86265195Y-83348446D01*
X86268252Y-83347736D01*
X86361589Y-83317719D01*
X86416010Y-83288068D01*
X86438651Y-83244728D01*
X86400955Y-83225087D01*
X86318732Y-83235238D01*
X86296500Y-83241987D01*
X86208336Y-83284260D01*
X86171040Y-83326168D01*
X84429472Y-83326168D01*
X84471691Y-83294964D01*
X84603801Y-83257129D01*
X84674585Y-83253385D01*
X84754852Y-83235221D01*
X84864073Y-83189115D01*
X84945308Y-83145923D01*
X86955727Y-83145923D01*
X87002813Y-83188429D01*
X87066445Y-83207847D01*
X87155098Y-83231860D01*
X87198200Y-83256694D01*
X87280450Y-83290084D01*
X87372929Y-83256110D01*
X87392053Y-83226290D01*
X87349445Y-83190933D01*
X87280234Y-83159016D01*
X87149283Y-83115295D01*
X87040255Y-83098415D01*
X86970268Y-83109067D01*
X86955727Y-83145923D01*
X84945308Y-83145923D01*
X84979686Y-83127645D01*
X85079127Y-83063388D01*
X85139836Y-83008922D01*
X85148615Y-82989132D01*
X85184595Y-82940020D01*
X85282034Y-82885673D01*
X85425177Y-82832956D01*
X85598270Y-82788730D01*
X85617538Y-82784859D01*
X85971878Y-82734546D01*
X86320798Y-82720495D01*
X86650817Y-82741107D01*
G37*
X86650817Y-82741107D02*
X86948457Y-82794786D01*
X87200236Y-82879932D01*
X87392675Y-82994948D01*
X87393172Y-82995355D01*
X87526265Y-83089871D01*
X87671698Y-83172207D01*
X87731976Y-83199077D01*
X87842674Y-83244243D01*
X87923761Y-83281174D01*
X87942615Y-83291608D01*
X88008673Y-83320003D01*
X88125355Y-83357527D01*
X88266946Y-83396547D01*
X88405217Y-83428909D01*
X88478615Y-83452568D01*
X88485258Y-83486243D01*
X88471705Y-83505516D01*
X88449995Y-83563532D01*
X88466177Y-83583081D01*
X88508873Y-83627269D01*
X88575715Y-83714139D01*
X88620806Y-83778605D01*
X88736541Y-83950092D01*
X88638286Y-83974752D01*
X88565130Y-83980862D01*
X88486643Y-83956899D01*
X88391055Y-83895457D01*
X88266595Y-83789129D01*
X88119595Y-83648372D01*
X88001902Y-83535878D01*
X87917710Y-83468949D01*
X87846795Y-83436390D01*
X87768934Y-83427007D01*
X87720647Y-83427520D01*
X87606151Y-83436376D01*
X87523463Y-83452514D01*
X87508342Y-83458968D01*
X87448013Y-83476467D01*
X87337430Y-83493792D01*
X87242332Y-83503543D01*
X87065659Y-83529950D01*
X86957638Y-83577206D01*
X86910578Y-83649431D01*
X86907077Y-83683231D01*
X86873014Y-83774421D01*
X86768644Y-83839562D01*
X86701271Y-83860280D01*
X86603970Y-83910864D01*
X86516086Y-83996254D01*
X86512794Y-84000781D01*
X86421960Y-84098551D01*
X86318571Y-84172909D01*
X86242207Y-84209756D01*
X86220381Y-84202853D01*
X86238270Y-84144467D01*
X86242531Y-84133242D01*
X86261445Y-84062178D01*
X86229542Y-84037447D01*
X86174813Y-84034923D01*
X86103109Y-84030794D01*
X86100394Y-84007121D01*
X86137962Y-83966539D01*
X86224425Y-83904816D01*
X86329591Y-83856385D01*
X86419411Y-83813241D01*
X86469208Y-83765490D01*
X86470246Y-83762800D01*
X86461541Y-83736740D01*
X86407535Y-83727681D01*
X86300741Y-83736251D01*
X86133673Y-83763077D01*
X85898843Y-83808786D01*
X85883394Y-83811946D01*
X85683694Y-83862612D01*
X85559157Y-83919281D01*
X85506831Y-83985472D01*
X85523763Y-84064700D01*
X85597941Y-84152099D01*
X85660646Y-84217709D01*
X85669677Y-84262253D01*
X85630957Y-84315224D01*
X85630745Y-84315458D01*
X85589607Y-84377505D01*
X85588604Y-84409784D01*
X85622747Y-84397281D01*
X85674479Y-84335981D01*
X85677525Y-84331391D01*
X85748051Y-84253717D01*
X85809888Y-84234298D01*
X85847312Y-84274741D01*
X85852000Y-84313575D01*
X85861627Y-84367794D01*
X85905319Y-84383934D01*
X85988769Y-84374647D01*
X86081243Y-84366189D01*
X86119617Y-84386930D01*
X86125538Y-84423968D01*
X86158863Y-84495315D01*
X86245968Y-84535626D01*
X86367546Y-84541549D01*
X86504291Y-84509732D01*
X86538288Y-84495623D01*
X86619451Y-84468743D01*
X86669629Y-84489455D01*
X86690962Y-84515147D01*
X86780645Y-84578352D01*
X86900725Y-84579100D01*
X87035249Y-84517858D01*
X87054120Y-84504517D01*
X87179975Y-84411468D01*
X87275095Y-84500828D01*
X87362004Y-84557910D01*
X87426528Y-84554846D01*
X87453996Y-84492880D01*
X87454154Y-84485660D01*
X87483763Y-84449035D01*
X87522944Y-84450998D01*
X87583460Y-84439032D01*
X87632664Y-84360015D01*
X87638252Y-84345750D01*
X87689460Y-84258331D01*
X87740860Y-84245170D01*
X87781304Y-84303198D01*
X87797582Y-84389625D01*
X87813365Y-84525432D01*
X87835777Y-84592643D01*
X87871234Y-84600815D01*
X87917199Y-84567781D01*
X88012845Y-84510584D01*
X88096809Y-84527383D01*
X88174847Y-84620014D01*
X88194672Y-84656345D01*
X88272471Y-84808843D01*
X88190438Y-84913132D01*
X88139786Y-85003347D01*
X88156775Y-85062339D01*
X88243539Y-85092076D01*
X88388004Y-85095234D01*
X88502013Y-85095157D01*
X88571012Y-85117799D01*
X88606439Y-85178262D01*
X88619733Y-85291648D01*
X88621947Y-85404111D01*
X88636468Y-85558891D01*
X88683598Y-85710557D01*
X88772410Y-85885768D01*
X88804173Y-85939676D01*
X88873887Y-86028985D01*
X88956487Y-86063506D01*
X89009237Y-86066676D01*
X89116274Y-86042182D01*
X89222638Y-85981000D01*
X89302354Y-85902147D01*
X89329846Y-85831932D01*
X89340232Y-85793799D01*
X89363320Y-85811165D01*
X89387001Y-85865417D01*
X89399169Y-85937942D01*
X89399187Y-85938530D01*
X89416626Y-86029158D01*
X89459222Y-86160964D01*
X89516031Y-86301385D01*
X89598574Y-86495494D01*
X89646759Y-86637567D01*
X89664258Y-86743848D01*
X89654741Y-86830578D01*
X89643492Y-86865288D01*
X89590343Y-86936983D01*
X89518268Y-86966545D01*
X89455156Y-86947053D01*
X89435712Y-86916846D01*
X89401547Y-86902796D01*
X89332703Y-86956780D01*
X89326359Y-86963310D01*
X89267445Y-87044537D01*
X89241405Y-87145766D01*
X89237774Y-87258634D01*
X89250375Y-87413224D01*
X89278638Y-87565280D01*
X89292275Y-87612708D01*
X89324081Y-87733794D01*
X89337581Y-87838791D01*
X89337191Y-87856044D01*
X89358010Y-87940393D01*
X89427276Y-87973011D01*
X89530783Y-87948886D01*
X89558894Y-87934240D01*
X89716193Y-87860529D01*
X89832221Y-87846673D01*
X89915600Y-87892369D01*
X89937714Y-87920913D01*
X89977885Y-88017898D01*
X89954317Y-88080117D01*
X89883549Y-88098923D01*
X89822437Y-88120936D01*
X89718783Y-88179480D01*
X89591897Y-88263313D01*
X89551481Y-88292229D01*
X89424168Y-88378662D01*
X89316663Y-88440040D01*
X89246899Y-88466519D01*
X89235124Y-88465887D01*
X89198066Y-88488234D01*
X89158294Y-88566187D01*
X89123227Y-88677854D01*
X89100283Y-88801345D01*
X89095384Y-88878227D01*
X89119191Y-88939312D01*
X89180736Y-88949979D01*
X89265204Y-88917657D01*
X89357780Y-88849776D01*
X89443648Y-88753763D01*
X89488072Y-88681316D01*
X89576042Y-88556655D01*
X89701121Y-88470347D01*
X89880690Y-88411640D01*
X89945833Y-88398170D01*
X90031257Y-88386454D01*
X90059213Y-88406847D01*
X90048581Y-88474753D01*
X90047098Y-88480795D01*
X90001607Y-88645660D01*
X89939246Y-88845040D01*
X89866728Y-89060103D01*
X89790767Y-89272014D01*
X89718075Y-89461942D01*
X89655365Y-89611053D01*
X89616400Y-89689144D01*
X89484481Y-89850709D01*
X89318792Y-89955529D01*
X89135622Y-89994868D01*
X89056307Y-89989594D01*
X88966921Y-89982459D01*
X88910870Y-90008034D01*
X88859955Y-90083174D01*
X88841384Y-90118058D01*
X88630504Y-90464216D01*
X88391407Y-90753787D01*
X88355854Y-90789344D01*
X88252432Y-90884144D01*
X88177159Y-90931867D01*
X88106441Y-90944003D01*
X88050519Y-90938056D01*
X87904324Y-90875776D01*
X87783943Y-90744167D01*
X87728750Y-90638718D01*
X87677011Y-90564020D01*
X87594169Y-90484372D01*
X87505076Y-90419879D01*
X87434582Y-90390648D01*
X87422828Y-90391195D01*
X87376567Y-90394678D01*
X87265584Y-90400381D01*
X87103257Y-90407696D01*
X86902966Y-90416011D01*
X86731230Y-90422715D01*
X86505493Y-90432294D01*
X86302319Y-90442782D01*
X86136625Y-90453265D01*
X86023332Y-90462827D01*
X85982472Y-90468654D01*
X85897821Y-90465559D01*
X85779620Y-90434098D01*
X85720369Y-90410760D01*
X85547383Y-90357833D01*
X85413023Y-90367223D01*
X85321855Y-90438019D01*
X85294005Y-90495829D01*
X85284800Y-90611423D01*
X85337622Y-90689753D01*
X85437782Y-90717077D01*
X85533092Y-90739247D01*
X85613178Y-90780944D01*
X85721828Y-90822032D01*
X85894905Y-90843091D01*
X86121138Y-90843537D01*
X86389257Y-90822785D01*
X86399077Y-90821689D01*
X86541292Y-90805903D01*
X86726547Y-90785683D01*
X86920158Y-90764808D01*
X86965692Y-90759941D01*
X87132897Y-90740328D01*
X87277901Y-90720112D01*
X87377553Y-90702641D01*
X87399597Y-90697152D01*
X87459897Y-90695443D01*
X87523459Y-90737774D01*
X87607586Y-90835891D01*
X87611525Y-90841013D01*
X87693317Y-90943801D01*
X87761951Y-91023396D01*
X87789041Y-91050584D01*
X87835095Y-91112244D01*
X87885494Y-91210555D01*
X87892191Y-91226430D01*
X87922385Y-91338157D01*
X87906784Y-91435745D01*
X87837915Y-91534204D01*
X87708308Y-91648543D01*
X87665809Y-91681165D01*
X87523244Y-91792250D01*
X87373060Y-91914684D01*
X87302113Y-91974916D01*
X87130535Y-92123846D01*
X86656765Y-92123846D01*
X86445454Y-92121992D01*
X86294212Y-92114863D01*
X86185011Y-92100112D01*
X86099821Y-92075393D01*
X86027267Y-92041888D01*
X85830609Y-91924512D01*
X85637480Y-91784610D01*
X85459617Y-91633418D01*
X85308757Y-91482171D01*
X85196637Y-91342104D01*
X85134993Y-91224451D01*
X85126792Y-91179915D01*
X85091283Y-91076807D01*
X86058300Y-91076807D01*
X86084171Y-91139068D01*
X86158722Y-91202500D01*
X86268158Y-91259173D01*
X86398678Y-91301159D01*
X86536488Y-91320526D01*
X86608559Y-91318837D01*
X86737310Y-91300404D01*
X86842619Y-91274086D01*
X86872329Y-91261837D01*
X86934420Y-91196273D01*
X86938321Y-91117794D01*
X86885190Y-91056698D01*
X86864140Y-91048006D01*
X86774286Y-91037283D01*
X86650989Y-91042505D01*
X86613605Y-91047247D01*
X86493479Y-91055166D01*
X86425500Y-91037947D01*
X86419774Y-91031567D01*
X86364467Y-91003008D01*
X86267734Y-90992229D01*
X86164445Y-91000079D01*
X86094907Y-91023646D01*
X86058300Y-91076807D01*
X85091283Y-91076807D01*
X85088524Y-91068796D01*
X84990008Y-90967625D01*
X84862831Y-90899851D01*
X84815458Y-90862077D01*
X84816461Y-90834308D01*
X84808069Y-90789498D01*
X84779169Y-90770970D01*
X84731024Y-90721669D01*
X84727846Y-90689261D01*
X84699341Y-90636136D01*
X84601486Y-90579769D01*
X84569233Y-90566707D01*
X84425008Y-90495775D01*
X84280472Y-90398062D01*
X84148318Y-90286023D01*
X84041242Y-90172114D01*
X83971937Y-90068790D01*
X83953100Y-89988505D01*
X83960161Y-89969127D01*
X83954973Y-89937104D01*
X83945177Y-89935539D01*
X83925269Y-89899710D01*
X83905442Y-89805038D01*
X83890777Y-89681275D01*
X85790555Y-89681275D01*
X85800409Y-89764476D01*
X85884715Y-89827469D01*
X85930629Y-89845410D01*
X86153487Y-89890718D01*
X86360044Y-89873365D01*
X86425840Y-89851859D01*
X86521378Y-89825565D01*
X86663117Y-89800600D01*
X86809384Y-89783475D01*
X86955324Y-89767820D01*
X87040071Y-89748479D01*
X87080550Y-89719365D01*
X87092902Y-89681539D01*
X87072944Y-89611384D01*
X86986890Y-89546622D01*
X86964296Y-89535000D01*
X86817298Y-89480238D01*
X86678381Y-89475764D01*
X86514865Y-89519479D01*
X86399473Y-89548604D01*
X86302627Y-89535546D01*
X86260865Y-89519526D01*
X86090146Y-89471131D01*
X85955533Y-89489253D01*
X85853349Y-89571467D01*
X85790555Y-89681275D01*
X83890777Y-89681275D01*
X83889528Y-89670743D01*
X83887613Y-89647014D01*
X83861856Y-89446639D01*
X83820336Y-89286174D01*
X83767517Y-89176572D01*
X83707864Y-89128786D01*
X83677393Y-89131294D01*
X83585565Y-89152248D01*
X83557783Y-89154000D01*
X83527707Y-89165074D01*
X83512409Y-89208306D01*
X83509958Y-89298711D01*
X83518421Y-89451305D01*
X83518812Y-89456846D01*
X83532807Y-89616665D01*
X83549797Y-89757193D01*
X83566368Y-89850703D01*
X83568149Y-89857385D01*
X83576551Y-89903482D01*
X83557865Y-89907017D01*
X83502569Y-89863292D01*
X83416822Y-89782720D01*
X83299504Y-89654745D01*
X83230491Y-89534065D01*
X83196429Y-89418258D01*
X83162531Y-89286782D01*
X83124213Y-89175367D01*
X83108329Y-89141230D01*
X83067508Y-89053433D01*
X83018398Y-88929404D01*
X82997335Y-88870692D01*
X82962585Y-88756931D01*
X82959096Y-88699885D01*
X82983544Y-88685077D01*
X83047522Y-88711562D01*
X83058000Y-88724154D01*
X83109394Y-88755036D01*
X83186053Y-88761820D01*
X83252018Y-88745676D01*
X83272923Y-88717159D01*
X83254957Y-88614089D01*
X83244745Y-88590227D01*
X83500543Y-88590227D01*
X83500851Y-88665820D01*
X83511544Y-88692850D01*
X83568269Y-88748759D01*
X83623839Y-88734680D01*
X83654147Y-88662478D01*
X83642838Y-88568409D01*
X83624096Y-88528769D01*
X83591350Y-88509231D01*
X83663692Y-88509231D01*
X83683230Y-88528769D01*
X83702769Y-88509231D01*
X83683230Y-88489692D01*
X83663692Y-88509231D01*
X83591350Y-88509231D01*
X83576711Y-88500497D01*
X83530678Y-88528051D01*
X83500543Y-88590227D01*
X83244745Y-88590227D01*
X83210744Y-88510785D01*
X83154809Y-88434597D01*
X83110604Y-88411539D01*
X83032370Y-88396735D01*
X82925380Y-88361789D01*
X82831081Y-88320893D01*
X82809874Y-88308552D01*
X82811967Y-88269720D01*
X82818169Y-88246173D01*
X84132795Y-88246173D01*
X84147890Y-88313213D01*
X84203224Y-88352554D01*
X84309599Y-88378099D01*
X84450399Y-88392416D01*
X84595382Y-88394633D01*
X84714307Y-88383877D01*
X84764768Y-88368757D01*
X84837567Y-88349446D01*
X84909459Y-88387386D01*
X84927610Y-88403217D01*
X85051726Y-88494523D01*
X85160832Y-88520335D01*
X85274668Y-88485164D01*
X85278184Y-88483309D01*
X85397616Y-88390316D01*
X85443009Y-88276249D01*
X85437879Y-88206385D01*
X85435228Y-88122417D01*
X85472755Y-88103273D01*
X85547360Y-88148699D01*
X85622548Y-88221517D01*
X85693812Y-88292776D01*
X85738953Y-88328429D01*
X85745688Y-88328979D01*
X85811319Y-88206236D01*
X85843376Y-88121212D01*
X85845904Y-88099400D01*
X87105760Y-88099400D01*
X87131555Y-88129053D01*
X87208392Y-88121622D01*
X87231039Y-88117420D01*
X87322160Y-88106469D01*
X87365333Y-88131589D01*
X87388390Y-88209742D01*
X87389209Y-88213815D01*
X87446529Y-88324853D01*
X87554406Y-88391672D01*
X87695504Y-88408763D01*
X87852484Y-88370614D01*
X87865078Y-88365071D01*
X87959335Y-88281865D01*
X87990193Y-88202955D01*
X88009630Y-88127212D01*
X88032649Y-88119494D01*
X88063895Y-88156468D01*
X88135007Y-88205947D01*
X88214156Y-88200609D01*
X88288277Y-88169238D01*
X88313846Y-88137256D01*
X88346703Y-88106482D01*
X88394865Y-88098923D01*
X88459785Y-88080990D01*
X88462956Y-88033599D01*
X88410314Y-87966363D01*
X88307799Y-87888894D01*
X88241183Y-87850125D01*
X88101640Y-87785338D01*
X87960020Y-87745965D01*
X87783686Y-87723895D01*
X87714022Y-87719128D01*
X87550126Y-87711759D01*
X87440247Y-87715914D01*
X87360623Y-87735467D01*
X87287493Y-87774290D01*
X87258769Y-87793328D01*
X87157034Y-87883691D01*
X87113343Y-87986598D01*
X87109585Y-88014514D01*
X87105760Y-88099400D01*
X85845904Y-88099400D01*
X85851997Y-88046843D01*
X85852000Y-88045167D01*
X85819777Y-87916006D01*
X85721392Y-87821859D01*
X85554272Y-87760620D01*
X85488546Y-87748060D01*
X85326812Y-87733615D01*
X85191906Y-87742916D01*
X85100856Y-87773148D01*
X85070461Y-87817191D01*
X85036239Y-87844748D01*
X84946121Y-87886584D01*
X84818932Y-87934064D01*
X84806692Y-87938191D01*
X84664730Y-87987508D01*
X84545684Y-88032177D01*
X84475233Y-88062560D01*
X84475068Y-88062648D01*
X84390232Y-88093758D01*
X84352535Y-88098923D01*
X84245601Y-88121220D01*
X84168860Y-88176239D01*
X84132795Y-88246173D01*
X82818169Y-88246173D01*
X82834330Y-88184827D01*
X82842212Y-88160157D01*
X82879657Y-88069522D01*
X82930761Y-88030049D01*
X83025644Y-88020835D01*
X83043048Y-88020769D01*
X83180916Y-88039729D01*
X83324882Y-88086580D01*
X83351487Y-88099133D01*
X83447547Y-88142372D01*
X83486034Y-88143144D01*
X83484359Y-88123465D01*
X83489785Y-88057367D01*
X83529469Y-87962363D01*
X83542095Y-87940401D01*
X83587927Y-87850301D01*
X83603505Y-87788125D01*
X83601302Y-87780201D01*
X83598065Y-87725486D01*
X83614163Y-87628836D01*
X83620885Y-87601594D01*
X83642051Y-87488907D01*
X83661264Y-87330844D01*
X83674600Y-87160155D01*
X83675265Y-87147543D01*
X83687226Y-86999658D01*
X83704946Y-86883631D01*
X83714212Y-86854390D01*
X88876797Y-86854390D01*
X88882079Y-86909097D01*
X88921037Y-86952082D01*
X89003912Y-86998696D01*
X89045732Y-86992342D01*
X89040950Y-86942958D01*
X89019864Y-86868510D01*
X89017230Y-86845266D01*
X88989217Y-86813205D01*
X88930469Y-86815991D01*
X88878923Y-86851159D01*
X88876797Y-86854390D01*
X83714212Y-86854390D01*
X83725028Y-86820262D01*
X83729520Y-86815390D01*
X83771170Y-86759830D01*
X83792309Y-86682509D01*
X83786110Y-86619241D01*
X83769856Y-86603798D01*
X83749221Y-86565815D01*
X83763453Y-86533540D01*
X83782725Y-86465724D01*
X83795918Y-86348538D01*
X83799679Y-86242840D01*
X83800461Y-86008450D01*
X83920078Y-86008379D01*
X84015947Y-85989184D01*
X84109947Y-85922387D01*
X84174078Y-85854785D01*
X84321099Y-85726370D01*
X84541504Y-85594227D01*
X84660154Y-85535494D01*
X84904490Y-85413792D01*
X85088780Y-85305175D01*
X85227614Y-85199548D01*
X85335583Y-85086814D01*
X85366761Y-85046554D01*
X85437958Y-84939563D01*
X85452516Y-84880257D01*
X85407896Y-84859917D01*
X85314692Y-84867775D01*
X85186834Y-84870822D01*
X85034565Y-84852658D01*
X84972769Y-84839064D01*
X84789386Y-84812475D01*
X84643723Y-84843718D01*
X84530362Y-84923467D01*
X84452903Y-84961776D01*
X84378445Y-84972769D01*
X84299612Y-84996138D01*
X84190940Y-85056222D01*
X84072593Y-85137984D01*
X83964735Y-85226389D01*
X83887530Y-85306403D01*
X83860925Y-85358654D01*
X83834073Y-85394299D01*
X83749810Y-85390515D01*
X83745254Y-85389620D01*
X83630729Y-85391939D01*
X83583563Y-85424534D01*
X83516273Y-85480360D01*
X83417129Y-85538395D01*
X83408409Y-85542613D01*
X83297332Y-85630976D01*
X83193763Y-85778561D01*
X83110303Y-85966601D01*
X83097844Y-86005073D01*
X83068077Y-86057421D01*
X83036716Y-86041811D01*
X83008592Y-85968176D01*
X82988535Y-85846448D01*
X82982956Y-85768809D01*
X82989661Y-85586585D01*
X83020332Y-85382850D01*
X83068916Y-85182645D01*
X83129359Y-85011006D01*
X83194292Y-84894616D01*
X83255598Y-84804729D01*
X83330347Y-84677824D01*
X83378443Y-84587776D01*
X83459788Y-84452136D01*
X83553506Y-84330018D01*
X83608171Y-84275161D01*
X83628470Y-84255371D01*
X85032828Y-84255371D01*
X85046391Y-84330283D01*
X85097673Y-84378894D01*
X85168367Y-84379734D01*
X85206120Y-84349336D01*
X85219186Y-84277186D01*
X85197591Y-84194485D01*
X85154211Y-84133466D01*
X85115029Y-84121340D01*
X85055366Y-84167246D01*
X85032828Y-84255371D01*
X83628470Y-84255371D01*
X83725952Y-84160338D01*
X83876930Y-83987483D01*
X84053770Y-83765388D01*
X84175266Y-83602675D01*
X86498253Y-83602675D01*
X86508055Y-83645306D01*
X86560097Y-83686064D01*
X86621063Y-83703103D01*
X86642473Y-83697247D01*
X86670085Y-83646394D01*
X86672615Y-83622309D01*
X86641997Y-83579778D01*
X86575807Y-83566524D01*
X86512538Y-83586880D01*
X86498253Y-83602675D01*
X84175266Y-83602675D01*
X84226847Y-83533596D01*
X84352339Y-83383177D01*
X84429472Y-83326168D01*
X86171040Y-83326168D01*
X86188648Y-83352601D01*
X86265195Y-83348446D01*
X86268252Y-83347736D01*
X86361589Y-83317719D01*
X86416010Y-83288068D01*
X86438651Y-83244728D01*
X86400955Y-83225087D01*
X86318732Y-83235238D01*
X86296500Y-83241987D01*
X86208336Y-83284260D01*
X86171040Y-83326168D01*
X84429472Y-83326168D01*
X84471691Y-83294964D01*
X84603801Y-83257129D01*
X84674585Y-83253385D01*
X84754852Y-83235221D01*
X84864073Y-83189115D01*
X84945308Y-83145923D01*
X86955727Y-83145923D01*
X87002813Y-83188429D01*
X87066445Y-83207847D01*
X87155098Y-83231860D01*
X87198200Y-83256694D01*
X87280450Y-83290084D01*
X87372929Y-83256110D01*
X87392053Y-83226290D01*
X87349445Y-83190933D01*
X87280234Y-83159016D01*
X87149283Y-83115295D01*
X87040255Y-83098415D01*
X86970268Y-83109067D01*
X86955727Y-83145923D01*
X84945308Y-83145923D01*
X84979686Y-83127645D01*
X85079127Y-83063388D01*
X85139836Y-83008922D01*
X85148615Y-82989132D01*
X85184595Y-82940020D01*
X85282034Y-82885673D01*
X85425177Y-82832956D01*
X85598270Y-82788730D01*
X85617538Y-82784859D01*
X85971878Y-82734546D01*
X86320798Y-82720495D01*
X86650817Y-82741107D01*
G36*
X89017230Y-90189539D02*
G01*
X88997692Y-90209077D01*
X88978154Y-90189539D01*
X88997692Y-90170000D01*
X89017230Y-90189539D01*
G37*
X89017230Y-90189539D02*
X88997692Y-90209077D01*
X88978154Y-90189539D01*
X88997692Y-90170000D01*
X89017230Y-90189539D01*
G36*
X83342387Y-87428035D02*
G01*
X83351610Y-87481155D01*
X83362769Y-87596656D01*
X83375706Y-87659308D01*
X83378910Y-87729418D01*
X83355634Y-87747231D01*
X83310927Y-87740214D01*
X83308035Y-87737462D01*
X83294315Y-87665637D01*
X83290686Y-87565969D01*
X83296505Y-87471851D01*
X83311127Y-87416675D01*
X83314276Y-87413670D01*
X83342387Y-87428035D01*
G37*
X83342387Y-87428035D02*
X83351610Y-87481155D01*
X83362769Y-87596656D01*
X83375706Y-87659308D01*
X83378910Y-87729418D01*
X83355634Y-87747231D01*
X83310927Y-87740214D01*
X83308035Y-87737462D01*
X83294315Y-87665637D01*
X83290686Y-87565969D01*
X83296505Y-87471851D01*
X83311127Y-87416675D01*
X83314276Y-87413670D01*
X83342387Y-87428035D01*
G36*
X83344612Y-86835449D02*
G01*
X83408823Y-86875137D01*
X83406171Y-86925217D01*
X83342986Y-86957842D01*
X83280263Y-86936861D01*
X83257381Y-86903402D01*
X83242092Y-86838651D01*
X83275681Y-86821814D01*
X83344612Y-86835449D01*
G37*
X83344612Y-86835449D02*
X83408823Y-86875137D01*
X83406171Y-86925217D01*
X83342986Y-86957842D01*
X83280263Y-86936861D01*
X83257381Y-86903402D01*
X83242092Y-86838651D01*
X83275681Y-86821814D01*
X83344612Y-86835449D01*
G36*
X83175230Y-86223231D02*
G01*
X83221224Y-86284993D01*
X83232499Y-86347221D01*
X83204393Y-86379188D01*
X83198950Y-86379539D01*
X83156670Y-86348308D01*
X83140334Y-86317727D01*
X83116900Y-86229675D01*
X83133996Y-86200558D01*
X83175230Y-86223231D01*
G37*
X83175230Y-86223231D02*
X83221224Y-86284993D01*
X83232499Y-86347221D01*
X83204393Y-86379188D01*
X83198950Y-86379539D01*
X83156670Y-86348308D01*
X83140334Y-86317727D01*
X83116900Y-86229675D01*
X83133996Y-86200558D01*
X83175230Y-86223231D01*
G36*
X89443513Y-85363539D02*
G01*
X89508511Y-85502481D01*
X89516980Y-85601461D01*
X89469971Y-85673362D01*
X89468821Y-85674323D01*
X89424278Y-85698207D01*
X89412820Y-85654475D01*
X89412822Y-85649800D01*
X89407898Y-85567922D01*
X89395059Y-85448043D01*
X89389152Y-85402616D01*
X89365071Y-85226769D01*
X89443513Y-85363539D01*
G37*
X89443513Y-85363539D02*
X89508511Y-85502481D01*
X89516980Y-85601461D01*
X89469971Y-85673362D01*
X89468821Y-85674323D01*
X89424278Y-85698207D01*
X89412820Y-85654475D01*
X89412822Y-85649800D01*
X89407898Y-85567922D01*
X89395059Y-85448043D01*
X89389152Y-85402616D01*
X89365071Y-85226769D01*
X89443513Y-85363539D01*
G36*
X88967889Y-84186533D02*
G01*
X89060791Y-84278669D01*
X89159245Y-84412059D01*
X89253846Y-84570199D01*
X89335190Y-84736586D01*
X89393871Y-84894718D01*
X89420485Y-85028091D01*
X89418844Y-85080231D01*
X89392444Y-85178937D01*
X89359494Y-85200262D01*
X89325404Y-85144058D01*
X89308823Y-85083240D01*
X89279800Y-84995198D01*
X89224559Y-84860443D01*
X89152705Y-84699397D01*
X89073841Y-84532485D01*
X88997572Y-84380126D01*
X88933501Y-84262745D01*
X88896589Y-84206660D01*
X88875337Y-84161434D01*
X88889945Y-84152154D01*
X88967889Y-84186533D01*
G37*
X88967889Y-84186533D02*
X89060791Y-84278669D01*
X89159245Y-84412059D01*
X89253846Y-84570199D01*
X89335190Y-84736586D01*
X89393871Y-84894718D01*
X89420485Y-85028091D01*
X89418844Y-85080231D01*
X89392444Y-85178937D01*
X89359494Y-85200262D01*
X89325404Y-85144058D01*
X89308823Y-85083240D01*
X89279800Y-84995198D01*
X89224559Y-84860443D01*
X89152705Y-84699397D01*
X89073841Y-84532485D01*
X88997572Y-84380126D01*
X88933501Y-84262745D01*
X88896589Y-84206660D01*
X88875337Y-84161434D01*
X88889945Y-84152154D01*
X88967889Y-84186533D01*
G36*
X85291897Y-88111949D02*
G01*
X85286533Y-88135180D01*
X85265846Y-88138000D01*
X85233681Y-88123702D01*
X85239795Y-88111949D01*
X85286170Y-88107272D01*
X85291897Y-88111949D01*
G37*
X85291897Y-88111949D02*
X85286533Y-88135180D01*
X85265846Y-88138000D01*
X85233681Y-88123702D01*
X85239795Y-88111949D01*
X85286170Y-88107272D01*
X85291897Y-88111949D01*
G36*
X87726556Y-88011429D02*
G01*
X87727692Y-88020769D01*
X87697955Y-88058711D01*
X87688615Y-88059846D01*
X87650674Y-88030110D01*
X87649538Y-88020769D01*
X87679275Y-87982828D01*
X87688615Y-87981692D01*
X87726556Y-88011429D01*
G37*
X87726556Y-88011429D02*
X87727692Y-88020769D01*
X87697955Y-88058711D01*
X87688615Y-88059846D01*
X87650674Y-88030110D01*
X87649538Y-88020769D01*
X87679275Y-87982828D01*
X87688615Y-87981692D01*
X87726556Y-88011429D01*
G36*
X87848368Y-87832233D02*
G01*
X87983948Y-87867117D01*
X88116757Y-87919419D01*
X88228248Y-87985560D01*
X88231193Y-87987815D01*
X88283474Y-88037383D01*
X88269102Y-88052365D01*
X88191299Y-88033178D01*
X88053291Y-87980239D01*
X88001230Y-87958098D01*
X87870039Y-87910724D01*
X87755171Y-87885302D01*
X87698384Y-87885054D01*
X87630830Y-87886978D01*
X87610461Y-87867924D01*
X87643077Y-87829055D01*
X87728562Y-87818352D01*
X87848368Y-87832233D01*
G37*
X87848368Y-87832233D02*
X87983948Y-87867117D01*
X88116757Y-87919419D01*
X88228248Y-87985560D01*
X88231193Y-87987815D01*
X88283474Y-88037383D01*
X88269102Y-88052365D01*
X88191299Y-88033178D01*
X88053291Y-87980239D01*
X88001230Y-87958098D01*
X87870039Y-87910724D01*
X87755171Y-87885302D01*
X87698384Y-87885054D01*
X87630830Y-87886978D01*
X87610461Y-87867924D01*
X87643077Y-87829055D01*
X87728562Y-87818352D01*
X87848368Y-87832233D01*
D12*
%TO.C,U3*%
X93094430Y-31951575D02*
G75*
G03*
X93094430Y-31951575I-283981J0D01*
G01*
D13*
X111450000Y-31650000D02*
X93450000Y-31650000D01*
X93450000Y-25650000D02*
X93450000Y-51150000D01*
X111450000Y-25650000D02*
X111450000Y-51150000D01*
X111450000Y-51150000D02*
X93450000Y-51150000D01*
X111450000Y-25650000D02*
X93450000Y-25650000D01*
D14*
%TO.C,U5*%
X111640000Y-70500000D02*
X111640000Y-72450000D01*
X111640000Y-70500000D02*
X111640000Y-68550000D01*
X121760000Y-70500000D02*
X121760000Y-72450000D01*
X121760000Y-70500000D02*
X121760000Y-67050000D01*
%TO.C,U2*%
X94335000Y-63790000D02*
X94810000Y-63790000D01*
X94810000Y-63790000D02*
X94810000Y-64265000D01*
X91065000Y-68010000D02*
X90590000Y-68010000D01*
X90590000Y-68010000D02*
X90590000Y-67535000D01*
X94335000Y-68010000D02*
X94810000Y-68010000D01*
X94810000Y-68010000D02*
X94810000Y-67535000D01*
X91065000Y-63790000D02*
X90590000Y-63790000D01*
%TO.C,U1*%
X105860000Y-72990000D02*
X104600000Y-72990000D01*
X99040000Y-72990000D02*
X100300000Y-72990000D01*
X105860000Y-76750000D02*
X105860000Y-72990000D01*
X99040000Y-79000000D02*
X99040000Y-72990000D01*
%TO.C,R11*%
X83472936Y-58240000D02*
X84927064Y-58240000D01*
X83472936Y-60060000D02*
X84927064Y-60060000D01*
%TO.C,R10*%
X101722936Y-56490000D02*
X103177064Y-56490000D01*
X101722936Y-58310000D02*
X103177064Y-58310000D01*
%TO.C,R9*%
X120472936Y-48890000D02*
X121927064Y-48890000D01*
X120472936Y-50710000D02*
X121927064Y-50710000D01*
%TO.C,R8*%
X120472936Y-45740000D02*
X121927064Y-45740000D01*
X120472936Y-47560000D02*
X121927064Y-47560000D01*
%TO.C,R7*%
X83528000Y-42451836D02*
X83528000Y-43905964D01*
X85348000Y-42451836D02*
X85348000Y-43905964D01*
%TO.C,R6*%
X125370000Y-54072936D02*
X125370000Y-55527064D01*
X123550000Y-54072936D02*
X123550000Y-55527064D01*
%TO.C,R5*%
X123790000Y-62627064D02*
X123790000Y-61172936D01*
X125610000Y-62627064D02*
X125610000Y-61172936D01*
%TO.C,R4*%
X89860000Y-48732936D02*
X89860000Y-50187064D01*
X88040000Y-48732936D02*
X88040000Y-50187064D01*
%TO.C,R3*%
X111972936Y-58240000D02*
X113427064Y-58240000D01*
X111972936Y-60060000D02*
X113427064Y-60060000D01*
%TO.C,R2*%
X91972936Y-58240000D02*
X93427064Y-58240000D01*
X91972936Y-60060000D02*
X93427064Y-60060000D01*
%TO.C,R1*%
X93427064Y-73310000D02*
X91972936Y-73310000D01*
X93427064Y-71490000D02*
X91972936Y-71490000D01*
%TO.C,Q2*%
X121780000Y-54540000D02*
X120850000Y-54540000D01*
X118620000Y-54540000D02*
X119550000Y-54540000D01*
X118620000Y-54540000D02*
X118620000Y-57700000D01*
X121780000Y-54540000D02*
X121780000Y-56000000D01*
%TO.C,Q1*%
X121780000Y-61040000D02*
X120850000Y-61040000D01*
X118620000Y-61040000D02*
X119550000Y-61040000D01*
X118620000Y-61040000D02*
X118620000Y-64200000D01*
X121780000Y-61040000D02*
X121780000Y-62500000D01*
%TO.C,D5*%
X98850000Y-61350000D02*
X106150000Y-61350000D01*
X98850000Y-66850000D02*
X106150000Y-66850000D01*
X106150000Y-66850000D02*
X106150000Y-65700000D01*
%TO.C,D4*%
X83315000Y-47860000D02*
X83315000Y-51920000D01*
X83315000Y-51920000D02*
X85585000Y-51920000D01*
X85585000Y-51920000D02*
X85585000Y-47860000D01*
%TO.C,D3*%
X111100000Y-56535000D02*
X115160000Y-56535000D01*
X115160000Y-56535000D02*
X115160000Y-54265000D01*
X115160000Y-54265000D02*
X111100000Y-54265000D01*
%TO.C,D2*%
X91100000Y-56535000D02*
X95160000Y-56535000D01*
X95160000Y-56535000D02*
X95160000Y-54265000D01*
X95160000Y-54265000D02*
X91100000Y-54265000D01*
%TO.C,D1*%
X104700000Y-84100000D02*
X104700000Y-82100000D01*
X104700000Y-82100000D02*
X100850000Y-82100000D01*
X104700000Y-84100000D02*
X100850000Y-84100000D01*
%TO.C,C12*%
X116050000Y-81660000D02*
X124285000Y-81660000D01*
X124285000Y-81660000D02*
X124285000Y-77140000D01*
X124285000Y-77140000D02*
X116050000Y-77140000D01*
%TO.C,C11*%
X83488748Y-54240000D02*
X84911252Y-54240000D01*
X83488748Y-56060000D02*
X84911252Y-56060000D01*
%TO.C,C10*%
X89843000Y-43955152D02*
X89843000Y-42532648D01*
X88023000Y-43955152D02*
X88023000Y-42532648D01*
%TO.C,C9*%
X89860000Y-35938748D02*
X89860000Y-37361252D01*
X88040000Y-35938748D02*
X88040000Y-37361252D01*
%TO.C,C8*%
X85360000Y-35938748D02*
X85360000Y-37361252D01*
X83540000Y-35938748D02*
X83540000Y-37361252D01*
%TO.C,C7*%
X111988748Y-61990000D02*
X113411252Y-61990000D01*
X111988748Y-63810000D02*
X113411252Y-63810000D01*
%TO.C,C6*%
X83108748Y-71480000D02*
X84531252Y-71480000D01*
X83108748Y-73300000D02*
X84531252Y-73300000D01*
%TO.C,C5*%
X83108748Y-76560000D02*
X84531252Y-76560000D01*
X83108748Y-78380000D02*
X84531252Y-78380000D01*
%TO.C,C4*%
X86502365Y-65187064D02*
X86502365Y-66609568D01*
X84682365Y-65187064D02*
X84682365Y-66609568D01*
%TO.C,C3*%
X83110000Y-65188748D02*
X83110000Y-66611252D01*
X81290000Y-65188748D02*
X81290000Y-66611252D01*
%TO.C,C2*%
X93540000Y-79861252D02*
X93540000Y-78438748D01*
X95360000Y-79861252D02*
X95360000Y-78438748D01*
%TO.C,C1*%
X111310000Y-78488748D02*
X111310000Y-79911252D01*
X109490000Y-78488748D02*
X109490000Y-79911252D01*
D15*
%TO.C,M1*%
X98480000Y-94680000D02*
X106380000Y-94680000D01*
X98480000Y-89070000D02*
X98480000Y-94650000D01*
X106380000Y-94650000D02*
X106380000Y-89020000D01*
X106380000Y-89010000D02*
X98480000Y-89010000D01*
%TO.C,J1*%
X126900000Y-43300000D02*
X126900000Y-33300000D01*
X118900000Y-43300000D02*
X126900000Y-43300000D01*
X118900000Y-33300000D02*
X118900000Y-43300000D01*
X126900000Y-33300000D02*
X118900000Y-33300000D01*
X125900000Y-34300000D02*
X126900000Y-33300000D01*
X125900000Y-43300000D02*
X125900000Y-34300000D01*
%TO.C,U3*%
D13*
X95502075Y-32022498D02*
X95502075Y-32832022D01*
X95549694Y-32927260D01*
X95597313Y-32974879D01*
X95692551Y-33022498D01*
X95883027Y-33022498D01*
X95978265Y-32974879D01*
X96025884Y-32927260D01*
X96073503Y-32832022D01*
X96073503Y-32022498D01*
X96454456Y-32022498D02*
X97073503Y-32022498D01*
X96740170Y-32403451D01*
X96883027Y-32403451D01*
X96978265Y-32451070D01*
X97025884Y-32498689D01*
X97073503Y-32593927D01*
X97073503Y-32832022D01*
X97025884Y-32927260D01*
X96978265Y-32974879D01*
X96883027Y-33022498D01*
X96597313Y-33022498D01*
X96502075Y-32974879D01*
X96454456Y-32927260D01*
%TO.C,U5*%
X115774523Y-65479493D02*
X115774523Y-66289017D01*
X115822142Y-66384255D01*
X115869761Y-66431874D01*
X115964999Y-66479493D01*
X116155475Y-66479493D01*
X116250713Y-66431874D01*
X116298332Y-66384255D01*
X116345951Y-66289017D01*
X116345951Y-65479493D01*
X117298332Y-65479493D02*
X116822142Y-65479493D01*
X116774523Y-65955684D01*
X116822142Y-65908065D01*
X116917380Y-65860446D01*
X117155475Y-65860446D01*
X117250713Y-65908065D01*
X117298332Y-65955684D01*
X117345951Y-66050922D01*
X117345951Y-66289017D01*
X117298332Y-66384255D01*
X117250713Y-66431874D01*
X117155475Y-66479493D01*
X116917380Y-66479493D01*
X116822142Y-66431874D01*
X116774523Y-66384255D01*
%TO.C,U2*%
X89808474Y-62030936D02*
X89808474Y-62840460D01*
X89856093Y-62935698D01*
X89903712Y-62983317D01*
X89998950Y-63030936D01*
X90189426Y-63030936D01*
X90284664Y-62983317D01*
X90332283Y-62935698D01*
X90379902Y-62840460D01*
X90379902Y-62030936D01*
X90808474Y-62126175D02*
X90856093Y-62078556D01*
X90951331Y-62030936D01*
X91189426Y-62030936D01*
X91284664Y-62078556D01*
X91332283Y-62126175D01*
X91379902Y-62221413D01*
X91379902Y-62316651D01*
X91332283Y-62459508D01*
X90760855Y-63030936D01*
X91379902Y-63030936D01*
%TO.C,U1*%
X104807081Y-71676481D02*
X104807081Y-72486005D01*
X104854700Y-72581243D01*
X104902319Y-72628862D01*
X104997557Y-72676481D01*
X105188033Y-72676481D01*
X105283271Y-72628862D01*
X105330890Y-72581243D01*
X105378509Y-72486005D01*
X105378509Y-71676481D01*
X106378509Y-72676481D02*
X105807081Y-72676481D01*
X106092795Y-72676481D02*
X106092795Y-71676481D01*
X105997557Y-71819339D01*
X105902319Y-71914577D01*
X105807081Y-71962196D01*
%TO.C,R11*%
X83557142Y-57782380D02*
X83223809Y-57306190D01*
X82985714Y-57782380D02*
X82985714Y-56782380D01*
X83366666Y-56782380D01*
X83461904Y-56830000D01*
X83509523Y-56877619D01*
X83557142Y-56972857D01*
X83557142Y-57115714D01*
X83509523Y-57210952D01*
X83461904Y-57258571D01*
X83366666Y-57306190D01*
X82985714Y-57306190D01*
X84509523Y-57782380D02*
X83938095Y-57782380D01*
X84223809Y-57782380D02*
X84223809Y-56782380D01*
X84128571Y-56925238D01*
X84033333Y-57020476D01*
X83938095Y-57068095D01*
X85461904Y-57782380D02*
X84890476Y-57782380D01*
X85176190Y-57782380D02*
X85176190Y-56782380D01*
X85080952Y-56925238D01*
X84985714Y-57020476D01*
X84890476Y-57068095D01*
%TO.C,R10*%
X101807142Y-56032380D02*
X101473809Y-55556190D01*
X101235714Y-56032380D02*
X101235714Y-55032380D01*
X101616666Y-55032380D01*
X101711904Y-55080000D01*
X101759523Y-55127619D01*
X101807142Y-55222857D01*
X101807142Y-55365714D01*
X101759523Y-55460952D01*
X101711904Y-55508571D01*
X101616666Y-55556190D01*
X101235714Y-55556190D01*
X102759523Y-56032380D02*
X102188095Y-56032380D01*
X102473809Y-56032380D02*
X102473809Y-55032380D01*
X102378571Y-55175238D01*
X102283333Y-55270476D01*
X102188095Y-55318095D01*
X103378571Y-55032380D02*
X103473809Y-55032380D01*
X103569047Y-55080000D01*
X103616666Y-55127619D01*
X103664285Y-55222857D01*
X103711904Y-55413333D01*
X103711904Y-55651428D01*
X103664285Y-55841904D01*
X103616666Y-55937142D01*
X103569047Y-55984761D01*
X103473809Y-56032380D01*
X103378571Y-56032380D01*
X103283333Y-55984761D01*
X103235714Y-55937142D01*
X103188095Y-55841904D01*
X103140476Y-55651428D01*
X103140476Y-55413333D01*
X103188095Y-55222857D01*
X103235714Y-55127619D01*
X103283333Y-55080000D01*
X103378571Y-55032380D01*
%TO.C,R9*%
X117563009Y-49097729D02*
X117229676Y-48621539D01*
X116991580Y-49097729D02*
X116991580Y-48097729D01*
X117372533Y-48097729D01*
X117467771Y-48145349D01*
X117515390Y-48192968D01*
X117563009Y-48288206D01*
X117563009Y-48431063D01*
X117515390Y-48526301D01*
X117467771Y-48573920D01*
X117372533Y-48621539D01*
X116991580Y-48621539D01*
X118039199Y-49097729D02*
X118229676Y-49097729D01*
X118324914Y-49050110D01*
X118372533Y-49002491D01*
X118467771Y-48859634D01*
X118515390Y-48669158D01*
X118515390Y-48288206D01*
X118467771Y-48192968D01*
X118420152Y-48145349D01*
X118324914Y-48097729D01*
X118134437Y-48097729D01*
X118039199Y-48145349D01*
X117991580Y-48192968D01*
X117943961Y-48288206D01*
X117943961Y-48526301D01*
X117991580Y-48621539D01*
X118039199Y-48669158D01*
X118134437Y-48716777D01*
X118324914Y-48716777D01*
X118420152Y-48669158D01*
X118467771Y-48621539D01*
X118515390Y-48526301D01*
%TO.C,R8*%
X117563009Y-45218813D02*
X117229676Y-44742623D01*
X116991580Y-45218813D02*
X116991580Y-44218813D01*
X117372533Y-44218813D01*
X117467771Y-44266433D01*
X117515390Y-44314052D01*
X117563009Y-44409290D01*
X117563009Y-44552147D01*
X117515390Y-44647385D01*
X117467771Y-44695004D01*
X117372533Y-44742623D01*
X116991580Y-44742623D01*
X118134437Y-44647385D02*
X118039199Y-44599766D01*
X117991580Y-44552147D01*
X117943961Y-44456909D01*
X117943961Y-44409290D01*
X117991580Y-44314052D01*
X118039199Y-44266433D01*
X118134437Y-44218813D01*
X118324914Y-44218813D01*
X118420152Y-44266433D01*
X118467771Y-44314052D01*
X118515390Y-44409290D01*
X118515390Y-44456909D01*
X118467771Y-44552147D01*
X118420152Y-44599766D01*
X118324914Y-44647385D01*
X118134437Y-44647385D01*
X118039199Y-44695004D01*
X117991580Y-44742623D01*
X117943961Y-44837861D01*
X117943961Y-45028337D01*
X117991580Y-45123575D01*
X118039199Y-45171194D01*
X118134437Y-45218813D01*
X118324914Y-45218813D01*
X118420152Y-45171194D01*
X118467771Y-45123575D01*
X118515390Y-45028337D01*
X118515390Y-44837861D01*
X118467771Y-44742623D01*
X118420152Y-44695004D01*
X118324914Y-44647385D01*
%TO.C,R7*%
X84261501Y-40561696D02*
X83928168Y-40085506D01*
X83690072Y-40561696D02*
X83690072Y-39561696D01*
X84071025Y-39561696D01*
X84166263Y-39609316D01*
X84213882Y-39656935D01*
X84261501Y-39752173D01*
X84261501Y-39895030D01*
X84213882Y-39990268D01*
X84166263Y-40037887D01*
X84071025Y-40085506D01*
X83690072Y-40085506D01*
X84594834Y-39561696D02*
X85261501Y-39561696D01*
X84832929Y-40561696D01*
%TO.C,R6*%
X124372926Y-51982993D02*
X124039593Y-51506803D01*
X123801497Y-51982993D02*
X123801497Y-50982993D01*
X124182450Y-50982993D01*
X124277688Y-51030613D01*
X124325307Y-51078232D01*
X124372926Y-51173470D01*
X124372926Y-51316327D01*
X124325307Y-51411565D01*
X124277688Y-51459184D01*
X124182450Y-51506803D01*
X123801497Y-51506803D01*
X125230069Y-50982993D02*
X125039593Y-50982993D01*
X124944354Y-51030613D01*
X124896735Y-51078232D01*
X124801497Y-51221089D01*
X124753878Y-51411565D01*
X124753878Y-51792517D01*
X124801497Y-51887755D01*
X124849116Y-51935374D01*
X124944354Y-51982993D01*
X125134831Y-51982993D01*
X125230069Y-51935374D01*
X125277688Y-51887755D01*
X125325307Y-51792517D01*
X125325307Y-51554422D01*
X125277688Y-51459184D01*
X125230069Y-51411565D01*
X125134831Y-51363946D01*
X124944354Y-51363946D01*
X124849116Y-51411565D01*
X124801497Y-51459184D01*
X124753878Y-51554422D01*
%TO.C,R5*%
X124556995Y-59161682D02*
X124223662Y-58685492D01*
X123985566Y-59161682D02*
X123985566Y-58161682D01*
X124366519Y-58161682D01*
X124461757Y-58209302D01*
X124509376Y-58256921D01*
X124556995Y-58352159D01*
X124556995Y-58495016D01*
X124509376Y-58590254D01*
X124461757Y-58637873D01*
X124366519Y-58685492D01*
X123985566Y-58685492D01*
X125461757Y-58161682D02*
X124985566Y-58161682D01*
X124937947Y-58637873D01*
X124985566Y-58590254D01*
X125080804Y-58542635D01*
X125318900Y-58542635D01*
X125414138Y-58590254D01*
X125461757Y-58637873D01*
X125509376Y-58733111D01*
X125509376Y-58971206D01*
X125461757Y-59066444D01*
X125414138Y-59114063D01*
X125318900Y-59161682D01*
X125080804Y-59161682D01*
X124985566Y-59114063D01*
X124937947Y-59066444D01*
%TO.C,R4*%
X88722255Y-46832611D02*
X88388922Y-46356421D01*
X88150826Y-46832611D02*
X88150826Y-45832611D01*
X88531779Y-45832611D01*
X88627017Y-45880231D01*
X88674636Y-45927850D01*
X88722255Y-46023088D01*
X88722255Y-46165945D01*
X88674636Y-46261183D01*
X88627017Y-46308802D01*
X88531779Y-46356421D01*
X88150826Y-46356421D01*
X89579398Y-46165945D02*
X89579398Y-46832611D01*
X89341302Y-45784992D02*
X89103207Y-46499278D01*
X89722255Y-46499278D01*
%TO.C,R3*%
X112533333Y-57782380D02*
X112200000Y-57306190D01*
X111961904Y-57782380D02*
X111961904Y-56782380D01*
X112342857Y-56782380D01*
X112438095Y-56830000D01*
X112485714Y-56877619D01*
X112533333Y-56972857D01*
X112533333Y-57115714D01*
X112485714Y-57210952D01*
X112438095Y-57258571D01*
X112342857Y-57306190D01*
X111961904Y-57306190D01*
X112866666Y-56782380D02*
X113485714Y-56782380D01*
X113152380Y-57163333D01*
X113295238Y-57163333D01*
X113390476Y-57210952D01*
X113438095Y-57258571D01*
X113485714Y-57353809D01*
X113485714Y-57591904D01*
X113438095Y-57687142D01*
X113390476Y-57734761D01*
X113295238Y-57782380D01*
X113009523Y-57782380D01*
X112914285Y-57734761D01*
X112866666Y-57687142D01*
%TO.C,R2*%
X92533333Y-57782380D02*
X92200000Y-57306190D01*
X91961904Y-57782380D02*
X91961904Y-56782380D01*
X92342857Y-56782380D01*
X92438095Y-56830000D01*
X92485714Y-56877619D01*
X92533333Y-56972857D01*
X92533333Y-57115714D01*
X92485714Y-57210952D01*
X92438095Y-57258571D01*
X92342857Y-57306190D01*
X91961904Y-57306190D01*
X92914285Y-56877619D02*
X92961904Y-56830000D01*
X93057142Y-56782380D01*
X93295238Y-56782380D01*
X93390476Y-56830000D01*
X93438095Y-56877619D01*
X93485714Y-56972857D01*
X93485714Y-57068095D01*
X93438095Y-57210952D01*
X92866666Y-57782380D01*
X93485714Y-57782380D01*
%TO.C,R1*%
X93813333Y-70989182D02*
X93480000Y-70512992D01*
X93241904Y-70989182D02*
X93241904Y-69989182D01*
X93622857Y-69989182D01*
X93718095Y-70036802D01*
X93765714Y-70084421D01*
X93813333Y-70179659D01*
X93813333Y-70322516D01*
X93765714Y-70417754D01*
X93718095Y-70465373D01*
X93622857Y-70512992D01*
X93241904Y-70512992D01*
X94765714Y-70989182D02*
X94194285Y-70989182D01*
X94480000Y-70989182D02*
X94480000Y-69989182D01*
X94384761Y-70132040D01*
X94289523Y-70227278D01*
X94194285Y-70274897D01*
%TO.C,Q2*%
X121729337Y-54287059D02*
X121634099Y-54239440D01*
X121538861Y-54144201D01*
X121396004Y-54001344D01*
X121300766Y-53953725D01*
X121205528Y-53953725D01*
X121253147Y-54191820D02*
X121157909Y-54144201D01*
X121062671Y-54048963D01*
X121015052Y-53858487D01*
X121015052Y-53525154D01*
X121062671Y-53334678D01*
X121157909Y-53239440D01*
X121253147Y-53191820D01*
X121443623Y-53191820D01*
X121538861Y-53239440D01*
X121634099Y-53334678D01*
X121681718Y-53525154D01*
X121681718Y-53858487D01*
X121634099Y-54048963D01*
X121538861Y-54144201D01*
X121443623Y-54191820D01*
X121253147Y-54191820D01*
X122062671Y-53287059D02*
X122110290Y-53239440D01*
X122205528Y-53191820D01*
X122443623Y-53191820D01*
X122538861Y-53239440D01*
X122586480Y-53287059D01*
X122634099Y-53382297D01*
X122634099Y-53477535D01*
X122586480Y-53620392D01*
X122015052Y-54191820D01*
X122634099Y-54191820D01*
%TO.C,Q1*%
X121821371Y-60545403D02*
X121726133Y-60497784D01*
X121630895Y-60402545D01*
X121488038Y-60259688D01*
X121392800Y-60212069D01*
X121297562Y-60212069D01*
X121345181Y-60450164D02*
X121249943Y-60402545D01*
X121154705Y-60307307D01*
X121107086Y-60116831D01*
X121107086Y-59783498D01*
X121154705Y-59593022D01*
X121249943Y-59497784D01*
X121345181Y-59450164D01*
X121535657Y-59450164D01*
X121630895Y-59497784D01*
X121726133Y-59593022D01*
X121773752Y-59783498D01*
X121773752Y-60116831D01*
X121726133Y-60307307D01*
X121630895Y-60402545D01*
X121535657Y-60450164D01*
X121345181Y-60450164D01*
X122726133Y-60450164D02*
X122154705Y-60450164D01*
X122440419Y-60450164D02*
X122440419Y-59450164D01*
X122345181Y-59593022D01*
X122249943Y-59688260D01*
X122154705Y-59735879D01*
%TO.C,D5*%
X101761904Y-61052380D02*
X101761904Y-60052380D01*
X102000000Y-60052380D01*
X102142857Y-60100000D01*
X102238095Y-60195238D01*
X102285714Y-60290476D01*
X102333333Y-60480952D01*
X102333333Y-60623809D01*
X102285714Y-60814285D01*
X102238095Y-60909523D01*
X102142857Y-61004761D01*
X102000000Y-61052380D01*
X101761904Y-61052380D01*
X103238095Y-60052380D02*
X102761904Y-60052380D01*
X102714285Y-60528571D01*
X102761904Y-60480952D01*
X102857142Y-60433333D01*
X103095238Y-60433333D01*
X103190476Y-60480952D01*
X103238095Y-60528571D01*
X103285714Y-60623809D01*
X103285714Y-60861904D01*
X103238095Y-60957142D01*
X103190476Y-61004761D01*
X103095238Y-61052380D01*
X102857142Y-61052380D01*
X102761904Y-61004761D01*
X102714285Y-60957142D01*
%TO.C,D4*%
X83690072Y-46832611D02*
X83690072Y-45832611D01*
X83928168Y-45832611D01*
X84071025Y-45880231D01*
X84166263Y-45975469D01*
X84213882Y-46070707D01*
X84261501Y-46261183D01*
X84261501Y-46404040D01*
X84213882Y-46594516D01*
X84166263Y-46689754D01*
X84071025Y-46784992D01*
X83928168Y-46832611D01*
X83690072Y-46832611D01*
X85118644Y-46165945D02*
X85118644Y-46832611D01*
X84880548Y-45784992D02*
X84642453Y-46499278D01*
X85261501Y-46499278D01*
%TO.C,D3*%
X111963562Y-54001152D02*
X111963562Y-53001152D01*
X112201658Y-53001152D01*
X112344515Y-53048772D01*
X112439753Y-53144010D01*
X112487372Y-53239248D01*
X112534991Y-53429724D01*
X112534991Y-53572581D01*
X112487372Y-53763057D01*
X112439753Y-53858295D01*
X112344515Y-53953533D01*
X112201658Y-54001152D01*
X111963562Y-54001152D01*
X112868324Y-53001152D02*
X113487372Y-53001152D01*
X113154038Y-53382105D01*
X113296896Y-53382105D01*
X113392134Y-53429724D01*
X113439753Y-53477343D01*
X113487372Y-53572581D01*
X113487372Y-53810676D01*
X113439753Y-53905914D01*
X113392134Y-53953533D01*
X113296896Y-54001152D01*
X113011181Y-54001152D01*
X112915943Y-53953533D01*
X112868324Y-53905914D01*
%TO.C,D2*%
X91984411Y-53924456D02*
X91984411Y-52924456D01*
X92222507Y-52924456D01*
X92365364Y-52972076D01*
X92460602Y-53067314D01*
X92508221Y-53162552D01*
X92555840Y-53353028D01*
X92555840Y-53495885D01*
X92508221Y-53686361D01*
X92460602Y-53781599D01*
X92365364Y-53876837D01*
X92222507Y-53924456D01*
X91984411Y-53924456D01*
X92936792Y-53019695D02*
X92984411Y-52972076D01*
X93079649Y-52924456D01*
X93317745Y-52924456D01*
X93412983Y-52972076D01*
X93460602Y-53019695D01*
X93508221Y-53114933D01*
X93508221Y-53210171D01*
X93460602Y-53353028D01*
X92889173Y-53924456D01*
X93508221Y-53924456D01*
%TO.C,D1*%
X101724727Y-81741877D02*
X101724727Y-80741877D01*
X101962823Y-80741877D01*
X102105680Y-80789497D01*
X102200918Y-80884735D01*
X102248537Y-80979973D01*
X102296156Y-81170449D01*
X102296156Y-81313306D01*
X102248537Y-81503782D01*
X102200918Y-81599020D01*
X102105680Y-81694258D01*
X101962823Y-81741877D01*
X101724727Y-81741877D01*
X103248537Y-81741877D02*
X102677108Y-81741877D01*
X102962823Y-81741877D02*
X102962823Y-80741877D01*
X102867584Y-80884735D01*
X102772346Y-80979973D01*
X102677108Y-81027592D01*
%TO.C,C12*%
X118880856Y-76552995D02*
X118833237Y-76600614D01*
X118690380Y-76648233D01*
X118595142Y-76648233D01*
X118452285Y-76600614D01*
X118357047Y-76505376D01*
X118309428Y-76410138D01*
X118261809Y-76219662D01*
X118261809Y-76076805D01*
X118309428Y-75886329D01*
X118357047Y-75791091D01*
X118452285Y-75695853D01*
X118595142Y-75648233D01*
X118690380Y-75648233D01*
X118833237Y-75695853D01*
X118880856Y-75743472D01*
X119833237Y-76648233D02*
X119261809Y-76648233D01*
X119547523Y-76648233D02*
X119547523Y-75648233D01*
X119452285Y-75791091D01*
X119357047Y-75886329D01*
X119261809Y-75933948D01*
X120214190Y-75743472D02*
X120261809Y-75695853D01*
X120357047Y-75648233D01*
X120595142Y-75648233D01*
X120690380Y-75695853D01*
X120737999Y-75743472D01*
X120785618Y-75838710D01*
X120785618Y-75933948D01*
X120737999Y-76076805D01*
X120166571Y-76648233D01*
X120785618Y-76648233D01*
%TO.C,C11*%
X83557142Y-53657142D02*
X83509523Y-53704761D01*
X83366666Y-53752380D01*
X83271428Y-53752380D01*
X83128571Y-53704761D01*
X83033333Y-53609523D01*
X82985714Y-53514285D01*
X82938095Y-53323809D01*
X82938095Y-53180952D01*
X82985714Y-52990476D01*
X83033333Y-52895238D01*
X83128571Y-52800000D01*
X83271428Y-52752380D01*
X83366666Y-52752380D01*
X83509523Y-52800000D01*
X83557142Y-52847619D01*
X84509523Y-53752380D02*
X83938095Y-53752380D01*
X84223809Y-53752380D02*
X84223809Y-52752380D01*
X84128571Y-52895238D01*
X84033333Y-52990476D01*
X83938095Y-53038095D01*
X85461904Y-53752380D02*
X84890476Y-53752380D01*
X85176190Y-53752380D02*
X85176190Y-52752380D01*
X85080952Y-52895238D01*
X84985714Y-52990476D01*
X84890476Y-53038095D01*
%TO.C,C10*%
X88278388Y-40466458D02*
X88230769Y-40514077D01*
X88087912Y-40561696D01*
X87992674Y-40561696D01*
X87849817Y-40514077D01*
X87754579Y-40418839D01*
X87706960Y-40323601D01*
X87659341Y-40133125D01*
X87659341Y-39990268D01*
X87706960Y-39799792D01*
X87754579Y-39704554D01*
X87849817Y-39609316D01*
X87992674Y-39561696D01*
X88087912Y-39561696D01*
X88230769Y-39609316D01*
X88278388Y-39656935D01*
X89230769Y-40561696D02*
X88659341Y-40561696D01*
X88945055Y-40561696D02*
X88945055Y-39561696D01*
X88849817Y-39704554D01*
X88754579Y-39799792D01*
X88659341Y-39847411D01*
X89849817Y-39561696D02*
X89945055Y-39561696D01*
X90040293Y-39609316D01*
X90087912Y-39656935D01*
X90135531Y-39752173D01*
X90183150Y-39942649D01*
X90183150Y-40180744D01*
X90135531Y-40371220D01*
X90087912Y-40466458D01*
X90040293Y-40514077D01*
X89945055Y-40561696D01*
X89849817Y-40561696D01*
X89754579Y-40514077D01*
X89706960Y-40466458D01*
X89659341Y-40371220D01*
X89611722Y-40180744D01*
X89611722Y-39942649D01*
X89659341Y-39752173D01*
X89706960Y-39656935D01*
X89754579Y-39609316D01*
X89849817Y-39561696D01*
%TO.C,C9*%
X88786903Y-33807652D02*
X88739284Y-33855271D01*
X88596427Y-33902890D01*
X88501189Y-33902890D01*
X88358331Y-33855271D01*
X88263093Y-33760033D01*
X88215474Y-33664795D01*
X88167855Y-33474319D01*
X88167855Y-33331462D01*
X88215474Y-33140986D01*
X88263093Y-33045748D01*
X88358331Y-32950510D01*
X88501189Y-32902890D01*
X88596427Y-32902890D01*
X88739284Y-32950510D01*
X88786903Y-32998129D01*
X89263093Y-33902890D02*
X89453570Y-33902890D01*
X89548808Y-33855271D01*
X89596427Y-33807652D01*
X89691665Y-33664795D01*
X89739284Y-33474319D01*
X89739284Y-33093367D01*
X89691665Y-32998129D01*
X89644046Y-32950510D01*
X89548808Y-32902890D01*
X89358331Y-32902890D01*
X89263093Y-32950510D01*
X89215474Y-32998129D01*
X89167855Y-33093367D01*
X89167855Y-33331462D01*
X89215474Y-33426700D01*
X89263093Y-33474319D01*
X89358331Y-33521938D01*
X89548808Y-33521938D01*
X89644046Y-33474319D01*
X89691665Y-33426700D01*
X89739284Y-33331462D01*
%TO.C,C8*%
X84196852Y-33839976D02*
X84149233Y-33887595D01*
X84006376Y-33935214D01*
X83911138Y-33935214D01*
X83768280Y-33887595D01*
X83673042Y-33792357D01*
X83625423Y-33697119D01*
X83577804Y-33506643D01*
X83577804Y-33363786D01*
X83625423Y-33173310D01*
X83673042Y-33078072D01*
X83768280Y-32982834D01*
X83911138Y-32935214D01*
X84006376Y-32935214D01*
X84149233Y-32982834D01*
X84196852Y-33030453D01*
X84768280Y-33363786D02*
X84673042Y-33316167D01*
X84625423Y-33268548D01*
X84577804Y-33173310D01*
X84577804Y-33125691D01*
X84625423Y-33030453D01*
X84673042Y-32982834D01*
X84768280Y-32935214D01*
X84958757Y-32935214D01*
X85053995Y-32982834D01*
X85101614Y-33030453D01*
X85149233Y-33125691D01*
X85149233Y-33173310D01*
X85101614Y-33268548D01*
X85053995Y-33316167D01*
X84958757Y-33363786D01*
X84768280Y-33363786D01*
X84673042Y-33411405D01*
X84625423Y-33459024D01*
X84577804Y-33554262D01*
X84577804Y-33744738D01*
X84625423Y-33839976D01*
X84673042Y-33887595D01*
X84768280Y-33935214D01*
X84958757Y-33935214D01*
X85053995Y-33887595D01*
X85101614Y-33839976D01*
X85149233Y-33744738D01*
X85149233Y-33554262D01*
X85101614Y-33459024D01*
X85053995Y-33411405D01*
X84958757Y-33363786D01*
%TO.C,C7*%
X112533333Y-61407142D02*
X112485714Y-61454761D01*
X112342857Y-61502380D01*
X112247619Y-61502380D01*
X112104761Y-61454761D01*
X112009523Y-61359523D01*
X111961904Y-61264285D01*
X111914285Y-61073809D01*
X111914285Y-60930952D01*
X111961904Y-60740476D01*
X112009523Y-60645238D01*
X112104761Y-60550000D01*
X112247619Y-60502380D01*
X112342857Y-60502380D01*
X112485714Y-60550000D01*
X112533333Y-60597619D01*
X112866666Y-60502380D02*
X113533333Y-60502380D01*
X113104761Y-61502380D01*
%TO.C,C6*%
X83653333Y-70897142D02*
X83605714Y-70944761D01*
X83462857Y-70992380D01*
X83367619Y-70992380D01*
X83224761Y-70944761D01*
X83129523Y-70849523D01*
X83081904Y-70754285D01*
X83034285Y-70563809D01*
X83034285Y-70420952D01*
X83081904Y-70230476D01*
X83129523Y-70135238D01*
X83224761Y-70040000D01*
X83367619Y-69992380D01*
X83462857Y-69992380D01*
X83605714Y-70040000D01*
X83653333Y-70087619D01*
X84510476Y-69992380D02*
X84320000Y-69992380D01*
X84224761Y-70040000D01*
X84177142Y-70087619D01*
X84081904Y-70230476D01*
X84034285Y-70420952D01*
X84034285Y-70801904D01*
X84081904Y-70897142D01*
X84129523Y-70944761D01*
X84224761Y-70992380D01*
X84415238Y-70992380D01*
X84510476Y-70944761D01*
X84558095Y-70897142D01*
X84605714Y-70801904D01*
X84605714Y-70563809D01*
X84558095Y-70468571D01*
X84510476Y-70420952D01*
X84415238Y-70373333D01*
X84224761Y-70373333D01*
X84129523Y-70420952D01*
X84081904Y-70468571D01*
X84034285Y-70563809D01*
%TO.C,C5*%
X83653333Y-75977142D02*
X83605714Y-76024761D01*
X83462857Y-76072380D01*
X83367619Y-76072380D01*
X83224761Y-76024761D01*
X83129523Y-75929523D01*
X83081904Y-75834285D01*
X83034285Y-75643809D01*
X83034285Y-75500952D01*
X83081904Y-75310476D01*
X83129523Y-75215238D01*
X83224761Y-75120000D01*
X83367619Y-75072380D01*
X83462857Y-75072380D01*
X83605714Y-75120000D01*
X83653333Y-75167619D01*
X84558095Y-75072380D02*
X84081904Y-75072380D01*
X84034285Y-75548571D01*
X84081904Y-75500952D01*
X84177142Y-75453333D01*
X84415238Y-75453333D01*
X84510476Y-75500952D01*
X84558095Y-75548571D01*
X84605714Y-75643809D01*
X84605714Y-75881904D01*
X84558095Y-75977142D01*
X84510476Y-76024761D01*
X84415238Y-76072380D01*
X84177142Y-76072380D01*
X84081904Y-76024761D01*
X84034285Y-75977142D01*
%TO.C,C4*%
X85370835Y-62896025D02*
X85323216Y-62943644D01*
X85180359Y-62991263D01*
X85085121Y-62991263D01*
X84942263Y-62943644D01*
X84847025Y-62848406D01*
X84799406Y-62753168D01*
X84751787Y-62562692D01*
X84751787Y-62419835D01*
X84799406Y-62229359D01*
X84847025Y-62134121D01*
X84942263Y-62038883D01*
X85085121Y-61991263D01*
X85180359Y-61991263D01*
X85323216Y-62038883D01*
X85370835Y-62086502D01*
X86227978Y-62324597D02*
X86227978Y-62991263D01*
X85989882Y-61943644D02*
X85751787Y-62657930D01*
X86370835Y-62657930D01*
%TO.C,C3*%
X82125266Y-63032666D02*
X82077647Y-63080285D01*
X81934790Y-63127904D01*
X81839552Y-63127904D01*
X81696694Y-63080285D01*
X81601456Y-62985047D01*
X81553837Y-62889809D01*
X81506218Y-62699333D01*
X81506218Y-62556476D01*
X81553837Y-62366000D01*
X81601456Y-62270762D01*
X81696694Y-62175524D01*
X81839552Y-62127904D01*
X81934790Y-62127904D01*
X82077647Y-62175524D01*
X82125266Y-62223143D01*
X82458599Y-62127904D02*
X83077647Y-62127904D01*
X82744313Y-62508857D01*
X82887171Y-62508857D01*
X82982409Y-62556476D01*
X83030028Y-62604095D01*
X83077647Y-62699333D01*
X83077647Y-62937428D01*
X83030028Y-63032666D01*
X82982409Y-63080285D01*
X82887171Y-63127904D01*
X82601456Y-63127904D01*
X82506218Y-63080285D01*
X82458599Y-63032666D01*
%TO.C,C2*%
X94281487Y-76147579D02*
X94233868Y-76195198D01*
X94091011Y-76242817D01*
X93995773Y-76242817D01*
X93852915Y-76195198D01*
X93757677Y-76099960D01*
X93710058Y-76004722D01*
X93662439Y-75814246D01*
X93662439Y-75671389D01*
X93710058Y-75480913D01*
X93757677Y-75385675D01*
X93852915Y-75290437D01*
X93995773Y-75242817D01*
X94091011Y-75242817D01*
X94233868Y-75290437D01*
X94281487Y-75338056D01*
X94662439Y-75338056D02*
X94710058Y-75290437D01*
X94805296Y-75242817D01*
X95043392Y-75242817D01*
X95138630Y-75290437D01*
X95186249Y-75338056D01*
X95233868Y-75433294D01*
X95233868Y-75528532D01*
X95186249Y-75671389D01*
X94614820Y-76242817D01*
X95233868Y-76242817D01*
%TO.C,C1*%
X110199617Y-76092822D02*
X110151998Y-76140441D01*
X110009141Y-76188060D01*
X109913903Y-76188060D01*
X109771045Y-76140441D01*
X109675807Y-76045203D01*
X109628188Y-75949965D01*
X109580569Y-75759489D01*
X109580569Y-75616632D01*
X109628188Y-75426156D01*
X109675807Y-75330918D01*
X109771045Y-75235680D01*
X109913903Y-75188060D01*
X110009141Y-75188060D01*
X110151998Y-75235680D01*
X110199617Y-75283299D01*
X111151998Y-76188060D02*
X110580569Y-76188060D01*
X110866284Y-76188060D02*
X110866284Y-75188060D01*
X110771045Y-75330918D01*
X110675807Y-75426156D01*
X110580569Y-75473775D01*
%TO.C,M1*%
X99480476Y-88382380D02*
X99480476Y-87382380D01*
X99813809Y-88096666D01*
X100147142Y-87382380D01*
X100147142Y-88382380D01*
X101147142Y-88382380D02*
X100575714Y-88382380D01*
X100861428Y-88382380D02*
X100861428Y-87382380D01*
X100766190Y-87525238D01*
X100670952Y-87620476D01*
X100575714Y-87668095D01*
%TO.C,J1*%
X122244987Y-31989451D02*
X122244987Y-32703737D01*
X122197368Y-32846594D01*
X122102130Y-32941832D01*
X121959273Y-32989451D01*
X121864035Y-32989451D01*
X123244987Y-32989451D02*
X122673559Y-32989451D01*
X122959273Y-32989451D02*
X122959273Y-31989451D01*
X122864035Y-32132309D01*
X122768797Y-32227547D01*
X122673559Y-32275166D01*
%TD*%
M02*
